<?xml version="1.0" encoding="UTF-8" standalone="no"?>
<svg width="2977.2px" height="4208.4px" viewBox="0 0 2977.2 4208.4"
 xmlns="http://www.w3.org/2000/svg" xmlns:xlink="http://www.w3.org/1999/xlink" version="1.2" baseProfile="tiny">
<title>0-4</title>
<desc>Generated by MuseScore 3.4.2</desc>
<polyline class="StaffLines" fill="none" stroke="#000000" stroke-width="2.00" stroke-linejoin="bevel" points="141.732,566.733 2835.47,566.733"/>
<polyline class="StaffLines" fill="none" stroke="#000000" stroke-width="2.00" stroke-linejoin="bevel" points="141.732,591.733 2835.47,591.733"/>
<polyline class="StaffLines" fill="none" stroke="#000000" stroke-width="2.00" stroke-linejoin="bevel" points="141.732,616.733 2835.47,616.733"/>
<polyline class="StaffLines" fill="none" stroke="#000000" stroke-width="2.00" stroke-linejoin="bevel" points="141.732,641.733 2835.47,641.733"/>
<polyline class="StaffLines" fill="none" stroke="#000000" stroke-width="2.00" stroke-linejoin="bevel" points="141.732,666.733 2835.47,666.733"/>
<path class="Text" d="M876.889,179.107 C884.086,184.451 888.985,188.938 891.584,192.568 C894.183,196.198 895.482,200.326 895.482,204.951 C895.482,211.17 893.344,216.136 889.068,219.849 C884.792,223.563 879.055,225.42 871.857,225.42 C865.055,225.42 859.514,223.56 855.232,219.842 C850.951,216.123 848.81,211.316 848.81,205.42 C848.81,201.357 849.79,197.951 851.748,195.201 C853.706,192.451 857.925,188.644 864.404,183.779 C858.092,178.269 854.034,174.159 852.232,171.451 C850.43,168.743 849.529,165.435 849.529,161.529 C849.529,156.029 851.691,151.461 856.014,147.826 C860.336,144.191 865.774,142.373 872.326,142.373 C878.326,142.373 883.266,143.993 887.146,147.232 C891.027,150.472 892.967,154.597 892.967,159.607 C892.967,163.68 891.766,167.152 889.365,170.021 C886.964,172.891 882.805,175.92 876.889,179.107 M867.529,186.17 C864.008,188.961 861.529,191.753 860.092,194.545 C858.654,197.336 857.935,200.644 857.935,204.467 C857.935,209.654 859.334,213.842 862.131,217.029 C864.928,220.217 868.607,221.81 873.17,221.81 C877.086,221.81 880.266,220.594 882.709,218.162 C885.152,215.73 886.373,212.56 886.373,208.654 C886.373,207.373 886.232,206.175 885.951,205.06 C885.67,203.946 885.389,202.969 885.107,202.131 C884.826,201.292 884.266,200.355 883.428,199.318 C882.589,198.282 881.909,197.464 881.389,196.865 C880.868,196.266 879.928,195.409 878.568,194.295 C877.209,193.18 876.191,192.383 875.514,191.904 C874.836,191.425 873.558,190.508 871.678,189.154 C869.797,187.8 868.415,186.805 867.529,186.17 M873.404,176.951 C873.487,176.878 874.029,176.503 875.029,175.826 C876.029,175.149 876.751,174.61 877.193,174.209 C877.636,173.808 878.316,173.188 879.232,172.349 C880.149,171.511 880.847,170.714 881.326,169.959 C881.805,169.204 882.347,168.287 882.951,167.209 C883.555,166.131 883.995,164.933 884.271,163.615 C884.547,162.297 884.685,160.925 884.685,159.498 C884.685,155.352 883.487,152.063 881.092,149.631 C878.696,147.198 875.456,145.982 871.373,145.982 C867.612,145.982 864.511,147.097 862.068,149.326 C859.626,151.555 858.404,154.383 858.404,157.81 C858.404,161.165 859.566,164.318 861.889,167.271 C864.211,170.224 868.05,173.451 873.404,176.951 M936.889,179.107 C944.086,184.451 948.985,188.938 951.584,192.568 C954.183,196.198 955.482,200.326 955.482,204.951 C955.482,211.17 953.344,216.136 949.068,219.849 C944.792,223.563 939.055,225.42 931.857,225.42 C925.055,225.42 919.514,223.56 915.232,219.842 C910.951,216.123 908.81,211.316 908.81,205.42 C908.81,201.357 909.79,197.951 911.748,195.201 C913.706,192.451 917.925,188.644 924.404,183.779 C918.092,178.269 914.034,174.159 912.232,171.451 C910.43,168.743 909.529,165.435 909.529,161.529 C909.529,156.029 911.691,151.461 916.014,147.826 C920.336,144.191 925.774,142.373 932.326,142.373 C938.326,142.373 943.266,143.993 947.146,147.232 C951.027,150.472 952.967,154.597 952.967,159.607 C952.967,163.68 951.766,167.152 949.365,170.021 C946.964,172.891 942.805,175.92 936.889,179.107 M927.529,186.17 C924.008,188.961 921.529,191.753 920.092,194.545 C918.654,197.336 917.935,200.644 917.935,204.467 C917.935,209.654 919.334,213.842 922.131,217.029 C924.928,220.217 928.607,221.81 933.17,221.81 C937.086,221.81 940.266,220.594 942.709,218.162 C945.152,215.73 946.373,212.56 946.373,208.654 C946.373,207.373 946.232,206.175 945.951,205.06 C945.67,203.946 945.389,202.969 945.107,202.131 C944.826,201.292 944.266,200.355 943.428,199.318 C942.589,198.282 941.909,197.464 941.389,196.865 C940.868,196.266 939.928,195.409 938.568,194.295 C937.209,193.18 936.191,192.383 935.514,191.904 C934.836,191.425 933.558,190.508 931.678,189.154 C929.797,187.8 928.415,186.805 927.529,186.17 M933.404,176.951 C933.487,176.878 934.029,176.503 935.029,175.826 C936.029,175.149 936.751,174.61 937.193,174.209 C937.636,173.808 938.316,173.188 939.232,172.349 C940.149,171.511 940.847,170.714 941.326,169.959 C941.805,169.204 942.347,168.287 942.951,167.209 C943.555,166.131 943.995,164.933 944.271,163.615 C944.547,162.297 944.685,160.925 944.685,159.498 C944.685,155.352 943.487,152.063 941.092,149.631 C938.696,147.198 935.456,145.982 931.373,145.982 C927.612,145.982 924.511,147.097 922.068,149.326 C919.626,151.555 918.404,154.383 918.404,157.81 C918.404,161.165 919.566,164.318 921.889,167.271 C924.211,170.224 928.05,173.451 933.404,176.951 M996.779,192.889 L1026.29,192.889 L1026.29,200.451 L996.779,200.451 L996.779,192.889 M1143.33,154.982 L1112.61,223.732 L1110.94,223.732 L1080.81,157.732 L1080.81,206.092 C1080.81,212.175 1081.53,216.196 1082.97,218.154 C1084.42,220.112 1087.46,221.211 1092.09,221.451 L1092.09,223.732 L1063.89,223.732 L1063.89,221.451 C1068.85,221.128 1072.03,220.027 1073.43,218.146 C1074.83,216.266 1075.53,212.248 1075.53,206.092 L1075.53,157.373 C1075.53,152.977 1074.87,150.159 1073.55,148.92 C1072.23,147.68 1069.1,146.899 1064.14,146.576 L1064.14,144.295 L1087.89,144.295 L1115.61,204.889 L1142.12,144.295 L1166.01,144.295 L1166.01,146.576 C1161.53,146.972 1158.67,147.81 1157.43,149.092 C1156.18,150.373 1155.56,153.133 1155.56,157.373 L1155.56,210.654 C1155.56,214.894 1156.2,217.672 1157.48,218.99 C1158.76,220.308 1161.61,221.128 1166.01,221.451 L1166.01,223.732 L1132.4,223.732 L1132.4,221.451 C1137.12,221.128 1140.12,220.269 1141.4,218.873 C1142.69,217.477 1143.33,214.295 1143.33,209.326 L1143.33,154.982 M1175.53,176.576 C1173.77,176.576 1172.09,176.696 1170.5,176.935 L1170.5,175.139 C1176.09,173.534 1182.29,171.331 1189.09,168.529 L1189.58,168.889 L1189.58,211.498 C1189.58,215.81 1190.08,218.547 1191.08,219.709 C1192.08,220.87 1194.53,221.612 1198.45,221.935 L1198.45,223.732 L1170.01,223.732 L1170.01,221.935 C1174.17,221.696 1176.79,220.974 1177.87,219.771 C1178.96,218.568 1179.5,215.81 1179.5,211.498 L1179.5,183.654 C1179.5,181.019 1179.2,179.18 1178.59,178.139 C1177.99,177.097 1176.97,176.576 1175.53,176.576 M1183.45,141.779 C1185.21,141.779 1186.69,142.378 1187.89,143.576 C1189.09,144.774 1189.69,146.211 1189.69,147.889 C1189.69,149.649 1189.09,151.11 1187.89,152.271 C1186.69,153.433 1185.21,154.014 1183.45,154.014 C1181.77,154.014 1180.35,153.415 1179.19,152.217 C1178.03,151.019 1177.45,149.579 1177.45,147.896 C1177.45,146.214 1178.05,144.774 1179.25,143.576 C1180.45,142.378 1181.85,141.779 1183.45,141.779 M1204.09,198.154 C1204.09,189.279 1206.71,182.123 1211.95,176.685 C1217.19,171.248 1223.33,168.529 1230.37,168.529 C1235.41,168.529 1239.76,169.751 1243.4,172.193 C1247.04,174.636 1248.86,177.534 1248.86,180.889 C1248.86,182.253 1248.29,183.435 1247.17,184.435 C1246.04,185.435 1244.69,185.935 1243.09,185.935 C1240.37,185.935 1238.49,184.112 1237.45,180.467 L1236.73,177.842 C1236.09,175.623 1235.28,174.118 1234.33,173.326 C1233.37,172.534 1231.81,172.139 1229.65,172.139 C1224.77,172.139 1220.83,174.068 1217.83,177.928 C1214.83,181.787 1213.33,186.779 1213.33,192.904 C1213.33,199.748 1215.07,205.336 1218.54,209.67 C1222.02,214.003 1226.49,216.17 1231.94,216.17 C1235.37,216.17 1238.33,215.334 1240.81,213.662 C1243.29,211.99 1245.97,209.086 1248.86,204.951 L1250.53,206.029 C1249.73,207.633 1249.03,208.956 1248.43,209.998 C1247.83,211.04 1246.75,212.605 1245.19,214.693 C1243.64,216.782 1242.1,218.469 1240.58,219.756 C1239.06,221.042 1237.06,222.227 1234.58,223.31 C1232.1,224.394 1229.53,224.935 1226.89,224.935 C1220.25,224.935 1214.79,222.433 1210.51,217.428 C1206.23,212.422 1204.09,205.998 1204.09,198.154 M1273.04,182.576 L1273.04,211.498 C1273.04,215.654 1273.53,218.331 1274.49,219.529 C1275.45,220.727 1277.7,221.529 1281.22,221.935 L1281.22,223.732 L1255.29,223.732 L1255.29,221.935 C1258.73,221.456 1260.87,220.657 1261.71,219.537 C1262.55,218.417 1262.97,215.737 1262.97,211.498 L1262.97,154.982 C1262.97,152.42 1262.63,150.737 1261.95,149.935 C1261.27,149.133 1259.77,148.732 1257.45,148.732 C1256.89,148.732 1256.21,148.816 1255.4,148.982 L1255.4,147.06 C1261.09,145.54 1266.77,143.779 1272.45,141.779 L1273.04,142.139 L1273.04,178.607 C1275.77,175.014 1278.52,172.435 1281.27,170.873 C1284.03,169.31 1287.16,168.529 1290.69,168.529 C1300.53,168.529 1305.45,174.889 1305.45,187.607 L1305.45,211.498 C1305.45,215.654 1305.83,218.271 1306.59,219.349 C1307.35,220.428 1309.37,221.29 1312.65,221.935 L1312.65,223.732 L1287.22,223.732 L1287.22,221.935 C1290.65,221.612 1292.87,220.81 1293.87,219.529 C1294.87,218.248 1295.37,215.571 1295.37,211.498 L1295.37,187.732 C1295.37,179.253 1292.37,175.014 1286.37,175.014 C1284.05,175.014 1281.87,175.594 1279.83,176.756 C1277.78,177.917 1275.52,179.857 1273.04,182.576 M1317.09,211.889 C1317.09,210.451 1317.25,209.115 1317.57,207.881 C1317.89,206.646 1318.45,205.493 1319.25,204.42 C1320.05,203.347 1320.81,202.373 1321.53,201.498 C1322.25,200.623 1323.33,199.727 1324.77,198.81 C1326.21,197.894 1327.41,197.139 1328.37,196.545 C1329.33,195.951 1330.79,195.235 1332.75,194.396 C1334.71,193.558 1336.21,192.92 1337.25,192.482 C1338.29,192.045 1339.93,191.389 1342.17,190.514 C1344.41,189.639 1346.05,189.003 1347.09,188.607 L1347.09,181.326 C1347.09,174.722 1344.05,171.42 1337.97,171.42 C1335.57,171.42 1333.53,171.998 1331.85,173.154 C1330.17,174.31 1329.33,175.691 1329.33,177.295 C1329.33,177.93 1329.43,178.808 1329.63,179.928 C1329.83,181.047 1329.94,181.769 1329.94,182.092 C1329.94,183.456 1329.39,184.639 1328.31,185.639 C1327.23,186.639 1325.97,187.139 1324.53,187.139 C1323.17,187.139 1321.98,186.618 1320.94,185.576 C1319.89,184.534 1319.37,183.331 1319.37,181.967 C1319.37,178.217 1321.31,175.04 1325.19,172.435 C1329.07,169.831 1333.85,168.529 1339.53,168.529 C1346.09,168.529 1350.61,170.102 1353.09,173.248 C1355.57,176.394 1356.81,181.196 1356.81,187.654 L1356.81,210.935 C1356.81,213.56 1357.07,215.37 1357.59,216.365 C1358.11,217.36 1359.05,217.857 1360.4,217.857 C1362.09,217.857 1363.85,217.102 1365.69,215.592 L1365.69,218.732 C1363.61,221.128 1361.79,222.761 1360.23,223.631 C1358.67,224.501 1356.89,224.935 1354.89,224.935 C1352.41,224.935 1350.59,224.237 1349.43,222.842 C1348.27,221.446 1347.53,219.144 1347.22,215.935 C1340.33,221.935 1334.49,224.935 1329.69,224.935 C1326.01,224.935 1322.99,223.714 1320.63,221.271 C1318.27,218.829 1317.09,215.701 1317.09,211.889 M1347.09,208.779 L1347.09,191.467 C1339.89,194.092 1334.85,196.639 1331.97,199.107 C1329.09,201.576 1327.65,204.56 1327.65,208.06 C1327.65,211.321 1328.45,213.748 1330.05,215.342 C1331.65,216.935 1333.37,217.732 1335.22,217.732 C1337.94,217.732 1340.85,216.816 1343.97,214.982 C1345.25,214.274 1346.09,213.521 1346.49,212.724 C1346.89,211.928 1347.09,210.612 1347.09,208.779 M1377.73,190.498 C1377.89,195.54 1378.57,199.878 1379.77,203.514 C1380.97,207.149 1382.53,209.868 1384.45,211.67 C1386.37,213.472 1388.31,214.753 1390.27,215.514 C1392.23,216.274 1394.29,216.654 1396.45,216.654 C1400.29,216.654 1403.64,215.693 1406.47,213.771 C1409.31,211.849 1412.17,208.612 1415.04,204.06 L1416.97,204.889 C1414.49,211.368 1411.05,216.329 1406.65,219.771 C1402.25,223.214 1397.21,224.935 1391.53,224.935 C1384.65,224.935 1379.2,222.516 1375.15,217.678 C1371.11,212.839 1369.09,206.3 1369.09,198.06 C1369.09,189.175 1371.43,182.032 1376.12,176.631 C1380.8,171.23 1386.82,168.529 1394.17,168.529 C1400.25,168.529 1404.97,170.349 1408.33,173.99 C1411.69,177.631 1413.81,183.133 1414.69,190.498 L1377.73,190.498 M1377.97,186.889 L1402.45,186.889 C1401.65,181.691 1400.41,178.092 1398.73,176.092 C1397.06,174.092 1394.37,173.092 1390.69,173.092 C1383.49,173.092 1379.25,177.691 1377.97,186.889 M1420.29,148.982 L1420.29,147.06 C1428.21,145.133 1434.57,143.373 1439.37,141.779 L1439.86,142.014 L1439.86,213.654 C1439.86,216.935 1440.4,219.076 1441.47,220.076 C1442.55,221.076 1445.01,221.696 1448.86,221.935 L1448.86,223.732 L1420.53,223.732 L1420.53,221.935 C1424.29,221.612 1426.77,220.891 1427.97,219.771 C1429.16,218.652 1429.76,216.493 1429.76,213.295 L1429.76,156.06 C1429.76,153.258 1429.4,151.336 1428.69,150.295 C1427.97,149.253 1426.65,148.732 1424.73,148.732 C1423.13,148.732 1421.65,148.816 1420.29,148.982 M1515.01,144.295 C1518.45,144.295 1521.73,144.576 1524.85,145.139 C1527.97,145.701 1531.19,146.683 1534.51,148.084 C1537.82,149.485 1540.48,151.67 1542.48,154.639 C1544.48,157.607 1545.48,161.222 1545.48,165.482 C1545.48,176.086 1538.45,182.701 1524.37,185.326 C1524.13,185.409 1523.93,185.451 1523.76,185.451 L1548.48,215.81 C1550.17,217.81 1551.75,219.211 1553.23,220.014 C1554.71,220.816 1556.61,221.295 1558.94,221.451 L1558.94,223.732 L1539.61,223.732 L1511.04,186.779 L1504.33,187.014 L1504.33,210.654 C1504.33,214.977 1504.97,217.777 1506.25,219.053 C1507.53,220.329 1510.49,221.128 1515.12,221.451 L1515.12,223.732 L1481.89,223.732 L1481.89,221.451 C1486.37,221.128 1489.19,220.269 1490.35,218.873 C1491.51,217.477 1492.09,214.295 1492.09,209.326 L1492.09,157.373 C1492.09,153.133 1491.51,150.394 1490.35,149.154 C1489.19,147.915 1486.37,147.055 1481.89,146.576 L1481.89,144.295 L1515.01,144.295 M1504.33,182.576 C1514.01,182.42 1521.12,181.144 1525.63,178.748 C1530.15,176.352 1532.4,171.847 1532.4,165.232 C1532.4,159.659 1530.63,155.537 1527.07,152.865 C1523.51,150.193 1517.97,148.857 1510.45,148.857 C1508.06,148.857 1506.44,149.157 1505.59,149.756 C1504.75,150.355 1504.33,151.487 1504.33,153.154 L1504.33,182.576 M1589.61,168.529 C1597.28,168.529 1603.6,171.092 1608.57,176.217 C1613.53,181.342 1616.01,187.826 1616.01,195.67 C1616.01,203.982 1613.45,210.938 1608.33,216.537 C1603.21,222.136 1596.89,224.935 1589.37,224.935 C1581.85,224.935 1575.59,222.235 1570.59,216.834 C1565.59,211.433 1563.09,204.696 1563.09,196.623 C1563.09,188.383 1565.55,181.641 1570.47,176.396 C1575.4,171.152 1581.77,168.529 1589.61,168.529 M1573.89,190.795 C1573.89,199.274 1575.45,206.482 1578.57,212.42 C1581.69,218.357 1585.77,221.326 1590.81,221.326 C1595.29,221.326 1598.81,219.425 1601.37,215.623 C1603.94,211.821 1605.22,206.555 1605.22,199.826 C1605.22,191.659 1603.62,185.003 1600.41,179.857 C1597.21,174.711 1593.09,172.139 1588.04,172.139 C1583.81,172.139 1580.39,173.842 1577.79,177.248 C1575.19,180.654 1573.89,185.17 1573.89,190.795 M1659.29,186.529 C1657.13,180.133 1655.47,176.115 1654.31,174.474 C1653.15,172.834 1651.25,171.852 1648.61,171.529 L1648.61,169.732 L1672.97,169.732 L1672.97,171.529 C1670.16,171.935 1668.31,172.417 1667.39,172.974 C1666.47,173.532 1666.01,174.493 1666.01,175.857 C1666.01,176.899 1666.69,179.258 1668.04,182.935 L1678.12,209.81 L1688.94,183.17 C1690.29,179.816 1690.97,177.175 1690.97,175.248 C1690.97,174.217 1690.61,173.441 1689.89,172.92 C1689.17,172.399 1687.77,171.935 1685.69,171.529 L1685.69,169.732 L1700.45,169.732 L1700.45,171.529 C1699.25,171.935 1698.39,172.498 1697.87,173.217 C1697.35,173.935 1696.57,175.534 1695.53,178.014 L1678.97,219.529 C1677.37,223.456 1676.26,225.42 1675.62,225.42 C1674.97,225.42 1674.01,223.696 1672.73,220.248 L1661.81,191.935 L1648.37,220.732 C1646.94,223.857 1645.94,225.42 1645.37,225.42 C1644.73,225.42 1643.69,223.659 1642.25,220.139 L1626.04,179.092 C1624.85,176.05 1623.85,174.071 1623.05,173.154 C1622.26,172.237 1621.13,171.696 1619.69,171.529 L1619.69,169.732 L1641.29,169.732 L1641.29,171.529 C1639.21,171.769 1637.77,172.17 1636.97,172.732 C1636.16,173.295 1635.76,174.217 1635.76,175.498 C1635.76,176.696 1636.01,177.894 1636.5,179.092 L1648.37,210.42 L1659.29,186.529 M1762.17,169.732 L1762.17,173.342 L1750.04,173.342 L1750.04,207.654 C1750.04,211.415 1750.53,214.154 1751.49,215.873 C1752.45,217.592 1754.06,218.451 1756.29,218.451 C1758.77,218.451 1761.17,217.05 1763.5,214.248 L1765.04,215.576 C1761.21,221.816 1756.41,224.935 1750.65,224.935 C1743.53,224.935 1739.97,219.831 1739.97,209.623 L1739.97,173.342 L1733.61,173.342 C1733.29,173.112 1733.14,172.847 1733.14,172.545 C1733.14,172.17 1733.26,171.87 1733.5,171.646 C1733.74,171.422 1734.2,171.105 1734.87,170.693 C1735.55,170.282 1736.37,169.691 1737.33,168.92 C1738.3,168.149 1739.62,166.751 1741.29,164.724 C1742.97,162.698 1744.81,160.264 1746.81,157.42 C1748.09,155.555 1748.89,154.42 1749.22,154.014 C1749.77,154.014 1750.04,154.54 1750.04,155.592 L1750.04,169.732 L1762.17,169.732 M1784.04,182.576 L1784.04,211.498 C1784.04,215.654 1784.53,218.331 1785.49,219.529 C1786.45,220.727 1788.7,221.529 1792.22,221.935 L1792.22,223.732 L1766.29,223.732 L1766.29,221.935 C1769.73,221.456 1771.87,220.657 1772.71,219.537 C1773.55,218.417 1773.97,215.737 1773.97,211.498 L1773.97,154.982 C1773.97,152.42 1773.63,150.737 1772.95,149.935 C1772.27,149.133 1770.77,148.732 1768.45,148.732 C1767.89,148.732 1767.21,148.816 1766.4,148.982 L1766.4,147.06 C1772.09,145.54 1777.77,143.779 1783.45,141.779 L1784.04,142.139 L1784.04,178.607 C1786.77,175.014 1789.52,172.435 1792.27,170.873 C1795.03,169.31 1798.16,168.529 1801.69,168.529 C1811.53,168.529 1816.45,174.889 1816.45,187.607 L1816.45,211.498 C1816.45,215.654 1816.83,218.271 1817.59,219.349 C1818.35,220.428 1820.37,221.29 1823.65,221.935 L1823.65,223.732 L1798.22,223.732 L1798.22,221.935 C1801.65,221.612 1803.87,220.81 1804.87,219.529 C1805.87,218.248 1806.37,215.571 1806.37,211.498 L1806.37,187.732 C1806.37,179.253 1803.37,175.014 1797.37,175.014 C1795.05,175.014 1792.87,175.594 1790.83,176.756 C1788.78,177.917 1786.52,179.857 1784.04,182.576 M1836.73,190.498 C1836.89,195.54 1837.57,199.878 1838.77,203.514 C1839.97,207.149 1841.53,209.868 1843.45,211.67 C1845.37,213.472 1847.31,214.753 1849.27,215.514 C1851.23,216.274 1853.29,216.654 1855.45,216.654 C1859.29,216.654 1862.64,215.693 1865.47,213.771 C1868.31,211.849 1871.17,208.612 1874.04,204.06 L1875.97,204.889 C1873.49,211.368 1870.05,216.329 1865.65,219.771 C1861.25,223.214 1856.21,224.935 1850.53,224.935 C1843.65,224.935 1838.2,222.516 1834.15,217.678 C1830.11,212.839 1828.09,206.3 1828.09,198.06 C1828.09,189.175 1830.43,182.032 1835.12,176.631 C1839.8,171.23 1845.82,168.529 1853.17,168.529 C1859.25,168.529 1863.97,170.349 1867.33,173.99 C1870.69,177.631 1872.81,183.133 1873.69,190.498 L1836.73,190.498 M1836.97,186.889 L1861.45,186.889 C1860.65,181.691 1859.41,178.092 1857.73,176.092 C1856.06,174.092 1853.37,173.092 1849.69,173.092 C1842.49,173.092 1838.25,177.691 1836.97,186.889 M1979.01,202.076 C1979.01,204.482 1978.57,206.849 1977.69,209.178 C1976.81,211.506 1975.35,213.81 1973.31,216.092 C1971.27,218.373 1968.25,220.217 1964.25,221.623 C1960.25,223.029 1955.49,223.732 1949.97,223.732 L1909.89,223.732 L1909.89,221.451 C1914.85,221.295 1918.01,220.576 1919.37,219.295 C1920.72,218.014 1921.4,215.133 1921.4,210.654 L1921.4,157.404 C1921.4,152.998 1920.75,150.175 1919.43,148.935 C1918.11,147.696 1914.93,146.909 1909.89,146.576 L1909.89,144.295 L1943.5,144.295 C1964.46,144.295 1974.94,151.154 1974.94,164.873 C1974.94,167.508 1974.45,169.847 1973.49,171.889 C1972.53,173.93 1971.54,175.49 1970.54,176.568 C1969.54,177.646 1968.01,178.665 1965.93,179.623 C1963.85,180.581 1962.53,181.12 1961.97,181.24 C1961.4,181.36 1960.24,181.649 1958.48,182.107 C1960.33,182.576 1961.71,182.93 1962.63,183.17 C1963.55,183.409 1965.23,184.084 1967.67,185.193 C1970.11,186.303 1972.01,187.493 1973.37,188.764 C1974.72,190.034 1976.01,191.836 1977.21,194.17 C1978.41,196.503 1979.01,199.139 1979.01,202.076 M1941.22,219.17 C1944.81,219.17 1947.93,218.93 1950.57,218.451 C1953.21,217.972 1955.69,217.154 1958.01,215.998 C1960.32,214.842 1962.1,213.11 1963.35,210.803 C1964.59,208.495 1965.22,205.623 1965.22,202.185 C1965.22,198.925 1964.59,196.157 1963.35,193.881 C1962.1,191.605 1960.6,189.87 1958.85,188.678 C1957.09,187.485 1954.66,186.568 1951.54,185.928 C1948.42,185.287 1945.66,184.907 1943.26,184.787 C1940.85,184.667 1937.65,184.607 1933.65,184.607 L1933.65,214.264 C1933.65,216.18 1934.17,217.477 1935.21,218.154 C1936.25,218.831 1938.25,219.17 1941.22,219.17 M1933.65,180.06 L1945.04,180.06 C1950.65,180.06 1954.99,178.795 1958.07,176.264 C1961.15,173.732 1962.69,170.097 1962.69,165.357 C1962.69,159.972 1960.89,155.876 1957.29,153.068 C1953.69,150.261 1948.45,148.857 1941.58,148.857 L1936.29,148.857 C1934.53,148.857 1933.65,150.06 1933.65,152.467 L1933.65,180.06 M2013.61,168.529 C2021.28,168.529 2027.6,171.092 2032.57,176.217 C2037.53,181.342 2040.01,187.826 2040.01,195.67 C2040.01,203.982 2037.45,210.938 2032.33,216.537 C2027.21,222.136 2020.89,224.935 2013.37,224.935 C2005.85,224.935 1999.59,222.235 1994.59,216.834 C1989.59,211.433 1987.09,204.696 1987.09,196.623 C1987.09,188.383 1989.55,181.641 1994.47,176.396 C1999.4,171.152 2005.77,168.529 2013.61,168.529 M1997.89,190.795 C1997.89,199.274 1999.45,206.482 2002.57,212.42 C2005.69,218.357 2009.77,221.326 2014.81,221.326 C2019.29,221.326 2022.81,219.425 2025.37,215.623 C2027.94,211.821 2029.22,206.555 2029.22,199.826 C2029.22,191.659 2027.62,185.003 2024.41,179.857 C2021.21,174.711 2017.09,172.139 2012.04,172.139 C2007.81,172.139 2004.39,173.842 2001.79,177.248 C1999.19,180.654 1997.89,185.17 1997.89,190.795 M2046.09,211.889 C2046.09,210.451 2046.25,209.115 2046.57,207.881 C2046.89,206.646 2047.45,205.493 2048.25,204.42 C2049.05,203.347 2049.81,202.373 2050.53,201.498 C2051.25,200.623 2052.33,199.727 2053.77,198.81 C2055.21,197.894 2056.41,197.139 2057.37,196.545 C2058.33,195.951 2059.79,195.235 2061.75,194.396 C2063.71,193.558 2065.21,192.92 2066.25,192.482 C2067.29,192.045 2068.93,191.389 2071.17,190.514 C2073.41,189.639 2075.05,189.003 2076.09,188.607 L2076.09,181.326 C2076.09,174.722 2073.05,171.42 2066.97,171.42 C2064.57,171.42 2062.53,171.998 2060.85,173.154 C2059.17,174.31 2058.33,175.691 2058.33,177.295 C2058.33,177.93 2058.43,178.808 2058.63,179.928 C2058.83,181.047 2058.94,181.769 2058.94,182.092 C2058.94,183.456 2058.39,184.639 2057.31,185.639 C2056.23,186.639 2054.97,187.139 2053.53,187.139 C2052.17,187.139 2050.98,186.618 2049.94,185.576 C2048.89,184.534 2048.37,183.331 2048.37,181.967 C2048.37,178.217 2050.31,175.04 2054.19,172.435 C2058.07,169.831 2062.85,168.529 2068.53,168.529 C2075.09,168.529 2079.61,170.102 2082.09,173.248 C2084.57,176.394 2085.81,181.196 2085.81,187.654 L2085.81,210.935 C2085.81,213.56 2086.07,215.37 2086.59,216.365 C2087.11,217.36 2088.05,217.857 2089.4,217.857 C2091.09,217.857 2092.85,217.102 2094.69,215.592 L2094.69,218.732 C2092.61,221.128 2090.79,222.761 2089.23,223.631 C2087.67,224.501 2085.89,224.935 2083.89,224.935 C2081.41,224.935 2079.59,224.237 2078.43,222.842 C2077.27,221.446 2076.53,219.144 2076.22,215.935 C2069.33,221.935 2063.49,224.935 2058.69,224.935 C2055.01,224.935 2051.99,223.714 2049.63,221.271 C2047.27,218.829 2046.09,215.701 2046.09,211.889 M2076.09,208.779 L2076.09,191.467 C2068.89,194.092 2063.85,196.639 2060.97,199.107 C2058.09,201.576 2056.65,204.56 2056.65,208.06 C2056.65,211.321 2057.45,213.748 2059.05,215.342 C2060.65,216.935 2062.37,217.732 2064.22,217.732 C2066.94,217.732 2069.85,216.816 2072.97,214.982 C2074.25,214.274 2075.09,213.521 2075.49,212.724 C2075.89,211.928 2076.09,210.612 2076.09,208.779 M2126.17,169.732 L2126.17,173.342 L2114.04,173.342 L2114.04,207.654 C2114.04,211.415 2114.53,214.154 2115.49,215.873 C2116.45,217.592 2118.06,218.451 2120.29,218.451 C2122.77,218.451 2125.17,217.05 2127.5,214.248 L2129.04,215.576 C2125.21,221.816 2120.41,224.935 2114.65,224.935 C2107.53,224.935 2103.97,219.831 2103.97,209.623 L2103.97,173.342 L2097.61,173.342 C2097.29,173.112 2097.14,172.847 2097.14,172.545 C2097.14,172.17 2097.26,171.87 2097.5,171.646 C2097.74,171.422 2098.2,171.105 2098.87,170.693 C2099.55,170.282 2100.37,169.691 2101.33,168.92 C2102.3,168.149 2103.62,166.751 2105.29,164.724 C2106.97,162.698 2108.81,160.264 2110.81,157.42 C2112.09,155.555 2112.89,154.42 2113.22,154.014 C2113.77,154.014 2114.04,154.54 2114.04,155.592 L2114.04,169.732 L2126.17,169.732 "/>
<path class="TieSegment" stroke="#000000" stroke-width="1.75" stroke-linecap="round" stroke-linejoin="round" fill-rule="evenodd" d="M1233.88,535.483 C1257.84,515.274 1329.71,515.274 1353.67,535.483 C1329.71,519.274 1257.84,519.274 1233.88,535.483"/>
<path class="TieSegment" stroke="#000000" stroke-width="1.75" stroke-linecap="round" stroke-linejoin="round" fill-rule="evenodd" d="M1233.88,535.483 C1257.84,515.274 1329.71,515.274 1353.67,535.483 C1329.71,519.274 1257.84,519.274 1233.88,535.483"/>
<polyline class="BarLine" stroke="#000000" stroke-width="4.00" stroke-linejoin="bevel" points="621.205,565.733 621.205,667.733"/>
<polyline class="BarLine" stroke="#000000" stroke-width="4.00" stroke-linejoin="bevel" points="635.206,565.733 635.206,667.733"/>
<polyline class="BarLine" stroke="#000000" stroke-width="4.00" stroke-linejoin="bevel" points="1313.61,565.733 1313.61,667.733"/>
<polyline class="BarLine" stroke="#000000" stroke-width="4.00" stroke-linejoin="bevel" points="1854.02,565.733 1854.02,667.733"/>
<polyline class="BarLine" stroke="#000000" stroke-width="4.00" stroke-linejoin="bevel" points="2335.64,565.733 2335.64,667.733"/>
<polyline class="BarLine" stroke="#000000" stroke-width="4.00" stroke-linejoin="bevel" points="2833.47,565.733 2833.47,667.733"/>
<polyline class="LedgerLine" stroke="#000000" stroke-width="4.00" stroke-linecap="square" stroke-linejoin="bevel" points="1105.85,541.733 1153.77,541.733"/>
<polyline class="LedgerLine" stroke="#000000" stroke-width="4.00" stroke-linecap="square" stroke-linejoin="bevel" points="1883.02,541.733 1947.54,541.733"/>
<polyline class="Stem" stroke="#000000" stroke-width="3.25" stroke-linecap="round" stroke-linejoin="bevel" points="341.529,608.928 341.529,685.483"/>
<polyline class="Stem" stroke="#000000" stroke-width="3.25" stroke-linecap="round" stroke-linejoin="bevel" points="481.18,583.928 481.18,666.733"/>
<polyline class="Stem" stroke="#000000" stroke-width="3.25" stroke-linecap="round" stroke-linejoin="bevel" points="663.831,558.928 663.831,641.733"/>
<polyline class="Stem" stroke="#000000" stroke-width="3.25" stroke-linecap="round" stroke-linejoin="bevel" points="857.234,583.928 857.234,666.733"/>
<polyline class="Stem" stroke="#000000" stroke-width="3.25" stroke-linecap="round" stroke-linejoin="bevel" points="956.366,558.928 956.366,641.733"/>
<polyline class="Stem" stroke="#000000" stroke-width="3.25" stroke-linecap="round" stroke-linejoin="bevel" points="1114.98,546.428 1114.98,616.733"/>
<polyline class="Stem" stroke="#000000" stroke-width="3.25" stroke-linecap="round" stroke-linejoin="bevel" points="1214.11,558.928 1214.11,622.983"/>
<polyline class="Stem" stroke="#000000" stroke-width="3.25" stroke-linecap="round" stroke-linejoin="bevel" points="1343.14,558.153 1343.14,641.733"/>
<polyline class="Stem" stroke="#000000" stroke-width="3.25" stroke-linecap="round" stroke-linejoin="bevel" points="1570.53,583.928 1570.53,666.733"/>
<polyline class="Stem" stroke="#000000" stroke-width="3.25" stroke-linecap="round" stroke-linejoin="bevel" points="1712.09,558.928 1712.09,641.733"/>
<polyline class="Stem" stroke="#000000" stroke-width="3.25" stroke-linecap="round" stroke-linejoin="bevel" points="2365.16,558.153 2365.16,641.733"/>
<path class="Note" d="M361.873,590.467 C364.998,590.467 367.639,591.279 369.795,592.904 C371.805,594.665 372.811,596.878 372.811,599.545 C372.811,604.035 370.503,608.233 365.889,612.139 C361.201,616.045 356.186,617.998 350.842,617.998 C347.717,617.998 345.081,617.186 342.936,615.561 C340.915,613.8 339.904,611.587 339.904,608.92 C339.904,604.43 342.248,600.233 346.936,596.326 C351.498,592.42 356.477,590.467 361.873,590.467"/>
<path class="Note" d="M501.524,565.467 C504.649,565.467 507.289,566.279 509.446,567.904 C511.456,569.665 512.461,571.878 512.461,574.545 C512.461,579.035 510.154,583.233 505.539,587.139 C500.852,591.045 495.836,592.998 490.492,592.998 C487.367,592.998 484.732,592.186 482.586,590.561 C480.565,588.8 479.555,586.587 479.555,583.92 C479.555,579.43 481.899,575.233 486.586,571.326 C491.149,567.42 496.128,565.467 501.524,565.467"/>
<path class="Note" d="M684.174,540.467 C687.299,540.467 689.94,541.279 692.096,542.904 C694.107,544.665 695.112,546.878 695.112,549.545 C695.112,554.035 692.804,558.233 688.19,562.139 C683.502,566.045 678.487,567.998 673.143,567.998 C670.018,567.998 667.383,567.186 665.237,565.561 C663.216,563.8 662.206,561.587 662.206,558.92 C662.206,554.43 664.549,550.233 669.237,546.326 C673.799,542.42 678.778,540.467 684.174,540.467"/>
<path class="Note" d="M877.578,565.467 C880.703,565.467 883.343,566.279 885.5,567.904 C887.51,569.665 888.515,571.878 888.515,574.545 C888.515,579.035 886.208,583.233 881.593,587.139 C876.906,591.045 871.89,592.998 866.546,592.998 C863.421,592.998 860.786,592.186 858.64,590.561 C856.619,588.8 855.609,586.587 855.609,583.92 C855.609,579.43 857.953,575.233 862.64,571.326 C867.203,567.42 872.182,565.467 877.578,565.467"/>
<path class="Note" d="M976.709,540.467 C979.834,540.467 982.475,541.279 984.631,542.904 C986.642,544.665 987.647,546.878 987.647,549.545 C987.647,554.035 985.34,558.233 980.725,562.139 C976.037,566.045 971.022,567.998 965.678,567.998 C962.553,567.998 959.918,567.186 957.772,565.561 C955.751,563.8 954.741,561.587 954.741,558.92 C954.741,554.43 957.084,550.233 961.772,546.326 C966.334,542.42 971.313,540.467 976.709,540.467"/>
<path class="Note" d="M1135.32,527.967 C1138.44,527.967 1141.09,528.779 1143.24,530.404 C1145.25,532.165 1146.26,534.378 1146.26,537.045 C1146.26,541.535 1143.95,545.733 1139.34,549.639 C1134.65,553.545 1129.63,555.498 1124.29,555.498 C1121.16,555.498 1118.53,554.686 1116.38,553.061 C1114.36,551.3 1113.35,549.087 1113.35,546.42 C1113.35,541.93 1115.69,537.733 1120.38,533.826 C1124.94,529.92 1129.92,527.967 1135.32,527.967"/>
<path class="Note" d="M1234.45,540.467 C1237.58,540.467 1240.22,541.279 1242.37,542.904 C1244.38,544.665 1245.39,546.878 1245.39,549.545 C1245.39,554.035 1243.08,558.233 1238.47,562.139 C1233.78,566.045 1228.76,567.998 1223.42,567.998 C1220.3,567.998 1217.66,567.186 1215.51,565.561 C1213.49,563.8 1212.48,561.587 1212.48,558.92 C1212.48,554.43 1214.83,550.233 1219.51,546.326 C1224.08,542.42 1229.06,540.467 1234.45,540.467"/>
<path class="Note" d="M1373.06,547.686 C1373.06,546.582 1372.64,545.639 1371.8,544.858 C1370.94,544.014 1369.96,543.592 1368.86,543.592 C1366.91,543.592 1362.97,545.545 1357.05,549.451 C1350.92,553.42 1347.18,556.253 1345.81,557.951 C1345.09,558.858 1344.74,559.8 1344.74,560.779 C1344.74,561.884 1345.16,562.826 1346.02,563.608 C1346.8,564.451 1347.77,564.873 1348.94,564.873 C1350.82,564.873 1354.8,562.92 1360.86,559.014 C1366.85,555.108 1370.56,552.274 1371.99,550.514 C1372.7,549.67 1373.06,548.727 1373.06,547.686 M1367.89,540.467 C1373.49,540.467 1376.28,542.873 1376.28,547.686 C1376.28,550.029 1375.6,552.764 1374.24,555.889 C1372.87,558.951 1371.05,561.295 1368.77,562.92 C1363.76,566.305 1357.47,567.998 1349.92,567.998 C1344.32,567.998 1341.52,565.592 1341.52,560.779 C1341.52,558.634 1342.2,555.93 1343.56,552.67 C1344.87,549.545 1346.69,547.17 1349.03,545.545 C1354.05,542.16 1360.34,540.467 1367.89,540.467"/>
<path class="Note" d="M1590.88,565.467 C1594,565.467 1596.64,566.279 1598.8,567.904 C1600.81,569.665 1601.82,571.878 1601.82,574.545 C1601.82,579.035 1599.51,583.233 1594.89,587.139 C1590.21,591.045 1585.19,592.998 1579.85,592.998 C1576.72,592.998 1574.09,592.186 1571.94,590.561 C1569.92,588.8 1568.91,586.587 1568.91,583.92 C1568.91,579.43 1571.25,575.233 1575.94,571.326 C1580.5,567.42 1585.48,565.467 1590.88,565.467"/>
<path class="Note" d="M1732.44,540.467 C1735.56,540.467 1738.2,541.279 1740.36,542.904 C1742.37,544.665 1743.37,546.878 1743.37,549.545 C1743.37,554.035 1741.07,558.233 1736.45,562.139 C1731.76,566.045 1726.75,567.998 1721.4,567.998 C1718.28,567.998 1715.64,567.186 1713.5,565.561 C1711.48,563.8 1710.47,561.587 1710.47,558.92 C1710.47,554.43 1712.81,550.233 1717.5,546.326 C1722.06,542.42 1727.04,540.467 1732.44,540.467"/>
<path class="Note" d="M1912.01,530.498 C1909.66,530.498 1907.97,531.311 1906.93,532.936 C1905.76,534.498 1905.18,536.618 1905.18,539.295 C1905.18,542.358 1905.99,544.993 1907.62,547.201 C1909.24,549.347 1911.03,550.847 1912.99,551.701 C1914.74,552.545 1916.6,552.967 1918.55,552.967 C1920.84,552.967 1922.56,552.154 1923.73,550.529 C1924.83,548.894 1925.38,546.774 1925.38,544.17 C1925.38,541.108 1924.57,538.472 1922.94,536.264 C1921.32,534.18 1919.56,532.68 1917.68,531.764 C1915.78,530.92 1913.89,530.498 1912.01,530.498 M1915.34,527.967 C1922.37,527.967 1928.23,529.331 1932.91,532.061 C1937.66,534.8 1940.04,538.024 1940.04,541.733 C1940.04,545.701 1937.6,548.956 1932.71,551.498 C1927.83,554.165 1922.03,555.498 1915.34,555.498 C1908.43,555.498 1902.57,554.134 1897.76,551.404 C1892.93,548.665 1890.52,545.441 1890.52,541.733 C1890.52,537.764 1893,534.509 1897.94,531.967 C1902.83,529.3 1908.63,527.967 1915.34,527.967"/>
<path class="Note" d="M2395.09,547.686 C2395.09,546.582 2394.66,545.639 2393.82,544.858 C2392.97,544.014 2391.99,543.592 2390.88,543.592 C2388.93,543.592 2385,545.545 2379.07,549.451 C2372.94,553.42 2369.2,556.253 2367.84,557.951 C2367.12,558.858 2366.76,559.8 2366.76,560.779 C2366.76,561.884 2367.18,562.826 2368.04,563.608 C2368.82,564.451 2369.79,564.873 2370.96,564.873 C2372.85,564.873 2376.82,562.92 2382.88,559.014 C2388.87,555.108 2392.58,552.274 2394.01,550.514 C2394.73,549.67 2395.09,548.727 2395.09,547.686 M2389.91,540.467 C2395.51,540.467 2398.3,542.873 2398.3,547.686 C2398.3,550.029 2397.62,552.764 2396.26,555.889 C2394.89,558.951 2393.07,561.295 2390.79,562.92 C2385.78,566.305 2379.5,567.998 2371.94,567.998 C2366.34,567.998 2363.54,565.592 2363.54,560.779 C2363.54,558.634 2364.22,555.93 2365.59,552.67 C2366.89,549.545 2368.71,547.17 2371.05,545.545 C2376.08,542.16 2382.36,540.467 2389.91,540.467"/>
<path class="Clef" d="M198.451,616.139 C198.451,616.139 198.649,616.139 199.045,616.139 C199.305,616.076 199.529,616.045 199.717,616.045 C207.008,616.045 212.998,618.618 217.685,623.764 C222.373,628.837 224.717,634.759 224.717,641.529 C224.717,649.936 221.238,656.774 214.279,662.045 C212.456,663.483 210.076,664.654 207.139,665.561 C207.472,669.79 207.639,673.207 207.639,675.811 C207.639,676.332 207.571,678.222 207.435,681.483 C207.175,687.535 205.092,692.774 201.185,697.201 C197.415,701.566 192.727,703.748 187.123,703.748 C181.852,703.748 177.363,701.894 173.654,698.186 C169.935,694.404 168.076,689.847 168.076,684.514 C168.076,681.712 169.154,679.332 171.31,677.373 C173.519,675.425 176.086,674.451 179.014,674.451 C181.618,674.451 183.8,675.462 185.56,677.483 C187.383,679.368 188.295,681.712 188.295,684.514 C188.295,687.045 187.383,689.222 185.56,691.045 C183.738,692.868 181.555,693.779 179.014,693.779 C177.972,693.779 176.967,693.587 175.998,693.201 C178.863,697.431 182.67,699.545 187.42,699.545 C191.909,699.545 195.586,697.722 198.451,694.076 C201.451,690.306 203.081,685.91 203.342,680.889 C203.467,677.764 203.529,675.977 203.529,675.529 C203.529,671.884 203.399,668.889 203.139,666.545 C199.889,667.066 196.993,667.326 194.451,667.326 C185.399,667.326 177.685,663.743 171.31,656.576 C165.06,649.347 161.935,640.753 161.935,630.795 C161.935,628.712 162.128,626.597 162.514,624.451 C162.909,622.691 163.399,620.769 163.982,618.686 C164.305,617.509 165.185,615.618 166.623,613.014 C167.144,612.233 167.73,611.256 168.381,610.084 C169.032,608.912 169.488,608.134 169.748,607.748 C170.394,606.446 171.659,604.686 173.545,602.467 C174.066,601.884 174.605,601.235 175.162,600.522 C175.719,599.808 176.193,599.222 176.584,598.764 C176.974,598.306 177.266,597.946 177.459,597.686 C177.652,597.425 179.118,595.701 181.857,592.514 C182.503,591.858 183.136,591.157 183.756,590.412 C184.376,589.667 184.881,589.082 185.271,588.654 C185.662,588.227 185.956,587.92 186.154,587.733 C183.81,579.983 182.342,573.795 181.748,569.17 C181.3,565.462 181.076,560.384 181.076,553.936 C181.076,548.269 182.378,542.962 184.982,538.014 C187.514,532.878 191.06,528.681 195.623,525.42 C195.883,525.222 196.206,525.123 196.592,525.123 C197.05,525.123 197.378,525.222 197.576,525.42 C201.086,529.649 204.113,535.149 206.654,541.92 C209.258,548.691 210.56,554.847 210.56,560.389 C210.56,566.639 209.066,572.498 206.076,577.967 C202.691,583.759 198.326,589.748 192.982,595.936 C194.347,600.227 196.17,606.962 198.451,616.139 M206.748,661.561 C210.133,660.321 212.774,658.207 214.67,655.217 C216.753,652.352 217.795,649.128 217.795,645.545 C217.795,640.92 216.232,636.816 213.107,633.233 C209.909,629.524 205.836,627.441 200.889,626.983 C203.691,640.722 205.644,652.248 206.748,661.561 M168.967,638.998 C168.967,645.446 171.571,651.113 176.779,655.998 C182.113,660.748 188.102,663.123 194.748,663.123 C197.477,663.123 200.144,662.925 202.748,662.529 C201.706,652.634 199.654,640.785 196.592,626.983 C192.883,627.378 189.925,628.681 187.717,630.889 C185.56,633.17 184.482,635.743 184.482,638.608 C184.482,643.556 187.123,647.561 192.404,650.623 C192.852,651.082 193.076,651.571 193.076,652.092 C193.076,652.613 192.852,653.097 192.404,653.545 C192.008,654.003 191.519,654.233 190.935,654.233 C190.873,654.233 190.581,654.17 190.06,654.045 C186.342,652.024 183.477,649.42 181.467,646.233 C179.571,642.837 178.623,639.415 178.623,635.967 C178.623,631.477 180.024,627.41 182.826,623.764 C185.753,620.118 189.56,617.774 194.248,616.733 C192.425,609.441 190.93,603.743 189.764,599.639 C188.722,600.816 187.469,602.233 186.006,603.889 C184.542,605.545 183.68,606.54 183.42,606.873 C181.076,609.925 179.284,612.3 178.045,613.998 C175.826,617.061 174.196,619.696 173.154,621.904 C172.05,624.384 171.076,627.087 170.232,630.014 C169.389,632.816 168.967,635.811 168.967,638.998 M201.576,539.686 C196.691,542.092 192.852,545.54 190.06,550.029 C187.196,554.654 185.764,559.634 185.764,564.967 C185.764,569.654 186.935,575.972 189.279,583.92 C193.967,578.253 197.482,573.014 199.826,568.201 C202.295,563.118 203.529,557.811 203.529,552.279 C203.529,548.113 202.878,543.915 201.576,539.686"/>
<path class="TimeSig" d="M272.467,567.912 C274.415,567.912 276.073,567.686 277.443,567.233 C278.813,566.779 279.691,566.553 280.076,566.553 C280.534,566.553 280.894,566.683 281.154,566.944 C281.352,567.131 281.482,567.355 281.545,567.615 C281.545,567.751 281.477,567.949 281.342,568.209 L252.935,601.225 L269.623,601.225 L269.623,588.131 C269.623,587.287 269.852,586.569 270.31,585.975 C271.092,585.329 271.743,584.938 272.264,584.803 C273.107,584.417 274.149,583.506 275.389,582.069 C276.43,580.902 277.67,578.855 279.107,575.928 C279.295,575.532 279.587,575.334 279.982,575.334 C280.764,575.334 281.217,575.792 281.342,576.709 L281.342,601.225 L288.482,601.225 C289.389,601.225 289.909,601.709 290.045,602.678 C290.045,603.657 289.524,604.147 288.482,604.147 L281.342,604.147 L281.342,604.928 C281.342,607.532 281.993,609.746 283.295,611.569 C284.795,613.391 286.555,614.303 288.576,614.303 C289.357,614.303 289.748,614.694 289.748,615.475 C289.748,616.256 289.357,616.647 288.576,616.647 C287.212,616.647 284.998,616.454 281.935,616.069 C279.133,615.61 276.951,615.381 275.389,615.381 C273.764,615.381 271.581,615.61 268.842,616.069 C265.915,616.454 263.738,616.647 262.31,616.647 C261.529,616.647 261.139,616.256 261.139,615.475 C261.139,614.694 261.529,614.303 262.31,614.303 C264.321,614.303 266.076,613.391 267.576,611.569 C268.941,609.683 269.623,607.47 269.623,604.928 L269.623,604.147 L252.935,604.147 C251.821,604.147 251.04,603.886 250.592,603.365 C250.06,602.98 249.795,602.459 249.795,601.803 C249.795,601.605 250.284,600.923 251.264,599.756 C252.378,598.454 253.55,596.86 254.779,594.975 C256.217,592.756 257.587,590.475 258.889,588.131 C260.316,585.464 261.456,582.402 262.31,578.944 C263.279,575.433 263.764,571.855 263.764,568.209 C263.764,567.167 264.222,566.647 265.139,566.647 C265.337,566.647 265.758,566.746 266.404,566.944 C266.602,567.006 267.011,567.102 267.631,567.233 C268.251,567.363 268.753,567.49 269.139,567.615 C270.316,567.813 271.425,567.912 272.467,567.912"/>
<path class="TimeSig" d="M272.467,618.084 C274.415,618.084 276.073,617.858 277.443,617.404 C278.813,616.951 279.691,616.725 280.076,616.725 C280.534,616.725 280.894,616.855 281.154,617.115 C281.352,617.303 281.482,617.527 281.545,617.787 C281.545,617.923 281.477,618.121 281.342,618.381 L252.935,651.397 L269.623,651.397 L269.623,638.303 C269.623,637.459 269.852,636.74 270.31,636.147 C271.092,635.501 271.743,635.11 272.264,634.975 C273.107,634.589 274.149,633.678 275.389,632.24 C276.43,631.074 277.67,629.027 279.107,626.1 C279.295,625.704 279.587,625.506 279.982,625.506 C280.764,625.506 281.217,625.964 281.342,626.881 L281.342,651.397 L288.482,651.397 C289.389,651.397 289.909,651.881 290.045,652.85 C290.045,653.829 289.524,654.319 288.482,654.319 L281.342,654.319 L281.342,655.1 C281.342,657.704 281.993,659.917 283.295,661.74 C284.795,663.563 286.555,664.475 288.576,664.475 C289.357,664.475 289.748,664.865 289.748,665.647 C289.748,666.428 289.357,666.819 288.576,666.819 C287.212,666.819 284.998,666.626 281.935,666.24 C279.133,665.782 276.951,665.553 275.389,665.553 C273.764,665.553 271.581,665.782 268.842,666.24 C265.915,666.626 263.738,666.819 262.31,666.819 C261.529,666.819 261.139,666.428 261.139,665.647 C261.139,664.865 261.529,664.475 262.31,664.475 C264.321,664.475 266.076,663.563 267.576,661.74 C268.941,659.855 269.623,657.641 269.623,655.1 L269.623,654.319 L252.935,654.319 C251.821,654.319 251.04,654.058 250.592,653.537 C250.06,653.152 249.795,652.631 249.795,651.975 C249.795,651.777 250.284,651.095 251.264,649.928 C252.378,648.626 253.55,647.032 254.779,645.147 C256.217,642.928 257.587,640.647 258.889,638.303 C260.316,635.636 261.456,632.574 262.31,629.115 C263.279,625.605 263.764,622.027 263.764,618.381 C263.764,617.339 264.222,616.819 265.139,616.819 C265.337,616.819 265.758,616.917 266.404,617.115 C266.602,617.178 267.011,617.274 267.631,617.404 C268.251,617.535 268.753,617.662 269.139,617.787 C270.316,617.985 271.425,618.084 272.467,618.084"/>
<path class="Rest" d="M2634.49,616.733 L2598.94,616.733 C2598.28,616.733 2597.95,616.404 2597.95,615.748 L2597.95,602.076 C2597.95,601.43 2598.28,601.108 2598.94,601.108 L2634.49,601.108 C2635.13,601.108 2635.45,601.43 2635.45,602.076 L2635.45,615.748 C2635.45,616.404 2635.13,616.733 2634.49,616.733"/>
<path class="Beam" fill-rule="evenodd" d="M1113.35,610.47 L1215.73,616.925 L1215.73,629.45 L1113.35,622.995 L1113.35,610.47 "/>
<path class="Hook" d="M878.359,594.373 C879.859,594.373 881.458,596.811 883.156,601.686 C884.781,606.509 885.593,611.102 885.593,615.467 C885.593,619.175 884.682,622.852 882.859,626.498 C880.974,630.404 878.729,633.79 876.125,636.654 L868.109,645.639 C865.64,648.503 863.427,651.821 861.468,655.592 C859.645,659.238 858.734,662.951 858.734,666.733 L855.609,666.733 L855.609,641.733 L858.734,641.733 C860.494,640.628 863.099,638.868 866.546,636.451 C868.109,635.285 870.453,633.332 873.578,630.592 C876.119,628.248 878.041,625.842 879.343,623.373 C880.708,620.769 881.39,618.134 881.39,615.467 C881.39,609.279 879.599,603.123 876.015,596.998 C876.015,596.998 876.015,596.868 876.015,596.608 C876.015,596.024 876.213,595.54 876.609,595.154 C877.13,594.634 877.713,594.373 878.359,594.373"/>
<path class="NoteDot" d="M705.534,558.24 C704.424,557.131 703.87,555.795 703.87,554.233 C703.87,552.67 704.424,551.334 705.534,550.225 C706.643,549.115 707.979,548.561 709.541,548.561 C711.104,548.561 712.437,549.115 713.541,550.225 C714.646,551.334 715.198,552.67 715.198,554.233 C715.198,555.795 714.646,557.131 713.541,558.24 C712.437,559.35 711.104,559.904 709.541,559.904 C707.979,559.904 706.643,559.35 705.534,558.24"/>
</svg>
