<?xml version="1.0" encoding="UTF-8" standalone="no"?>
<svg width="2977.2px" height="4208.4px" viewBox="0 0 2977.2 4208.4"
 xmlns="http://www.w3.org/2000/svg" xmlns:xlink="http://www.w3.org/1999/xlink" version="1.2" baseProfile="tiny">
<title>4-8</title>
<desc>Generated by MuseScore 3.4.2</desc>
<polyline class="StaffLines" fill="none" stroke="#000000" stroke-width="2.00" stroke-linejoin="bevel" points="141.732,566.733 2835.47,566.733"/>
<polyline class="StaffLines" fill="none" stroke="#000000" stroke-width="2.00" stroke-linejoin="bevel" points="141.732,591.733 2835.47,591.733"/>
<polyline class="StaffLines" fill="none" stroke="#000000" stroke-width="2.00" stroke-linejoin="bevel" points="141.732,616.733 2835.47,616.733"/>
<polyline class="StaffLines" fill="none" stroke="#000000" stroke-width="2.00" stroke-linejoin="bevel" points="141.732,641.733 2835.47,641.733"/>
<polyline class="StaffLines" fill="none" stroke="#000000" stroke-width="2.00" stroke-linejoin="bevel" points="141.732,666.733 2835.47,666.733"/>
<path class="Text" d="M876.889,179.107 C884.086,184.451 888.985,188.938 891.584,192.568 C894.183,196.198 895.482,200.326 895.482,204.951 C895.482,211.17 893.344,216.136 889.068,219.849 C884.792,223.563 879.055,225.42 871.857,225.42 C865.055,225.42 859.514,223.56 855.232,219.842 C850.951,216.123 848.81,211.316 848.81,205.42 C848.81,201.357 849.79,197.951 851.748,195.201 C853.706,192.451 857.925,188.644 864.404,183.779 C858.092,178.269 854.034,174.159 852.232,171.451 C850.43,168.743 849.529,165.435 849.529,161.529 C849.529,156.029 851.691,151.461 856.014,147.826 C860.336,144.191 865.774,142.373 872.326,142.373 C878.326,142.373 883.266,143.993 887.146,147.232 C891.027,150.472 892.967,154.597 892.967,159.607 C892.967,163.68 891.766,167.152 889.365,170.021 C886.964,172.891 882.805,175.92 876.889,179.107 M867.529,186.17 C864.008,188.961 861.529,191.753 860.092,194.545 C858.654,197.336 857.935,200.644 857.935,204.467 C857.935,209.654 859.334,213.842 862.131,217.029 C864.928,220.217 868.607,221.81 873.17,221.81 C877.086,221.81 880.266,220.594 882.709,218.162 C885.152,215.73 886.373,212.56 886.373,208.654 C886.373,207.373 886.232,206.175 885.951,205.06 C885.67,203.946 885.389,202.969 885.107,202.131 C884.826,201.292 884.266,200.355 883.428,199.318 C882.589,198.282 881.909,197.464 881.389,196.865 C880.868,196.266 879.928,195.409 878.568,194.295 C877.209,193.18 876.191,192.383 875.514,191.904 C874.836,191.425 873.558,190.508 871.678,189.154 C869.797,187.8 868.415,186.805 867.529,186.17 M873.404,176.951 C873.487,176.878 874.029,176.503 875.029,175.826 C876.029,175.149 876.751,174.61 877.193,174.209 C877.636,173.808 878.316,173.188 879.232,172.349 C880.149,171.511 880.847,170.714 881.326,169.959 C881.805,169.204 882.347,168.287 882.951,167.209 C883.555,166.131 883.995,164.933 884.271,163.615 C884.547,162.297 884.685,160.925 884.685,159.498 C884.685,155.352 883.487,152.063 881.092,149.631 C878.696,147.198 875.456,145.982 871.373,145.982 C867.612,145.982 864.511,147.097 862.068,149.326 C859.626,151.555 858.404,154.383 858.404,157.81 C858.404,161.165 859.566,164.318 861.889,167.271 C864.211,170.224 868.05,173.451 873.404,176.951 M936.889,179.107 C944.086,184.451 948.985,188.938 951.584,192.568 C954.183,196.198 955.482,200.326 955.482,204.951 C955.482,211.17 953.344,216.136 949.068,219.849 C944.792,223.563 939.055,225.42 931.857,225.42 C925.055,225.42 919.514,223.56 915.232,219.842 C910.951,216.123 908.81,211.316 908.81,205.42 C908.81,201.357 909.79,197.951 911.748,195.201 C913.706,192.451 917.925,188.644 924.404,183.779 C918.092,178.269 914.034,174.159 912.232,171.451 C910.43,168.743 909.529,165.435 909.529,161.529 C909.529,156.029 911.691,151.461 916.014,147.826 C920.336,144.191 925.774,142.373 932.326,142.373 C938.326,142.373 943.266,143.993 947.146,147.232 C951.027,150.472 952.967,154.597 952.967,159.607 C952.967,163.68 951.766,167.152 949.365,170.021 C946.964,172.891 942.805,175.92 936.889,179.107 M927.529,186.17 C924.008,188.961 921.529,191.753 920.092,194.545 C918.654,197.336 917.935,200.644 917.935,204.467 C917.935,209.654 919.334,213.842 922.131,217.029 C924.928,220.217 928.607,221.81 933.17,221.81 C937.086,221.81 940.266,220.594 942.709,218.162 C945.152,215.73 946.373,212.56 946.373,208.654 C946.373,207.373 946.232,206.175 945.951,205.06 C945.67,203.946 945.389,202.969 945.107,202.131 C944.826,201.292 944.266,200.355 943.428,199.318 C942.589,198.282 941.909,197.464 941.389,196.865 C940.868,196.266 939.928,195.409 938.568,194.295 C937.209,193.18 936.191,192.383 935.514,191.904 C934.836,191.425 933.558,190.508 931.678,189.154 C929.797,187.8 928.415,186.805 927.529,186.17 M933.404,176.951 C933.487,176.878 934.029,176.503 935.029,175.826 C936.029,175.149 936.751,174.61 937.193,174.209 C937.636,173.808 938.316,173.188 939.232,172.349 C940.149,171.511 940.847,170.714 941.326,169.959 C941.805,169.204 942.347,168.287 942.951,167.209 C943.555,166.131 943.995,164.933 944.271,163.615 C944.547,162.297 944.685,160.925 944.685,159.498 C944.685,155.352 943.487,152.063 941.092,149.631 C938.696,147.198 935.456,145.982 931.373,145.982 C927.612,145.982 924.511,147.097 922.068,149.326 C919.626,151.555 918.404,154.383 918.404,157.81 C918.404,161.165 919.566,164.318 921.889,167.271 C924.211,170.224 928.05,173.451 933.404,176.951 M996.779,192.889 L1026.29,192.889 L1026.29,200.451 L996.779,200.451 L996.779,192.889 M1143.33,154.982 L1112.61,223.732 L1110.94,223.732 L1080.81,157.732 L1080.81,206.092 C1080.81,212.175 1081.53,216.196 1082.97,218.154 C1084.42,220.112 1087.46,221.211 1092.09,221.451 L1092.09,223.732 L1063.89,223.732 L1063.89,221.451 C1068.85,221.128 1072.03,220.027 1073.43,218.146 C1074.83,216.266 1075.53,212.248 1075.53,206.092 L1075.53,157.373 C1075.53,152.977 1074.87,150.159 1073.55,148.92 C1072.23,147.68 1069.1,146.899 1064.14,146.576 L1064.14,144.295 L1087.89,144.295 L1115.61,204.889 L1142.12,144.295 L1166.01,144.295 L1166.01,146.576 C1161.53,146.972 1158.67,147.81 1157.43,149.092 C1156.18,150.373 1155.56,153.133 1155.56,157.373 L1155.56,210.654 C1155.56,214.894 1156.2,217.672 1157.48,218.99 C1158.76,220.308 1161.61,221.128 1166.01,221.451 L1166.01,223.732 L1132.4,223.732 L1132.4,221.451 C1137.12,221.128 1140.12,220.269 1141.4,218.873 C1142.69,217.477 1143.33,214.295 1143.33,209.326 L1143.33,154.982 M1175.53,176.576 C1173.77,176.576 1172.09,176.696 1170.5,176.935 L1170.5,175.139 C1176.09,173.534 1182.29,171.331 1189.09,168.529 L1189.58,168.889 L1189.58,211.498 C1189.58,215.81 1190.08,218.547 1191.08,219.709 C1192.08,220.87 1194.53,221.612 1198.45,221.935 L1198.45,223.732 L1170.01,223.732 L1170.01,221.935 C1174.17,221.696 1176.79,220.974 1177.87,219.771 C1178.96,218.568 1179.5,215.81 1179.5,211.498 L1179.5,183.654 C1179.5,181.019 1179.2,179.18 1178.59,178.139 C1177.99,177.097 1176.97,176.576 1175.53,176.576 M1183.45,141.779 C1185.21,141.779 1186.69,142.378 1187.89,143.576 C1189.09,144.774 1189.69,146.211 1189.69,147.889 C1189.69,149.649 1189.09,151.11 1187.89,152.271 C1186.69,153.433 1185.21,154.014 1183.45,154.014 C1181.77,154.014 1180.35,153.415 1179.19,152.217 C1178.03,151.019 1177.45,149.579 1177.45,147.896 C1177.45,146.214 1178.05,144.774 1179.25,143.576 C1180.45,142.378 1181.85,141.779 1183.45,141.779 M1204.09,198.154 C1204.09,189.279 1206.71,182.123 1211.95,176.685 C1217.19,171.248 1223.33,168.529 1230.37,168.529 C1235.41,168.529 1239.76,169.751 1243.4,172.193 C1247.04,174.636 1248.86,177.534 1248.86,180.889 C1248.86,182.253 1248.29,183.435 1247.17,184.435 C1246.04,185.435 1244.69,185.935 1243.09,185.935 C1240.37,185.935 1238.49,184.112 1237.45,180.467 L1236.73,177.842 C1236.09,175.623 1235.28,174.118 1234.33,173.326 C1233.37,172.534 1231.81,172.139 1229.65,172.139 C1224.77,172.139 1220.83,174.068 1217.83,177.928 C1214.83,181.787 1213.33,186.779 1213.33,192.904 C1213.33,199.748 1215.07,205.336 1218.54,209.67 C1222.02,214.003 1226.49,216.17 1231.94,216.17 C1235.37,216.17 1238.33,215.334 1240.81,213.662 C1243.29,211.99 1245.97,209.086 1248.86,204.951 L1250.53,206.029 C1249.73,207.633 1249.03,208.956 1248.43,209.998 C1247.83,211.04 1246.75,212.605 1245.19,214.693 C1243.64,216.782 1242.1,218.469 1240.58,219.756 C1239.06,221.042 1237.06,222.227 1234.58,223.31 C1232.1,224.394 1229.53,224.935 1226.89,224.935 C1220.25,224.935 1214.79,222.433 1210.51,217.428 C1206.23,212.422 1204.09,205.998 1204.09,198.154 M1273.04,182.576 L1273.04,211.498 C1273.04,215.654 1273.53,218.331 1274.49,219.529 C1275.45,220.727 1277.7,221.529 1281.22,221.935 L1281.22,223.732 L1255.29,223.732 L1255.29,221.935 C1258.73,221.456 1260.87,220.657 1261.71,219.537 C1262.55,218.417 1262.97,215.737 1262.97,211.498 L1262.97,154.982 C1262.97,152.42 1262.63,150.737 1261.95,149.935 C1261.27,149.133 1259.77,148.732 1257.45,148.732 C1256.89,148.732 1256.21,148.816 1255.4,148.982 L1255.4,147.06 C1261.09,145.54 1266.77,143.779 1272.45,141.779 L1273.04,142.139 L1273.04,178.607 C1275.77,175.014 1278.52,172.435 1281.27,170.873 C1284.03,169.31 1287.16,168.529 1290.69,168.529 C1300.53,168.529 1305.45,174.889 1305.45,187.607 L1305.45,211.498 C1305.45,215.654 1305.83,218.271 1306.59,219.349 C1307.35,220.428 1309.37,221.29 1312.65,221.935 L1312.65,223.732 L1287.22,223.732 L1287.22,221.935 C1290.65,221.612 1292.87,220.81 1293.87,219.529 C1294.87,218.248 1295.37,215.571 1295.37,211.498 L1295.37,187.732 C1295.37,179.253 1292.37,175.014 1286.37,175.014 C1284.05,175.014 1281.87,175.594 1279.83,176.756 C1277.78,177.917 1275.52,179.857 1273.04,182.576 M1317.09,211.889 C1317.09,210.451 1317.25,209.115 1317.57,207.881 C1317.89,206.646 1318.45,205.493 1319.25,204.42 C1320.05,203.347 1320.81,202.373 1321.53,201.498 C1322.25,200.623 1323.33,199.727 1324.77,198.81 C1326.21,197.894 1327.41,197.139 1328.37,196.545 C1329.33,195.951 1330.79,195.235 1332.75,194.396 C1334.71,193.558 1336.21,192.92 1337.25,192.482 C1338.29,192.045 1339.93,191.389 1342.17,190.514 C1344.41,189.639 1346.05,189.003 1347.09,188.607 L1347.09,181.326 C1347.09,174.722 1344.05,171.42 1337.97,171.42 C1335.57,171.42 1333.53,171.998 1331.85,173.154 C1330.17,174.31 1329.33,175.691 1329.33,177.295 C1329.33,177.93 1329.43,178.808 1329.63,179.928 C1329.83,181.047 1329.94,181.769 1329.94,182.092 C1329.94,183.456 1329.39,184.639 1328.31,185.639 C1327.23,186.639 1325.97,187.139 1324.53,187.139 C1323.17,187.139 1321.98,186.618 1320.94,185.576 C1319.89,184.534 1319.37,183.331 1319.37,181.967 C1319.37,178.217 1321.31,175.04 1325.19,172.435 C1329.07,169.831 1333.85,168.529 1339.53,168.529 C1346.09,168.529 1350.61,170.102 1353.09,173.248 C1355.57,176.394 1356.81,181.196 1356.81,187.654 L1356.81,210.935 C1356.81,213.56 1357.07,215.37 1357.59,216.365 C1358.11,217.36 1359.05,217.857 1360.4,217.857 C1362.09,217.857 1363.85,217.102 1365.69,215.592 L1365.69,218.732 C1363.61,221.128 1361.79,222.761 1360.23,223.631 C1358.67,224.501 1356.89,224.935 1354.89,224.935 C1352.41,224.935 1350.59,224.237 1349.43,222.842 C1348.27,221.446 1347.53,219.144 1347.22,215.935 C1340.33,221.935 1334.49,224.935 1329.69,224.935 C1326.01,224.935 1322.99,223.714 1320.63,221.271 C1318.27,218.829 1317.09,215.701 1317.09,211.889 M1347.09,208.779 L1347.09,191.467 C1339.89,194.092 1334.85,196.639 1331.97,199.107 C1329.09,201.576 1327.65,204.56 1327.65,208.06 C1327.65,211.321 1328.45,213.748 1330.05,215.342 C1331.65,216.935 1333.37,217.732 1335.22,217.732 C1337.94,217.732 1340.85,216.816 1343.97,214.982 C1345.25,214.274 1346.09,213.521 1346.49,212.724 C1346.89,211.928 1347.09,210.612 1347.09,208.779 M1377.73,190.498 C1377.89,195.54 1378.57,199.878 1379.77,203.514 C1380.97,207.149 1382.53,209.868 1384.45,211.67 C1386.37,213.472 1388.31,214.753 1390.27,215.514 C1392.23,216.274 1394.29,216.654 1396.45,216.654 C1400.29,216.654 1403.64,215.693 1406.47,213.771 C1409.31,211.849 1412.17,208.612 1415.04,204.06 L1416.97,204.889 C1414.49,211.368 1411.05,216.329 1406.65,219.771 C1402.25,223.214 1397.21,224.935 1391.53,224.935 C1384.65,224.935 1379.2,222.516 1375.15,217.678 C1371.11,212.839 1369.09,206.3 1369.09,198.06 C1369.09,189.175 1371.43,182.032 1376.12,176.631 C1380.8,171.23 1386.82,168.529 1394.17,168.529 C1400.25,168.529 1404.97,170.349 1408.33,173.99 C1411.69,177.631 1413.81,183.133 1414.69,190.498 L1377.73,190.498 M1377.97,186.889 L1402.45,186.889 C1401.65,181.691 1400.41,178.092 1398.73,176.092 C1397.06,174.092 1394.37,173.092 1390.69,173.092 C1383.49,173.092 1379.25,177.691 1377.97,186.889 M1420.29,148.982 L1420.29,147.06 C1428.21,145.133 1434.57,143.373 1439.37,141.779 L1439.86,142.014 L1439.86,213.654 C1439.86,216.935 1440.4,219.076 1441.47,220.076 C1442.55,221.076 1445.01,221.696 1448.86,221.935 L1448.86,223.732 L1420.53,223.732 L1420.53,221.935 C1424.29,221.612 1426.77,220.891 1427.97,219.771 C1429.16,218.652 1429.76,216.493 1429.76,213.295 L1429.76,156.06 C1429.76,153.258 1429.4,151.336 1428.69,150.295 C1427.97,149.253 1426.65,148.732 1424.73,148.732 C1423.13,148.732 1421.65,148.816 1420.29,148.982 M1515.01,144.295 C1518.45,144.295 1521.73,144.576 1524.85,145.139 C1527.97,145.701 1531.19,146.683 1534.51,148.084 C1537.82,149.485 1540.48,151.67 1542.48,154.639 C1544.48,157.607 1545.48,161.222 1545.48,165.482 C1545.48,176.086 1538.45,182.701 1524.37,185.326 C1524.13,185.409 1523.93,185.451 1523.76,185.451 L1548.48,215.81 C1550.17,217.81 1551.75,219.211 1553.23,220.014 C1554.71,220.816 1556.61,221.295 1558.94,221.451 L1558.94,223.732 L1539.61,223.732 L1511.04,186.779 L1504.33,187.014 L1504.33,210.654 C1504.33,214.977 1504.97,217.777 1506.25,219.053 C1507.53,220.329 1510.49,221.128 1515.12,221.451 L1515.12,223.732 L1481.89,223.732 L1481.89,221.451 C1486.37,221.128 1489.19,220.269 1490.35,218.873 C1491.51,217.477 1492.09,214.295 1492.09,209.326 L1492.09,157.373 C1492.09,153.133 1491.51,150.394 1490.35,149.154 C1489.19,147.915 1486.37,147.055 1481.89,146.576 L1481.89,144.295 L1515.01,144.295 M1504.33,182.576 C1514.01,182.42 1521.12,181.144 1525.63,178.748 C1530.15,176.352 1532.4,171.847 1532.4,165.232 C1532.4,159.659 1530.63,155.537 1527.07,152.865 C1523.51,150.193 1517.97,148.857 1510.45,148.857 C1508.06,148.857 1506.44,149.157 1505.59,149.756 C1504.75,150.355 1504.33,151.487 1504.33,153.154 L1504.33,182.576 M1589.61,168.529 C1597.28,168.529 1603.6,171.092 1608.57,176.217 C1613.53,181.342 1616.01,187.826 1616.01,195.67 C1616.01,203.982 1613.45,210.938 1608.33,216.537 C1603.21,222.136 1596.89,224.935 1589.37,224.935 C1581.85,224.935 1575.59,222.235 1570.59,216.834 C1565.59,211.433 1563.09,204.696 1563.09,196.623 C1563.09,188.383 1565.55,181.641 1570.47,176.396 C1575.4,171.152 1581.77,168.529 1589.61,168.529 M1573.89,190.795 C1573.89,199.274 1575.45,206.482 1578.57,212.42 C1581.69,218.357 1585.77,221.326 1590.81,221.326 C1595.29,221.326 1598.81,219.425 1601.37,215.623 C1603.94,211.821 1605.22,206.555 1605.22,199.826 C1605.22,191.659 1603.62,185.003 1600.41,179.857 C1597.21,174.711 1593.09,172.139 1588.04,172.139 C1583.81,172.139 1580.39,173.842 1577.79,177.248 C1575.19,180.654 1573.89,185.17 1573.89,190.795 M1659.29,186.529 C1657.13,180.133 1655.47,176.115 1654.31,174.474 C1653.15,172.834 1651.25,171.852 1648.61,171.529 L1648.61,169.732 L1672.97,169.732 L1672.97,171.529 C1670.16,171.935 1668.31,172.417 1667.39,172.974 C1666.47,173.532 1666.01,174.493 1666.01,175.857 C1666.01,176.899 1666.69,179.258 1668.04,182.935 L1678.12,209.81 L1688.94,183.17 C1690.29,179.816 1690.97,177.175 1690.97,175.248 C1690.97,174.217 1690.61,173.441 1689.89,172.92 C1689.17,172.399 1687.77,171.935 1685.69,171.529 L1685.69,169.732 L1700.45,169.732 L1700.45,171.529 C1699.25,171.935 1698.39,172.498 1697.87,173.217 C1697.35,173.935 1696.57,175.534 1695.53,178.014 L1678.97,219.529 C1677.37,223.456 1676.26,225.42 1675.62,225.42 C1674.97,225.42 1674.01,223.696 1672.73,220.248 L1661.81,191.935 L1648.37,220.732 C1646.94,223.857 1645.94,225.42 1645.37,225.42 C1644.73,225.42 1643.69,223.659 1642.25,220.139 L1626.04,179.092 C1624.85,176.05 1623.85,174.071 1623.05,173.154 C1622.26,172.237 1621.13,171.696 1619.69,171.529 L1619.69,169.732 L1641.29,169.732 L1641.29,171.529 C1639.21,171.769 1637.77,172.17 1636.97,172.732 C1636.16,173.295 1635.76,174.217 1635.76,175.498 C1635.76,176.696 1636.01,177.894 1636.5,179.092 L1648.37,210.42 L1659.29,186.529 M1762.17,169.732 L1762.17,173.342 L1750.04,173.342 L1750.04,207.654 C1750.04,211.415 1750.53,214.154 1751.49,215.873 C1752.45,217.592 1754.06,218.451 1756.29,218.451 C1758.77,218.451 1761.17,217.05 1763.5,214.248 L1765.04,215.576 C1761.21,221.816 1756.41,224.935 1750.65,224.935 C1743.53,224.935 1739.97,219.831 1739.97,209.623 L1739.97,173.342 L1733.61,173.342 C1733.29,173.112 1733.14,172.847 1733.14,172.545 C1733.14,172.17 1733.26,171.87 1733.5,171.646 C1733.74,171.422 1734.2,171.105 1734.87,170.693 C1735.55,170.282 1736.37,169.691 1737.33,168.92 C1738.3,168.149 1739.62,166.751 1741.29,164.724 C1742.97,162.698 1744.81,160.264 1746.81,157.42 C1748.09,155.555 1748.89,154.42 1749.22,154.014 C1749.77,154.014 1750.04,154.54 1750.04,155.592 L1750.04,169.732 L1762.17,169.732 M1784.04,182.576 L1784.04,211.498 C1784.04,215.654 1784.53,218.331 1785.49,219.529 C1786.45,220.727 1788.7,221.529 1792.22,221.935 L1792.22,223.732 L1766.29,223.732 L1766.29,221.935 C1769.73,221.456 1771.87,220.657 1772.71,219.537 C1773.55,218.417 1773.97,215.737 1773.97,211.498 L1773.97,154.982 C1773.97,152.42 1773.63,150.737 1772.95,149.935 C1772.27,149.133 1770.77,148.732 1768.45,148.732 C1767.89,148.732 1767.21,148.816 1766.4,148.982 L1766.4,147.06 C1772.09,145.54 1777.77,143.779 1783.45,141.779 L1784.04,142.139 L1784.04,178.607 C1786.77,175.014 1789.52,172.435 1792.27,170.873 C1795.03,169.31 1798.16,168.529 1801.69,168.529 C1811.53,168.529 1816.45,174.889 1816.45,187.607 L1816.45,211.498 C1816.45,215.654 1816.83,218.271 1817.59,219.349 C1818.35,220.428 1820.37,221.29 1823.65,221.935 L1823.65,223.732 L1798.22,223.732 L1798.22,221.935 C1801.65,221.612 1803.87,220.81 1804.87,219.529 C1805.87,218.248 1806.37,215.571 1806.37,211.498 L1806.37,187.732 C1806.37,179.253 1803.37,175.014 1797.37,175.014 C1795.05,175.014 1792.87,175.594 1790.83,176.756 C1788.78,177.917 1786.52,179.857 1784.04,182.576 M1836.73,190.498 C1836.89,195.54 1837.57,199.878 1838.77,203.514 C1839.97,207.149 1841.53,209.868 1843.45,211.67 C1845.37,213.472 1847.31,214.753 1849.27,215.514 C1851.23,216.274 1853.29,216.654 1855.45,216.654 C1859.29,216.654 1862.64,215.693 1865.47,213.771 C1868.31,211.849 1871.17,208.612 1874.04,204.06 L1875.97,204.889 C1873.49,211.368 1870.05,216.329 1865.65,219.771 C1861.25,223.214 1856.21,224.935 1850.53,224.935 C1843.65,224.935 1838.2,222.516 1834.15,217.678 C1830.11,212.839 1828.09,206.3 1828.09,198.06 C1828.09,189.175 1830.43,182.032 1835.12,176.631 C1839.8,171.23 1845.82,168.529 1853.17,168.529 C1859.25,168.529 1863.97,170.349 1867.33,173.99 C1870.69,177.631 1872.81,183.133 1873.69,190.498 L1836.73,190.498 M1836.97,186.889 L1861.45,186.889 C1860.65,181.691 1859.41,178.092 1857.73,176.092 C1856.06,174.092 1853.37,173.092 1849.69,173.092 C1842.49,173.092 1838.25,177.691 1836.97,186.889 M1979.01,202.076 C1979.01,204.482 1978.57,206.849 1977.69,209.178 C1976.81,211.506 1975.35,213.81 1973.31,216.092 C1971.27,218.373 1968.25,220.217 1964.25,221.623 C1960.25,223.029 1955.49,223.732 1949.97,223.732 L1909.89,223.732 L1909.89,221.451 C1914.85,221.295 1918.01,220.576 1919.37,219.295 C1920.72,218.014 1921.4,215.133 1921.4,210.654 L1921.4,157.404 C1921.4,152.998 1920.75,150.175 1919.43,148.935 C1918.11,147.696 1914.93,146.909 1909.89,146.576 L1909.89,144.295 L1943.5,144.295 C1964.46,144.295 1974.94,151.154 1974.94,164.873 C1974.94,167.508 1974.45,169.847 1973.49,171.889 C1972.53,173.93 1971.54,175.49 1970.54,176.568 C1969.54,177.646 1968.01,178.665 1965.93,179.623 C1963.85,180.581 1962.53,181.12 1961.97,181.24 C1961.4,181.36 1960.24,181.649 1958.48,182.107 C1960.33,182.576 1961.71,182.93 1962.63,183.17 C1963.55,183.409 1965.23,184.084 1967.67,185.193 C1970.11,186.303 1972.01,187.493 1973.37,188.764 C1974.72,190.034 1976.01,191.836 1977.21,194.17 C1978.41,196.503 1979.01,199.139 1979.01,202.076 M1941.22,219.17 C1944.81,219.17 1947.93,218.93 1950.57,218.451 C1953.21,217.972 1955.69,217.154 1958.01,215.998 C1960.32,214.842 1962.1,213.11 1963.35,210.803 C1964.59,208.495 1965.22,205.623 1965.22,202.185 C1965.22,198.925 1964.59,196.157 1963.35,193.881 C1962.1,191.605 1960.6,189.87 1958.85,188.678 C1957.09,187.485 1954.66,186.568 1951.54,185.928 C1948.42,185.287 1945.66,184.907 1943.26,184.787 C1940.85,184.667 1937.65,184.607 1933.65,184.607 L1933.65,214.264 C1933.65,216.18 1934.17,217.477 1935.21,218.154 C1936.25,218.831 1938.25,219.17 1941.22,219.17 M1933.65,180.06 L1945.04,180.06 C1950.65,180.06 1954.99,178.795 1958.07,176.264 C1961.15,173.732 1962.69,170.097 1962.69,165.357 C1962.69,159.972 1960.89,155.876 1957.29,153.068 C1953.69,150.261 1948.45,148.857 1941.58,148.857 L1936.29,148.857 C1934.53,148.857 1933.65,150.06 1933.65,152.467 L1933.65,180.06 M2013.61,168.529 C2021.28,168.529 2027.6,171.092 2032.57,176.217 C2037.53,181.342 2040.01,187.826 2040.01,195.67 C2040.01,203.982 2037.45,210.938 2032.33,216.537 C2027.21,222.136 2020.89,224.935 2013.37,224.935 C2005.85,224.935 1999.59,222.235 1994.59,216.834 C1989.59,211.433 1987.09,204.696 1987.09,196.623 C1987.09,188.383 1989.55,181.641 1994.47,176.396 C1999.4,171.152 2005.77,168.529 2013.61,168.529 M1997.89,190.795 C1997.89,199.274 1999.45,206.482 2002.57,212.42 C2005.69,218.357 2009.77,221.326 2014.81,221.326 C2019.29,221.326 2022.81,219.425 2025.37,215.623 C2027.94,211.821 2029.22,206.555 2029.22,199.826 C2029.22,191.659 2027.62,185.003 2024.41,179.857 C2021.21,174.711 2017.09,172.139 2012.04,172.139 C2007.81,172.139 2004.39,173.842 2001.79,177.248 C1999.19,180.654 1997.89,185.17 1997.89,190.795 M2046.09,211.889 C2046.09,210.451 2046.25,209.115 2046.57,207.881 C2046.89,206.646 2047.45,205.493 2048.25,204.42 C2049.05,203.347 2049.81,202.373 2050.53,201.498 C2051.25,200.623 2052.33,199.727 2053.77,198.81 C2055.21,197.894 2056.41,197.139 2057.37,196.545 C2058.33,195.951 2059.79,195.235 2061.75,194.396 C2063.71,193.558 2065.21,192.92 2066.25,192.482 C2067.29,192.045 2068.93,191.389 2071.17,190.514 C2073.41,189.639 2075.05,189.003 2076.09,188.607 L2076.09,181.326 C2076.09,174.722 2073.05,171.42 2066.97,171.42 C2064.57,171.42 2062.53,171.998 2060.85,173.154 C2059.17,174.31 2058.33,175.691 2058.33,177.295 C2058.33,177.93 2058.43,178.808 2058.63,179.928 C2058.83,181.047 2058.94,181.769 2058.94,182.092 C2058.94,183.456 2058.39,184.639 2057.31,185.639 C2056.23,186.639 2054.97,187.139 2053.53,187.139 C2052.17,187.139 2050.98,186.618 2049.94,185.576 C2048.89,184.534 2048.37,183.331 2048.37,181.967 C2048.37,178.217 2050.31,175.04 2054.19,172.435 C2058.07,169.831 2062.85,168.529 2068.53,168.529 C2075.09,168.529 2079.61,170.102 2082.09,173.248 C2084.57,176.394 2085.81,181.196 2085.81,187.654 L2085.81,210.935 C2085.81,213.56 2086.07,215.37 2086.59,216.365 C2087.11,217.36 2088.05,217.857 2089.4,217.857 C2091.09,217.857 2092.85,217.102 2094.69,215.592 L2094.69,218.732 C2092.61,221.128 2090.79,222.761 2089.23,223.631 C2087.67,224.501 2085.89,224.935 2083.89,224.935 C2081.41,224.935 2079.59,224.237 2078.43,222.842 C2077.27,221.446 2076.53,219.144 2076.22,215.935 C2069.33,221.935 2063.49,224.935 2058.69,224.935 C2055.01,224.935 2051.99,223.714 2049.63,221.271 C2047.27,218.829 2046.09,215.701 2046.09,211.889 M2076.09,208.779 L2076.09,191.467 C2068.89,194.092 2063.85,196.639 2060.97,199.107 C2058.09,201.576 2056.65,204.56 2056.65,208.06 C2056.65,211.321 2057.45,213.748 2059.05,215.342 C2060.65,216.935 2062.37,217.732 2064.22,217.732 C2066.94,217.732 2069.85,216.816 2072.97,214.982 C2074.25,214.274 2075.09,213.521 2075.49,212.724 C2075.89,211.928 2076.09,210.612 2076.09,208.779 M2126.17,169.732 L2126.17,173.342 L2114.04,173.342 L2114.04,207.654 C2114.04,211.415 2114.53,214.154 2115.49,215.873 C2116.45,217.592 2118.06,218.451 2120.29,218.451 C2122.77,218.451 2125.17,217.05 2127.5,214.248 L2129.04,215.576 C2125.21,221.816 2120.41,224.935 2114.65,224.935 C2107.53,224.935 2103.97,219.831 2103.97,209.623 L2103.97,173.342 L2097.61,173.342 C2097.29,173.112 2097.14,172.847 2097.14,172.545 C2097.14,172.17 2097.26,171.87 2097.5,171.646 C2097.74,171.422 2098.2,171.105 2098.87,170.693 C2099.55,170.282 2100.37,169.691 2101.33,168.92 C2102.3,168.149 2103.62,166.751 2105.29,164.724 C2106.97,162.698 2108.81,160.264 2110.81,157.42 C2112.09,155.555 2112.89,154.42 2113.22,154.014 C2113.77,154.014 2114.04,154.54 2114.04,155.592 L2114.04,169.732 L2126.17,169.732 "/>
<path class="TieSegment" stroke="#000000" stroke-width="1.75" stroke-linecap="round" stroke-linejoin="round" fill-rule="evenodd" d="M1356.59,568.251 C1378.56,549.56 1444.44,549.56 1466.4,568.251 C1444.44,553.56 1378.56,553.56 1356.59,568.251"/>
<path class="TieSegment" stroke="#000000" stroke-width="1.75" stroke-linecap="round" stroke-linejoin="round" fill-rule="evenodd" d="M1356.59,568.251 C1378.56,549.56 1444.44,549.56 1466.4,568.251 C1444.44,553.56 1378.56,553.56 1356.59,568.251"/>
<polyline class="BarLine" stroke="#000000" stroke-width="4.00" stroke-linejoin="bevel" points="813.335,565.733 813.335,667.733"/>
<polyline class="BarLine" stroke="#000000" stroke-width="4.00" stroke-linejoin="bevel" points="1426.35,565.733 1426.35,667.733"/>
<polyline class="BarLine" stroke="#000000" stroke-width="4.00" stroke-linejoin="bevel" points="1924.16,565.733 1924.16,667.733"/>
<polyline class="BarLine" stroke="#000000" stroke-width="4.00" stroke-linejoin="bevel" points="2377.15,565.733 2377.15,667.733"/>
<polyline class="BarLine" stroke="#000000" stroke-width="4.00" stroke-linejoin="bevel" points="2833.47,565.733 2833.47,667.733"/>
<polyline class="Stem" stroke="#000000" stroke-width="3.25" stroke-linecap="round" stroke-linejoin="bevel" points="551.054,583.928 551.054,666.733"/>
<polyline class="Stem" stroke="#000000" stroke-width="3.25" stroke-linecap="round" stroke-linejoin="bevel" points="682.007,558.928 682.007,641.733"/>
<polyline class="Stem" stroke="#000000" stroke-width="3.25" stroke-linecap="round" stroke-linejoin="bevel" points="841.96,558.928 841.96,641.733"/>
<polyline class="Stem" stroke="#000000" stroke-width="3.25" stroke-linecap="round" stroke-linejoin="bevel" points="1015.89,583.928 1015.89,666.733"/>
<polyline class="Stem" stroke="#000000" stroke-width="3.25" stroke-linecap="round" stroke-linejoin="bevel" points="1105.04,571.428 1105.04,654.233"/>
<polyline class="Stem" stroke="#000000" stroke-width="3.25" stroke-linecap="round" stroke-linejoin="bevel" points="1247.68,583.928 1247.68,660.483"/>
<polyline class="Stem" stroke="#000000" stroke-width="3.25" stroke-linecap="round" stroke-linejoin="bevel" points="1336.83,596.428 1336.83,666.733"/>
<polyline class="Stem" stroke="#000000" stroke-width="3.25" stroke-linecap="round" stroke-linejoin="bevel" points="1455.88,595.653 1455.88,676.108"/>
<polyline class="Stem" stroke="#000000" stroke-width="3.25" stroke-linecap="round" stroke-linejoin="bevel" points="1664.34,608.928 1664.34,685.483"/>
<polyline class="Stem" stroke="#000000" stroke-width="3.25" stroke-linecap="round" stroke-linejoin="bevel" points="1794.06,596.428 1794.06,676.108"/>
<polyline class="Stem" stroke="#000000" stroke-width="3.25" stroke-linecap="round" stroke-linejoin="bevel" points="1953.69,583.153 1953.69,666.733"/>
<polyline class="Stem" stroke="#000000" stroke-width="3.25" stroke-linecap="round" stroke-linejoin="bevel" points="2164.78,595.653 2164.78,676.108"/>
<polyline class="Stem" stroke="#000000" stroke-width="3.25" stroke-linecap="round" stroke-linejoin="bevel" points="2406.67,608.153 2406.67,685.483"/>
<path class="Note" d="M571.398,565.467 C574.523,565.467 577.163,566.279 579.319,567.904 C581.33,569.665 582.335,571.878 582.335,574.545 C582.335,579.035 580.028,583.233 575.413,587.139 C570.726,591.045 565.71,592.998 560.366,592.998 C557.241,592.998 554.606,592.186 552.46,590.561 C550.439,588.8 549.429,586.587 549.429,583.92 C549.429,579.43 551.773,575.233 556.46,571.326 C561.023,567.42 566.002,565.467 571.398,565.467"/>
<path class="Note" d="M702.35,540.467 C705.475,540.467 708.116,541.279 710.272,542.904 C712.283,544.665 713.288,546.878 713.288,549.545 C713.288,554.035 710.981,558.233 706.366,562.139 C701.679,566.045 696.663,567.998 691.319,567.998 C688.194,567.998 685.559,567.186 683.413,565.561 C681.392,563.8 680.382,561.587 680.382,558.92 C680.382,554.43 682.725,550.233 687.413,546.326 C691.975,542.42 696.955,540.467 702.35,540.467"/>
<path class="Note" d="M862.303,540.467 C865.428,540.467 868.069,541.279 870.225,542.904 C872.236,544.665 873.241,546.878 873.241,549.545 C873.241,554.035 870.934,558.233 866.319,562.139 C861.631,566.045 856.616,567.998 851.272,567.998 C848.147,567.998 845.512,567.186 843.366,565.561 C841.345,563.8 840.335,561.587 840.335,558.92 C840.335,554.43 842.678,550.233 847.366,546.326 C851.928,542.42 856.908,540.467 862.303,540.467"/>
<path class="Note" d="M1036.23,565.467 C1039.36,565.467 1042,566.279 1044.15,567.904 C1046.16,569.665 1047.17,571.878 1047.17,574.545 C1047.17,579.035 1044.86,583.233 1040.25,587.139 C1035.56,591.045 1030.54,592.998 1025.2,592.998 C1022.08,592.998 1019.44,592.186 1017.29,590.561 C1015.27,588.8 1014.26,586.587 1014.26,583.92 C1014.26,579.43 1016.61,575.233 1021.29,571.326 C1025.86,567.42 1030.84,565.467 1036.23,565.467"/>
<path class="Note" d="M1125.38,552.967 C1128.51,552.967 1131.15,553.779 1133.3,555.404 C1135.31,557.165 1136.32,559.378 1136.32,562.045 C1136.32,566.535 1134.01,570.733 1129.4,574.639 C1124.71,578.545 1119.69,580.498 1114.35,580.498 C1111.22,580.498 1108.59,579.686 1106.44,578.061 C1104.42,576.3 1103.41,574.087 1103.41,571.42 C1103.41,566.93 1105.76,562.733 1110.44,558.826 C1115.01,554.92 1119.98,552.967 1125.38,552.967"/>
<path class="Note" d="M1268.02,565.467 C1271.14,565.467 1273.79,566.279 1275.94,567.904 C1277.95,569.665 1278.96,571.878 1278.96,574.545 C1278.96,579.035 1276.65,583.233 1272.04,587.139 C1267.35,591.045 1262.33,592.998 1256.99,592.998 C1253.86,592.998 1251.23,592.186 1249.08,590.561 C1247.06,588.8 1246.05,586.587 1246.05,583.92 C1246.05,579.43 1248.39,575.233 1253.08,571.326 C1257.64,567.42 1262.62,565.467 1268.02,565.467"/>
<path class="Note" d="M1357.17,577.967 C1360.29,577.967 1362.93,578.779 1365.09,580.404 C1367.1,582.165 1368.11,584.378 1368.11,587.045 C1368.11,591.535 1365.8,595.733 1361.18,599.639 C1356.5,603.545 1351.48,605.498 1346.14,605.498 C1343.01,605.498 1340.38,604.686 1338.23,603.061 C1336.21,601.3 1335.2,599.087 1335.2,596.42 C1335.2,591.93 1337.54,587.733 1342.23,583.826 C1346.79,579.92 1351.77,577.967 1357.17,577.967"/>
<path class="Note" d="M1485.8,585.186 C1485.8,584.082 1485.38,583.139 1484.53,582.358 C1483.68,581.514 1482.7,581.092 1481.6,581.092 C1479.65,581.092 1475.71,583.045 1469.78,586.951 C1463.66,590.92 1459.91,593.753 1458.55,595.451 C1457.83,596.358 1457.47,597.3 1457.47,598.279 C1457.47,599.384 1457.9,600.326 1458.75,601.108 C1459.53,601.951 1460.51,602.373 1461.67,602.373 C1463.56,602.373 1467.53,600.42 1473.6,596.514 C1479.59,592.608 1483.29,589.774 1484.72,588.014 C1485.44,587.17 1485.8,586.227 1485.8,585.186 M1480.63,577.967 C1486.22,577.967 1489.02,580.373 1489.02,585.186 C1489.02,587.529 1488.34,590.264 1486.97,593.389 C1485.61,596.451 1483.78,598.795 1481.5,600.42 C1476.49,603.805 1470.21,605.498 1462.66,605.498 C1457.05,605.498 1454.25,603.092 1454.25,598.279 C1454.25,596.134 1454.93,593.43 1456.3,590.17 C1457.6,587.045 1459.42,584.67 1461.77,583.045 C1466.79,579.66 1473.07,577.967 1480.63,577.967"/>
<path class="Note" d="M1684.68,590.467 C1687.81,590.467 1690.45,591.279 1692.6,592.904 C1694.62,594.665 1695.62,596.878 1695.62,599.545 C1695.62,604.035 1693.31,608.233 1688.7,612.139 C1684.01,616.045 1679,617.998 1673.65,617.998 C1670.53,617.998 1667.89,617.186 1665.75,615.561 C1663.72,613.8 1662.71,611.587 1662.71,608.92 C1662.71,604.43 1665.06,600.233 1669.75,596.326 C1674.31,592.42 1679.29,590.467 1684.68,590.467"/>
<path class="Note" d="M1814.41,577.967 C1817.53,577.967 1820.17,578.779 1822.33,580.404 C1824.34,582.165 1825.35,584.378 1825.35,587.045 C1825.35,591.535 1823.04,595.733 1818.42,599.639 C1813.74,603.545 1808.72,605.498 1803.38,605.498 C1800.25,605.498 1797.62,604.686 1795.47,603.061 C1793.45,601.3 1792.44,599.087 1792.44,596.42 C1792.44,591.93 1794.78,587.733 1799.47,583.826 C1804.03,579.92 1809.01,577.967 1814.41,577.967"/>
<path class="Note" d="M1983.61,572.686 C1983.61,571.582 1983.19,570.639 1982.35,569.858 C1981.49,569.014 1980.51,568.592 1979.41,568.592 C1977.46,568.592 1973.52,570.545 1967.6,574.451 C1961.47,578.42 1957.73,581.253 1956.36,582.951 C1955.64,583.858 1955.29,584.8 1955.29,585.779 C1955.29,586.884 1955.71,587.826 1956.57,588.608 C1957.35,589.451 1958.32,589.873 1959.49,589.873 C1961.37,589.873 1965.35,587.92 1971.41,584.014 C1977.4,580.108 1981.11,577.274 1982.54,575.514 C1983.25,574.67 1983.61,573.727 1983.61,572.686 M1978.44,565.467 C1984.04,565.467 1986.83,567.873 1986.83,572.686 C1986.83,575.029 1986.15,577.764 1984.79,580.889 C1983.42,583.951 1981.6,586.295 1979.32,587.92 C1974.31,591.305 1968.02,592.998 1960.47,592.998 C1954.87,592.998 1952.07,590.592 1952.07,585.779 C1952.07,583.634 1952.75,580.93 1954.11,577.67 C1955.42,574.545 1957.24,572.17 1959.58,570.545 C1964.6,567.16 1970.89,565.467 1978.44,565.467"/>
<path class="Note" d="M2194.7,585.186 C2194.7,584.082 2194.28,583.139 2193.44,582.358 C2192.58,581.514 2191.6,581.092 2190.5,581.092 C2188.55,581.092 2184.61,583.045 2178.69,586.951 C2172.56,590.92 2168.82,593.753 2167.45,595.451 C2166.73,596.358 2166.37,597.3 2166.37,598.279 C2166.37,599.384 2166.8,600.326 2167.66,601.108 C2168.44,601.951 2169.41,602.373 2170.58,602.373 C2172.46,602.373 2176.44,600.42 2182.5,596.514 C2188.49,592.608 2192.2,589.774 2193.62,588.014 C2194.34,587.17 2194.7,586.227 2194.7,585.186 M2189.53,577.967 C2195.12,577.967 2197.92,580.373 2197.92,585.186 C2197.92,587.529 2197.24,590.264 2195.87,593.389 C2194.51,596.451 2192.69,598.795 2190.41,600.42 C2185.4,603.805 2179.11,605.498 2171.56,605.498 C2165.96,605.498 2163.16,603.092 2163.16,598.279 C2163.16,596.134 2163.84,593.43 2165.2,590.17 C2166.5,587.045 2168.33,584.67 2170.67,583.045 C2175.69,579.66 2181.98,577.967 2189.53,577.967"/>
<path class="Note" d="M2436.6,597.686 C2436.6,596.582 2436.17,595.639 2435.33,594.858 C2434.48,594.014 2433.5,593.592 2432.39,593.592 C2430.45,593.592 2426.51,595.545 2420.58,599.451 C2414.46,603.42 2410.71,606.253 2409.35,607.951 C2408.63,608.858 2408.27,609.8 2408.27,610.779 C2408.27,611.884 2408.7,612.826 2409.55,613.608 C2410.33,614.451 2411.3,614.873 2412.47,614.873 C2414.36,614.873 2418.33,612.92 2424.39,609.014 C2430.38,605.108 2434.09,602.274 2435.52,600.514 C2436.24,599.67 2436.6,598.727 2436.6,597.686 M2431.42,590.467 C2437.02,590.467 2439.82,592.873 2439.82,597.686 C2439.82,600.029 2439.13,602.764 2437.77,605.889 C2436.4,608.951 2434.58,611.295 2432.3,612.92 C2427.29,616.305 2421.01,617.998 2413.46,617.998 C2407.85,617.998 2405.05,615.592 2405.05,610.779 C2405.05,608.634 2405.73,605.93 2407.1,602.67 C2408.4,599.545 2410.22,597.17 2412.57,595.545 C2417.59,592.16 2423.87,590.467 2431.42,590.467"/>
<path class="Clef" d="M198.451,616.139 C198.451,616.139 198.649,616.139 199.045,616.139 C199.305,616.076 199.529,616.045 199.717,616.045 C207.008,616.045 212.998,618.618 217.685,623.764 C222.373,628.837 224.717,634.759 224.717,641.529 C224.717,649.936 221.238,656.774 214.279,662.045 C212.456,663.483 210.076,664.654 207.139,665.561 C207.472,669.79 207.639,673.207 207.639,675.811 C207.639,676.332 207.571,678.222 207.435,681.483 C207.175,687.535 205.092,692.774 201.185,697.201 C197.415,701.566 192.727,703.748 187.123,703.748 C181.852,703.748 177.363,701.894 173.654,698.186 C169.935,694.404 168.076,689.847 168.076,684.514 C168.076,681.712 169.154,679.332 171.31,677.373 C173.519,675.425 176.086,674.451 179.014,674.451 C181.618,674.451 183.8,675.462 185.56,677.483 C187.383,679.368 188.295,681.712 188.295,684.514 C188.295,687.045 187.383,689.222 185.56,691.045 C183.738,692.868 181.555,693.779 179.014,693.779 C177.972,693.779 176.967,693.587 175.998,693.201 C178.863,697.431 182.67,699.545 187.42,699.545 C191.909,699.545 195.586,697.722 198.451,694.076 C201.451,690.306 203.081,685.91 203.342,680.889 C203.467,677.764 203.529,675.977 203.529,675.529 C203.529,671.884 203.399,668.889 203.139,666.545 C199.889,667.066 196.993,667.326 194.451,667.326 C185.399,667.326 177.685,663.743 171.31,656.576 C165.06,649.347 161.935,640.753 161.935,630.795 C161.935,628.712 162.128,626.597 162.514,624.451 C162.909,622.691 163.399,620.769 163.982,618.686 C164.305,617.509 165.185,615.618 166.623,613.014 C167.144,612.233 167.73,611.256 168.381,610.084 C169.032,608.912 169.488,608.134 169.748,607.748 C170.394,606.446 171.659,604.686 173.545,602.467 C174.066,601.884 174.605,601.235 175.162,600.522 C175.719,599.808 176.193,599.222 176.584,598.764 C176.974,598.306 177.266,597.946 177.459,597.686 C177.652,597.425 179.118,595.701 181.857,592.514 C182.503,591.858 183.136,591.157 183.756,590.412 C184.376,589.667 184.881,589.082 185.271,588.654 C185.662,588.227 185.956,587.92 186.154,587.733 C183.81,579.983 182.342,573.795 181.748,569.17 C181.3,565.462 181.076,560.384 181.076,553.936 C181.076,548.269 182.378,542.962 184.982,538.014 C187.514,532.878 191.06,528.681 195.623,525.42 C195.883,525.222 196.206,525.123 196.592,525.123 C197.05,525.123 197.378,525.222 197.576,525.42 C201.086,529.649 204.113,535.149 206.654,541.92 C209.258,548.691 210.56,554.847 210.56,560.389 C210.56,566.639 209.066,572.498 206.076,577.967 C202.691,583.759 198.326,589.748 192.982,595.936 C194.347,600.227 196.17,606.962 198.451,616.139 M206.748,661.561 C210.133,660.321 212.774,658.207 214.67,655.217 C216.753,652.352 217.795,649.128 217.795,645.545 C217.795,640.92 216.232,636.816 213.107,633.233 C209.909,629.524 205.836,627.441 200.889,626.983 C203.691,640.722 205.644,652.248 206.748,661.561 M168.967,638.998 C168.967,645.446 171.571,651.113 176.779,655.998 C182.113,660.748 188.102,663.123 194.748,663.123 C197.477,663.123 200.144,662.925 202.748,662.529 C201.706,652.634 199.654,640.785 196.592,626.983 C192.883,627.378 189.925,628.681 187.717,630.889 C185.56,633.17 184.482,635.743 184.482,638.608 C184.482,643.556 187.123,647.561 192.404,650.623 C192.852,651.082 193.076,651.571 193.076,652.092 C193.076,652.613 192.852,653.097 192.404,653.545 C192.008,654.003 191.519,654.233 190.935,654.233 C190.873,654.233 190.581,654.17 190.06,654.045 C186.342,652.024 183.477,649.42 181.467,646.233 C179.571,642.837 178.623,639.415 178.623,635.967 C178.623,631.477 180.024,627.41 182.826,623.764 C185.753,620.118 189.56,617.774 194.248,616.733 C192.425,609.441 190.93,603.743 189.764,599.639 C188.722,600.816 187.469,602.233 186.006,603.889 C184.542,605.545 183.68,606.54 183.42,606.873 C181.076,609.925 179.284,612.3 178.045,613.998 C175.826,617.061 174.196,619.696 173.154,621.904 C172.05,624.384 171.076,627.087 170.232,630.014 C169.389,632.816 168.967,635.811 168.967,638.998 M201.576,539.686 C196.691,542.092 192.852,545.54 190.06,550.029 C187.196,554.654 185.764,559.634 185.764,564.967 C185.764,569.654 186.935,575.972 189.279,583.92 C193.967,578.253 197.482,573.014 199.826,568.201 C202.295,563.118 203.529,557.811 203.529,552.279 C203.529,548.113 202.878,543.915 201.576,539.686"/>
<path class="TimeSig" d="M272.467,567.912 C274.415,567.912 276.073,567.686 277.443,567.233 C278.813,566.779 279.691,566.553 280.076,566.553 C280.534,566.553 280.894,566.683 281.154,566.944 C281.352,567.131 281.482,567.355 281.545,567.615 C281.545,567.751 281.477,567.949 281.342,568.209 L252.935,601.225 L269.623,601.225 L269.623,588.131 C269.623,587.287 269.852,586.569 270.31,585.975 C271.092,585.329 271.743,584.938 272.264,584.803 C273.107,584.417 274.149,583.506 275.389,582.069 C276.43,580.902 277.67,578.855 279.107,575.928 C279.295,575.532 279.587,575.334 279.982,575.334 C280.764,575.334 281.217,575.792 281.342,576.709 L281.342,601.225 L288.482,601.225 C289.389,601.225 289.909,601.709 290.045,602.678 C290.045,603.657 289.524,604.147 288.482,604.147 L281.342,604.147 L281.342,604.928 C281.342,607.532 281.993,609.746 283.295,611.569 C284.795,613.391 286.555,614.303 288.576,614.303 C289.357,614.303 289.748,614.694 289.748,615.475 C289.748,616.256 289.357,616.647 288.576,616.647 C287.212,616.647 284.998,616.454 281.935,616.069 C279.133,615.61 276.951,615.381 275.389,615.381 C273.764,615.381 271.581,615.61 268.842,616.069 C265.915,616.454 263.738,616.647 262.31,616.647 C261.529,616.647 261.139,616.256 261.139,615.475 C261.139,614.694 261.529,614.303 262.31,614.303 C264.321,614.303 266.076,613.391 267.576,611.569 C268.941,609.683 269.623,607.47 269.623,604.928 L269.623,604.147 L252.935,604.147 C251.821,604.147 251.04,603.886 250.592,603.365 C250.06,602.98 249.795,602.459 249.795,601.803 C249.795,601.605 250.284,600.923 251.264,599.756 C252.378,598.454 253.55,596.86 254.779,594.975 C256.217,592.756 257.587,590.475 258.889,588.131 C260.316,585.464 261.456,582.402 262.31,578.944 C263.279,575.433 263.764,571.855 263.764,568.209 C263.764,567.167 264.222,566.647 265.139,566.647 C265.337,566.647 265.758,566.746 266.404,566.944 C266.602,567.006 267.011,567.102 267.631,567.233 C268.251,567.363 268.753,567.49 269.139,567.615 C270.316,567.813 271.425,567.912 272.467,567.912"/>
<path class="TimeSig" d="M272.467,618.084 C274.415,618.084 276.073,617.858 277.443,617.404 C278.813,616.951 279.691,616.725 280.076,616.725 C280.534,616.725 280.894,616.855 281.154,617.115 C281.352,617.303 281.482,617.527 281.545,617.787 C281.545,617.923 281.477,618.121 281.342,618.381 L252.935,651.397 L269.623,651.397 L269.623,638.303 C269.623,637.459 269.852,636.74 270.31,636.147 C271.092,635.501 271.743,635.11 272.264,634.975 C273.107,634.589 274.149,633.678 275.389,632.24 C276.43,631.074 277.67,629.027 279.107,626.1 C279.295,625.704 279.587,625.506 279.982,625.506 C280.764,625.506 281.217,625.964 281.342,626.881 L281.342,651.397 L288.482,651.397 C289.389,651.397 289.909,651.881 290.045,652.85 C290.045,653.829 289.524,654.319 288.482,654.319 L281.342,654.319 L281.342,655.1 C281.342,657.704 281.993,659.917 283.295,661.74 C284.795,663.563 286.555,664.475 288.576,664.475 C289.357,664.475 289.748,664.865 289.748,665.647 C289.748,666.428 289.357,666.819 288.576,666.819 C287.212,666.819 284.998,666.626 281.935,666.24 C279.133,665.782 276.951,665.553 275.389,665.553 C273.764,665.553 271.581,665.782 268.842,666.24 C265.915,666.626 263.738,666.819 262.31,666.819 C261.529,666.819 261.139,666.428 261.139,665.647 C261.139,664.865 261.529,664.475 262.31,664.475 C264.321,664.475 266.076,663.563 267.576,661.74 C268.941,659.855 269.623,657.641 269.623,655.1 L269.623,654.319 L252.935,654.319 C251.821,654.319 251.04,654.058 250.592,653.537 C250.06,653.152 249.795,652.631 249.795,651.975 C249.795,651.777 250.284,651.095 251.264,649.928 C252.378,648.626 253.55,647.032 254.779,645.147 C256.217,642.928 257.587,640.647 258.889,638.303 C260.316,635.636 261.456,632.574 262.31,629.115 C263.279,625.605 263.764,622.027 263.764,618.381 C263.764,617.339 264.222,616.819 265.139,616.819 C265.337,616.819 265.758,616.917 266.404,617.115 C266.602,617.178 267.011,617.274 267.631,617.404 C268.251,617.535 268.753,617.662 269.139,617.787 C270.316,617.985 271.425,618.084 272.467,618.084"/>
<path class="Rest" d="M376.436,616.733 L340.889,616.733 C340.232,616.733 339.904,616.404 339.904,615.748 L339.904,602.076 C339.904,601.43 340.232,601.108 340.889,601.108 L376.436,601.108 C377.081,601.108 377.404,601.43 377.404,602.076 L377.404,615.748 C377.404,616.404 377.081,616.733 376.436,616.733"/>
<path class="Rest" d="M2655.24,616.733 L2619.69,616.733 C2619.04,616.733 2618.71,616.404 2618.71,615.748 L2618.71,602.076 C2618.71,601.43 2619.04,601.108 2619.69,601.108 L2655.24,601.108 C2655.89,601.108 2656.21,601.43 2656.21,602.076 L2656.21,615.748 C2656.21,616.404 2655.89,616.733 2655.24,616.733"/>
<path class="Beam" fill-rule="evenodd" d="M1246.05,654.217 L1338.45,660.695 L1338.45,673.226 L1246.05,666.748 L1246.05,654.217 "/>
<path class="Hook" d="M1037.01,594.373 C1038.51,594.373 1040.11,596.811 1041.81,601.686 C1043.43,606.509 1044.25,611.102 1044.25,615.467 C1044.25,619.175 1043.34,622.852 1041.51,626.498 C1039.63,630.404 1037.38,633.79 1034.78,636.654 L1026.76,645.639 C1024.29,648.503 1022.08,651.821 1020.12,655.592 C1018.3,659.238 1017.39,662.951 1017.39,666.733 L1014.26,666.733 L1014.26,641.733 L1017.39,641.733 C1019.15,640.628 1021.75,638.868 1025.2,636.451 C1026.76,635.285 1029.11,633.332 1032.23,630.592 C1034.77,628.248 1036.7,625.842 1038,623.373 C1039.36,620.769 1040.04,618.134 1040.04,615.467 C1040.04,609.279 1038.25,603.123 1034.67,596.998 C1034.67,596.998 1034.67,596.868 1034.67,596.608 C1034.67,596.024 1034.87,595.54 1035.26,595.154 C1035.78,594.634 1036.37,594.373 1037.01,594.373"/>
<path class="NoteDot" d="M883.663,558.24 C882.553,557.131 881.999,555.795 881.999,554.233 C881.999,552.67 882.553,551.334 883.663,550.225 C884.772,549.115 886.108,548.561 887.671,548.561 C889.233,548.561 890.566,549.115 891.671,550.225 C892.775,551.334 893.327,552.67 893.327,554.233 C893.327,555.795 892.775,557.131 891.671,558.24 C890.566,559.35 889.233,559.904 887.671,559.904 C886.108,559.904 884.772,559.35 883.663,558.24"/>
</svg>
