<?xml version="1.0" encoding="UTF-8" standalone="no"?>
<svg width="2977.2px" height="4208.4px" viewBox="0 0 2977.2 4208.4"
 xmlns="http://www.w3.org/2000/svg" xmlns:xlink="http://www.w3.org/1999/xlink" version="1.2" baseProfile="tiny">
<title>88-michael-row-the-boat</title>
<desc>Generated by MuseScore 3.4.2</desc>
<polyline class="StaffLines" fill="none" stroke="#000000" stroke-width="2.00" stroke-linejoin="bevel" points="141.732,566.733 2835.47,566.733"/>
<polyline class="StaffLines" fill="none" stroke="#000000" stroke-width="2.00" stroke-linejoin="bevel" points="141.732,591.733 2835.47,591.733"/>
<polyline class="StaffLines" fill="none" stroke="#000000" stroke-width="2.00" stroke-linejoin="bevel" points="141.732,616.733 2835.47,616.733"/>
<polyline class="StaffLines" fill="none" stroke="#000000" stroke-width="2.00" stroke-linejoin="bevel" points="141.732,641.733 2835.47,641.733"/>
<polyline class="StaffLines" fill="none" stroke="#000000" stroke-width="2.00" stroke-linejoin="bevel" points="141.732,666.733 2835.47,666.733"/>
<polyline class="StaffLines" fill="none" stroke="#000000" stroke-width="2.00" stroke-linejoin="bevel" points="141.732,1041.73 2835.47,1041.73"/>
<polyline class="StaffLines" fill="none" stroke="#000000" stroke-width="2.00" stroke-linejoin="bevel" points="141.732,1066.73 2835.47,1066.73"/>
<polyline class="StaffLines" fill="none" stroke="#000000" stroke-width="2.00" stroke-linejoin="bevel" points="141.732,1091.73 2835.47,1091.73"/>
<polyline class="StaffLines" fill="none" stroke="#000000" stroke-width="2.00" stroke-linejoin="bevel" points="141.732,1116.73 2835.47,1116.73"/>
<polyline class="StaffLines" fill="none" stroke="#000000" stroke-width="2.00" stroke-linejoin="bevel" points="141.732,1141.73 2835.47,1141.73"/>
<path class="Text" d="M876.889,179.107 C884.086,184.451 888.985,188.938 891.584,192.568 C894.183,196.198 895.482,200.326 895.482,204.951 C895.482,211.17 893.344,216.136 889.068,219.849 C884.792,223.563 879.055,225.42 871.857,225.42 C865.055,225.42 859.514,223.56 855.232,219.842 C850.951,216.123 848.81,211.316 848.81,205.42 C848.81,201.357 849.79,197.951 851.748,195.201 C853.706,192.451 857.925,188.644 864.404,183.779 C858.092,178.269 854.034,174.159 852.232,171.451 C850.43,168.743 849.529,165.435 849.529,161.529 C849.529,156.029 851.691,151.461 856.014,147.826 C860.336,144.191 865.774,142.373 872.326,142.373 C878.326,142.373 883.266,143.993 887.146,147.232 C891.027,150.472 892.967,154.597 892.967,159.607 C892.967,163.68 891.766,167.152 889.365,170.021 C886.964,172.891 882.805,175.92 876.889,179.107 M867.529,186.17 C864.008,188.961 861.529,191.753 860.092,194.545 C858.654,197.336 857.935,200.644 857.935,204.467 C857.935,209.654 859.334,213.842 862.131,217.029 C864.928,220.217 868.607,221.81 873.17,221.81 C877.086,221.81 880.266,220.594 882.709,218.162 C885.152,215.73 886.373,212.56 886.373,208.654 C886.373,207.373 886.232,206.175 885.951,205.06 C885.67,203.946 885.389,202.969 885.107,202.131 C884.826,201.292 884.266,200.355 883.428,199.318 C882.589,198.282 881.909,197.464 881.389,196.865 C880.868,196.266 879.928,195.409 878.568,194.295 C877.209,193.18 876.191,192.383 875.514,191.904 C874.836,191.425 873.558,190.508 871.678,189.154 C869.797,187.8 868.415,186.805 867.529,186.17 M873.404,176.951 C873.487,176.878 874.029,176.503 875.029,175.826 C876.029,175.149 876.751,174.61 877.193,174.209 C877.636,173.808 878.316,173.188 879.232,172.349 C880.149,171.511 880.847,170.714 881.326,169.959 C881.805,169.204 882.347,168.287 882.951,167.209 C883.555,166.131 883.995,164.933 884.271,163.615 C884.547,162.297 884.685,160.925 884.685,159.498 C884.685,155.352 883.487,152.063 881.092,149.631 C878.696,147.198 875.456,145.982 871.373,145.982 C867.612,145.982 864.511,147.097 862.068,149.326 C859.626,151.555 858.404,154.383 858.404,157.81 C858.404,161.165 859.566,164.318 861.889,167.271 C864.211,170.224 868.05,173.451 873.404,176.951 M936.889,179.107 C944.086,184.451 948.985,188.938 951.584,192.568 C954.183,196.198 955.482,200.326 955.482,204.951 C955.482,211.17 953.344,216.136 949.068,219.849 C944.792,223.563 939.055,225.42 931.857,225.42 C925.055,225.42 919.514,223.56 915.232,219.842 C910.951,216.123 908.81,211.316 908.81,205.42 C908.81,201.357 909.79,197.951 911.748,195.201 C913.706,192.451 917.925,188.644 924.404,183.779 C918.092,178.269 914.034,174.159 912.232,171.451 C910.43,168.743 909.529,165.435 909.529,161.529 C909.529,156.029 911.691,151.461 916.014,147.826 C920.336,144.191 925.774,142.373 932.326,142.373 C938.326,142.373 943.266,143.993 947.146,147.232 C951.027,150.472 952.967,154.597 952.967,159.607 C952.967,163.68 951.766,167.152 949.365,170.021 C946.964,172.891 942.805,175.92 936.889,179.107 M927.529,186.17 C924.008,188.961 921.529,191.753 920.092,194.545 C918.654,197.336 917.935,200.644 917.935,204.467 C917.935,209.654 919.334,213.842 922.131,217.029 C924.928,220.217 928.607,221.81 933.17,221.81 C937.086,221.81 940.266,220.594 942.709,218.162 C945.152,215.73 946.373,212.56 946.373,208.654 C946.373,207.373 946.232,206.175 945.951,205.06 C945.67,203.946 945.389,202.969 945.107,202.131 C944.826,201.292 944.266,200.355 943.428,199.318 C942.589,198.282 941.909,197.464 941.389,196.865 C940.868,196.266 939.928,195.409 938.568,194.295 C937.209,193.18 936.191,192.383 935.514,191.904 C934.836,191.425 933.558,190.508 931.678,189.154 C929.797,187.8 928.415,186.805 927.529,186.17 M933.404,176.951 C933.487,176.878 934.029,176.503 935.029,175.826 C936.029,175.149 936.751,174.61 937.193,174.209 C937.636,173.808 938.316,173.188 939.232,172.349 C940.149,171.511 940.847,170.714 941.326,169.959 C941.805,169.204 942.347,168.287 942.951,167.209 C943.555,166.131 943.995,164.933 944.271,163.615 C944.547,162.297 944.685,160.925 944.685,159.498 C944.685,155.352 943.487,152.063 941.092,149.631 C938.696,147.198 935.456,145.982 931.373,145.982 C927.612,145.982 924.511,147.097 922.068,149.326 C919.626,151.555 918.404,154.383 918.404,157.81 C918.404,161.165 919.566,164.318 921.889,167.271 C924.211,170.224 928.05,173.451 933.404,176.951 M996.779,192.889 L1026.29,192.889 L1026.29,200.451 L996.779,200.451 L996.779,192.889 M1143.33,154.982 L1112.61,223.732 L1110.94,223.732 L1080.81,157.732 L1080.81,206.092 C1080.81,212.175 1081.53,216.196 1082.97,218.154 C1084.42,220.112 1087.46,221.211 1092.09,221.451 L1092.09,223.732 L1063.89,223.732 L1063.89,221.451 C1068.85,221.128 1072.03,220.027 1073.43,218.146 C1074.83,216.266 1075.53,212.248 1075.53,206.092 L1075.53,157.373 C1075.53,152.977 1074.87,150.159 1073.55,148.92 C1072.23,147.68 1069.1,146.899 1064.14,146.576 L1064.14,144.295 L1087.89,144.295 L1115.61,204.889 L1142.12,144.295 L1166.01,144.295 L1166.01,146.576 C1161.53,146.972 1158.67,147.81 1157.43,149.092 C1156.18,150.373 1155.56,153.133 1155.56,157.373 L1155.56,210.654 C1155.56,214.894 1156.2,217.672 1157.48,218.99 C1158.76,220.308 1161.61,221.128 1166.01,221.451 L1166.01,223.732 L1132.4,223.732 L1132.4,221.451 C1137.12,221.128 1140.12,220.269 1141.4,218.873 C1142.69,217.477 1143.33,214.295 1143.33,209.326 L1143.33,154.982 M1175.53,176.576 C1173.77,176.576 1172.09,176.696 1170.5,176.935 L1170.5,175.139 C1176.09,173.534 1182.29,171.331 1189.09,168.529 L1189.58,168.889 L1189.58,211.498 C1189.58,215.81 1190.08,218.547 1191.08,219.709 C1192.08,220.87 1194.53,221.612 1198.45,221.935 L1198.45,223.732 L1170.01,223.732 L1170.01,221.935 C1174.17,221.696 1176.79,220.974 1177.87,219.771 C1178.96,218.568 1179.5,215.81 1179.5,211.498 L1179.5,183.654 C1179.5,181.019 1179.2,179.18 1178.59,178.139 C1177.99,177.097 1176.97,176.576 1175.53,176.576 M1183.45,141.779 C1185.21,141.779 1186.69,142.378 1187.89,143.576 C1189.09,144.774 1189.69,146.211 1189.69,147.889 C1189.69,149.649 1189.09,151.11 1187.89,152.271 C1186.69,153.433 1185.21,154.014 1183.45,154.014 C1181.77,154.014 1180.35,153.415 1179.19,152.217 C1178.03,151.019 1177.45,149.579 1177.45,147.896 C1177.45,146.214 1178.05,144.774 1179.25,143.576 C1180.45,142.378 1181.85,141.779 1183.45,141.779 M1204.09,198.154 C1204.09,189.279 1206.71,182.123 1211.95,176.685 C1217.19,171.248 1223.33,168.529 1230.37,168.529 C1235.41,168.529 1239.76,169.751 1243.4,172.193 C1247.04,174.636 1248.86,177.534 1248.86,180.889 C1248.86,182.253 1248.29,183.435 1247.17,184.435 C1246.04,185.435 1244.69,185.935 1243.09,185.935 C1240.37,185.935 1238.49,184.112 1237.45,180.467 L1236.73,177.842 C1236.09,175.623 1235.28,174.118 1234.33,173.326 C1233.37,172.534 1231.81,172.139 1229.65,172.139 C1224.77,172.139 1220.83,174.068 1217.83,177.928 C1214.83,181.787 1213.33,186.779 1213.33,192.904 C1213.33,199.748 1215.07,205.336 1218.54,209.67 C1222.02,214.003 1226.49,216.17 1231.94,216.17 C1235.37,216.17 1238.33,215.334 1240.81,213.662 C1243.29,211.99 1245.97,209.086 1248.86,204.951 L1250.53,206.029 C1249.73,207.633 1249.03,208.956 1248.43,209.998 C1247.83,211.04 1246.75,212.605 1245.19,214.693 C1243.64,216.782 1242.1,218.469 1240.58,219.756 C1239.06,221.042 1237.06,222.227 1234.58,223.31 C1232.1,224.394 1229.53,224.935 1226.89,224.935 C1220.25,224.935 1214.79,222.433 1210.51,217.428 C1206.23,212.422 1204.09,205.998 1204.09,198.154 M1273.04,182.576 L1273.04,211.498 C1273.04,215.654 1273.53,218.331 1274.49,219.529 C1275.45,220.727 1277.7,221.529 1281.22,221.935 L1281.22,223.732 L1255.29,223.732 L1255.29,221.935 C1258.73,221.456 1260.87,220.657 1261.71,219.537 C1262.55,218.417 1262.97,215.737 1262.97,211.498 L1262.97,154.982 C1262.97,152.42 1262.63,150.737 1261.95,149.935 C1261.27,149.133 1259.77,148.732 1257.45,148.732 C1256.89,148.732 1256.21,148.816 1255.4,148.982 L1255.4,147.06 C1261.09,145.54 1266.77,143.779 1272.45,141.779 L1273.04,142.139 L1273.04,178.607 C1275.77,175.014 1278.52,172.435 1281.27,170.873 C1284.03,169.31 1287.16,168.529 1290.69,168.529 C1300.53,168.529 1305.45,174.889 1305.45,187.607 L1305.45,211.498 C1305.45,215.654 1305.83,218.271 1306.59,219.349 C1307.35,220.428 1309.37,221.29 1312.65,221.935 L1312.65,223.732 L1287.22,223.732 L1287.22,221.935 C1290.65,221.612 1292.87,220.81 1293.87,219.529 C1294.87,218.248 1295.37,215.571 1295.37,211.498 L1295.37,187.732 C1295.37,179.253 1292.37,175.014 1286.37,175.014 C1284.05,175.014 1281.87,175.594 1279.83,176.756 C1277.78,177.917 1275.52,179.857 1273.04,182.576 M1317.09,211.889 C1317.09,210.451 1317.25,209.115 1317.57,207.881 C1317.89,206.646 1318.45,205.493 1319.25,204.42 C1320.05,203.347 1320.81,202.373 1321.53,201.498 C1322.25,200.623 1323.33,199.727 1324.77,198.81 C1326.21,197.894 1327.41,197.139 1328.37,196.545 C1329.33,195.951 1330.79,195.235 1332.75,194.396 C1334.71,193.558 1336.21,192.92 1337.25,192.482 C1338.29,192.045 1339.93,191.389 1342.17,190.514 C1344.41,189.639 1346.05,189.003 1347.09,188.607 L1347.09,181.326 C1347.09,174.722 1344.05,171.42 1337.97,171.42 C1335.57,171.42 1333.53,171.998 1331.85,173.154 C1330.17,174.31 1329.33,175.691 1329.33,177.295 C1329.33,177.93 1329.43,178.808 1329.63,179.928 C1329.83,181.047 1329.94,181.769 1329.94,182.092 C1329.94,183.456 1329.39,184.639 1328.31,185.639 C1327.23,186.639 1325.97,187.139 1324.53,187.139 C1323.17,187.139 1321.98,186.618 1320.94,185.576 C1319.89,184.534 1319.37,183.331 1319.37,181.967 C1319.37,178.217 1321.31,175.04 1325.19,172.435 C1329.07,169.831 1333.85,168.529 1339.53,168.529 C1346.09,168.529 1350.61,170.102 1353.09,173.248 C1355.57,176.394 1356.81,181.196 1356.81,187.654 L1356.81,210.935 C1356.81,213.56 1357.07,215.37 1357.59,216.365 C1358.11,217.36 1359.05,217.857 1360.4,217.857 C1362.09,217.857 1363.85,217.102 1365.69,215.592 L1365.69,218.732 C1363.61,221.128 1361.79,222.761 1360.23,223.631 C1358.67,224.501 1356.89,224.935 1354.89,224.935 C1352.41,224.935 1350.59,224.237 1349.43,222.842 C1348.27,221.446 1347.53,219.144 1347.22,215.935 C1340.33,221.935 1334.49,224.935 1329.69,224.935 C1326.01,224.935 1322.99,223.714 1320.63,221.271 C1318.27,218.829 1317.09,215.701 1317.09,211.889 M1347.09,208.779 L1347.09,191.467 C1339.89,194.092 1334.85,196.639 1331.97,199.107 C1329.09,201.576 1327.65,204.56 1327.65,208.06 C1327.65,211.321 1328.45,213.748 1330.05,215.342 C1331.65,216.935 1333.37,217.732 1335.22,217.732 C1337.94,217.732 1340.85,216.816 1343.97,214.982 C1345.25,214.274 1346.09,213.521 1346.49,212.724 C1346.89,211.928 1347.09,210.612 1347.09,208.779 M1377.73,190.498 C1377.89,195.54 1378.57,199.878 1379.77,203.514 C1380.97,207.149 1382.53,209.868 1384.45,211.67 C1386.37,213.472 1388.31,214.753 1390.27,215.514 C1392.23,216.274 1394.29,216.654 1396.45,216.654 C1400.29,216.654 1403.64,215.693 1406.47,213.771 C1409.31,211.849 1412.17,208.612 1415.04,204.06 L1416.97,204.889 C1414.49,211.368 1411.05,216.329 1406.65,219.771 C1402.25,223.214 1397.21,224.935 1391.53,224.935 C1384.65,224.935 1379.2,222.516 1375.15,217.678 C1371.11,212.839 1369.09,206.3 1369.09,198.06 C1369.09,189.175 1371.43,182.032 1376.12,176.631 C1380.8,171.23 1386.82,168.529 1394.17,168.529 C1400.25,168.529 1404.97,170.349 1408.33,173.99 C1411.69,177.631 1413.81,183.133 1414.69,190.498 L1377.73,190.498 M1377.97,186.889 L1402.45,186.889 C1401.65,181.691 1400.41,178.092 1398.73,176.092 C1397.06,174.092 1394.37,173.092 1390.69,173.092 C1383.49,173.092 1379.25,177.691 1377.97,186.889 M1420.29,148.982 L1420.29,147.06 C1428.21,145.133 1434.57,143.373 1439.37,141.779 L1439.86,142.014 L1439.86,213.654 C1439.86,216.935 1440.4,219.076 1441.47,220.076 C1442.55,221.076 1445.01,221.696 1448.86,221.935 L1448.86,223.732 L1420.53,223.732 L1420.53,221.935 C1424.29,221.612 1426.77,220.891 1427.97,219.771 C1429.16,218.652 1429.76,216.493 1429.76,213.295 L1429.76,156.06 C1429.76,153.258 1429.4,151.336 1428.69,150.295 C1427.97,149.253 1426.65,148.732 1424.73,148.732 C1423.13,148.732 1421.65,148.816 1420.29,148.982 M1515.01,144.295 C1518.45,144.295 1521.73,144.576 1524.85,145.139 C1527.97,145.701 1531.19,146.683 1534.51,148.084 C1537.82,149.485 1540.48,151.67 1542.48,154.639 C1544.48,157.607 1545.48,161.222 1545.48,165.482 C1545.48,176.086 1538.45,182.701 1524.37,185.326 C1524.13,185.409 1523.93,185.451 1523.76,185.451 L1548.48,215.81 C1550.17,217.81 1551.75,219.211 1553.23,220.014 C1554.71,220.816 1556.61,221.295 1558.94,221.451 L1558.94,223.732 L1539.61,223.732 L1511.04,186.779 L1504.33,187.014 L1504.33,210.654 C1504.33,214.977 1504.97,217.777 1506.25,219.053 C1507.53,220.329 1510.49,221.128 1515.12,221.451 L1515.12,223.732 L1481.89,223.732 L1481.89,221.451 C1486.37,221.128 1489.19,220.269 1490.35,218.873 C1491.51,217.477 1492.09,214.295 1492.09,209.326 L1492.09,157.373 C1492.09,153.133 1491.51,150.394 1490.35,149.154 C1489.19,147.915 1486.37,147.055 1481.89,146.576 L1481.89,144.295 L1515.01,144.295 M1504.33,182.576 C1514.01,182.42 1521.12,181.144 1525.63,178.748 C1530.15,176.352 1532.4,171.847 1532.4,165.232 C1532.4,159.659 1530.63,155.537 1527.07,152.865 C1523.51,150.193 1517.97,148.857 1510.45,148.857 C1508.06,148.857 1506.44,149.157 1505.59,149.756 C1504.75,150.355 1504.33,151.487 1504.33,153.154 L1504.33,182.576 M1589.61,168.529 C1597.28,168.529 1603.6,171.092 1608.57,176.217 C1613.53,181.342 1616.01,187.826 1616.01,195.67 C1616.01,203.982 1613.45,210.938 1608.33,216.537 C1603.21,222.136 1596.89,224.935 1589.37,224.935 C1581.85,224.935 1575.59,222.235 1570.59,216.834 C1565.59,211.433 1563.09,204.696 1563.09,196.623 C1563.09,188.383 1565.55,181.641 1570.47,176.396 C1575.4,171.152 1581.77,168.529 1589.61,168.529 M1573.89,190.795 C1573.89,199.274 1575.45,206.482 1578.57,212.42 C1581.69,218.357 1585.77,221.326 1590.81,221.326 C1595.29,221.326 1598.81,219.425 1601.37,215.623 C1603.94,211.821 1605.22,206.555 1605.22,199.826 C1605.22,191.659 1603.62,185.003 1600.41,179.857 C1597.21,174.711 1593.09,172.139 1588.04,172.139 C1583.81,172.139 1580.39,173.842 1577.79,177.248 C1575.19,180.654 1573.89,185.17 1573.89,190.795 M1659.29,186.529 C1657.13,180.133 1655.47,176.115 1654.31,174.474 C1653.15,172.834 1651.25,171.852 1648.61,171.529 L1648.61,169.732 L1672.97,169.732 L1672.97,171.529 C1670.16,171.935 1668.31,172.417 1667.39,172.974 C1666.47,173.532 1666.01,174.493 1666.01,175.857 C1666.01,176.899 1666.69,179.258 1668.04,182.935 L1678.12,209.81 L1688.94,183.17 C1690.29,179.816 1690.97,177.175 1690.97,175.248 C1690.97,174.217 1690.61,173.441 1689.89,172.92 C1689.17,172.399 1687.77,171.935 1685.69,171.529 L1685.69,169.732 L1700.45,169.732 L1700.45,171.529 C1699.25,171.935 1698.39,172.498 1697.87,173.217 C1697.35,173.935 1696.57,175.534 1695.53,178.014 L1678.97,219.529 C1677.37,223.456 1676.26,225.42 1675.62,225.42 C1674.97,225.42 1674.01,223.696 1672.73,220.248 L1661.81,191.935 L1648.37,220.732 C1646.94,223.857 1645.94,225.42 1645.37,225.42 C1644.73,225.42 1643.69,223.659 1642.25,220.139 L1626.04,179.092 C1624.85,176.05 1623.85,174.071 1623.05,173.154 C1622.26,172.237 1621.13,171.696 1619.69,171.529 L1619.69,169.732 L1641.29,169.732 L1641.29,171.529 C1639.21,171.769 1637.77,172.17 1636.97,172.732 C1636.16,173.295 1635.76,174.217 1635.76,175.498 C1635.76,176.696 1636.01,177.894 1636.5,179.092 L1648.37,210.42 L1659.29,186.529 M1762.17,169.732 L1762.17,173.342 L1750.04,173.342 L1750.04,207.654 C1750.04,211.415 1750.53,214.154 1751.49,215.873 C1752.45,217.592 1754.06,218.451 1756.29,218.451 C1758.77,218.451 1761.17,217.05 1763.5,214.248 L1765.04,215.576 C1761.21,221.816 1756.41,224.935 1750.65,224.935 C1743.53,224.935 1739.97,219.831 1739.97,209.623 L1739.97,173.342 L1733.61,173.342 C1733.29,173.112 1733.14,172.847 1733.14,172.545 C1733.14,172.17 1733.26,171.87 1733.5,171.646 C1733.74,171.422 1734.2,171.105 1734.87,170.693 C1735.55,170.282 1736.37,169.691 1737.33,168.92 C1738.3,168.149 1739.62,166.751 1741.29,164.724 C1742.97,162.698 1744.81,160.264 1746.81,157.42 C1748.09,155.555 1748.89,154.42 1749.22,154.014 C1749.77,154.014 1750.04,154.54 1750.04,155.592 L1750.04,169.732 L1762.17,169.732 M1784.04,182.576 L1784.04,211.498 C1784.04,215.654 1784.53,218.331 1785.49,219.529 C1786.45,220.727 1788.7,221.529 1792.22,221.935 L1792.22,223.732 L1766.29,223.732 L1766.29,221.935 C1769.73,221.456 1771.87,220.657 1772.71,219.537 C1773.55,218.417 1773.97,215.737 1773.97,211.498 L1773.97,154.982 C1773.97,152.42 1773.63,150.737 1772.95,149.935 C1772.27,149.133 1770.77,148.732 1768.45,148.732 C1767.89,148.732 1767.21,148.816 1766.4,148.982 L1766.4,147.06 C1772.09,145.54 1777.77,143.779 1783.45,141.779 L1784.04,142.139 L1784.04,178.607 C1786.77,175.014 1789.52,172.435 1792.27,170.873 C1795.03,169.31 1798.16,168.529 1801.69,168.529 C1811.53,168.529 1816.45,174.889 1816.45,187.607 L1816.45,211.498 C1816.45,215.654 1816.83,218.271 1817.59,219.349 C1818.35,220.428 1820.37,221.29 1823.65,221.935 L1823.65,223.732 L1798.22,223.732 L1798.22,221.935 C1801.65,221.612 1803.87,220.81 1804.87,219.529 C1805.87,218.248 1806.37,215.571 1806.37,211.498 L1806.37,187.732 C1806.37,179.253 1803.37,175.014 1797.37,175.014 C1795.05,175.014 1792.87,175.594 1790.83,176.756 C1788.78,177.917 1786.52,179.857 1784.04,182.576 M1836.73,190.498 C1836.89,195.54 1837.57,199.878 1838.77,203.514 C1839.97,207.149 1841.53,209.868 1843.45,211.67 C1845.37,213.472 1847.31,214.753 1849.27,215.514 C1851.23,216.274 1853.29,216.654 1855.45,216.654 C1859.29,216.654 1862.64,215.693 1865.47,213.771 C1868.31,211.849 1871.17,208.612 1874.04,204.06 L1875.97,204.889 C1873.49,211.368 1870.05,216.329 1865.65,219.771 C1861.25,223.214 1856.21,224.935 1850.53,224.935 C1843.65,224.935 1838.2,222.516 1834.15,217.678 C1830.11,212.839 1828.09,206.3 1828.09,198.06 C1828.09,189.175 1830.43,182.032 1835.12,176.631 C1839.8,171.23 1845.82,168.529 1853.17,168.529 C1859.25,168.529 1863.97,170.349 1867.33,173.99 C1870.69,177.631 1872.81,183.133 1873.69,190.498 L1836.73,190.498 M1836.97,186.889 L1861.45,186.889 C1860.65,181.691 1859.41,178.092 1857.73,176.092 C1856.06,174.092 1853.37,173.092 1849.69,173.092 C1842.49,173.092 1838.25,177.691 1836.97,186.889 M1979.01,202.076 C1979.01,204.482 1978.57,206.849 1977.69,209.178 C1976.81,211.506 1975.35,213.81 1973.31,216.092 C1971.27,218.373 1968.25,220.217 1964.25,221.623 C1960.25,223.029 1955.49,223.732 1949.97,223.732 L1909.89,223.732 L1909.89,221.451 C1914.85,221.295 1918.01,220.576 1919.37,219.295 C1920.72,218.014 1921.4,215.133 1921.4,210.654 L1921.4,157.404 C1921.4,152.998 1920.75,150.175 1919.43,148.935 C1918.11,147.696 1914.93,146.909 1909.89,146.576 L1909.89,144.295 L1943.5,144.295 C1964.46,144.295 1974.94,151.154 1974.94,164.873 C1974.94,167.508 1974.45,169.847 1973.49,171.889 C1972.53,173.93 1971.54,175.49 1970.54,176.568 C1969.54,177.646 1968.01,178.665 1965.93,179.623 C1963.85,180.581 1962.53,181.12 1961.97,181.24 C1961.4,181.36 1960.24,181.649 1958.48,182.107 C1960.33,182.576 1961.71,182.93 1962.63,183.17 C1963.55,183.409 1965.23,184.084 1967.67,185.193 C1970.11,186.303 1972.01,187.493 1973.37,188.764 C1974.72,190.034 1976.01,191.836 1977.21,194.17 C1978.41,196.503 1979.01,199.139 1979.01,202.076 M1941.22,219.17 C1944.81,219.17 1947.93,218.93 1950.57,218.451 C1953.21,217.972 1955.69,217.154 1958.01,215.998 C1960.32,214.842 1962.1,213.11 1963.35,210.803 C1964.59,208.495 1965.22,205.623 1965.22,202.185 C1965.22,198.925 1964.59,196.157 1963.35,193.881 C1962.1,191.605 1960.6,189.87 1958.85,188.678 C1957.09,187.485 1954.66,186.568 1951.54,185.928 C1948.42,185.287 1945.66,184.907 1943.26,184.787 C1940.85,184.667 1937.65,184.607 1933.65,184.607 L1933.65,214.264 C1933.65,216.18 1934.17,217.477 1935.21,218.154 C1936.25,218.831 1938.25,219.17 1941.22,219.17 M1933.65,180.06 L1945.04,180.06 C1950.65,180.06 1954.99,178.795 1958.07,176.264 C1961.15,173.732 1962.69,170.097 1962.69,165.357 C1962.69,159.972 1960.89,155.876 1957.29,153.068 C1953.69,150.261 1948.45,148.857 1941.58,148.857 L1936.29,148.857 C1934.53,148.857 1933.65,150.06 1933.65,152.467 L1933.65,180.06 M2013.61,168.529 C2021.28,168.529 2027.6,171.092 2032.57,176.217 C2037.53,181.342 2040.01,187.826 2040.01,195.67 C2040.01,203.982 2037.45,210.938 2032.33,216.537 C2027.21,222.136 2020.89,224.935 2013.37,224.935 C2005.85,224.935 1999.59,222.235 1994.59,216.834 C1989.59,211.433 1987.09,204.696 1987.09,196.623 C1987.09,188.383 1989.55,181.641 1994.47,176.396 C1999.4,171.152 2005.77,168.529 2013.61,168.529 M1997.89,190.795 C1997.89,199.274 1999.45,206.482 2002.57,212.42 C2005.69,218.357 2009.77,221.326 2014.81,221.326 C2019.29,221.326 2022.81,219.425 2025.37,215.623 C2027.94,211.821 2029.22,206.555 2029.22,199.826 C2029.22,191.659 2027.62,185.003 2024.41,179.857 C2021.21,174.711 2017.09,172.139 2012.04,172.139 C2007.81,172.139 2004.39,173.842 2001.79,177.248 C1999.19,180.654 1997.89,185.17 1997.89,190.795 M2046.09,211.889 C2046.09,210.451 2046.25,209.115 2046.57,207.881 C2046.89,206.646 2047.45,205.493 2048.25,204.42 C2049.05,203.347 2049.81,202.373 2050.53,201.498 C2051.25,200.623 2052.33,199.727 2053.77,198.81 C2055.21,197.894 2056.41,197.139 2057.37,196.545 C2058.33,195.951 2059.79,195.235 2061.75,194.396 C2063.71,193.558 2065.21,192.92 2066.25,192.482 C2067.29,192.045 2068.93,191.389 2071.17,190.514 C2073.41,189.639 2075.05,189.003 2076.09,188.607 L2076.09,181.326 C2076.09,174.722 2073.05,171.42 2066.97,171.42 C2064.57,171.42 2062.53,171.998 2060.85,173.154 C2059.17,174.31 2058.33,175.691 2058.33,177.295 C2058.33,177.93 2058.43,178.808 2058.63,179.928 C2058.83,181.047 2058.94,181.769 2058.94,182.092 C2058.94,183.456 2058.39,184.639 2057.31,185.639 C2056.23,186.639 2054.97,187.139 2053.53,187.139 C2052.17,187.139 2050.98,186.618 2049.94,185.576 C2048.89,184.534 2048.37,183.331 2048.37,181.967 C2048.37,178.217 2050.31,175.04 2054.19,172.435 C2058.07,169.831 2062.85,168.529 2068.53,168.529 C2075.09,168.529 2079.61,170.102 2082.09,173.248 C2084.57,176.394 2085.81,181.196 2085.81,187.654 L2085.81,210.935 C2085.81,213.56 2086.07,215.37 2086.59,216.365 C2087.11,217.36 2088.05,217.857 2089.4,217.857 C2091.09,217.857 2092.85,217.102 2094.69,215.592 L2094.69,218.732 C2092.61,221.128 2090.79,222.761 2089.23,223.631 C2087.67,224.501 2085.89,224.935 2083.89,224.935 C2081.41,224.935 2079.59,224.237 2078.43,222.842 C2077.27,221.446 2076.53,219.144 2076.22,215.935 C2069.33,221.935 2063.49,224.935 2058.69,224.935 C2055.01,224.935 2051.99,223.714 2049.63,221.271 C2047.27,218.829 2046.09,215.701 2046.09,211.889 M2076.09,208.779 L2076.09,191.467 C2068.89,194.092 2063.85,196.639 2060.97,199.107 C2058.09,201.576 2056.65,204.56 2056.65,208.06 C2056.65,211.321 2057.45,213.748 2059.05,215.342 C2060.65,216.935 2062.37,217.732 2064.22,217.732 C2066.94,217.732 2069.85,216.816 2072.97,214.982 C2074.25,214.274 2075.09,213.521 2075.49,212.724 C2075.89,211.928 2076.09,210.612 2076.09,208.779 M2126.17,169.732 L2126.17,173.342 L2114.04,173.342 L2114.04,207.654 C2114.04,211.415 2114.53,214.154 2115.49,215.873 C2116.45,217.592 2118.06,218.451 2120.29,218.451 C2122.77,218.451 2125.17,217.05 2127.5,214.248 L2129.04,215.576 C2125.21,221.816 2120.41,224.935 2114.65,224.935 C2107.53,224.935 2103.97,219.831 2103.97,209.623 L2103.97,173.342 L2097.61,173.342 C2097.29,173.112 2097.14,172.847 2097.14,172.545 C2097.14,172.17 2097.26,171.87 2097.5,171.646 C2097.74,171.422 2098.2,171.105 2098.87,170.693 C2099.55,170.282 2100.37,169.691 2101.33,168.92 C2102.3,168.149 2103.62,166.751 2105.29,164.724 C2106.97,162.698 2108.81,160.264 2110.81,157.42 C2112.09,155.555 2112.89,154.42 2113.22,154.014 C2113.77,154.014 2114.04,154.54 2114.04,155.592 L2114.04,169.732 L2126.17,169.732 "/>
<path class="MeasureNumber" d="M146.514,983.952 C146.514,982.535 146.198,981.282 145.568,980.194 C144.938,979.105 144.178,978.261 143.287,977.663 C142.396,977.064 141.399,976.571 140.295,976.186 C139.191,975.801 138.23,975.548 137.412,975.428 C136.594,975.308 135.883,975.248 135.279,975.248 C134.956,975.248 134.795,975.139 134.795,974.92 C134.795,974.847 134.805,974.78 134.826,974.717 L139.185,965.264 L147.545,965.264 C147.972,965.264 148.313,965.196 148.568,965.061 C148.823,964.926 149.097,964.644 149.389,964.217 L149.748,964.498 L148.232,968.061 C148.128,968.301 147.821,968.42 147.31,968.42 L139.467,968.42 L137.795,971.811 C141.68,972.498 144.571,973.621 146.467,975.178 C148.362,976.735 149.31,979.019 149.31,982.03 C149.31,983.603 149.063,985.004 148.568,986.233 C148.073,987.462 147.446,988.452 146.685,989.202 C145.925,989.952 145.045,990.566 144.045,991.045 C143.045,991.524 142.086,991.853 141.17,992.03 C140.253,992.207 139.326,992.295 138.389,992.295 C136.899,992.295 135.714,992.074 134.834,991.631 C133.954,991.189 133.514,990.582 133.514,989.811 C133.514,988.821 134.086,988.327 135.232,988.327 C135.982,988.327 136.948,988.735 138.131,989.553 C139.313,990.371 140.253,990.78 140.951,990.78 C142.524,990.78 143.844,990.121 144.912,988.803 C145.98,987.485 146.514,985.868 146.514,983.952"/>
<path class="TieSegment" stroke="#000000" stroke-width="1.75" stroke-linecap="round" stroke-linejoin="round" fill-rule="evenodd" d="M1258.2,535.483 C1281.51,515.767 1351.44,515.767 1374.75,535.483 C1351.44,519.767 1281.51,519.767 1258.2,535.483"/>
<path class="TieSegment" stroke="#000000" stroke-width="1.75" stroke-linecap="round" stroke-linejoin="round" fill-rule="evenodd" d="M1258.2,535.483 C1281.51,515.767 1351.44,515.767 1374.75,535.483 C1351.44,519.767 1281.51,519.767 1258.2,535.483"/>
<path class="TieSegment" stroke="#000000" stroke-width="1.75" stroke-linecap="round" stroke-linejoin="round" fill-rule="evenodd" d="M838.765,1043.98 C862,1024.32 931.705,1024.32 954.94,1043.98 C931.705,1028.32 862,1028.32 838.765,1043.98"/>
<path class="TieSegment" stroke="#000000" stroke-width="1.75" stroke-linecap="round" stroke-linejoin="round" fill-rule="evenodd" d="M838.765,1043.98 C862,1024.32 931.705,1024.32 954.94,1043.98 C931.705,1028.32 862,1028.32 838.765,1043.98"/>
<polyline class="BarLine" stroke="#000000" stroke-width="12.50" stroke-linejoin="bevel" points="639.845,565.733 639.845,667.733"/>
<polyline class="BarLine" stroke="#000000" stroke-width="4.00" stroke-linejoin="bevel" points="658.095,565.733 658.095,667.733"/>
<path class="BarLine" d="M669.838,608.233 C668.728,607.128 668.174,605.795 668.174,604.233 C668.174,602.67 668.728,601.334 669.838,600.225 C670.947,599.115 672.283,598.561 673.845,598.561 C675.408,598.561 676.741,599.115 677.845,600.225 C678.95,601.334 679.502,602.67 679.502,604.233 C679.502,605.795 678.95,607.128 677.845,608.233 C676.741,609.337 675.408,609.889 673.845,609.889 C672.283,609.889 670.947,609.337 669.838,608.233"/>
<path class="BarLine" d="M669.838,633.233 C668.728,632.128 668.174,630.795 668.174,629.233 C668.174,627.67 668.728,626.334 669.838,625.225 C670.947,624.115 672.283,623.561 673.845,623.561 C675.408,623.561 676.741,624.115 677.845,625.225 C678.95,626.334 679.502,627.67 679.502,629.233 C679.502,630.795 678.95,632.128 677.845,633.233 C676.741,634.337 675.408,634.889 673.845,634.889 C672.283,634.889 670.947,634.337 669.838,633.233"/>
<polyline class="BarLine" stroke="#000000" stroke-width="4.00" stroke-linejoin="bevel" points="1334.7,565.733 1334.7,667.733"/>
<polyline class="BarLine" stroke="#000000" stroke-width="4.00" stroke-linejoin="bevel" points="1853.89,565.733 1853.89,667.733"/>
<polyline class="BarLine" stroke="#000000" stroke-width="4.00" stroke-linejoin="bevel" points="2314.28,565.733 2314.28,667.733"/>
<polyline class="BarLine" stroke="#000000" stroke-width="4.00" stroke-linejoin="bevel" points="2833.47,565.733 2833.47,667.733"/>
<polyline class="BarLine" stroke="#000000" stroke-width="4.00" stroke-linejoin="bevel" points="914.886,1040.73 914.886,1142.73"/>
<polyline class="BarLine" stroke="#000000" stroke-width="4.00" stroke-linejoin="bevel" points="1454.4,1040.73 1454.4,1142.73"/>
<polyline class="BarLine" stroke="#000000" stroke-width="4.00" stroke-linejoin="bevel" points="1949.09,1040.73 1949.09,1142.73"/>
<path class="BarLine" d="M2488.27,1083.23 C2487.16,1082.13 2486.6,1080.8 2486.6,1079.23 C2486.6,1077.67 2487.16,1076.33 2488.27,1075.23 C2489.38,1074.12 2490.71,1073.56 2492.28,1073.56 C2493.84,1073.56 2495.17,1074.12 2496.28,1075.23 C2497.38,1076.33 2497.93,1077.67 2497.93,1079.23 C2497.93,1080.8 2497.38,1082.13 2496.28,1083.23 C2495.17,1084.34 2493.84,1084.89 2492.28,1084.89 C2490.71,1084.89 2489.38,1084.34 2488.27,1083.23"/>
<path class="BarLine" d="M2488.27,1108.23 C2487.16,1107.13 2486.6,1105.8 2486.6,1104.23 C2486.6,1102.67 2487.16,1101.33 2488.27,1100.23 C2489.38,1099.12 2490.71,1098.56 2492.28,1098.56 C2493.84,1098.56 2495.17,1099.12 2496.28,1100.23 C2497.38,1101.33 2497.93,1102.67 2497.93,1104.23 C2497.93,1105.8 2497.38,1107.13 2496.28,1108.23 C2495.17,1109.34 2493.84,1109.89 2492.28,1109.89 C2490.71,1109.89 2489.38,1109.34 2488.27,1108.23"/>
<polyline class="BarLine" stroke="#000000" stroke-width="4.00" stroke-linejoin="bevel" points="2508.02,1040.73 2508.02,1142.73"/>
<polyline class="BarLine" stroke="#000000" stroke-width="12.50" stroke-linejoin="bevel" points="2526.27,1040.73 2526.27,1142.73"/>
<polyline class="BarLine" stroke="#000000" stroke-width="4.00" stroke-linejoin="bevel" points="2810.97,1040.73 2810.97,1142.73"/>
<polyline class="BarLine" stroke="#000000" stroke-width="12.50" stroke-linejoin="bevel" points="2829.22,1040.73 2829.22,1142.73"/>
<polyline class="LedgerLine" stroke="#000000" stroke-width="4.00" stroke-linecap="square" stroke-linejoin="bevel" points="1133.41,541.733 1181.33,541.733"/>
<polyline class="LedgerLine" stroke="#000000" stroke-width="4.00" stroke-linecap="square" stroke-linejoin="bevel" points="1882.89,541.733 1947.4,541.733"/>
<polyline class="Stem" stroke="#000000" stroke-width="3.25" stroke-linecap="round" stroke-linejoin="bevel" points="366.529,608.928 366.529,685.483"/>
<polyline class="Stem" stroke="#000000" stroke-width="3.25" stroke-linecap="round" stroke-linejoin="bevel" points="500.875,583.928 500.875,666.733"/>
<polyline class="Stem" stroke="#000000" stroke-width="3.25" stroke-linecap="round" stroke-linejoin="bevel" points="706.135,558.928 706.135,641.733"/>
<polyline class="Stem" stroke="#000000" stroke-width="3.25" stroke-linecap="round" stroke-linejoin="bevel" points="893.218,583.928 893.218,666.733"/>
<polyline class="Stem" stroke="#000000" stroke-width="3.25" stroke-linecap="round" stroke-linejoin="bevel" points="989.111,558.928 989.111,641.733"/>
<polyline class="Stem" stroke="#000000" stroke-width="3.25" stroke-linecap="round" stroke-linejoin="bevel" points="1142.54,546.428 1142.54,616.733"/>
<polyline class="Stem" stroke="#000000" stroke-width="3.25" stroke-linecap="round" stroke-linejoin="bevel" points="1238.43,558.928 1238.43,622.983"/>
<polyline class="Stem" stroke="#000000" stroke-width="3.25" stroke-linecap="round" stroke-linejoin="bevel" points="1364.23,558.153 1364.23,641.733"/>
<polyline class="Stem" stroke="#000000" stroke-width="3.25" stroke-linecap="round" stroke-linejoin="bevel" points="1582.19,583.928 1582.19,666.733"/>
<polyline class="Stem" stroke="#000000" stroke-width="3.25" stroke-linecap="round" stroke-linejoin="bevel" points="1717.85,558.928 1717.85,641.733"/>
<polyline class="Stem" stroke="#000000" stroke-width="3.25" stroke-linecap="round" stroke-linejoin="bevel" points="2343.81,558.153 2343.81,641.733"/>
<polyline class="Stem" stroke="#000000" stroke-width="3.25" stroke-linecap="round" stroke-linejoin="bevel" points="2561.77,583.928 2561.77,666.733"/>
<polyline class="Stem" stroke="#000000" stroke-width="3.25" stroke-linecap="round" stroke-linejoin="bevel" points="2697.43,558.928 2697.43,641.733"/>
<polyline class="Stem" stroke="#000000" stroke-width="3.25" stroke-linecap="round" stroke-linejoin="bevel" points="288.795,1033.93 288.795,1116.73"/>
<polyline class="Stem" stroke="#000000" stroke-width="3.25" stroke-linecap="round" stroke-linejoin="bevel" points="475.142,1058.93 475.142,1141.73"/>
<polyline class="Stem" stroke="#000000" stroke-width="3.25" stroke-linecap="round" stroke-linejoin="bevel" points="570.657,1046.43 570.657,1129.23"/>
<polyline class="Stem" stroke="#000000" stroke-width="3.25" stroke-linecap="round" stroke-linejoin="bevel" points="723.481,1058.93 723.481,1135.48"/>
<polyline class="Stem" stroke="#000000" stroke-width="3.25" stroke-linecap="round" stroke-linejoin="bevel" points="818.996,1071.43 818.996,1141.73"/>
<polyline class="Stem" stroke="#000000" stroke-width="3.25" stroke-linecap="round" stroke-linejoin="bevel" points="944.414,1070.65 944.414,1151.11"/>
<polyline class="Stem" stroke="#000000" stroke-width="3.25" stroke-linecap="round" stroke-linejoin="bevel" points="1171.41,1083.93 1171.41,1160.48"/>
<polyline class="Stem" stroke="#000000" stroke-width="3.25" stroke-linecap="round" stroke-linejoin="bevel" points="1312.72,1071.43 1312.72,1151.11"/>
<polyline class="Stem" stroke="#000000" stroke-width="3.25" stroke-linecap="round" stroke-linejoin="bevel" points="1483.93,1058.15 1483.93,1141.73"/>
<polyline class="Stem" stroke="#000000" stroke-width="3.25" stroke-linecap="round" stroke-linejoin="bevel" points="1715.87,1070.65 1715.87,1151.11"/>
<polyline class="Stem" stroke="#000000" stroke-width="3.25" stroke-linecap="round" stroke-linejoin="bevel" points="1978.61,1083.15 1978.61,1160.48"/>
<polyline class="Stem" stroke="#000000" stroke-width="3.25" stroke-linecap="round" stroke-linejoin="bevel" points="2205.61,1083.93 2205.61,1160.48"/>
<polyline class="Stem" stroke="#000000" stroke-width="3.25" stroke-linecap="round" stroke-linejoin="bevel" points="2346.92,1058.93 2346.92,1141.73"/>
<polyline class="Stem" stroke="#000000" stroke-width="3.25" stroke-linecap="round" stroke-linejoin="bevel" points="2560.04,1083.15 2560.04,1160.48"/>
<path class="Note" d="M386.873,590.467 C389.998,590.467 392.639,591.279 394.795,592.904 C396.805,594.665 397.811,596.878 397.811,599.545 C397.811,604.035 395.503,608.233 390.889,612.139 C386.201,616.045 381.186,617.998 375.842,617.998 C372.717,617.998 370.081,617.186 367.936,615.561 C365.915,613.8 364.904,611.587 364.904,608.92 C364.904,604.43 367.248,600.233 371.936,596.326 C376.498,592.42 381.477,590.467 386.873,590.467"/>
<path class="Note" d="M521.219,565.467 C524.344,565.467 526.984,566.279 529.14,567.904 C531.151,569.665 532.156,571.878 532.156,574.545 C532.156,579.035 529.849,583.233 525.234,587.139 C520.547,591.045 515.531,592.998 510.187,592.998 C507.062,592.998 504.427,592.186 502.281,590.561 C500.26,588.8 499.25,586.587 499.25,583.92 C499.25,579.43 501.594,575.233 506.281,571.326 C510.844,567.42 515.823,565.467 521.219,565.467"/>
<path class="Note" d="M726.478,540.467 C729.603,540.467 732.244,541.279 734.4,542.904 C736.411,544.665 737.416,546.878 737.416,549.545 C737.416,554.035 735.108,558.233 730.494,562.139 C725.806,566.045 720.791,567.998 715.447,567.998 C712.322,567.998 709.687,567.186 707.541,565.561 C705.52,563.8 704.51,561.587 704.51,558.92 C704.51,554.43 706.853,550.233 711.541,546.326 C716.103,542.42 721.082,540.467 726.478,540.467"/>
<path class="Note" d="M913.562,565.467 C916.687,565.467 919.328,566.279 921.484,567.904 C923.494,569.665 924.5,571.878 924.5,574.545 C924.5,579.035 922.192,583.233 917.578,587.139 C912.89,591.045 907.875,592.998 902.531,592.998 C899.406,592.998 896.77,592.186 894.625,590.561 C892.604,588.8 891.593,586.587 891.593,583.92 C891.593,579.43 893.937,575.233 898.625,571.326 C903.187,567.42 908.166,565.467 913.562,565.467"/>
<path class="Note" d="M1009.45,540.467 C1012.58,540.467 1015.22,541.279 1017.38,542.904 C1019.39,544.665 1020.39,546.878 1020.39,549.545 C1020.39,554.035 1018.08,558.233 1013.47,562.139 C1008.78,566.045 1003.77,567.998 998.423,567.998 C995.298,567.998 992.663,567.186 990.517,565.561 C988.496,563.8 987.486,561.587 987.486,558.92 C987.486,554.43 989.829,550.233 994.517,546.326 C999.079,542.42 1004.06,540.467 1009.45,540.467"/>
<path class="Note" d="M1162.88,527.967 C1166.01,527.967 1168.65,528.779 1170.8,530.404 C1172.81,532.165 1173.82,534.378 1173.82,537.045 C1173.82,541.535 1171.51,545.733 1166.9,549.639 C1162.21,553.545 1157.19,555.498 1151.85,555.498 C1148.73,555.498 1146.09,554.686 1143.94,553.061 C1141.92,551.3 1140.91,549.087 1140.91,546.42 C1140.91,541.93 1143.26,537.733 1147.94,533.826 C1152.51,529.92 1157.49,527.967 1162.88,527.967"/>
<path class="Note" d="M1258.77,540.467 C1261.9,540.467 1264.54,541.279 1266.7,542.904 C1268.71,544.665 1269.71,546.878 1269.71,549.545 C1269.71,554.035 1267.4,558.233 1262.79,562.139 C1258.1,566.045 1253.09,567.998 1247.74,567.998 C1244.62,567.998 1241.98,567.186 1239.84,565.561 C1237.82,563.8 1236.81,561.587 1236.81,558.92 C1236.81,554.43 1239.15,550.233 1243.84,546.326 C1248.4,542.42 1253.38,540.467 1258.77,540.467"/>
<path class="Note" d="M1394.15,547.686 C1394.15,546.582 1393.73,545.639 1392.88,544.858 C1392.03,544.014 1391.05,543.592 1389.94,543.592 C1388,543.592 1384.06,545.545 1378.13,549.451 C1372.01,553.42 1368.26,556.253 1366.9,557.951 C1366.18,558.858 1365.82,559.8 1365.82,560.779 C1365.82,561.884 1366.25,562.826 1367.1,563.608 C1367.88,564.451 1368.86,564.873 1370.02,564.873 C1371.91,564.873 1375.88,562.92 1381.94,559.014 C1387.93,555.108 1391.64,552.274 1393.07,550.514 C1393.79,549.67 1394.15,548.727 1394.15,547.686 M1388.98,540.467 C1394.57,540.467 1397.37,542.873 1397.37,547.686 C1397.37,550.029 1396.68,552.764 1395.32,555.889 C1393.95,558.951 1392.13,561.295 1389.85,562.92 C1384.84,566.305 1378.56,567.998 1371.01,567.998 C1365.4,567.998 1362.6,565.592 1362.6,560.779 C1362.6,558.634 1363.28,555.93 1364.65,552.67 C1365.95,549.545 1367.77,547.17 1370.12,545.545 C1375.14,542.16 1381.42,540.467 1388.98,540.467"/>
<path class="Note" d="M1602.53,565.467 C1605.66,565.467 1608.3,566.279 1610.45,567.904 C1612.46,569.665 1613.47,571.878 1613.47,574.545 C1613.47,579.035 1611.16,583.233 1606.55,587.139 C1601.86,591.045 1596.84,592.998 1591.5,592.998 C1588.37,592.998 1585.74,592.186 1583.59,590.561 C1581.57,588.8 1580.56,586.587 1580.56,583.92 C1580.56,579.43 1582.91,575.233 1587.59,571.326 C1592.16,567.42 1597.14,565.467 1602.53,565.467"/>
<path class="Note" d="M1738.19,540.467 C1741.32,540.467 1743.96,541.279 1746.12,542.904 C1748.13,544.665 1749.13,546.878 1749.13,549.545 C1749.13,554.035 1746.82,558.233 1742.21,562.139 C1737.52,566.045 1732.51,567.998 1727.16,567.998 C1724.04,567.998 1721.4,567.186 1719.26,565.561 C1717.23,563.8 1716.22,561.587 1716.22,558.92 C1716.22,554.43 1718.57,550.233 1723.26,546.326 C1727.82,542.42 1732.8,540.467 1738.19,540.467"/>
<path class="Note" d="M1911.87,530.498 C1909.53,530.498 1907.83,531.311 1906.79,532.936 C1905.63,534.498 1905.04,536.618 1905.04,539.295 C1905.04,542.358 1905.86,544.993 1907.48,547.201 C1909.11,549.347 1910.9,550.847 1912.86,551.701 C1914.61,552.545 1916.46,552.967 1918.42,552.967 C1920.7,552.967 1922.42,552.154 1923.59,550.529 C1924.69,548.894 1925.25,546.774 1925.25,544.17 C1925.25,541.108 1924.43,538.472 1922.81,536.264 C1921.18,534.18 1919.43,532.68 1917.54,531.764 C1915.65,530.92 1913.76,530.498 1911.87,530.498 M1915.2,527.967 C1922.23,527.967 1928.09,529.331 1932.78,532.061 C1937.53,534.8 1939.9,538.024 1939.9,541.733 C1939.9,545.701 1937.46,548.956 1932.57,551.498 C1927.69,554.165 1921.9,555.498 1915.2,555.498 C1908.29,555.498 1902.43,554.134 1897.62,551.404 C1892.8,548.665 1890.39,545.441 1890.39,541.733 C1890.39,537.764 1892.86,534.509 1897.81,531.967 C1902.69,529.3 1908.49,527.967 1915.2,527.967"/>
<path class="Note" d="M2373.73,547.686 C2373.73,546.582 2373.31,545.639 2372.46,544.858 C2371.61,544.014 2370.63,543.592 2369.53,543.592 C2367.58,543.592 2363.64,545.545 2357.71,549.451 C2351.59,553.42 2347.84,556.253 2346.48,557.951 C2345.76,558.858 2345.4,559.8 2345.4,560.779 C2345.4,561.884 2345.83,562.826 2346.68,563.608 C2347.46,564.451 2348.44,564.873 2349.6,564.873 C2351.49,564.873 2355.46,562.92 2361.53,559.014 C2367.52,555.108 2371.22,552.274 2372.65,550.514 C2373.37,549.67 2373.73,548.727 2373.73,547.686 M2368.56,540.467 C2374.15,540.467 2376.95,542.873 2376.95,547.686 C2376.95,550.029 2376.27,552.764 2374.9,555.889 C2373.54,558.951 2371.71,561.295 2369.43,562.92 C2364.42,566.305 2358.14,567.998 2350.59,567.998 C2344.98,567.998 2342.18,565.592 2342.18,560.779 C2342.18,558.634 2342.86,555.93 2344.23,552.67 C2345.53,549.545 2347.35,547.17 2349.7,545.545 C2354.72,542.16 2361.01,540.467 2368.56,540.467"/>
<path class="Note" d="M2582.11,565.467 C2585.24,565.467 2587.88,566.279 2590.03,567.904 C2592.04,569.665 2593.05,571.878 2593.05,574.545 C2593.05,579.035 2590.74,583.233 2586.13,587.139 C2581.44,591.045 2576.43,592.998 2571.08,592.998 C2567.96,592.998 2565.32,592.186 2563.18,590.561 C2561.15,588.8 2560.14,586.587 2560.14,583.92 C2560.14,579.43 2562.49,575.233 2567.18,571.326 C2571.74,567.42 2576.72,565.467 2582.11,565.467"/>
<path class="Note" d="M2717.77,540.467 C2720.9,540.467 2723.54,541.279 2725.7,542.904 C2727.71,544.665 2728.71,546.878 2728.71,549.545 C2728.71,554.035 2726.41,558.233 2721.79,562.139 C2717.1,566.045 2712.09,567.998 2706.74,567.998 C2703.62,567.998 2700.98,567.186 2698.84,565.561 C2696.82,563.8 2695.81,561.587 2695.81,558.92 C2695.81,554.43 2698.15,550.233 2702.84,546.326 C2707.4,542.42 2712.38,540.467 2717.77,540.467"/>
<path class="Note" d="M309.139,1015.47 C312.264,1015.47 314.904,1016.28 317.061,1017.9 C319.071,1019.67 320.076,1021.88 320.076,1024.55 C320.076,1029.03 317.769,1033.23 313.154,1037.14 C308.467,1041.05 303.451,1043 298.107,1043 C294.982,1043 292.347,1042.19 290.201,1040.56 C288.18,1038.8 287.17,1036.59 287.17,1033.92 C287.17,1029.43 289.514,1025.23 294.201,1021.33 C298.764,1017.42 303.743,1015.47 309.139,1015.47"/>
<path class="Note" d="M495.486,1040.47 C498.611,1040.47 501.252,1041.28 503.408,1042.9 C505.418,1044.67 506.424,1046.88 506.424,1049.55 C506.424,1054.03 504.116,1058.23 499.502,1062.14 C494.814,1066.05 489.799,1068 484.455,1068 C481.33,1068 478.694,1067.19 476.549,1065.56 C474.528,1063.8 473.517,1061.59 473.517,1058.92 C473.517,1054.43 475.861,1050.23 480.549,1046.33 C485.111,1042.42 490.09,1040.47 495.486,1040.47"/>
<path class="Note" d="M591.001,1027.97 C594.126,1027.97 596.767,1028.78 598.923,1030.4 C600.933,1032.17 601.939,1034.38 601.939,1037.05 C601.939,1041.53 599.631,1045.73 595.017,1049.64 C590.329,1053.55 585.314,1055.5 579.97,1055.5 C576.845,1055.5 574.209,1054.69 572.064,1053.06 C570.043,1051.3 569.032,1049.09 569.032,1046.42 C569.032,1041.93 571.376,1037.73 576.064,1033.83 C580.626,1029.92 585.605,1027.97 591.001,1027.97"/>
<path class="Note" d="M743.825,1040.47 C746.95,1040.47 749.591,1041.28 751.747,1042.9 C753.757,1044.67 754.762,1046.88 754.762,1049.55 C754.762,1054.03 752.455,1058.23 747.841,1062.14 C743.153,1066.05 738.137,1068 732.794,1068 C729.669,1068 727.033,1067.19 724.887,1065.56 C722.867,1063.8 721.856,1061.59 721.856,1058.92 C721.856,1054.43 724.2,1050.23 728.887,1046.33 C733.45,1042.42 738.429,1040.47 743.825,1040.47"/>
<path class="Note" d="M839.34,1052.97 C842.465,1052.97 845.106,1053.78 847.262,1055.4 C849.272,1057.17 850.277,1059.38 850.277,1062.05 C850.277,1066.53 847.97,1070.73 843.356,1074.64 C838.668,1078.55 833.652,1080.5 828.309,1080.5 C825.184,1080.5 822.548,1079.69 820.402,1078.06 C818.382,1076.3 817.371,1074.09 817.371,1071.42 C817.371,1066.93 819.715,1062.73 824.402,1058.83 C828.965,1054.92 833.944,1052.97 839.34,1052.97"/>
<path class="Note" d="M974.335,1060.19 C974.335,1059.08 973.914,1058.14 973.07,1057.36 C972.216,1056.51 971.236,1056.09 970.132,1056.09 C968.184,1056.09 964.247,1058.05 958.32,1061.95 C952.195,1065.92 948.45,1068.75 947.085,1070.45 C946.367,1071.36 946.007,1072.3 946.007,1073.28 C946.007,1074.38 946.434,1075.33 947.289,1076.11 C948.07,1076.95 949.044,1077.37 950.21,1077.37 C952.096,1077.37 956.07,1075.42 962.132,1071.51 C968.122,1067.61 971.83,1064.77 973.257,1063.01 C973.976,1062.17 974.335,1061.23 974.335,1060.19 M969.164,1052.97 C974.757,1052.97 977.554,1055.37 977.554,1060.19 C977.554,1062.53 976.872,1065.26 975.507,1068.39 C974.143,1071.45 972.32,1073.8 970.039,1075.42 C965.028,1078.81 958.747,1080.5 951.195,1080.5 C945.591,1080.5 942.789,1078.09 942.789,1073.28 C942.789,1071.13 943.471,1068.43 944.835,1065.17 C946.137,1062.05 947.96,1059.67 950.304,1058.05 C955.325,1054.66 961.611,1052.97 969.164,1052.97"/>
<path class="Note" d="M1191.75,1065.47 C1194.88,1065.47 1197.52,1066.28 1199.68,1067.9 C1201.69,1069.67 1202.69,1071.88 1202.69,1074.55 C1202.69,1079.03 1200.38,1083.23 1195.77,1087.14 C1191.08,1091.05 1186.07,1093 1180.72,1093 C1177.6,1093 1174.96,1092.19 1172.82,1090.56 C1170.8,1088.8 1169.78,1086.59 1169.78,1083.92 C1169.78,1079.43 1172.13,1075.23 1176.82,1071.33 C1181.38,1067.42 1186.36,1065.47 1191.75,1065.47"/>
<path class="Note" d="M1333.06,1052.97 C1336.19,1052.97 1338.83,1053.78 1340.98,1055.4 C1342.99,1057.17 1344,1059.38 1344,1062.05 C1344,1066.53 1341.69,1070.73 1337.08,1074.64 C1332.39,1078.55 1327.37,1080.5 1322.03,1080.5 C1318.91,1080.5 1316.27,1079.69 1314.12,1078.06 C1312.1,1076.3 1311.09,1074.09 1311.09,1071.42 C1311.09,1066.93 1313.44,1062.73 1318.12,1058.83 C1322.69,1054.92 1327.67,1052.97 1333.06,1052.97"/>
<path class="Note" d="M1513.85,1047.69 C1513.85,1046.58 1513.43,1045.64 1512.59,1044.86 C1511.73,1044.01 1510.75,1043.59 1509.65,1043.59 C1507.7,1043.59 1503.76,1045.55 1497.84,1049.45 C1491.71,1053.42 1487.97,1056.25 1486.6,1057.95 C1485.88,1058.86 1485.52,1059.8 1485.52,1060.78 C1485.52,1061.88 1485.95,1062.83 1486.8,1063.61 C1487.59,1064.45 1488.56,1064.87 1489.73,1064.87 C1491.61,1064.87 1495.59,1062.92 1501.65,1059.01 C1507.64,1055.11 1511.35,1052.27 1512.77,1050.51 C1513.49,1049.67 1513.85,1048.73 1513.85,1047.69 M1508.68,1040.47 C1514.27,1040.47 1517.07,1042.87 1517.07,1047.69 C1517.07,1050.03 1516.39,1052.76 1515.02,1055.89 C1513.66,1058.95 1511.84,1061.3 1509.55,1062.92 C1504.54,1066.31 1498.26,1068 1490.71,1068 C1485.11,1068 1482.3,1065.59 1482.3,1060.78 C1482.3,1058.63 1482.99,1055.93 1484.35,1052.67 C1485.65,1049.55 1487.48,1047.17 1489.82,1045.55 C1494.84,1042.16 1501.13,1040.47 1508.68,1040.47"/>
<path class="Note" d="M1745.79,1060.19 C1745.79,1059.08 1745.37,1058.14 1744.53,1057.36 C1743.67,1056.51 1742.69,1056.09 1741.59,1056.09 C1739.64,1056.09 1735.7,1058.05 1729.78,1061.95 C1723.65,1065.92 1719.91,1068.75 1718.54,1070.45 C1717.82,1071.36 1717.46,1072.3 1717.46,1073.28 C1717.46,1074.38 1717.89,1075.33 1718.74,1076.11 C1719.53,1076.95 1720.5,1077.37 1721.67,1077.37 C1723.55,1077.37 1727.53,1075.42 1733.59,1071.51 C1739.58,1067.61 1743.29,1064.77 1744.71,1063.01 C1745.43,1062.17 1745.79,1061.23 1745.79,1060.19 M1740.62,1052.97 C1746.21,1052.97 1749.01,1055.37 1749.01,1060.19 C1749.01,1062.53 1748.33,1065.26 1746.96,1068.39 C1745.6,1071.45 1743.78,1073.8 1741.49,1075.42 C1736.48,1078.81 1730.2,1080.5 1722.65,1080.5 C1717.05,1080.5 1714.24,1078.09 1714.24,1073.28 C1714.24,1071.13 1714.93,1068.43 1716.29,1065.17 C1717.59,1062.05 1719.42,1059.67 1721.76,1058.05 C1726.78,1054.66 1733.07,1052.97 1740.62,1052.97"/>
<path class="Note" d="M2008.54,1072.69 C2008.54,1071.58 2008.11,1070.64 2007.27,1069.86 C2006.42,1069.01 2005.44,1068.59 2004.33,1068.59 C2002.39,1068.59 1998.45,1070.55 1992.52,1074.45 C1986.4,1078.42 1982.65,1081.25 1981.29,1082.95 C1980.57,1083.86 1980.21,1084.8 1980.21,1085.78 C1980.21,1086.88 1980.64,1087.83 1981.49,1088.61 C1982.27,1089.45 1983.24,1089.87 1984.41,1089.87 C1986.3,1089.87 1990.27,1087.92 1996.33,1084.01 C2002.32,1080.11 2006.03,1077.27 2007.46,1075.51 C2008.18,1074.67 2008.54,1073.73 2008.54,1072.69 M2003.36,1065.47 C2008.96,1065.47 2011.76,1067.87 2011.76,1072.69 C2011.76,1075.03 2011.07,1077.76 2009.71,1080.89 C2008.34,1083.95 2006.52,1086.3 2004.24,1087.92 C1999.23,1091.31 1992.95,1093 1985.4,1093 C1979.79,1093 1976.99,1090.59 1976.99,1085.78 C1976.99,1083.63 1977.67,1080.93 1979.04,1077.67 C1980.34,1074.55 1982.16,1072.17 1984.51,1070.55 C1989.53,1067.16 1995.81,1065.47 2003.36,1065.47"/>
<path class="Note" d="M2225.95,1065.47 C2229.08,1065.47 2231.72,1066.28 2233.88,1067.9 C2235.89,1069.67 2236.89,1071.88 2236.89,1074.55 C2236.89,1079.03 2234.58,1083.23 2229.97,1087.14 C2225.28,1091.05 2220.27,1093 2214.92,1093 C2211.8,1093 2209.16,1092.19 2207.02,1090.56 C2205,1088.8 2203.99,1086.59 2203.99,1083.92 C2203.99,1079.43 2206.33,1075.23 2211.02,1071.33 C2215.58,1067.42 2220.56,1065.47 2225.95,1065.47"/>
<path class="Note" d="M2367.26,1040.47 C2370.39,1040.47 2373.03,1041.28 2375.19,1042.9 C2377.2,1044.67 2378.2,1046.88 2378.2,1049.55 C2378.2,1054.03 2375.89,1058.23 2371.28,1062.14 C2366.59,1066.05 2361.58,1068 2356.23,1068 C2353.11,1068 2350.47,1067.19 2348.33,1065.56 C2346.31,1063.8 2345.29,1061.59 2345.29,1058.92 C2345.29,1054.43 2347.64,1050.23 2352.33,1046.33 C2356.89,1042.42 2361.87,1040.47 2367.26,1040.47"/>
<path class="Note" d="M2589.97,1072.69 C2589.97,1071.58 2589.54,1070.64 2588.7,1069.86 C2587.85,1069.01 2586.87,1068.59 2585.76,1068.59 C2583.82,1068.59 2579.88,1070.55 2573.95,1074.45 C2567.83,1078.42 2564.08,1081.25 2562.72,1082.95 C2562,1083.86 2561.64,1084.8 2561.64,1085.78 C2561.64,1086.88 2562.07,1087.83 2562.92,1088.61 C2563.7,1089.45 2564.68,1089.87 2565.84,1089.87 C2567.73,1089.87 2571.7,1087.92 2577.76,1084.01 C2583.75,1080.11 2587.46,1077.27 2588.89,1075.51 C2589.61,1074.67 2589.97,1073.73 2589.97,1072.69 M2584.79,1065.47 C2590.39,1065.47 2593.19,1067.87 2593.19,1072.69 C2593.19,1075.03 2592.5,1077.76 2591.14,1080.89 C2589.77,1083.95 2587.95,1086.3 2585.67,1087.92 C2580.66,1091.31 2574.38,1093 2566.83,1093 C2561.22,1093 2558.42,1090.59 2558.42,1085.78 C2558.42,1083.63 2559.1,1080.93 2560.47,1077.67 C2561.77,1074.55 2563.59,1072.17 2565.94,1070.55 C2570.96,1067.16 2577.24,1065.47 2584.79,1065.47"/>
<path class="Clef" d="M198.451,616.139 C198.451,616.139 198.649,616.139 199.045,616.139 C199.305,616.076 199.529,616.045 199.717,616.045 C207.008,616.045 212.998,618.618 217.685,623.764 C222.373,628.837 224.717,634.759 224.717,641.529 C224.717,649.936 221.238,656.774 214.279,662.045 C212.456,663.483 210.076,664.654 207.139,665.561 C207.472,669.79 207.639,673.207 207.639,675.811 C207.639,676.332 207.571,678.222 207.435,681.483 C207.175,687.535 205.092,692.774 201.185,697.201 C197.415,701.566 192.727,703.748 187.123,703.748 C181.852,703.748 177.363,701.894 173.654,698.186 C169.935,694.404 168.076,689.847 168.076,684.514 C168.076,681.712 169.154,679.332 171.31,677.373 C173.519,675.425 176.086,674.451 179.014,674.451 C181.618,674.451 183.8,675.462 185.56,677.483 C187.383,679.368 188.295,681.712 188.295,684.514 C188.295,687.045 187.383,689.222 185.56,691.045 C183.738,692.868 181.555,693.779 179.014,693.779 C177.972,693.779 176.967,693.587 175.998,693.201 C178.863,697.431 182.67,699.545 187.42,699.545 C191.909,699.545 195.586,697.722 198.451,694.076 C201.451,690.306 203.081,685.91 203.342,680.889 C203.467,677.764 203.529,675.977 203.529,675.529 C203.529,671.884 203.399,668.889 203.139,666.545 C199.889,667.066 196.993,667.326 194.451,667.326 C185.399,667.326 177.685,663.743 171.31,656.576 C165.06,649.347 161.935,640.753 161.935,630.795 C161.935,628.712 162.128,626.597 162.514,624.451 C162.909,622.691 163.399,620.769 163.982,618.686 C164.305,617.509 165.185,615.618 166.623,613.014 C167.144,612.233 167.73,611.256 168.381,610.084 C169.032,608.912 169.488,608.134 169.748,607.748 C170.394,606.446 171.659,604.686 173.545,602.467 C174.066,601.884 174.605,601.235 175.162,600.522 C175.719,599.808 176.193,599.222 176.584,598.764 C176.974,598.306 177.266,597.946 177.459,597.686 C177.652,597.425 179.118,595.701 181.857,592.514 C182.503,591.858 183.136,591.157 183.756,590.412 C184.376,589.667 184.881,589.082 185.271,588.654 C185.662,588.227 185.956,587.92 186.154,587.733 C183.81,579.983 182.342,573.795 181.748,569.17 C181.3,565.462 181.076,560.384 181.076,553.936 C181.076,548.269 182.378,542.962 184.982,538.014 C187.514,532.878 191.06,528.681 195.623,525.42 C195.883,525.222 196.206,525.123 196.592,525.123 C197.05,525.123 197.378,525.222 197.576,525.42 C201.086,529.649 204.113,535.149 206.654,541.92 C209.258,548.691 210.56,554.847 210.56,560.389 C210.56,566.639 209.066,572.498 206.076,577.967 C202.691,583.759 198.326,589.748 192.982,595.936 C194.347,600.227 196.17,606.962 198.451,616.139 M206.748,661.561 C210.133,660.321 212.774,658.207 214.67,655.217 C216.753,652.352 217.795,649.128 217.795,645.545 C217.795,640.92 216.232,636.816 213.107,633.233 C209.909,629.524 205.836,627.441 200.889,626.983 C203.691,640.722 205.644,652.248 206.748,661.561 M168.967,638.998 C168.967,645.446 171.571,651.113 176.779,655.998 C182.113,660.748 188.102,663.123 194.748,663.123 C197.477,663.123 200.144,662.925 202.748,662.529 C201.706,652.634 199.654,640.785 196.592,626.983 C192.883,627.378 189.925,628.681 187.717,630.889 C185.56,633.17 184.482,635.743 184.482,638.608 C184.482,643.556 187.123,647.561 192.404,650.623 C192.852,651.082 193.076,651.571 193.076,652.092 C193.076,652.613 192.852,653.097 192.404,653.545 C192.008,654.003 191.519,654.233 190.935,654.233 C190.873,654.233 190.581,654.17 190.06,654.045 C186.342,652.024 183.477,649.42 181.467,646.233 C179.571,642.837 178.623,639.415 178.623,635.967 C178.623,631.477 180.024,627.41 182.826,623.764 C185.753,620.118 189.56,617.774 194.248,616.733 C192.425,609.441 190.93,603.743 189.764,599.639 C188.722,600.816 187.469,602.233 186.006,603.889 C184.542,605.545 183.68,606.54 183.42,606.873 C181.076,609.925 179.284,612.3 178.045,613.998 C175.826,617.061 174.196,619.696 173.154,621.904 C172.05,624.384 171.076,627.087 170.232,630.014 C169.389,632.816 168.967,635.811 168.967,638.998 M201.576,539.686 C196.691,542.092 192.852,545.54 190.06,550.029 C187.196,554.654 185.764,559.634 185.764,564.967 C185.764,569.654 186.935,575.972 189.279,583.92 C193.967,578.253 197.482,573.014 199.826,568.201 C202.295,563.118 203.529,557.811 203.529,552.279 C203.529,548.113 202.878,543.915 201.576,539.686"/>
<path class="Clef" d="M198.451,1091.14 C198.451,1091.14 198.649,1091.14 199.045,1091.14 C199.305,1091.08 199.529,1091.05 199.717,1091.05 C207.008,1091.05 212.998,1093.62 217.685,1098.76 C222.373,1103.84 224.717,1109.76 224.717,1116.53 C224.717,1124.94 221.238,1131.77 214.279,1137.05 C212.456,1138.48 210.076,1139.65 207.139,1140.56 C207.472,1144.79 207.639,1148.21 207.639,1150.81 C207.639,1151.33 207.571,1153.22 207.435,1156.48 C207.175,1162.53 205.092,1167.77 201.185,1172.2 C197.415,1176.57 192.727,1178.75 187.123,1178.75 C181.852,1178.75 177.363,1176.89 173.654,1173.19 C169.935,1169.4 168.076,1164.85 168.076,1159.51 C168.076,1156.71 169.154,1154.33 171.31,1152.37 C173.519,1150.43 176.086,1149.45 179.014,1149.45 C181.618,1149.45 183.8,1150.46 185.56,1152.48 C187.383,1154.37 188.295,1156.71 188.295,1159.51 C188.295,1162.05 187.383,1164.22 185.56,1166.05 C183.738,1167.87 181.555,1168.78 179.014,1168.78 C177.972,1168.78 176.967,1168.59 175.998,1168.2 C178.863,1172.43 182.67,1174.55 187.42,1174.55 C191.909,1174.55 195.586,1172.72 198.451,1169.08 C201.451,1165.31 203.081,1160.91 203.342,1155.89 C203.467,1152.76 203.529,1150.98 203.529,1150.53 C203.529,1146.88 203.399,1143.89 203.139,1141.55 C199.889,1142.07 196.993,1142.33 194.451,1142.33 C185.399,1142.33 177.685,1138.74 171.31,1131.58 C165.06,1124.35 161.935,1115.75 161.935,1105.8 C161.935,1103.71 162.128,1101.6 162.514,1099.45 C162.909,1097.69 163.399,1095.77 163.982,1093.69 C164.305,1092.51 165.185,1090.62 166.623,1088.01 C167.144,1087.23 167.73,1086.26 168.381,1085.08 C169.032,1083.91 169.488,1083.13 169.748,1082.75 C170.394,1081.45 171.659,1079.69 173.545,1077.47 C174.066,1076.88 174.605,1076.24 175.162,1075.52 C175.719,1074.81 176.193,1074.22 176.584,1073.76 C176.974,1073.31 177.266,1072.95 177.459,1072.69 C177.652,1072.43 179.118,1070.7 181.857,1067.51 C182.503,1066.86 183.136,1066.16 183.756,1065.41 C184.376,1064.67 184.881,1064.08 185.271,1063.65 C185.662,1063.23 185.956,1062.92 186.154,1062.73 C183.81,1054.98 182.342,1048.8 181.748,1044.17 C181.3,1040.46 181.076,1035.38 181.076,1028.94 C181.076,1023.27 182.378,1017.96 184.982,1013.01 C187.514,1007.88 191.06,1003.68 195.623,1000.42 C195.883,1000.22 196.206,1000.12 196.592,1000.12 C197.05,1000.12 197.378,1000.22 197.576,1000.42 C201.086,1004.65 204.113,1010.15 206.654,1016.92 C209.258,1023.69 210.56,1029.85 210.56,1035.39 C210.56,1041.64 209.066,1047.5 206.076,1052.97 C202.691,1058.76 198.326,1064.75 192.982,1070.94 C194.347,1075.23 196.17,1081.96 198.451,1091.14 M206.748,1136.56 C210.133,1135.32 212.774,1133.21 214.67,1130.22 C216.753,1127.35 217.795,1124.13 217.795,1120.55 C217.795,1115.92 216.232,1111.82 213.107,1108.23 C209.909,1104.52 205.836,1102.44 200.889,1101.98 C203.691,1115.72 205.644,1127.25 206.748,1136.56 M168.967,1114 C168.967,1120.45 171.571,1126.11 176.779,1131 C182.113,1135.75 188.102,1138.12 194.748,1138.12 C197.477,1138.12 200.144,1137.93 202.748,1137.53 C201.706,1127.63 199.654,1115.78 196.592,1101.98 C192.883,1102.38 189.925,1103.68 187.717,1105.89 C185.56,1108.17 184.482,1110.74 184.482,1113.61 C184.482,1118.56 187.123,1122.56 192.404,1125.62 C192.852,1126.08 193.076,1126.57 193.076,1127.09 C193.076,1127.61 192.852,1128.1 192.404,1128.55 C192.008,1129 191.519,1129.23 190.935,1129.23 C190.873,1129.23 190.581,1129.17 190.06,1129.05 C186.342,1127.02 183.477,1124.42 181.467,1121.23 C179.571,1117.84 178.623,1114.42 178.623,1110.97 C178.623,1106.48 180.024,1102.41 182.826,1098.76 C185.753,1095.12 189.56,1092.77 194.248,1091.73 C192.425,1084.44 190.93,1078.74 189.764,1074.64 C188.722,1075.82 187.469,1077.23 186.006,1078.89 C184.542,1080.55 183.68,1081.54 183.42,1081.87 C181.076,1084.93 179.284,1087.3 178.045,1089 C175.826,1092.06 174.196,1094.7 173.154,1096.9 C172.05,1099.38 171.076,1102.09 170.232,1105.01 C169.389,1107.82 168.967,1110.81 168.967,1114 M201.576,1014.69 C196.691,1017.09 192.852,1020.54 190.06,1025.03 C187.196,1029.65 185.764,1034.63 185.764,1039.97 C185.764,1044.65 186.935,1050.97 189.279,1058.92 C193.967,1053.25 197.482,1048.01 199.826,1043.2 C202.295,1038.12 203.529,1032.81 203.529,1027.28 C203.529,1023.11 202.878,1018.92 201.576,1014.69"/>
<path class="TimeSig" d="M297.467,567.912 C299.415,567.912 301.074,567.686 302.443,567.233 C303.813,566.779 304.691,566.553 305.076,566.553 C305.534,566.553 305.894,566.683 306.154,566.944 C306.352,567.131 306.482,567.355 306.545,567.615 C306.545,567.751 306.477,567.949 306.342,568.209 L277.935,601.225 L294.623,601.225 L294.623,588.131 C294.623,587.287 294.852,586.569 295.31,585.975 C296.092,585.329 296.743,584.938 297.264,584.803 C298.107,584.417 299.149,583.506 300.389,582.069 C301.43,580.902 302.67,578.855 304.107,575.928 C304.295,575.532 304.587,575.334 304.982,575.334 C305.764,575.334 306.217,575.792 306.342,576.709 L306.342,601.225 L313.482,601.225 C314.389,601.225 314.909,601.709 315.045,602.678 C315.045,603.657 314.524,604.147 313.482,604.147 L306.342,604.147 L306.342,604.928 C306.342,607.532 306.993,609.746 308.295,611.569 C309.795,613.391 311.555,614.303 313.576,614.303 C314.357,614.303 314.748,614.694 314.748,615.475 C314.748,616.256 314.357,616.647 313.576,616.647 C312.212,616.647 309.998,616.454 306.935,616.069 C304.133,615.61 301.951,615.381 300.389,615.381 C298.764,615.381 296.581,615.61 293.842,616.069 C290.915,616.454 288.738,616.647 287.31,616.647 C286.529,616.647 286.139,616.256 286.139,615.475 C286.139,614.694 286.529,614.303 287.31,614.303 C289.321,614.303 291.076,613.391 292.576,611.569 C293.941,609.683 294.623,607.47 294.623,604.928 L294.623,604.147 L277.935,604.147 C276.821,604.147 276.04,603.886 275.592,603.365 C275.06,602.98 274.795,602.459 274.795,601.803 C274.795,601.605 275.284,600.923 276.264,599.756 C277.378,598.454 278.55,596.86 279.779,594.975 C281.217,592.756 282.587,590.475 283.889,588.131 C285.316,585.464 286.456,582.402 287.31,578.944 C288.279,575.433 288.764,571.855 288.764,568.209 C288.764,567.167 289.222,566.647 290.139,566.647 C290.337,566.647 290.758,566.746 291.404,566.944 C291.602,567.006 292.011,567.102 292.631,567.233 C293.251,567.363 293.753,567.49 294.139,567.615 C295.316,567.813 296.425,567.912 297.467,567.912"/>
<path class="TimeSig" d="M297.467,618.084 C299.415,618.084 301.074,617.858 302.443,617.404 C303.813,616.951 304.691,616.725 305.076,616.725 C305.534,616.725 305.894,616.855 306.154,617.115 C306.352,617.303 306.482,617.527 306.545,617.787 C306.545,617.923 306.477,618.121 306.342,618.381 L277.935,651.397 L294.623,651.397 L294.623,638.303 C294.623,637.459 294.852,636.74 295.31,636.147 C296.092,635.501 296.743,635.11 297.264,634.975 C298.107,634.589 299.149,633.678 300.389,632.24 C301.43,631.074 302.67,629.027 304.107,626.1 C304.295,625.704 304.587,625.506 304.982,625.506 C305.764,625.506 306.217,625.964 306.342,626.881 L306.342,651.397 L313.482,651.397 C314.389,651.397 314.909,651.881 315.045,652.85 C315.045,653.829 314.524,654.319 313.482,654.319 L306.342,654.319 L306.342,655.1 C306.342,657.704 306.993,659.917 308.295,661.74 C309.795,663.563 311.555,664.475 313.576,664.475 C314.357,664.475 314.748,664.865 314.748,665.647 C314.748,666.428 314.357,666.819 313.576,666.819 C312.212,666.819 309.998,666.626 306.935,666.24 C304.133,665.782 301.951,665.553 300.389,665.553 C298.764,665.553 296.581,665.782 293.842,666.24 C290.915,666.626 288.738,666.819 287.31,666.819 C286.529,666.819 286.139,666.428 286.139,665.647 C286.139,664.865 286.529,664.475 287.31,664.475 C289.321,664.475 291.076,663.563 292.576,661.74 C293.941,659.855 294.623,657.641 294.623,655.1 L294.623,654.319 L277.935,654.319 C276.821,654.319 276.04,654.058 275.592,653.537 C275.06,653.152 274.795,652.631 274.795,651.975 C274.795,651.777 275.284,651.095 276.264,649.928 C277.378,648.626 278.55,647.032 279.779,645.147 C281.217,642.928 282.587,640.647 283.889,638.303 C285.316,635.636 286.456,632.574 287.31,629.115 C288.279,625.605 288.764,622.027 288.764,618.381 C288.764,617.339 289.222,616.819 290.139,616.819 C290.337,616.819 290.758,616.917 291.404,617.115 C291.602,617.178 292.011,617.274 292.631,617.404 C293.251,617.535 293.753,617.662 294.139,617.787 C295.316,617.985 296.425,618.084 297.467,618.084"/>
<path class="Fermata" d="M2571,1014.78 C2569.7,1013.48 2569.04,1011.88 2569.04,1009.99 C2569.04,1008.1 2569.7,1006.5 2571,1005.2 C2572.3,1003.9 2573.89,1003.25 2575.78,1003.25 C2577.66,1003.25 2579.26,1003.9 2580.56,1005.2 C2581.86,1006.5 2582.51,1008.1 2582.51,1009.99 C2582.51,1011.88 2581.86,1013.48 2580.56,1014.78 C2579.26,1016.08 2577.66,1016.73 2575.78,1016.73 C2573.89,1016.73 2572.3,1016.08 2571,1014.78 M2564.45,981.186 C2567.84,979.488 2571.61,978.639 2575.78,978.639 C2579.95,978.639 2583.72,979.488 2587.11,981.186 C2590.82,982.873 2593.75,984.988 2595.9,987.53 C2598.31,990.269 2600.36,993.035 2602.04,995.827 C2603.81,998.691 2605.18,1001.59 2606.15,1004.53 C2607,1006.94 2607.71,1009.28 2608.29,1011.56 C2608.75,1013.31 2608.98,1014.55 2608.98,1015.26 C2608.98,1015.59 2608.79,1015.95 2608.4,1016.34 C2607.88,1016.6 2607.46,1016.73 2607.12,1016.73 C2606.15,1016.73 2605.5,1016.14 2605.17,1014.97 C2603.94,1007.61 2600.56,1001.36 2595.01,996.217 C2589.48,991.269 2583.07,988.795 2575.78,988.795 C2568.49,988.795 2562.08,991.269 2556.54,996.217 C2551.01,1001.36 2547.63,1007.61 2546.39,1014.97 C2546.19,1016.14 2545.54,1016.73 2544.44,1016.73 C2544.11,1016.73 2543.69,1016.6 2543.17,1016.34 C2542.77,1015.95 2542.58,1015.59 2542.58,1015.26 C2542.58,1014.55 2542.81,1013.31 2543.26,1011.56 C2543.85,1009.28 2544.56,1006.94 2545.4,1004.53 C2546.38,1001.59 2547.75,998.691 2549.51,995.827 C2551.2,993.035 2553.25,990.269 2555.67,987.53 C2557.94,984.863 2560.87,982.748 2564.45,981.186"/>
<path class="Dynamic" d="M381.43,741.358 L376.633,756.826 C374.831,762.587 372.049,767.967 368.289,772.967 C364.331,778.207 360.294,780.826 356.18,780.826 C354.013,780.826 352.109,780.267 350.469,779.147 C348.828,778.027 348.008,776.571 348.008,774.78 C348.008,772.738 348.451,771.014 349.336,769.608 C350.253,768.17 351.451,767.451 352.93,767.451 C354.096,767.451 355.068,767.871 355.844,768.709 C356.62,769.548 357.008,770.509 357.008,771.592 C357.008,772.634 356.451,773.535 355.336,774.295 C354.096,775.129 353.477,775.967 353.477,776.811 C353.477,777.457 354.336,777.78 356.055,777.78 C357.857,777.78 359.237,777.035 360.195,775.545 C361.237,773.951 362.076,771.675 362.711,768.717 C362.867,767.915 362.987,767.373 363.07,767.092 L369.492,741.358 L364.508,741.358 C364.07,741.358 363.732,741.196 363.492,740.873 C363.253,740.477 363.133,740.097 363.133,739.733 C363.133,739.254 363.253,738.894 363.492,738.655 C363.815,738.332 364.154,738.17 364.508,738.17 L370.398,738.17 C371.951,733.451 374.628,729.233 378.43,725.514 C382.148,721.879 386.148,720.061 390.43,720.061 C392.628,720.061 394.529,720.639 396.133,721.795 C397.737,722.951 398.555,724.389 398.586,726.108 C398.586,728.035 398.169,729.738 397.336,731.217 C396.336,732.655 395.133,733.373 393.727,733.373 C392.57,733.373 391.591,732.964 390.789,732.147 C389.987,731.329 389.586,730.379 389.586,729.295 C389.586,728.337 390.177,727.488 391.359,726.748 C392.542,726.009 393.133,725.118 393.133,724.076 C393.133,723.358 392.232,722.998 390.43,722.998 C389.471,722.998 388.492,723.337 387.492,724.014 C386.857,724.451 386.138,725.373 385.336,726.78 C384.815,727.655 384.372,728.733 384.008,730.014 C383.935,730.295 383.659,731.733 383.18,734.326 C382.898,735.847 382.596,737.129 382.273,738.17 L387.664,738.17 C388.112,738.17 388.495,738.321 388.813,738.623 C389.13,738.925 389.289,739.295 389.289,739.733 C389.289,740.17 389.13,740.55 388.813,740.873 C388.495,741.196 388.112,741.358 387.664,741.358 L381.43,741.358 "/>
<path class="Beam" fill-rule="evenodd" d="M1140.91,610.469 L1240.06,616.931 L1240.06,629.458 L1140.91,622.996 L1140.91,610.469 "/>
<path class="Beam" fill-rule="evenodd" d="M721.856,1129.22 L820.621,1135.68 L820.621,1148.21 L721.856,1141.75 L721.856,1129.22 "/>
<path class="Hook" d="M914.343,594.373 C915.843,594.373 917.442,596.811 919.14,601.686 C920.765,606.509 921.578,611.102 921.578,615.467 C921.578,619.175 920.666,622.852 918.843,626.498 C916.958,630.404 914.713,633.79 912.109,636.654 L904.093,645.639 C901.625,648.503 899.411,651.821 897.453,655.592 C895.63,659.238 894.718,662.951 894.718,666.733 L891.593,666.733 L891.593,641.733 L894.718,641.733 C896.479,640.628 899.083,638.868 902.531,636.451 C904.093,635.285 906.437,633.332 909.562,630.592 C912.104,628.248 914.026,625.842 915.328,623.373 C916.692,620.769 917.375,618.134 917.375,615.467 C917.375,609.279 915.583,603.123 912,596.998 C912,596.998 912,596.868 912,596.608 C912,596.024 912.198,595.54 912.593,595.154 C913.114,594.634 913.698,594.373 914.343,594.373"/>
<path class="Hook" d="M496.267,1069.37 C497.767,1069.37 499.366,1071.81 501.064,1076.69 C502.689,1081.51 503.502,1086.1 503.502,1090.47 C503.502,1094.18 502.59,1097.85 500.767,1101.5 C498.882,1105.4 496.637,1108.79 494.033,1111.65 L486.017,1120.64 C483.549,1123.5 481.335,1126.82 479.377,1130.59 C477.554,1134.24 476.642,1137.95 476.642,1141.73 L473.517,1141.73 L473.517,1116.73 L476.642,1116.73 C478.403,1115.63 481.007,1113.87 484.455,1111.45 C486.017,1110.28 488.361,1108.33 491.486,1105.59 C494.028,1103.25 495.95,1100.84 497.252,1098.37 C498.616,1095.77 499.299,1093.13 499.299,1090.47 C499.299,1084.28 497.507,1078.12 493.924,1072 C493.924,1072 493.924,1071.87 493.924,1071.61 C493.924,1071.02 494.122,1070.54 494.517,1070.15 C495.038,1069.63 495.622,1069.37 496.267,1069.37"/>
<path class="VoltaSegment" d="M1968.84,920.866 C1968.4,920.866 1967.88,920.957 1967.27,921.139 C1966.67,921.321 1966.03,921.54 1965.35,921.795 C1964.66,922.051 1964.27,922.199 1964.17,922.241 L1964.17,920.803 L1978.02,914.819 L1978.96,914.819 L1978.96,946.162 C1978.96,948.287 1979.33,949.67 1980.06,950.311 C1980.79,950.952 1982.4,951.293 1984.9,951.334 L1984.9,952.647 L1964.27,952.647 L1964.27,951.334 C1966.98,951.293 1968.75,950.933 1969.58,950.256 C1970.41,949.579 1970.82,948.105 1970.82,945.834 L1970.82,924.662 C1970.82,922.131 1970.16,920.866 1968.84,920.866 M1995.46,944.069 C1996.74,944.069 1997.84,944.535 1998.76,945.467 C1999.68,946.399 2000.13,947.509 2000.13,948.795 C2000.13,950.082 1999.68,951.165 1998.76,952.045 C1997.84,952.926 1996.72,953.366 1995.4,953.366 C1994.12,953.366 1993.04,952.915 1992.16,952.014 C1991.28,951.113 1990.84,950.006 1990.84,948.694 C1990.84,947.444 1991.3,946.36 1992.21,945.444 C1993.13,944.527 1994.21,944.069 1995.46,944.069"/>
<polyline class="VoltaSegment" fill="none" stroke="#000000" stroke-width="2.50" stroke-linecap="square" stroke-linejoin="bevel" points="1951.09,952.647 1951.09,905.147"/>
<polyline class="VoltaSegment" fill="none" stroke="#000000" stroke-width="2.50" stroke-linecap="square" stroke-linejoin="bevel" points="1951.09,905.147 2518.18,905.147"/>
<polyline class="VoltaSegment" fill="none" stroke="#000000" stroke-width="2.50" stroke-linecap="square" stroke-linejoin="bevel" points="2518.18,905.147 2518.18,952.647"/>
<path class="VoltaSegment" d="M2546.72,926.037 C2549.51,918.558 2553.54,914.819 2558.81,914.819 C2561.78,914.819 2564.22,915.761 2566.13,917.647 C2568.05,919.532 2569,921.944 2569,924.881 C2569,928.912 2566.91,932.907 2562.72,936.866 L2553.81,945.334 L2562.13,945.334 C2564.95,945.334 2566.76,945.113 2567.56,944.67 C2568.37,944.228 2569.17,943.017 2569.99,941.037 L2571.3,941.037 L2568.83,952.647 L2545.96,952.647 L2545.96,951.381 C2552.23,944.704 2556.39,939.782 2558.44,936.616 C2560.49,933.449 2561.52,930.6 2561.52,928.069 C2561.52,926.194 2560.91,924.561 2559.71,923.17 C2558.5,921.78 2556.92,921.084 2554.97,921.084 C2552.15,921.084 2549.91,922.735 2548.27,926.037 L2546.72,926.037 M2579.89,944.069 C2581.17,944.069 2582.27,944.535 2583.19,945.467 C2584.11,946.399 2584.56,947.509 2584.56,948.795 C2584.56,950.082 2584.11,951.165 2583.19,952.045 C2582.27,952.926 2581.15,953.366 2579.83,953.366 C2578.55,953.366 2577.47,952.915 2576.59,952.014 C2575.71,951.113 2575.27,950.006 2575.27,948.694 C2575.27,947.444 2575.73,946.36 2576.64,945.444 C2577.56,944.527 2578.64,944.069 2579.89,944.069"/>
<polyline class="VoltaSegment" fill="none" stroke="#000000" stroke-width="2.50" stroke-linecap="square" stroke-linejoin="bevel" points="2532.52,952.647 2532.52,905.147"/>
<polyline class="VoltaSegment" fill="none" stroke="#000000" stroke-width="2.50" stroke-linecap="square" stroke-linejoin="bevel" points="2532.52,905.147 2810.97,905.147"/>
<polyline class="VoltaSegment" fill="none" stroke="#000000" stroke-width="2.50" stroke-linecap="square" stroke-linejoin="bevel" points="2810.97,905.147 2810.97,952.647"/>
<path class="NoteDot" d="M747.838,558.24 C746.728,557.131 746.174,555.795 746.174,554.233 C746.174,552.67 746.728,551.334 747.838,550.225 C748.947,549.115 750.283,548.561 751.846,548.561 C753.408,548.561 754.741,549.115 755.846,550.225 C756.95,551.334 757.502,552.67 757.502,554.233 C757.502,555.795 756.95,557.131 755.846,558.24 C754.741,559.35 753.408,559.904 751.846,559.904 C750.283,559.904 748.947,559.35 747.838,558.24"/>
<path class="NoteDot" d="M330.498,1033.24 C329.389,1032.13 328.834,1030.8 328.834,1029.23 C328.834,1027.67 329.389,1026.33 330.498,1025.23 C331.607,1024.12 332.943,1023.56 334.506,1023.56 C336.068,1023.56 337.402,1024.12 338.506,1025.23 C339.61,1026.33 340.162,1027.67 340.162,1029.23 C340.162,1030.8 339.61,1032.13 338.506,1033.24 C337.402,1034.35 336.068,1034.9 334.506,1034.9 C332.943,1034.9 331.607,1034.35 330.498,1033.24"/>
</svg>
