<?xml version="1.0" encoding="UTF-8" standalone="no"?>
<svg width="2977.2px" height="4208.4px" viewBox="0 0 2977.2 4208.4"
 xmlns="http://www.w3.org/2000/svg" xmlns:xlink="http://www.w3.org/1999/xlink" version="1.2" baseProfile="tiny">
<title>5-9</title>
<desc>Generated by MuseScore 3.4.2</desc>
<polyline class="StaffLines" fill="none" stroke="#000000" stroke-width="2.00" stroke-linejoin="bevel" points="141.732,566.733 2835.47,566.733"/>
<polyline class="StaffLines" fill="none" stroke="#000000" stroke-width="2.00" stroke-linejoin="bevel" points="141.732,591.733 2835.47,591.733"/>
<polyline class="StaffLines" fill="none" stroke="#000000" stroke-width="2.00" stroke-linejoin="bevel" points="141.732,616.733 2835.47,616.733"/>
<polyline class="StaffLines" fill="none" stroke="#000000" stroke-width="2.00" stroke-linejoin="bevel" points="141.732,641.733 2835.47,641.733"/>
<polyline class="StaffLines" fill="none" stroke="#000000" stroke-width="2.00" stroke-linejoin="bevel" points="141.732,666.733 2835.47,666.733"/>
<path class="Text" d="M747.045,226.42 C738.972,226.42 732.474,223.193 727.553,216.74 C722.631,210.287 720.17,201.769 720.17,191.185 C720.17,187.915 720.49,184.54 721.131,181.06 C721.771,177.581 723.172,173.626 725.334,169.193 C727.495,164.761 730.295,160.787 733.732,157.271 C737.17,153.756 741.987,150.62 748.185,147.865 C754.383,145.11 761.524,143.373 769.607,142.654 L769.857,144.576 C760.409,146.097 752.527,149.917 746.209,156.037 C739.891,162.157 735.93,169.737 734.326,178.779 C738.086,176.633 740.928,175.235 742.849,174.584 C744.771,173.933 747.05,173.607 749.685,173.607 C756.571,173.607 762.053,175.836 766.131,180.295 C770.209,184.753 772.248,190.769 772.248,198.342 C772.248,206.612 769.909,213.36 765.232,218.584 C760.555,223.808 754.493,226.42 747.045,226.42 M745.123,178.889 C739.685,178.889 736.027,180.084 734.146,182.474 C732.266,184.865 731.326,188.404 731.326,193.092 C731.326,202.321 732.847,209.581 735.889,214.873 C738.93,220.165 743.092,222.81 748.373,222.81 C752.612,222.81 755.852,221.04 758.092,217.498 C760.331,213.956 761.451,208.925 761.451,202.404 C761.451,194.925 760.032,189.136 757.193,185.037 C754.355,180.938 750.331,178.889 745.123,178.889 M807.045,226.42 C798.972,226.42 792.474,223.193 787.553,216.74 C782.631,210.287 780.17,201.769 780.17,191.185 C780.17,187.915 780.49,184.54 781.131,181.06 C781.771,177.581 783.172,173.626 785.334,169.193 C787.495,164.761 790.295,160.787 793.732,157.271 C797.17,153.756 801.987,150.62 808.185,147.865 C814.383,145.11 821.524,143.373 829.607,142.654 L829.857,144.576 C820.409,146.097 812.527,149.917 806.209,156.037 C799.891,162.157 795.93,169.737 794.326,178.779 C798.086,176.633 800.928,175.235 802.849,174.584 C804.771,173.933 807.05,173.607 809.685,173.607 C816.571,173.607 822.053,175.836 826.131,180.295 C830.209,184.753 832.248,190.769 832.248,198.342 C832.248,206.612 829.909,213.36 825.232,218.584 C820.555,223.808 814.493,226.42 807.045,226.42 M805.123,178.889 C799.685,178.889 796.027,180.084 794.146,182.474 C792.266,184.865 791.326,188.404 791.326,193.092 C791.326,202.321 792.847,209.581 795.889,214.873 C798.93,220.165 803.092,222.81 808.373,222.81 C812.612,222.81 815.852,221.04 818.092,217.498 C820.331,213.956 821.451,208.925 821.451,202.404 C821.451,194.925 820.032,189.136 817.193,185.037 C814.355,180.938 810.331,178.889 805.123,178.889 M870.779,193.889 L900.295,193.889 L900.295,201.451 L870.779,201.451 L870.779,193.889 M951.451,208.529 C951.451,204.769 950.131,201.43 947.49,198.514 C944.849,195.597 941.649,193.097 937.889,191.014 C934.128,188.93 930.389,186.79 926.67,184.592 C922.951,182.394 919.771,179.573 917.131,176.131 C914.49,172.688 913.17,168.691 913.17,164.139 C913.17,158.055 915.23,153.115 919.349,149.318 C923.469,145.521 928.331,143.623 933.935,143.623 C937.29,143.623 940.928,144.303 944.849,145.662 C948.771,147.021 951.133,147.701 951.935,147.701 C954.008,147.701 955.284,146.342 955.764,143.623 L958.295,143.623 L960.935,169.17 L957.935,169.17 C956.008,162.128 953.066,156.928 949.107,153.568 C945.149,150.209 940.769,148.529 935.967,148.529 C932.29,148.529 929.292,149.571 926.974,151.654 C924.657,153.737 923.498,156.42 923.498,159.701 C923.498,162.899 924.857,165.938 927.576,168.818 C930.295,171.698 934.81,174.899 941.123,178.42 C949.05,182.659 954.774,186.839 958.295,190.959 C961.816,195.079 963.576,199.618 963.576,204.576 C963.576,210.732 961.214,215.912 956.49,220.115 C951.766,224.318 945.967,226.42 939.092,226.42 C935.092,226.42 931.032,225.737 926.912,224.373 C922.792,223.008 920.253,222.326 919.295,222.326 C918.409,222.326 917.646,222.706 917.006,223.467 C916.365,224.227 916.008,225.17 915.935,226.295 L913.295,226.295 L909.685,200.857 L912.451,200.857 C915.409,208.139 918.849,213.498 922.771,216.935 C926.693,220.373 931.331,222.092 936.685,222.092 C941.092,222.092 944.654,220.831 947.373,218.31 C950.092,215.79 951.451,212.529 951.451,208.529 M980.732,191.498 C980.889,196.54 981.568,200.878 982.771,204.514 C983.974,208.149 985.534,210.868 987.451,212.67 C989.368,214.472 991.308,215.753 993.271,216.514 C995.235,217.274 997.295,217.654 999.451,217.654 C1003.29,217.654 1006.64,216.693 1009.47,214.771 C1012.31,212.849 1015.17,209.612 1018.04,205.06 L1019.97,205.889 C1017.49,212.368 1014.05,217.329 1009.65,220.771 C1005.25,224.214 1000.21,225.935 994.529,225.935 C987.654,225.935 982.196,223.516 978.154,218.678 C974.112,213.839 972.092,207.3 972.092,199.06 C972.092,190.175 974.433,183.032 979.115,177.631 C983.797,172.23 989.816,169.529 997.17,169.529 C1003.25,169.529 1007.97,171.349 1011.33,174.99 C1014.69,178.631 1016.81,184.133 1017.69,191.498 L980.732,191.498 M980.967,187.889 L1005.45,187.889 C1004.65,182.691 1003.41,179.092 1001.73,177.092 C1000.06,175.092 997.373,174.092 993.685,174.092 C986.487,174.092 982.248,178.691 980.967,187.889 M1041.04,183.576 L1041.04,212.498 C1041.04,216.654 1041.53,219.331 1042.49,220.529 C1043.45,221.727 1045.7,222.529 1049.22,222.935 L1049.22,224.732 L1023.29,224.732 L1023.29,222.935 C1026.73,222.456 1028.87,221.657 1029.71,220.537 C1030.55,219.417 1030.97,216.737 1030.97,212.498 L1030.97,155.982 C1030.97,153.42 1030.63,151.737 1029.95,150.935 C1029.27,150.133 1027.77,149.732 1025.45,149.732 C1024.89,149.732 1024.21,149.816 1023.4,149.982 L1023.4,148.06 C1029.09,146.54 1034.77,144.779 1040.45,142.779 L1041.04,143.139 L1041.04,179.607 C1043.77,176.014 1046.52,173.435 1049.27,171.873 C1052.03,170.31 1055.16,169.529 1058.69,169.529 C1068.53,169.529 1073.45,175.889 1073.45,188.607 L1073.45,212.498 C1073.45,216.654 1073.83,219.271 1074.59,220.349 C1075.35,221.428 1077.37,222.29 1080.65,222.935 L1080.65,224.732 L1055.22,224.732 L1055.22,222.935 C1058.65,222.612 1060.87,221.81 1061.87,220.529 C1062.87,219.248 1063.37,216.571 1063.37,212.498 L1063.37,188.732 C1063.37,180.253 1060.37,176.014 1054.37,176.014 C1052.05,176.014 1049.87,176.594 1047.83,177.756 C1045.78,178.917 1043.52,180.857 1041.04,183.576 M1083.29,176.857 L1083.29,174.81 C1089.21,173.092 1094.73,171.331 1099.86,169.529 L1100.69,169.764 L1100.69,179.139 C1104.77,175.347 1107.99,172.797 1110.35,171.49 C1112.71,170.183 1115.29,169.529 1118.09,169.529 C1122.49,169.529 1125.95,171.102 1128.47,174.248 C1130.99,177.394 1132.25,181.79 1132.25,187.435 L1132.25,214.998 C1132.25,217.956 1132.73,219.938 1133.69,220.943 C1134.64,221.948 1136.61,222.612 1139.58,222.935 L1139.58,224.732 L1114.61,224.732 L1114.61,222.935 C1117.65,222.696 1119.67,221.894 1120.67,220.529 C1121.67,219.165 1122.17,216.597 1122.17,212.826 L1122.17,187.685 C1122.17,179.904 1119.25,176.014 1113.4,176.014 C1111.4,176.014 1109.57,176.474 1107.89,177.396 C1106.21,178.318 1103.93,180.144 1101.04,182.873 L1101.04,216.67 C1101.04,218.836 1101.6,220.362 1102.72,221.248 C1103.84,222.133 1105.92,222.696 1108.97,222.935 L1108.97,224.732 L1083.53,224.732 L1083.53,222.935 C1086.57,222.696 1088.57,221.993 1089.53,220.826 C1090.49,219.659 1090.97,217.352 1090.97,213.904 L1090.97,184.076 C1090.97,181.107 1090.65,179.081 1090.01,177.998 C1089.37,176.915 1088.21,176.373 1086.53,176.373 C1085.01,176.373 1083.93,176.534 1083.29,176.857 M1173.25,171.935 C1173.33,171.935 1173.97,171.534 1175.17,170.732 L1176.5,170.732 L1176.97,187.06 L1175.17,187.06 C1173.81,181.696 1172.12,177.894 1170.12,175.654 C1168.12,173.415 1165.4,172.295 1161.97,172.295 C1159.25,172.295 1157.03,173.055 1155.31,174.576 C1153.59,176.097 1152.73,178.055 1152.73,180.451 C1152.73,183.889 1154.45,186.607 1157.89,188.607 L1170.86,196.295 C1174.45,198.451 1177.03,200.631 1178.59,202.834 C1180.15,205.037 1180.94,207.618 1180.94,210.576 C1180.94,214.732 1179.27,218.331 1175.95,221.373 C1172.63,224.415 1168.65,225.935 1164.01,225.935 C1162.01,225.935 1159.33,225.576 1155.97,224.857 C1152.62,224.139 1150.53,223.779 1149.73,223.779 C1148.53,223.779 1147.61,224.258 1146.97,225.217 L1145.4,225.217 L1145.4,206.498 L1147.33,206.498 C1148.61,212.092 1150.13,216.05 1151.89,218.373 C1154.45,221.654 1158.01,223.295 1162.58,223.295 C1165.61,223.295 1168.02,222.514 1169.83,220.951 C1171.63,219.389 1172.53,217.29 1172.53,214.654 C1172.53,211.05 1170.45,208.05 1166.29,205.654 L1159.33,201.685 C1154.21,198.81 1150.59,196.053 1148.47,193.412 C1146.35,190.771 1145.29,187.774 1145.29,184.42 C1145.29,180.097 1146.83,176.555 1149.91,173.795 C1152.99,171.034 1156.89,169.654 1161.61,169.654 C1164.25,169.654 1166.73,170.034 1169.05,170.795 C1171.37,171.555 1172.77,171.935 1173.25,171.935 M1242.69,218.498 L1242.69,220.17 C1236.45,221.93 1230.97,223.81 1226.25,225.81 L1225.76,225.56 L1225.76,215.389 C1225.52,215.628 1224.83,216.344 1223.67,217.537 C1222.51,218.73 1221.7,219.555 1221.22,220.014 C1220.74,220.472 1219.92,221.178 1218.76,222.131 C1217.59,223.084 1216.57,223.769 1215.69,224.185 C1214.81,224.602 1213.69,224.998 1212.33,225.373 C1210.97,225.748 1209.61,225.935 1208.25,225.935 C1203.85,225.935 1200.33,224.498 1197.69,221.623 C1195.05,218.748 1193.73,214.92 1193.73,210.139 L1193.73,180.06 C1193.73,177.269 1193.21,175.336 1192.17,174.264 C1191.13,173.191 1189.17,172.576 1186.29,172.42 L1186.29,170.732 L1203.81,170.732 L1203.81,209.654 C1203.81,212.123 1204.65,214.253 1206.33,216.045 C1208.02,217.836 1210.01,218.732 1212.33,218.732 C1213.21,218.732 1214.25,218.612 1215.45,218.373 C1216.65,218.133 1218.03,217.675 1219.59,216.998 C1221.15,216.321 1222.47,215.248 1223.55,213.779 C1224.63,212.31 1225.17,210.498 1225.17,208.342 L1225.17,180.295 C1225.17,177.347 1224.63,175.396 1223.55,174.443 C1222.47,173.49 1220.06,172.935 1216.29,172.779 L1216.29,170.732 L1235.25,170.732 L1235.25,211.685 C1235.25,214.477 1235.69,216.31 1236.57,217.185 C1237.45,218.06 1239.29,218.498 1242.09,218.498 L1242.69,218.498 M1247.09,199.154 C1247.09,190.279 1249.71,183.123 1254.95,177.685 C1260.19,172.248 1266.33,169.529 1273.37,169.529 C1278.41,169.529 1282.76,170.751 1286.4,173.193 C1290.04,175.636 1291.86,178.534 1291.86,181.889 C1291.86,183.253 1291.29,184.435 1290.17,185.435 C1289.04,186.435 1287.69,186.935 1286.09,186.935 C1283.37,186.935 1281.49,185.112 1280.45,181.467 L1279.73,178.842 C1279.09,176.623 1278.28,175.118 1277.33,174.326 C1276.37,173.534 1274.81,173.139 1272.65,173.139 C1267.77,173.139 1263.83,175.068 1260.83,178.928 C1257.83,182.787 1256.33,187.779 1256.33,193.904 C1256.33,200.748 1258.07,206.336 1261.54,210.67 C1265.02,215.003 1269.49,217.17 1274.94,217.17 C1278.37,217.17 1281.33,216.334 1283.81,214.662 C1286.29,212.99 1288.97,210.086 1291.86,205.951 L1293.53,207.029 C1292.73,208.633 1292.03,209.956 1291.43,210.998 C1290.83,212.04 1289.75,213.605 1288.19,215.693 C1286.64,217.782 1285.1,219.469 1283.58,220.756 C1282.06,222.042 1280.06,223.227 1277.58,224.31 C1275.1,225.394 1272.53,225.935 1269.89,225.935 C1263.25,225.935 1257.79,223.433 1253.51,218.428 C1249.23,213.422 1247.09,206.998 1247.09,199.154 M1316.04,183.576 L1316.04,212.498 C1316.04,216.654 1316.53,219.331 1317.49,220.529 C1318.45,221.727 1320.7,222.529 1324.22,222.935 L1324.22,224.732 L1298.29,224.732 L1298.29,222.935 C1301.73,222.456 1303.87,221.657 1304.71,220.537 C1305.55,219.417 1305.97,216.737 1305.97,212.498 L1305.97,155.982 C1305.97,153.42 1305.63,151.737 1304.95,150.935 C1304.27,150.133 1302.77,149.732 1300.45,149.732 C1299.89,149.732 1299.21,149.816 1298.4,149.982 L1298.4,148.06 C1304.09,146.54 1309.77,144.779 1315.45,142.779 L1316.04,143.139 L1316.04,179.607 C1318.77,176.014 1321.52,173.435 1324.27,171.873 C1327.03,170.31 1330.16,169.529 1333.69,169.529 C1343.53,169.529 1348.45,175.889 1348.45,188.607 L1348.45,212.498 C1348.45,216.654 1348.83,219.271 1349.59,220.349 C1350.35,221.428 1352.37,222.29 1355.65,222.935 L1355.65,224.732 L1330.22,224.732 L1330.22,222.935 C1333.65,222.612 1335.87,221.81 1336.87,220.529 C1337.87,219.248 1338.37,216.571 1338.37,212.498 L1338.37,188.732 C1338.37,180.253 1335.37,176.014 1329.37,176.014 C1327.05,176.014 1324.87,176.594 1322.83,177.756 C1320.78,178.917 1318.52,180.857 1316.04,183.576 M1388.17,170.732 L1388.17,174.342 L1376.04,174.342 L1376.04,208.654 C1376.04,212.415 1376.53,215.154 1377.49,216.873 C1378.45,218.592 1380.06,219.451 1382.29,219.451 C1384.77,219.451 1387.17,218.05 1389.5,215.248 L1391.04,216.576 C1387.21,222.816 1382.41,225.935 1376.65,225.935 C1369.53,225.935 1365.97,220.831 1365.97,210.623 L1365.97,174.342 L1359.61,174.342 C1359.29,174.112 1359.14,173.847 1359.14,173.545 C1359.14,173.17 1359.26,172.87 1359.5,172.646 C1359.74,172.422 1360.2,172.105 1360.87,171.693 C1361.55,171.282 1362.37,170.691 1363.33,169.92 C1364.3,169.149 1365.62,167.751 1367.29,165.724 C1368.97,163.698 1370.81,161.264 1372.81,158.42 C1374.09,156.555 1374.89,155.42 1375.22,155.014 C1375.77,155.014 1376.04,155.54 1376.04,156.592 L1376.04,170.732 L1388.17,170.732 M1422.29,176.857 L1422.29,174.81 C1428.21,173.092 1433.73,171.331 1438.86,169.529 L1439.69,169.764 L1439.69,179.139 C1443.77,175.347 1446.99,172.797 1449.35,171.49 C1451.71,170.183 1454.29,169.529 1457.09,169.529 C1461.49,169.529 1464.95,171.102 1467.47,174.248 C1469.99,177.394 1471.25,181.79 1471.25,187.435 L1471.25,214.998 C1471.25,217.956 1471.73,219.938 1472.69,220.943 C1473.64,221.948 1475.61,222.612 1478.58,222.935 L1478.58,224.732 L1453.61,224.732 L1453.61,222.935 C1456.65,222.696 1458.67,221.894 1459.67,220.529 C1460.67,219.165 1461.17,216.597 1461.17,212.826 L1461.17,187.685 C1461.17,179.904 1458.25,176.014 1452.4,176.014 C1450.4,176.014 1448.57,176.474 1446.89,177.396 C1445.21,178.318 1442.93,180.144 1440.04,182.873 L1440.04,216.67 C1440.04,218.836 1440.6,220.362 1441.72,221.248 C1442.84,222.133 1444.92,222.696 1447.97,222.935 L1447.97,224.732 L1422.53,224.732 L1422.53,222.935 C1425.57,222.696 1427.57,221.993 1428.53,220.826 C1429.49,219.659 1429.97,217.352 1429.97,213.904 L1429.97,184.076 C1429.97,181.107 1429.65,179.081 1429.01,177.998 C1428.37,176.915 1427.21,176.373 1425.53,176.373 C1424.01,176.373 1422.93,176.534 1422.29,176.857 M1483.09,212.889 C1483.09,211.451 1483.25,210.115 1483.57,208.881 C1483.89,207.646 1484.45,206.493 1485.25,205.42 C1486.05,204.347 1486.81,203.373 1487.53,202.498 C1488.25,201.623 1489.33,200.727 1490.77,199.81 C1492.21,198.894 1493.41,198.139 1494.37,197.545 C1495.33,196.951 1496.79,196.235 1498.75,195.396 C1500.71,194.558 1502.21,193.92 1503.25,193.482 C1504.29,193.045 1505.93,192.389 1508.17,191.514 C1510.41,190.639 1512.05,190.003 1513.09,189.607 L1513.09,182.326 C1513.09,175.722 1510.05,172.42 1503.97,172.42 C1501.57,172.42 1499.53,172.998 1497.85,174.154 C1496.17,175.31 1495.33,176.691 1495.33,178.295 C1495.33,178.93 1495.43,179.808 1495.63,180.928 C1495.83,182.047 1495.94,182.769 1495.94,183.092 C1495.94,184.456 1495.39,185.639 1494.31,186.639 C1493.23,187.639 1491.97,188.139 1490.53,188.139 C1489.17,188.139 1487.98,187.618 1486.94,186.576 C1485.89,185.534 1485.37,184.331 1485.37,182.967 C1485.37,179.217 1487.31,176.04 1491.19,173.435 C1495.07,170.831 1499.85,169.529 1505.53,169.529 C1512.09,169.529 1516.61,171.102 1519.09,174.248 C1521.57,177.394 1522.81,182.196 1522.81,188.654 L1522.81,211.935 C1522.81,214.56 1523.07,216.37 1523.59,217.365 C1524.11,218.36 1525.05,218.857 1526.4,218.857 C1528.09,218.857 1529.85,218.102 1531.69,216.592 L1531.69,219.732 C1529.61,222.128 1527.79,223.761 1526.23,224.631 C1524.67,225.501 1522.89,225.935 1520.89,225.935 C1518.41,225.935 1516.59,225.237 1515.43,223.842 C1514.27,222.446 1513.53,220.144 1513.22,216.935 C1506.33,222.935 1500.49,225.935 1495.69,225.935 C1492.01,225.935 1488.99,224.714 1486.63,222.271 C1484.27,219.829 1483.09,216.701 1483.09,212.889 M1513.09,209.779 L1513.09,192.467 C1505.89,195.092 1500.85,197.639 1497.97,200.107 C1495.09,202.576 1493.65,205.56 1493.65,209.06 C1493.65,212.321 1494.45,214.748 1496.05,216.342 C1497.65,217.935 1499.37,218.732 1501.22,218.732 C1503.94,218.732 1506.85,217.816 1509.97,215.982 C1511.25,215.274 1512.09,214.521 1512.49,213.724 C1512.89,212.928 1513.09,211.612 1513.09,209.779 M1535.09,199.154 C1535.09,190.279 1537.71,183.123 1542.95,177.685 C1548.19,172.248 1554.33,169.529 1561.37,169.529 C1566.41,169.529 1570.76,170.751 1574.4,173.193 C1578.04,175.636 1579.86,178.534 1579.86,181.889 C1579.86,183.253 1579.29,184.435 1578.17,185.435 C1577.04,186.435 1575.69,186.935 1574.09,186.935 C1571.37,186.935 1569.49,185.112 1568.45,181.467 L1567.73,178.842 C1567.09,176.623 1566.28,175.118 1565.33,174.326 C1564.37,173.534 1562.81,173.139 1560.65,173.139 C1555.77,173.139 1551.83,175.068 1548.83,178.928 C1545.83,182.787 1544.33,187.779 1544.33,193.904 C1544.33,200.748 1546.07,206.336 1549.54,210.67 C1553.02,215.003 1557.49,217.17 1562.94,217.17 C1566.37,217.17 1569.33,216.334 1571.81,214.662 C1574.29,212.99 1576.97,210.086 1579.86,205.951 L1581.53,207.029 C1580.73,208.633 1580.03,209.956 1579.43,210.998 C1578.83,212.04 1577.75,213.605 1576.19,215.693 C1574.64,217.782 1573.1,219.469 1571.58,220.756 C1570.06,222.042 1568.06,223.227 1565.58,224.31 C1563.1,225.394 1560.53,225.935 1557.89,225.935 C1551.25,225.935 1545.79,223.433 1541.51,218.428 C1537.23,213.422 1535.09,206.998 1535.09,199.154 M1604.04,183.576 L1604.04,212.498 C1604.04,216.654 1604.53,219.331 1605.49,220.529 C1606.45,221.727 1608.7,222.529 1612.22,222.935 L1612.22,224.732 L1586.29,224.732 L1586.29,222.935 C1589.73,222.456 1591.87,221.657 1592.71,220.537 C1593.55,219.417 1593.97,216.737 1593.97,212.498 L1593.97,155.982 C1593.97,153.42 1593.63,151.737 1592.95,150.935 C1592.27,150.133 1590.77,149.732 1588.45,149.732 C1587.89,149.732 1587.21,149.816 1586.4,149.982 L1586.4,148.06 C1592.09,146.54 1597.77,144.779 1603.45,142.779 L1604.04,143.139 L1604.04,179.607 C1606.77,176.014 1609.52,173.435 1612.27,171.873 C1615.03,170.31 1618.16,169.529 1621.69,169.529 C1631.53,169.529 1636.45,175.889 1636.45,188.607 L1636.45,212.498 C1636.45,216.654 1636.83,219.271 1637.59,220.349 C1638.35,221.428 1640.37,222.29 1643.65,222.935 L1643.65,224.732 L1618.22,224.732 L1618.22,222.935 C1621.65,222.612 1623.87,221.81 1624.87,220.529 C1625.87,219.248 1626.37,216.571 1626.37,212.498 L1626.37,188.732 C1626.37,180.253 1623.37,176.014 1617.37,176.014 C1615.05,176.014 1612.87,176.594 1610.83,177.756 C1608.78,178.917 1606.52,180.857 1604.04,183.576 M1716.12,225.935 L1715.65,225.56 L1715.65,217.67 C1711.81,223.18 1706.69,225.935 1700.29,225.935 C1693.65,225.935 1688.29,223.55 1684.21,218.779 C1680.13,214.008 1678.09,207.779 1678.09,200.092 C1678.09,191.623 1680.53,184.412 1685.41,178.459 C1690.29,172.506 1696.17,169.529 1703.04,169.529 C1707.37,169.529 1711.57,171.326 1715.65,174.92 L1715.65,156.029 C1715.65,153.529 1715.29,151.876 1714.58,151.068 C1713.86,150.261 1712.37,149.857 1710.12,149.857 C1709.01,149.857 1708.13,149.899 1707.5,149.982 L1707.5,148.06 C1714.77,146.133 1720.64,144.373 1725.12,142.779 L1725.73,143.014 L1725.73,210.857 C1725.73,213.649 1726.07,215.482 1726.75,216.357 C1727.42,217.232 1728.85,217.67 1731.01,217.67 C1731.41,217.67 1732.33,217.633 1733.76,217.56 L1733.76,219.451 L1716.12,225.935 M1704.97,219.451 C1708.01,219.451 1710.55,218.599 1712.59,216.896 C1714.63,215.193 1715.65,213.67 1715.65,212.326 L1715.65,185.014 C1715.65,181.847 1714.41,179.076 1711.94,176.701 C1709.46,174.326 1706.61,173.139 1703.4,173.139 C1698.85,173.139 1695.21,175.157 1692.49,179.193 C1689.77,183.23 1688.4,188.612 1688.4,195.342 C1688.4,202.623 1689.92,208.461 1692.97,212.857 C1696.01,217.253 1700.01,219.451 1704.97,219.451 M1746.73,191.498 C1746.89,196.54 1747.57,200.878 1748.77,204.514 C1749.97,208.149 1751.53,210.868 1753.45,212.67 C1755.37,214.472 1757.31,215.753 1759.27,216.514 C1761.23,217.274 1763.29,217.654 1765.45,217.654 C1769.29,217.654 1772.64,216.693 1775.47,214.771 C1778.31,212.849 1781.17,209.612 1784.04,205.06 L1785.97,205.889 C1783.49,212.368 1780.05,217.329 1775.65,220.771 C1771.25,224.214 1766.21,225.935 1760.53,225.935 C1753.65,225.935 1748.2,223.516 1744.15,218.678 C1740.11,213.839 1738.09,207.3 1738.09,199.06 C1738.09,190.175 1740.43,183.032 1745.12,177.631 C1749.8,172.23 1755.82,169.529 1763.17,169.529 C1769.25,169.529 1773.97,171.349 1777.33,174.99 C1780.69,178.631 1782.81,184.133 1783.69,191.498 L1746.73,191.498 M1746.97,187.889 L1771.45,187.889 C1770.65,182.691 1769.41,179.092 1767.73,177.092 C1766.06,175.092 1763.37,174.092 1759.69,174.092 C1752.49,174.092 1748.25,178.691 1746.97,187.889 M1789.65,177.217 L1789.65,175.17 C1795.41,173.503 1801.01,171.623 1806.45,169.529 L1807.29,169.779 L1807.29,178.998 C1812.25,175.144 1815.93,172.602 1818.33,171.373 C1820.73,170.144 1823.25,169.529 1825.89,169.529 C1832.21,169.529 1836.45,172.967 1838.61,179.842 C1844.85,172.967 1851.37,169.529 1858.17,169.529 C1867.45,169.529 1872.09,176.706 1872.09,191.06 L1872.09,215.654 C1872.09,220.112 1873.81,222.461 1877.25,222.701 L1880.37,222.935 L1880.37,224.732 L1854.09,224.732 L1854.09,222.935 C1857.61,222.54 1859.81,221.862 1860.69,220.904 C1861.57,219.946 1862.01,217.758 1862.01,214.342 L1862.01,189.139 C1862.01,184.211 1861.37,180.792 1860.09,178.881 C1858.81,176.969 1856.45,176.014 1853.01,176.014 C1847.73,176.014 1843.37,178.441 1839.94,183.295 L1839.94,213.389 C1839.94,217.128 1840.51,219.633 1841.67,220.904 C1842.83,222.175 1845.13,222.852 1848.58,222.935 L1848.58,224.732 L1821.69,224.732 L1821.69,222.935 C1825.13,222.696 1827.36,222.058 1828.36,221.021 C1829.36,219.985 1829.86,217.795 1829.86,214.451 L1829.86,188.545 C1829.86,180.191 1827.22,176.014 1821.94,176.014 C1819.7,176.014 1817.2,176.571 1814.44,177.685 C1811.67,178.8 1809.45,180.592 1807.76,183.06 L1807.76,216.732 C1807.76,219.034 1808.33,220.605 1809.45,221.443 C1810.58,222.282 1812.74,222.779 1815.94,222.935 L1815.94,224.732 L1789.29,224.732 L1789.29,222.935 C1792.65,222.852 1794.89,222.253 1796.01,221.139 C1797.13,220.024 1797.69,217.836 1797.69,214.576 L1797.69,184.373 C1797.69,181.508 1797.39,179.519 1796.79,178.404 C1796.19,177.29 1795.09,176.732 1793.5,176.732 C1792.29,176.732 1791.01,176.894 1789.65,177.217 M1968.94,197.014 L1966.17,197.014 C1965.45,192.139 1964.29,189.001 1962.69,187.599 C1961.09,186.198 1957.85,185.498 1952.97,185.498 L1935.58,185.498 L1935.58,210.451 C1935.58,215.336 1936.23,218.498 1937.55,219.935 C1938.87,221.373 1941.85,222.211 1946.5,222.451 L1946.5,224.732 L1912.89,224.732 L1912.89,222.451 C1917.45,222.128 1920.33,221.269 1921.53,219.873 C1922.73,218.477 1923.33,215.295 1923.33,210.326 L1923.33,158.373 C1923.33,154.133 1922.69,151.355 1921.41,150.037 C1920.14,148.719 1917.29,147.899 1912.89,147.576 L1912.89,145.295 L1976.61,145.295 L1976.97,162.451 L1973.97,162.451 C1972.92,157.097 1971.33,153.659 1969.17,152.139 C1967.01,150.618 1962.53,149.857 1955.73,149.857 L1939.4,149.857 C1937.81,149.857 1936.77,150.118 1936.29,150.639 C1935.82,151.159 1935.58,152.258 1935.58,153.935 L1935.58,180.576 L1952.97,180.576 C1957.77,180.576 1960.99,179.876 1962.63,178.474 C1964.27,177.073 1965.45,173.972 1966.17,169.17 L1968.94,169.17 L1968.94,197.014 M2015.22,181.295 C2014.01,181.295 2012.52,180.594 2010.76,179.193 C2009,177.792 2007.85,177.092 2007.29,177.092 C2005.69,177.092 2003.89,178.253 2001.89,180.576 C1999.89,182.899 1998.89,185.019 1998.89,186.935 L1998.89,213.935 C1998.89,217.373 1999.57,219.691 2000.93,220.889 C2002.29,222.086 2005.01,222.769 2009.09,222.935 L2009.09,224.732 L1980.29,224.732 L1980.29,222.935 C1984.13,222.217 1986.51,221.417 1987.43,220.537 C1988.35,219.657 1988.81,217.696 1988.81,214.654 L1988.81,184.654 C1988.81,182.019 1988.51,180.159 1987.91,179.076 C1987.31,177.993 1986.25,177.451 1984.73,177.451 C1983.45,177.451 1982.05,177.612 1980.53,177.935 L1980.53,176.014 C1986.94,173.93 1992.86,171.769 1998.29,169.529 L1998.89,169.779 L1998.89,180.81 C2001.85,176.571 2004.37,173.631 2006.45,171.99 C2008.53,170.349 2010.82,169.529 2013.29,169.529 C2015.37,169.529 2016.98,170.089 2018.15,171.209 C2019.31,172.329 2019.89,173.889 2019.89,175.889 C2019.89,177.576 2019.47,178.899 2018.63,179.857 C2017.79,180.816 2016.65,181.295 2015.22,181.295 M2061.01,150.217 C2062.69,150.217 2064.13,150.816 2065.33,152.014 C2066.52,153.211 2067.12,154.61 2067.12,156.209 C2067.12,157.808 2066.52,159.188 2065.33,160.349 C2064.13,161.511 2062.69,162.092 2061.01,162.092 C2059.41,162.092 2058.05,161.511 2056.93,160.349 C2055.81,159.188 2055.25,157.769 2055.25,156.092 C2055.25,154.571 2055.83,153.211 2056.99,152.014 C2058.15,150.816 2059.49,150.217 2061.01,150.217 M2037.14,150.217 C2038.82,150.217 2040.25,150.816 2041.45,152.014 C2042.65,153.211 2043.25,154.61 2043.25,156.209 C2043.25,157.808 2042.65,159.188 2041.45,160.349 C2040.25,161.511 2038.82,162.092 2037.14,162.092 C2035.53,162.092 2034.17,161.511 2033.05,160.349 C2031.93,159.188 2031.37,157.769 2031.37,156.092 C2031.37,154.571 2031.95,153.211 2033.12,152.014 C2034.28,150.816 2035.62,150.217 2037.14,150.217 M2077.69,218.498 L2077.69,220.17 C2071.45,221.93 2065.97,223.81 2061.25,225.81 L2060.76,225.56 L2060.76,215.389 C2060.52,215.628 2059.83,216.344 2058.67,217.537 C2057.51,218.73 2056.7,219.555 2056.22,220.014 C2055.74,220.472 2054.92,221.178 2053.76,222.131 C2052.59,223.084 2051.57,223.769 2050.69,224.185 C2049.81,224.602 2048.69,224.998 2047.33,225.373 C2045.97,225.748 2044.61,225.935 2043.25,225.935 C2038.85,225.935 2035.33,224.498 2032.69,221.623 C2030.05,218.748 2028.73,214.92 2028.73,210.139 L2028.73,180.06 C2028.73,177.269 2028.21,175.336 2027.17,174.264 C2026.13,173.191 2024.17,172.576 2021.29,172.42 L2021.29,170.732 L2038.81,170.732 L2038.81,209.654 C2038.81,212.123 2039.65,214.253 2041.33,216.045 C2043.02,217.836 2045.01,218.732 2047.33,218.732 C2048.21,218.732 2049.25,218.612 2050.45,218.373 C2051.65,218.133 2053.03,217.675 2054.59,216.998 C2056.15,216.321 2057.47,215.248 2058.55,213.779 C2059.63,212.31 2060.17,210.498 2060.17,208.342 L2060.17,180.295 C2060.17,177.347 2059.63,175.396 2058.55,174.443 C2057.47,173.49 2055.06,172.935 2051.29,172.779 L2051.29,170.732 L2070.25,170.732 L2070.25,211.685 C2070.25,214.477 2070.69,216.31 2071.57,217.185 C2072.45,218.06 2074.29,218.498 2077.09,218.498 L2077.69,218.498 M2080.29,149.982 L2080.29,148.06 C2088.21,146.133 2094.57,144.373 2099.37,142.779 L2099.86,143.014 L2099.86,214.654 C2099.86,217.935 2100.4,220.076 2101.47,221.076 C2102.55,222.076 2105.01,222.696 2108.86,222.935 L2108.86,224.732 L2080.53,224.732 L2080.53,222.935 C2084.29,222.612 2086.77,221.891 2087.97,220.771 C2089.16,219.652 2089.76,217.493 2089.76,214.295 L2089.76,157.06 C2089.76,154.258 2089.4,152.336 2088.69,151.295 C2087.97,150.253 2086.65,149.732 2084.73,149.732 C2083.13,149.732 2081.65,149.816 2080.29,149.982 M2117.53,177.576 C2115.77,177.576 2114.09,177.696 2112.5,177.935 L2112.5,176.139 C2118.09,174.534 2124.29,172.331 2131.09,169.529 L2131.58,169.889 L2131.58,212.498 C2131.58,216.81 2132.08,219.547 2133.08,220.709 C2134.08,221.87 2136.53,222.612 2140.45,222.935 L2140.45,224.732 L2112.01,224.732 L2112.01,222.935 C2116.17,222.696 2118.79,221.974 2119.87,220.771 C2120.96,219.568 2121.5,216.81 2121.5,212.498 L2121.5,184.654 C2121.5,182.019 2121.2,180.18 2120.59,179.139 C2119.99,178.097 2118.97,177.576 2117.53,177.576 M2125.45,142.779 C2127.21,142.779 2128.69,143.378 2129.89,144.576 C2131.09,145.774 2131.69,147.211 2131.69,148.889 C2131.69,150.649 2131.09,152.11 2129.89,153.271 C2128.69,154.433 2127.21,155.014 2125.45,155.014 C2123.77,155.014 2122.35,154.415 2121.19,153.217 C2120.03,152.019 2119.45,150.579 2119.45,148.896 C2119.45,147.214 2120.05,145.774 2121.25,144.576 C2122.45,143.378 2123.85,142.779 2125.45,142.779 M2144.29,176.857 L2144.29,174.81 C2150.21,173.092 2155.73,171.331 2160.86,169.529 L2161.69,169.764 L2161.69,179.139 C2165.77,175.347 2168.99,172.797 2171.35,171.49 C2173.71,170.183 2176.29,169.529 2179.09,169.529 C2183.49,169.529 2186.95,171.102 2189.47,174.248 C2191.99,177.394 2193.25,181.79 2193.25,187.435 L2193.25,214.998 C2193.25,217.956 2193.73,219.938 2194.69,220.943 C2195.64,221.948 2197.61,222.612 2200.58,222.935 L2200.58,224.732 L2175.61,224.732 L2175.61,222.935 C2178.65,222.696 2180.67,221.894 2181.67,220.529 C2182.67,219.165 2183.17,216.597 2183.17,212.826 L2183.17,187.685 C2183.17,179.904 2180.25,176.014 2174.4,176.014 C2172.4,176.014 2170.57,176.474 2168.89,177.396 C2167.21,178.318 2164.93,180.144 2162.04,182.873 L2162.04,216.67 C2162.04,218.836 2162.6,220.362 2163.72,221.248 C2164.84,222.133 2166.92,222.696 2169.97,222.935 L2169.97,224.732 L2144.53,224.732 L2144.53,222.935 C2147.57,222.696 2149.57,221.993 2150.53,220.826 C2151.49,219.659 2151.97,217.352 2151.97,213.904 L2151.97,184.076 C2151.97,181.107 2151.65,179.081 2151.01,177.998 C2150.37,176.915 2149.21,176.373 2147.53,176.373 C2146.01,176.373 2144.93,176.534 2144.29,176.857 M2209.29,218.248 C2209.29,216.727 2209.83,215.329 2210.91,214.053 C2211.99,212.777 2215.01,209.816 2219.97,205.17 C2215.97,203.159 2213.11,200.909 2211.39,198.42 C2209.67,195.93 2208.81,192.8 2208.81,189.029 C2208.81,183.602 2210.75,178.995 2214.63,175.209 C2218.51,171.422 2223.25,169.529 2228.86,169.529 C2231.97,169.529 2235.31,170.191 2238.87,171.514 C2242.44,172.836 2245.37,173.498 2247.69,173.498 L2256.94,173.498 L2256.94,178.06 L2246.97,178.06 C2248.49,181.508 2249.25,184.883 2249.25,188.185 C2249.25,193.727 2247.39,198.224 2243.67,201.678 C2239.95,205.131 2235.57,206.857 2230.53,206.857 C2229.57,206.857 2227.29,206.654 2223.69,206.248 C2222.09,206.727 2220.5,207.808 2218.9,209.49 C2217.3,211.172 2216.5,212.612 2216.5,213.81 C2216.5,215.727 2219.62,216.805 2225.86,217.045 L2241.33,217.779 C2245.73,217.935 2249.26,219.172 2251.9,221.49 C2254.54,223.808 2255.86,226.847 2255.86,230.607 C2255.86,236.368 2252.56,241.188 2245.95,245.068 C2239.35,248.948 2232.25,250.889 2224.65,250.889 C2218.98,250.889 2214.1,249.748 2210.01,247.467 C2205.93,245.185 2203.89,242.446 2203.89,239.248 C2203.89,237.008 2204.79,234.79 2206.59,232.592 C2208.39,230.394 2211.41,227.732 2215.65,224.607 C2213.17,223.409 2211.5,222.37 2210.62,221.49 C2209.73,220.61 2209.29,219.529 2209.29,218.248 M2218.17,224.967 C2215.69,227.935 2214.09,230.058 2213.37,231.334 C2212.65,232.61 2212.29,233.93 2212.29,235.295 C2212.29,237.93 2213.89,240.047 2217.09,241.646 C2220.29,243.245 2224.53,244.045 2229.81,244.045 C2236.61,244.045 2242.09,242.967 2246.25,240.81 C2250.4,238.654 2252.48,235.857 2252.48,232.42 C2252.48,230.253 2251.36,228.73 2249.12,227.849 C2246.88,226.969 2243.04,226.529 2237.61,226.529 C2229.53,226.529 2223.06,226.008 2218.17,224.967 M2240.01,192.889 C2240.01,191.545 2239.85,189.928 2239.53,188.037 C2239.21,186.146 2238.65,183.998 2237.85,181.592 C2237.05,179.185 2235.77,177.175 2234.01,175.56 C2232.25,173.946 2230.13,173.139 2227.65,173.139 C2224.85,173.139 2222.67,174.107 2221.11,176.045 C2219.54,177.982 2218.76,180.659 2218.76,184.076 C2218.76,190.993 2220.04,196.019 2222.61,199.154 C2225.17,202.29 2227.97,203.857 2231.01,203.857 C2233.82,203.857 2236.02,202.873 2237.62,200.904 C2239.21,198.935 2240.01,196.264 2240.01,192.889"/>
<path class="Text" d="M2232.69,339.014 L2232.69,340.154 C2231.08,340.477 2229.99,340.878 2229.41,341.357 C2228.83,341.837 2228.26,342.857 2227.7,344.42 C2224.39,353.337 2222.15,359.454 2220.99,362.772 C2219.83,366.089 2217.99,371.628 2215.47,379.389 L2214.56,379.389 L2204.97,354.014 L2195.73,379.389 L2194.83,379.389 L2183.25,347.17 C2182.25,344.368 2181.36,342.537 2180.58,341.678 C2179.79,340.818 2178.62,340.311 2177.06,340.154 L2177.06,339.014 L2191.76,339.014 L2191.76,340.154 C2190.24,340.238 2189.21,340.41 2188.68,340.67 C2188.14,340.93 2187.87,341.399 2187.87,342.076 C2187.87,342.795 2188.09,343.712 2188.53,344.826 L2197.17,367.389 L2203.59,350.467 L2201.61,345.561 C2200.65,343.154 2199.83,341.662 2199.15,341.084 C2198.46,340.506 2197.26,340.196 2195.54,340.154 L2195.54,339.014 L2211.56,339.014 L2211.56,340.154 C2208.49,340.196 2206.95,340.894 2206.95,342.248 C2206.95,342.696 2207.49,344.316 2208.56,347.107 L2216.48,367.576 L2223.98,347.232 C2224.63,345.43 2224.95,343.93 2224.95,342.732 C2224.95,341.93 2224.64,341.339 2224.02,340.959 C2223.4,340.579 2222.33,340.311 2220.81,340.154 L2220.81,339.014 L2232.69,339.014 M2248.23,351.139 C2252.07,351.139 2255.22,352.417 2257.7,354.975 C2260.18,357.532 2261.42,360.774 2261.42,364.701 C2261.42,368.857 2260.14,372.334 2257.58,375.131 C2255.03,377.928 2251.87,379.326 2248.11,379.326 C2244.35,379.326 2241.22,377.977 2238.72,375.279 C2236.22,372.581 2234.97,369.212 2234.97,365.17 C2234.97,361.055 2236.2,357.688 2238.65,355.068 C2241.11,352.449 2244.31,351.139 2248.23,351.139 M2240.37,362.264 C2240.37,366.503 2241.15,370.107 2242.71,373.076 C2244.27,376.045 2246.31,377.529 2248.83,377.529 C2251.07,377.529 2252.83,376.579 2254.11,374.678 C2255.39,372.777 2256.03,370.144 2256.03,366.779 C2256.03,362.696 2255.23,359.368 2253.63,356.795 C2252.03,354.222 2249.97,352.936 2247.45,352.936 C2245.33,352.936 2243.62,353.787 2242.32,355.49 C2241.02,357.193 2240.37,359.451 2240.37,362.264 M2263.06,341.357 L2263.06,340.389 C2267.03,339.43 2270.21,338.55 2272.61,337.748 L2272.84,337.873 L2272.84,373.686 C2272.84,375.331 2273.11,376.404 2273.65,376.904 C2274.2,377.404 2275.42,377.712 2277.34,377.826 L2277.34,378.732 L2263.19,378.732 L2263.19,377.826 C2265.07,377.67 2266.31,377.313 2266.91,376.756 C2267.51,376.199 2267.81,375.118 2267.81,373.514 L2267.81,344.889 C2267.81,343.493 2267.63,342.535 2267.27,342.014 C2266.91,341.493 2266.25,341.232 2265.28,341.232 C2264.49,341.232 2263.75,341.274 2263.06,341.357 M2297.33,343.811 C2296.69,343.811 2296.14,343.587 2295.68,343.139 C2295.21,342.691 2294.85,342.186 2294.59,341.623 C2294.33,341.061 2293.93,340.555 2293.4,340.107 C2292.86,339.66 2292.21,339.436 2291.45,339.436 C2289.17,339.436 2288.03,341.217 2288.03,344.779 L2288.03,351.732 L2295.4,351.732 L2295.4,353.529 L2288.09,353.529 L2288.09,372.467 C2288.09,374.717 2288.41,376.154 2289.05,376.779 C2289.69,377.404 2291.23,377.753 2293.67,377.826 L2293.67,378.732 L2278.06,378.732 L2278.06,377.826 C2280.23,377.712 2281.6,377.342 2282.18,376.717 C2282.76,376.092 2283.04,374.675 2283.04,372.467 L2283.04,353.529 L2278.12,353.529 L2278.12,351.732 L2283.04,351.732 C2283.13,347.212 2283.97,343.732 2285.57,341.295 C2287.17,338.857 2289.85,337.639 2293.61,337.639 C2295.41,337.639 2296.9,337.988 2298.08,338.686 C2299.25,339.383 2299.84,340.274 2299.84,341.357 C2299.84,342.035 2299.59,342.613 2299.09,343.092 C2298.59,343.571 2298,343.811 2297.33,343.811 M2303.06,375.498 C2303.06,374.738 2303.33,374.037 2303.87,373.397 C2304.41,372.756 2305.92,371.274 2308.4,368.951 C2306.4,367.951 2304.97,366.829 2304.12,365.584 C2303.26,364.339 2302.83,362.769 2302.83,360.873 C2302.83,358.165 2303.79,355.865 2305.73,353.975 C2307.67,352.084 2310.04,351.139 2312.84,351.139 C2314.4,351.139 2316.08,351.467 2317.86,352.123 C2319.64,352.779 2321.11,353.107 2322.26,353.107 L2326.89,353.107 L2326.89,355.389 L2321.9,355.389 C2322.66,357.118 2323.04,358.805 2323.04,360.451 C2323.04,363.222 2322.12,365.472 2320.26,367.201 C2318.4,368.93 2316.21,369.795 2313.69,369.795 C2313.21,369.795 2312.07,369.696 2310.26,369.498 C2309.46,369.738 2308.66,370.277 2307.87,371.115 C2307.07,371.954 2306.67,372.675 2306.67,373.279 C2306.67,374.238 2308.23,374.774 2311.34,374.889 L2319.09,375.248 C2321.29,375.331 2323.05,375.954 2324.37,377.115 C2325.68,378.277 2326.34,379.795 2326.34,381.67 C2326.34,384.555 2324.69,386.967 2321.4,388.904 C2318.1,390.842 2314.55,391.811 2310.75,391.811 C2307.9,391.811 2305.46,391.24 2303.43,390.1 C2301.39,388.959 2300.37,387.592 2300.37,385.998 C2300.37,384.873 2300.82,383.761 2301.72,382.662 C2302.61,381.563 2304.12,380.232 2306.25,378.67 C2305.01,378.076 2304.17,377.558 2303.72,377.115 C2303.28,376.673 2303.06,376.133 2303.06,375.498 M2307.51,378.857 C2306.27,380.337 2305.47,381.397 2305.11,382.037 C2304.74,382.678 2304.56,383.337 2304.56,384.014 C2304.56,385.337 2305.36,386.397 2306.97,387.193 C2308.57,387.99 2310.69,388.389 2313.33,388.389 C2316.72,388.389 2319.46,387.85 2321.54,386.772 C2323.63,385.693 2324.67,384.295 2324.67,382.576 C2324.67,381.493 2324.11,380.732 2322.99,380.295 C2321.87,379.857 2319.95,379.639 2317.23,379.639 C2313.19,379.639 2309.95,379.378 2307.51,378.857 M2318.42,362.811 C2318.42,362.144 2318.34,361.337 2318.19,360.389 C2318.03,359.441 2317.75,358.365 2317.35,357.162 C2316.95,355.959 2316.31,354.954 2315.43,354.147 C2314.55,353.339 2313.49,352.936 2312.25,352.936 C2310.84,352.936 2309.75,353.42 2308.97,354.389 C2308.2,355.357 2307.81,356.696 2307.81,358.404 C2307.81,361.863 2308.45,364.376 2309.72,365.943 C2311,367.511 2312.4,368.295 2313.92,368.295 C2315.33,368.295 2316.43,367.803 2317.22,366.818 C2318.02,365.834 2318.42,364.498 2318.42,362.811 M2328.97,372.811 C2328.97,372.092 2329.05,371.425 2329.21,370.811 C2329.37,370.196 2329.65,369.618 2330.05,369.076 C2330.45,368.535 2330.83,368.045 2331.19,367.607 C2331.55,367.17 2332.09,366.725 2332.81,366.272 C2333.53,365.818 2334.13,365.441 2334.61,365.139 C2335.09,364.837 2335.82,364.477 2336.79,364.061 C2337.77,363.644 2338.52,363.326 2339.04,363.107 C2339.57,362.889 2340.39,362.561 2341.51,362.123 C2342.63,361.686 2343.45,361.368 2343.97,361.17 L2343.97,357.529 C2343.97,354.227 2342.45,352.576 2339.4,352.576 C2338.21,352.576 2337.19,352.865 2336.35,353.443 C2335.51,354.022 2335.09,354.712 2335.09,355.514 C2335.09,355.837 2335.14,356.277 2335.24,356.834 C2335.34,357.391 2335.39,357.753 2335.39,357.92 C2335.39,358.597 2335.12,359.186 2334.58,359.686 C2334.03,360.186 2333.4,360.436 2332.69,360.436 C2332.01,360.436 2331.41,360.175 2330.89,359.654 C2330.37,359.133 2330.11,358.535 2330.11,357.857 C2330.11,355.972 2331.08,354.381 2333.01,353.084 C2334.95,351.787 2337.34,351.139 2340.19,351.139 C2343.47,351.139 2345.73,351.925 2346.97,353.498 C2348.21,355.071 2348.83,357.467 2348.83,360.686 L2348.83,372.326 C2348.83,373.639 2348.96,374.545 2349.22,375.045 C2349.48,375.545 2349.95,375.795 2350.62,375.795 C2351.47,375.795 2352.35,375.415 2353.26,374.654 L2353.26,376.232 C2352.22,377.43 2351.31,378.245 2350.54,378.678 C2349.76,379.11 2348.87,379.326 2347.87,379.326 C2346.63,379.326 2345.72,378.977 2345.14,378.279 C2344.56,377.581 2344.19,376.436 2344.03,374.842 C2340.59,377.831 2337.67,379.326 2335.26,379.326 C2333.43,379.326 2331.92,378.717 2330.74,377.498 C2329.56,376.279 2328.97,374.717 2328.97,372.811 M2343.97,371.264 L2343.97,362.607 C2340.36,363.92 2337.84,365.191 2336.4,366.42 C2334.97,367.649 2334.25,369.144 2334.25,370.904 C2334.25,372.529 2334.65,373.74 2335.44,374.537 C2336.24,375.334 2337.1,375.732 2338.03,375.732 C2339.38,375.732 2340.84,375.274 2342.4,374.357 C2343.05,374.003 2343.47,373.626 2343.67,373.225 C2343.87,372.824 2343.97,372.17 2343.97,371.264 M2354.06,354.795 L2354.06,353.779 C2357.03,352.915 2359.79,352.035 2362.34,351.139 L2362.76,351.248 L2362.76,355.936 C2364.81,354.04 2366.42,352.766 2367.6,352.115 C2368.78,351.464 2370.07,351.139 2371.47,351.139 C2373.66,351.139 2375.39,351.923 2376.65,353.49 C2377.91,355.058 2378.54,357.258 2378.54,360.092 L2378.54,373.857 C2378.54,375.347 2378.78,376.342 2379.26,376.842 C2379.74,377.342 2380.72,377.67 2382.2,377.826 L2382.2,378.732 L2369.73,378.732 L2369.73,377.826 C2371.25,377.712 2372.26,377.313 2372.76,376.631 C2373.26,375.949 2373.51,374.665 2373.51,372.779 L2373.51,360.201 C2373.51,356.316 2372.05,354.373 2369.12,354.373 C2368.12,354.373 2367.2,354.605 2366.37,355.068 C2365.53,355.532 2364.39,356.441 2362.95,357.795 L2362.95,374.701 C2362.95,375.785 2363.23,376.548 2363.79,376.99 C2364.34,377.433 2365.38,377.712 2366.9,377.826 L2366.9,378.732 L2354.19,378.732 L2354.19,377.826 C2355.71,377.712 2356.71,377.363 2357.19,376.779 C2357.66,376.196 2357.9,375.045 2357.9,373.326 L2357.9,358.404 C2357.9,356.915 2357.75,355.902 2357.43,355.365 C2357.11,354.829 2356.53,354.561 2355.69,354.561 C2354.92,354.561 2354.38,354.639 2354.06,354.795 M2386.06,375.498 C2386.06,374.738 2386.33,374.037 2386.87,373.397 C2387.41,372.756 2388.92,371.274 2391.4,368.951 C2389.4,367.951 2387.97,366.829 2387.12,365.584 C2386.26,364.339 2385.83,362.769 2385.83,360.873 C2385.83,358.165 2386.79,355.865 2388.73,353.975 C2390.67,352.084 2393.04,351.139 2395.84,351.139 C2397.4,351.139 2399.08,351.467 2400.86,352.123 C2402.64,352.779 2404.11,353.107 2405.26,353.107 L2409.89,353.107 L2409.89,355.389 L2404.9,355.389 C2405.66,357.118 2406.04,358.805 2406.04,360.451 C2406.04,363.222 2405.12,365.472 2403.26,367.201 C2401.4,368.93 2399.21,369.795 2396.69,369.795 C2396.21,369.795 2395.07,369.696 2393.26,369.498 C2392.46,369.738 2391.66,370.277 2390.87,371.115 C2390.07,371.954 2389.67,372.675 2389.67,373.279 C2389.67,374.238 2391.23,374.774 2394.34,374.889 L2402.09,375.248 C2404.29,375.331 2406.05,375.954 2407.37,377.115 C2408.68,378.277 2409.34,379.795 2409.34,381.67 C2409.34,384.555 2407.69,386.967 2404.4,388.904 C2401.1,390.842 2397.55,391.811 2393.75,391.811 C2390.9,391.811 2388.46,391.24 2386.43,390.1 C2384.39,388.959 2383.37,387.592 2383.37,385.998 C2383.37,384.873 2383.82,383.761 2384.72,382.662 C2385.61,381.563 2387.12,380.232 2389.25,378.67 C2388.01,378.076 2387.17,377.558 2386.72,377.115 C2386.28,376.673 2386.06,376.133 2386.06,375.498 M2390.51,378.857 C2389.27,380.337 2388.47,381.397 2388.11,382.037 C2387.74,382.678 2387.56,383.337 2387.56,384.014 C2387.56,385.337 2388.36,386.397 2389.97,387.193 C2391.57,387.99 2393.69,388.389 2396.33,388.389 C2399.72,388.389 2402.46,387.85 2404.54,386.772 C2406.63,385.693 2407.67,384.295 2407.67,382.576 C2407.67,381.493 2407.11,380.732 2405.99,380.295 C2404.87,379.857 2402.95,379.639 2400.23,379.639 C2396.19,379.639 2392.95,379.378 2390.51,378.857 M2401.42,362.811 C2401.42,362.144 2401.34,361.337 2401.19,360.389 C2401.03,359.441 2400.75,358.365 2400.35,357.162 C2399.95,355.959 2399.31,354.954 2398.43,354.147 C2397.55,353.339 2396.49,352.936 2395.25,352.936 C2393.84,352.936 2392.75,353.42 2391.97,354.389 C2391.2,355.357 2390.81,356.696 2390.81,358.404 C2390.81,361.863 2391.45,364.376 2392.72,365.943 C2394,367.511 2395.4,368.295 2396.92,368.295 C2398.33,368.295 2399.43,367.803 2400.22,366.818 C2401.02,365.834 2401.42,364.498 2401.42,362.811 M2467.83,377.592 L2467.83,378.732 L2452.53,378.732 L2452.53,377.592 C2454.12,377.55 2455.22,377.389 2455.83,377.107 C2456.43,376.826 2456.73,376.305 2456.73,375.545 C2456.73,374.587 2456.35,373.248 2455.59,371.529 L2453.12,365.779 L2437.4,365.779 L2434.64,372.795 C2434.33,373.628 2434.17,374.41 2434.17,375.139 C2434.17,376.774 2435.53,377.592 2438.25,377.592 L2438.25,378.732 L2426.37,378.732 L2426.37,377.592 C2427.85,377.508 2429,376.938 2429.82,375.881 C2430.64,374.824 2431.97,372.113 2433.81,367.748 L2446.28,338.295 L2447.48,338.295 L2462.42,372.373 C2463.39,374.571 2464.19,375.969 2464.83,376.568 C2465.46,377.167 2466.46,377.508 2467.83,377.592 M2438.42,363.311 L2452.28,363.311 L2445.33,346.811 L2438.42,363.311 M2469.25,354.967 L2469.25,353.951 C2472.12,353.118 2474.92,352.18 2477.64,351.139 L2478.06,351.264 L2478.06,355.873 C2480.54,353.946 2482.38,352.675 2483.58,352.061 C2484.79,351.446 2486.05,351.139 2487.37,351.139 C2490.53,351.139 2492.65,352.852 2493.73,356.279 C2496.85,352.852 2500.1,351.139 2503.5,351.139 C2508.14,351.139 2510.47,354.727 2510.47,361.904 L2510.47,374.186 C2510.47,376.415 2511.33,377.592 2513.04,377.717 L2514.61,377.826 L2514.61,378.732 L2501.47,378.732 L2501.47,377.826 C2503.23,377.628 2504.33,377.292 2504.76,376.818 C2505.2,376.344 2505.42,375.248 2505.42,373.529 L2505.42,360.936 C2505.42,358.467 2505.1,356.756 2504.46,355.803 C2503.82,354.85 2502.64,354.373 2500.92,354.373 C2498.28,354.373 2496.11,355.587 2494.39,358.014 L2494.39,373.061 C2494.39,374.925 2494.68,376.178 2495.26,376.818 C2495.83,377.459 2496.98,377.795 2498.7,377.826 L2498.7,378.732 L2485.26,378.732 L2485.26,377.826 C2486.98,377.712 2488.09,377.397 2488.59,376.881 C2489.09,376.365 2489.34,375.269 2489.34,373.592 L2489.34,360.639 C2489.34,356.462 2488.02,354.373 2485.39,354.373 C2484.26,354.373 2483.01,354.652 2481.63,355.209 C2480.25,355.766 2479.14,356.665 2478.31,357.904 L2478.31,374.732 C2478.31,375.889 2478.59,376.675 2479.15,377.092 C2479.7,377.508 2480.78,377.753 2482.39,377.826 L2482.39,378.732 L2469.06,378.732 L2469.06,377.826 C2470.75,377.795 2471.87,377.501 2472.43,376.943 C2472.98,376.386 2473.26,375.29 2473.26,373.654 L2473.26,358.561 C2473.26,357.123 2473.12,356.126 2472.82,355.568 C2472.52,355.011 2471.97,354.732 2471.17,354.732 C2470.57,354.732 2469.92,354.811 2469.25,354.967 M2516.97,372.811 C2516.97,372.092 2517.05,371.425 2517.21,370.811 C2517.37,370.196 2517.65,369.618 2518.05,369.076 C2518.45,368.535 2518.83,368.045 2519.19,367.607 C2519.55,367.17 2520.09,366.725 2520.81,366.272 C2521.53,365.818 2522.13,365.441 2522.61,365.139 C2523.09,364.837 2523.82,364.477 2524.79,364.061 C2525.77,363.644 2526.52,363.326 2527.04,363.107 C2527.57,362.889 2528.39,362.561 2529.51,362.123 C2530.63,361.686 2531.45,361.368 2531.97,361.17 L2531.97,357.529 C2531.97,354.227 2530.45,352.576 2527.4,352.576 C2526.21,352.576 2525.19,352.865 2524.35,353.443 C2523.51,354.022 2523.09,354.712 2523.09,355.514 C2523.09,355.837 2523.14,356.277 2523.24,356.834 C2523.34,357.391 2523.39,357.753 2523.39,357.92 C2523.39,358.597 2523.12,359.186 2522.58,359.686 C2522.03,360.186 2521.4,360.436 2520.69,360.436 C2520.01,360.436 2519.41,360.175 2518.89,359.654 C2518.37,359.133 2518.11,358.535 2518.11,357.857 C2518.11,355.972 2519.08,354.381 2521.01,353.084 C2522.95,351.787 2525.34,351.139 2528.19,351.139 C2531.47,351.139 2533.73,351.925 2534.97,353.498 C2536.21,355.071 2536.83,357.467 2536.83,360.686 L2536.83,372.326 C2536.83,373.639 2536.96,374.545 2537.22,375.045 C2537.48,375.545 2537.95,375.795 2538.62,375.795 C2539.47,375.795 2540.35,375.415 2541.26,374.654 L2541.26,376.232 C2540.22,377.43 2539.31,378.245 2538.54,378.678 C2537.76,379.11 2536.87,379.326 2535.87,379.326 C2534.63,379.326 2533.72,378.977 2533.14,378.279 C2532.56,377.581 2532.19,376.436 2532.03,374.842 C2528.59,377.831 2525.67,379.326 2523.26,379.326 C2521.43,379.326 2519.92,378.717 2518.74,377.498 C2517.56,376.279 2516.97,374.717 2516.97,372.811 M2531.97,371.264 L2531.97,362.607 C2528.36,363.92 2525.84,365.191 2524.4,366.42 C2522.97,367.649 2522.25,369.144 2522.25,370.904 C2522.25,372.529 2522.65,373.74 2523.44,374.537 C2524.24,375.334 2525.1,375.732 2526.03,375.732 C2527.38,375.732 2528.84,375.274 2530.4,374.357 C2531.05,374.003 2531.47,373.626 2531.67,373.225 C2531.87,372.824 2531.97,372.17 2531.97,371.264 M2561.98,379.326 L2561.75,379.154 L2561.75,375.201 C2559.83,377.951 2557.27,379.326 2554.06,379.326 C2550.75,379.326 2548.07,378.136 2546.03,375.756 C2543.99,373.376 2542.97,370.264 2542.97,366.42 C2542.97,362.18 2544.19,358.574 2546.62,355.6 C2549.06,352.626 2552,351.139 2555.45,351.139 C2557.61,351.139 2559.71,352.035 2561.75,353.826 L2561.75,344.389 C2561.75,343.128 2561.57,342.298 2561.21,341.897 C2560.85,341.495 2560.11,341.295 2558.98,341.295 C2558.42,341.295 2557.98,341.316 2557.67,341.357 L2557.67,340.389 C2561.31,339.43 2564.24,338.55 2566.48,337.748 L2566.78,337.873 L2566.78,371.795 C2566.78,373.191 2566.95,374.107 2567.29,374.545 C2567.64,374.982 2568.35,375.201 2569.42,375.201 C2569.63,375.201 2570.09,375.18 2570.81,375.139 L2570.81,376.092 L2561.98,379.326 M2556.4,376.092 C2557.92,376.092 2559.2,375.667 2560.22,374.818 C2561.24,373.969 2561.75,373.206 2561.75,372.529 L2561.75,358.873 C2561.75,357.29 2561.13,355.904 2559.89,354.717 C2558.65,353.529 2557.23,352.936 2555.62,352.936 C2553.34,352.936 2551.52,353.946 2550.16,355.967 C2548.8,357.988 2548.12,360.68 2548.12,364.045 C2548.12,367.68 2548.88,370.597 2550.4,372.795 C2551.92,374.993 2553.92,376.092 2556.4,376.092 M2577.28,362.107 C2577.36,364.628 2577.7,366.8 2578.3,368.623 C2578.9,370.446 2579.68,371.805 2580.65,372.701 C2581.61,373.597 2582.58,374.235 2583.56,374.615 C2584.54,374.995 2585.57,375.186 2586.64,375.186 C2588.57,375.186 2590.24,374.706 2591.65,373.748 C2593.07,372.79 2594.5,371.17 2595.95,368.889 L2596.9,369.311 C2595.66,372.55 2593.95,375.029 2591.75,376.748 C2589.55,378.467 2587.03,379.326 2584.19,379.326 C2580.75,379.326 2578.02,378.118 2576,375.701 C2573.98,373.285 2572.97,370.014 2572.97,365.889 C2572.97,361.451 2574.14,357.883 2576.47,355.186 C2578.81,352.488 2581.83,351.139 2585.51,351.139 C2588.54,351.139 2590.9,352.048 2592.58,353.865 C2594.27,355.683 2595.33,358.43 2595.76,362.107 L2577.28,362.107 M2577.4,360.311 L2589.64,360.311 C2589.24,357.717 2588.63,355.92 2587.79,354.92 C2586.95,353.92 2585.61,353.42 2583.76,353.42 C2580.17,353.42 2578.05,355.717 2577.4,360.311 M2627.26,375.607 L2627.26,376.451 C2624.15,377.326 2621.41,378.269 2619.04,379.279 L2618.81,379.154 L2618.81,374.061 C2618.69,374.175 2618.33,374.532 2617.76,375.131 C2617.18,375.73 2616.77,376.144 2616.53,376.373 C2616.29,376.602 2615.88,376.956 2615.29,377.436 C2614.71,377.915 2614.2,378.258 2613.76,378.467 C2613.33,378.675 2612.77,378.87 2612.08,379.053 C2611.4,379.235 2610.72,379.326 2610.04,379.326 C2607.85,379.326 2606.09,378.607 2604.76,377.17 C2603.44,375.732 2602.78,373.821 2602.78,371.436 L2602.78,356.389 C2602.78,355.003 2602.52,354.04 2602.01,353.498 C2601.49,352.956 2600.51,352.649 2599.06,352.576 L2599.06,351.732 L2607.83,351.732 L2607.83,371.201 C2607.83,372.43 2608.25,373.493 2609.08,374.389 C2609.92,375.285 2610.92,375.732 2612.09,375.732 C2612.53,375.732 2613.05,375.673 2613.65,375.553 C2614.25,375.433 2614.94,375.204 2615.72,374.865 C2616.5,374.527 2617.16,373.99 2617.7,373.256 C2618.24,372.522 2618.51,371.618 2618.51,370.545 L2618.51,356.514 C2618.51,355.045 2618.24,354.071 2617.7,353.592 C2617.16,353.113 2615.95,352.831 2614.06,352.748 L2614.06,351.732 L2623.54,351.732 L2623.54,372.217 C2623.54,373.602 2623.77,374.514 2624.21,374.951 C2624.65,375.389 2625.57,375.607 2626.97,375.607 L2627.26,375.607 M2643.54,352.326 C2643.59,352.326 2643.91,352.128 2644.51,351.732 L2645.17,351.732 L2645.4,359.889 L2644.51,359.889 C2643.83,357.212 2642.98,355.313 2641.98,354.193 C2640.98,353.074 2639.62,352.514 2637.9,352.514 C2636.55,352.514 2635.44,352.894 2634.58,353.654 C2633.71,354.415 2633.28,355.394 2633.28,356.592 C2633.28,358.311 2634.14,359.67 2635.87,360.67 L2642.34,364.514 C2644.14,365.597 2645.44,366.688 2646.22,367.787 C2647,368.886 2647.39,370.175 2647.39,371.654 C2647.39,373.738 2646.56,375.537 2644.9,377.053 C2643.23,378.568 2641.24,379.326 2638.92,379.326 C2637.92,379.326 2636.58,379.147 2634.9,378.787 C2633.23,378.428 2632.19,378.248 2631.78,378.248 C2631.19,378.248 2630.73,378.488 2630.4,378.967 L2629.62,378.967 L2629.62,369.607 L2630.59,369.607 C2631.23,372.41 2631.99,374.389 2632.87,375.545 C2634.14,377.191 2635.92,378.014 2638.2,378.014 C2639.72,378.014 2640.93,377.623 2641.83,376.842 C2642.73,376.061 2643.19,375.008 2643.19,373.686 C2643.19,371.894 2642.14,370.394 2640.06,369.186 L2636.59,367.217 C2634.03,365.779 2632.22,364.399 2631.15,363.076 C2630.09,361.753 2629.56,360.253 2629.56,358.576 C2629.56,356.41 2630.33,354.639 2631.87,353.264 C2633.41,351.889 2635.37,351.201 2637.73,351.201 C2639.04,351.201 2640.28,351.389 2641.44,351.764 C2642.6,352.139 2643.31,352.326 2643.54,352.326 M2705.09,344.357 L2689.73,378.732 L2688.89,378.732 L2673.83,345.732 L2673.83,369.92 C2673.83,372.951 2674.19,374.959 2674.9,375.943 C2675.62,376.928 2677.14,377.477 2679.47,377.592 L2679.47,378.732 L2665.37,378.732 L2665.37,377.592 C2667.85,377.436 2669.44,376.886 2670.14,375.943 C2670.84,375.001 2671.19,372.993 2671.19,369.92 L2671.19,345.561 C2671.19,343.352 2670.85,341.938 2670.19,341.318 C2669.53,340.699 2667.96,340.311 2665.48,340.154 L2665.48,339.014 L2677.37,339.014 L2691.23,369.311 L2704.48,339.014 L2716.42,339.014 L2716.42,340.154 C2714.18,340.352 2712.75,340.772 2712.13,341.412 C2711.51,342.053 2711.2,343.436 2711.2,345.561 L2711.2,372.186 C2711.2,374.311 2711.52,375.704 2712.16,376.365 C2712.8,377.027 2714.22,377.436 2716.42,377.592 L2716.42,378.732 L2699.62,378.732 L2699.62,377.592 C2701.99,377.436 2703.49,377.006 2704.13,376.303 C2704.77,375.6 2705.09,374.008 2705.09,371.529 L2705.09,344.357 M2732.23,351.139 C2736.07,351.139 2739.22,352.417 2741.7,354.975 C2744.18,357.532 2745.42,360.774 2745.42,364.701 C2745.42,368.857 2744.14,372.334 2741.58,375.131 C2739.03,377.928 2735.87,379.326 2732.11,379.326 C2728.35,379.326 2725.22,377.977 2722.72,375.279 C2720.22,372.581 2718.97,369.212 2718.97,365.17 C2718.97,361.055 2720.2,357.688 2722.65,355.068 C2725.11,352.449 2728.31,351.139 2732.23,351.139 M2724.37,362.264 C2724.37,366.503 2725.15,370.107 2726.71,373.076 C2728.27,376.045 2730.31,377.529 2732.83,377.529 C2735.07,377.529 2736.83,376.579 2738.11,374.678 C2739.39,372.777 2740.03,370.144 2740.03,366.779 C2740.03,362.696 2739.23,359.368 2737.63,356.795 C2736.03,354.222 2733.97,352.936 2731.45,352.936 C2729.33,352.936 2727.62,353.787 2726.32,355.49 C2725.02,357.193 2724.37,359.451 2724.37,362.264 M2761.76,376.936 C2763.33,376.936 2764.57,376.834 2765.49,376.631 C2766.41,376.428 2767.13,375.988 2767.65,375.311 C2768.16,374.633 2768.52,373.995 2768.72,373.397 C2768.93,372.798 2769.17,371.795 2769.45,370.389 L2770.53,370.639 L2769.69,378.732 L2747.06,378.732 L2747.06,377.826 L2763.03,353.529 L2754.75,353.529 C2752.95,353.529 2751.72,353.86 2751.08,354.522 C2750.44,355.183 2749.98,356.613 2749.7,358.811 L2748.62,358.811 L2748.81,351.732 L2769.62,351.732 L2769.62,352.639 L2753.48,376.936 L2761.76,376.936 M2772.97,372.811 C2772.97,372.092 2773.05,371.425 2773.21,370.811 C2773.37,370.196 2773.65,369.618 2774.05,369.076 C2774.45,368.535 2774.83,368.045 2775.19,367.607 C2775.55,367.17 2776.09,366.725 2776.81,366.272 C2777.53,365.818 2778.13,365.441 2778.61,365.139 C2779.09,364.837 2779.82,364.477 2780.79,364.061 C2781.77,363.644 2782.52,363.326 2783.04,363.107 C2783.57,362.889 2784.39,362.561 2785.51,362.123 C2786.63,361.686 2787.45,361.368 2787.97,361.17 L2787.97,357.529 C2787.97,354.227 2786.45,352.576 2783.4,352.576 C2782.21,352.576 2781.19,352.865 2780.35,353.443 C2779.51,354.022 2779.09,354.712 2779.09,355.514 C2779.09,355.837 2779.14,356.277 2779.24,356.834 C2779.34,357.391 2779.39,357.753 2779.39,357.92 C2779.39,358.597 2779.12,359.186 2778.58,359.686 C2778.03,360.186 2777.4,360.436 2776.69,360.436 C2776.01,360.436 2775.41,360.175 2774.89,359.654 C2774.37,359.133 2774.11,358.535 2774.11,357.857 C2774.11,355.972 2775.08,354.381 2777.01,353.084 C2778.95,351.787 2781.34,351.139 2784.19,351.139 C2787.47,351.139 2789.73,351.925 2790.97,353.498 C2792.21,355.071 2792.83,357.467 2792.83,360.686 L2792.83,372.326 C2792.83,373.639 2792.96,374.545 2793.22,375.045 C2793.48,375.545 2793.95,375.795 2794.62,375.795 C2795.47,375.795 2796.35,375.415 2797.26,374.654 L2797.26,376.232 C2796.22,377.43 2795.31,378.245 2794.54,378.678 C2793.76,379.11 2792.87,379.326 2791.87,379.326 C2790.63,379.326 2789.72,378.977 2789.14,378.279 C2788.56,377.581 2788.19,376.436 2788.03,374.842 C2784.59,377.831 2781.67,379.326 2779.26,379.326 C2777.43,379.326 2775.92,378.717 2774.74,377.498 C2773.56,376.279 2772.97,374.717 2772.97,372.811 M2787.97,371.264 L2787.97,362.607 C2784.36,363.92 2781.84,365.191 2780.4,366.42 C2778.97,367.649 2778.25,369.144 2778.25,370.904 C2778.25,372.529 2778.65,373.74 2779.44,374.537 C2780.24,375.334 2781.1,375.732 2782.03,375.732 C2783.38,375.732 2784.84,375.274 2786.4,374.357 C2787.05,374.003 2787.47,373.626 2787.67,373.225 C2787.87,372.824 2787.97,372.17 2787.97,371.264 M2815.53,357.014 C2814.92,357.014 2814.18,356.665 2813.3,355.967 C2812.42,355.269 2811.84,354.92 2811.56,354.92 C2810.77,354.92 2809.87,355.498 2808.87,356.654 C2807.87,357.811 2807.37,358.868 2807.37,359.826 L2807.37,373.326 C2807.37,375.055 2807.71,376.219 2808.39,376.818 C2809.07,377.417 2810.42,377.753 2812.47,377.826 L2812.47,378.732 L2798.06,378.732 L2798.06,377.826 C2799.99,377.472 2801.18,377.074 2801.64,376.631 C2802.1,376.188 2802.33,375.206 2802.33,373.686 L2802.33,358.686 C2802.33,357.373 2802.17,356.446 2801.87,355.904 C2801.57,355.363 2801.04,355.092 2800.28,355.092 C2799.64,355.092 2798.95,355.17 2798.19,355.326 L2798.19,354.373 C2801.38,353.331 2804.34,352.253 2807.06,351.139 L2807.37,351.248 L2807.37,356.779 C2808.85,354.654 2810.11,353.183 2811.15,352.365 C2812.18,351.548 2813.32,351.139 2814.56,351.139 C2815.6,351.139 2816.41,351.417 2817,351.975 C2817.58,352.532 2817.87,353.311 2817.87,354.311 C2817.87,355.154 2817.66,355.816 2817.24,356.295 C2816.82,356.774 2816.25,357.014 2815.53,357.014 M2834.01,351.732 L2834.01,353.529 L2827.95,353.529 L2827.95,370.686 C2827.95,372.571 2828.19,373.943 2828.67,374.803 C2829.15,375.662 2829.95,376.092 2831.06,376.092 C2832.3,376.092 2833.5,375.394 2834.67,373.998 L2835.45,374.654 C2833.52,377.769 2831.12,379.326 2828.25,379.326 C2824.69,379.326 2822.9,376.774 2822.9,371.67 L2822.9,353.529 L2819.73,353.529 C2819.57,353.415 2819.48,353.285 2819.48,353.139 C2819.48,352.951 2819.54,352.8 2819.66,352.686 C2819.78,352.571 2820.01,352.412 2820.36,352.209 C2820.7,352.006 2821.11,351.712 2821.59,351.326 C2822.07,350.941 2822.73,350.24 2823.57,349.225 C2824.41,348.209 2825.33,346.993 2826.33,345.576 C2826.96,344.639 2827.36,344.071 2827.53,343.873 C2827.81,343.873 2827.95,344.139 2827.95,344.67 L2827.95,351.732 L2834.01,351.732 "/>
<path class="TieSegment" stroke="#000000" stroke-width="1.75" stroke-linecap="round" stroke-linejoin="round" fill-rule="evenodd" d="M1178.12,560.483 C1219.27,527.21 1342.71,527.21 1383.86,560.483 C1342.71,531.21 1219.27,531.21 1178.12,560.483"/>
<path class="TieSegment" stroke="#000000" stroke-width="1.75" stroke-linecap="round" stroke-linejoin="round" fill-rule="evenodd" d="M2350.16,647.983 C2391.28,677.239 2514.66,677.239 2555.79,647.983 C2514.66,681.239 2391.28,681.239 2350.16,647.983"/>
<path class="TieSegment" stroke="#000000" stroke-width="1.75" stroke-linecap="round" stroke-linejoin="round" fill-rule="evenodd" d="M1178.12,560.483 C1219.27,527.21 1342.71,527.21 1383.86,560.483 C1342.71,531.21 1219.27,531.21 1178.12,560.483"/>
<path class="TieSegment" stroke="#000000" stroke-width="1.75" stroke-linecap="round" stroke-linejoin="round" fill-rule="evenodd" d="M2350.16,647.983 C2391.28,677.239 2514.66,677.239 2555.79,647.983 C2514.66,681.239 2391.28,681.239 2350.16,647.983"/>
<polyline class="BarLine" stroke="#000000" stroke-width="4.00" stroke-linejoin="bevel" points="578.898,565.733 578.898,667.733"/>
<polyline class="BarLine" stroke="#000000" stroke-width="4.00" stroke-linejoin="bevel" points="1129.72,565.733 1129.72,667.733"/>
<polyline class="BarLine" stroke="#000000" stroke-width="4.00" stroke-linejoin="bevel" points="1705.9,565.733 1705.9,667.733"/>
<polyline class="BarLine" stroke="#000000" stroke-width="4.00" stroke-linejoin="bevel" points="2301.76,565.733 2301.76,667.733"/>
<polyline class="BarLine" stroke="#000000" stroke-width="4.00" stroke-linejoin="bevel" points="2833.47,565.733 2833.47,667.733"/>
<polyline class="LedgerLine" stroke="#000000" stroke-width="4.00" stroke-linecap="square" stroke-linejoin="bevel" points="1019.87,541.733 1067.79,541.733"/>
<polyline class="Stem" stroke="#000000" stroke-width="3.25" stroke-linecap="round" stroke-linejoin="bevel" points="470.85,624.537 470.85,547.983"/>
<polyline class="Stem" stroke="#000000" stroke-width="3.25" stroke-linecap="round" stroke-linejoin="bevel" points="637.187,624.537 637.187,547.983"/>
<polyline class="Stem" stroke="#000000" stroke-width="3.25" stroke-linecap="round" stroke-linejoin="bevel" points="768.085,608.928 768.085,691.733"/>
<polyline class="Stem" stroke="#000000" stroke-width="3.25" stroke-linecap="round" stroke-linejoin="bevel" points="868.437,583.928 868.437,666.733"/>
<polyline class="Stem" stroke="#000000" stroke-width="3.25" stroke-linecap="round" stroke-linejoin="bevel" points="1029,546.428 1029,629.233"/>
<polyline class="Stem" stroke="#000000" stroke-width="3.25" stroke-linecap="round" stroke-linejoin="bevel" points="1158.35,583.928 1158.35,666.733"/>
<polyline class="Stem" stroke="#000000" stroke-width="3.25" stroke-linecap="round" stroke-linejoin="bevel" points="1373.97,583.928 1373.97,679.233"/>
<polyline class="Stem" stroke="#000000" stroke-width="3.25" stroke-linecap="round" stroke-linejoin="bevel" points="1484.49,608.928 1484.49,694.858"/>
<polyline class="Stem" stroke="#000000" stroke-width="3.25" stroke-linecap="round" stroke-linejoin="bevel" points="1595,633.928 1595,710.483"/>
<polyline class="Stem" stroke="#000000" stroke-width="3.25" stroke-linecap="round" stroke-linejoin="bevel" points="1734.52,621.428 1734.52,694.858"/>
<polyline class="Stem" stroke="#000000" stroke-width="3.25" stroke-linecap="round" stroke-linejoin="bevel" points="1896.48,621.428 1896.48,704.233"/>
<polyline class="Stem" stroke="#000000" stroke-width="3.25" stroke-linecap="round" stroke-linejoin="bevel" points="1997.71,621.428 1997.71,691.733"/>
<polyline class="Stem" stroke="#000000" stroke-width="3.25" stroke-linecap="round" stroke-linejoin="bevel" points="2098.93,608.928 2098.93,691.733"/>
<polyline class="Stem" stroke="#000000" stroke-width="3.25" stroke-linecap="round" stroke-linejoin="bevel" points="2200.16,621.428 2200.16,691.733"/>
<polyline class="Stem" stroke="#000000" stroke-width="3.25" stroke-linecap="round" stroke-linejoin="bevel" points="2360.05,624.537 2360.05,547.983"/>
<polyline class="Stem" stroke="#000000" stroke-width="3.25" stroke-linecap="round" stroke-linejoin="bevel" points="2575.56,624.537 2575.56,547.983"/>
<path class="Note" d="M461.529,615.467 C464.654,615.467 467.295,616.279 469.451,617.904 C471.462,619.665 472.467,621.878 472.467,624.545 C472.467,629.035 470.16,633.233 465.545,637.139 C460.857,641.045 455.842,642.998 450.498,642.998 C447.373,642.998 444.738,642.186 442.592,640.561 C440.571,638.8 439.561,636.587 439.561,633.92 C439.561,629.431 441.904,625.233 446.592,621.326 C451.154,617.42 456.134,615.467 461.529,615.467"/>
<path class="Note" d="M627.867,615.467 C630.992,615.467 633.633,616.279 635.789,617.904 C637.799,619.665 638.804,621.878 638.804,624.545 C638.804,629.035 636.497,633.233 631.883,637.139 C627.195,641.045 622.179,642.998 616.836,642.998 C613.711,642.998 611.075,642.186 608.929,640.561 C606.909,638.8 605.898,636.587 605.898,633.92 C605.898,629.431 608.242,625.233 612.929,621.326 C617.492,617.42 622.471,615.467 627.867,615.467"/>
<path class="Note" d="M788.429,590.467 C791.554,590.467 794.195,591.279 796.351,592.904 C798.361,594.665 799.367,596.878 799.367,599.545 C799.367,604.035 797.059,608.233 792.445,612.139 C787.757,616.045 782.742,617.998 777.398,617.998 C774.273,617.998 771.637,617.186 769.492,615.561 C767.471,613.8 766.46,611.587 766.46,608.92 C766.46,604.43 768.804,600.233 773.492,596.326 C778.054,592.42 783.033,590.467 788.429,590.467"/>
<path class="Note" d="M888.78,565.467 C891.905,565.467 894.546,566.279 896.702,567.904 C898.713,569.665 899.718,571.878 899.718,574.545 C899.718,579.035 897.411,583.233 892.796,587.139 C888.108,591.045 883.093,592.998 877.749,592.998 C874.624,592.998 871.989,592.186 869.843,590.561 C867.822,588.8 866.812,586.587 866.812,583.92 C866.812,579.43 869.155,575.233 873.843,571.326 C878.405,567.42 883.384,565.467 888.78,565.467"/>
<path class="Note" d="M1049.34,527.967 C1052.47,527.967 1055.11,528.779 1057.26,530.404 C1059.27,532.165 1060.28,534.378 1060.28,537.045 C1060.28,541.535 1057.97,545.733 1053.36,549.639 C1048.67,553.545 1043.65,555.498 1038.31,555.498 C1035.19,555.498 1032.55,554.686 1030.4,553.061 C1028.38,551.3 1027.37,549.087 1027.37,546.42 C1027.37,541.93 1029.72,537.733 1034.4,533.826 C1038.97,529.92 1043.95,527.967 1049.34,527.967"/>
<path class="Note" d="M1394.31,565.467 C1397.44,565.467 1400.08,566.279 1402.23,567.904 C1404.24,569.665 1405.25,571.878 1405.25,574.545 C1405.25,579.035 1402.94,583.233 1398.33,587.139 C1393.64,591.045 1388.62,592.998 1383.28,592.998 C1380.16,592.998 1377.52,592.186 1375.37,590.561 C1373.35,588.8 1372.34,586.587 1372.34,583.92 C1372.34,579.43 1374.69,575.233 1379.37,571.326 C1383.94,567.42 1388.92,565.467 1394.31,565.467"/>
<path class="Note" d="M1504.83,590.467 C1507.95,590.467 1510.59,591.279 1512.75,592.904 C1514.76,594.665 1515.77,596.878 1515.77,599.545 C1515.77,604.035 1513.46,608.233 1508.84,612.139 C1504.16,616.045 1499.14,617.998 1493.8,617.998 C1490.67,617.998 1488.04,617.186 1485.89,615.561 C1483.87,613.8 1482.86,611.587 1482.86,608.92 C1482.86,604.43 1485.2,600.233 1489.89,596.326 C1494.45,592.42 1499.43,590.467 1504.83,590.467"/>
<path class="Note" d="M1615.35,615.467 C1618.47,615.467 1621.11,616.279 1623.27,617.904 C1625.28,619.665 1626.28,621.878 1626.28,624.545 C1626.28,629.035 1623.98,633.233 1619.36,637.139 C1614.67,641.045 1609.66,642.998 1604.32,642.998 C1601.19,642.998 1598.56,642.186 1596.41,640.561 C1594.39,638.8 1593.38,636.587 1593.38,633.92 C1593.38,629.431 1595.72,625.233 1600.41,621.326 C1604.97,617.42 1609.95,615.467 1615.35,615.467"/>
<path class="Note" d="M1754.86,602.967 C1757.99,602.967 1760.63,603.779 1762.79,605.404 C1764.8,607.165 1765.8,609.378 1765.8,612.045 C1765.8,616.535 1763.49,620.733 1758.88,624.639 C1754.19,628.545 1749.18,630.498 1743.83,630.498 C1740.71,630.498 1738.07,629.686 1735.93,628.061 C1733.91,626.3 1732.9,624.087 1732.9,621.42 C1732.9,616.93 1735.24,612.733 1739.93,608.826 C1744.49,604.92 1749.47,602.967 1754.86,602.967"/>
<path class="Note" d="M1916.83,602.967 C1919.95,602.967 1922.59,603.779 1924.75,605.404 C1926.76,607.165 1927.76,609.378 1927.76,612.045 C1927.76,616.535 1925.46,620.733 1920.84,624.639 C1916.15,628.545 1911.14,630.498 1905.79,630.498 C1902.67,630.498 1900.03,629.686 1897.89,628.061 C1895.87,626.3 1894.86,624.087 1894.86,621.42 C1894.86,616.93 1897.2,612.733 1901.89,608.826 C1906.45,604.92 1911.43,602.967 1916.83,602.967"/>
<path class="Note" d="M2018.05,602.967 C2021.18,602.967 2023.82,603.779 2025.97,605.404 C2027.98,607.165 2028.99,609.378 2028.99,612.045 C2028.99,616.535 2026.68,620.733 2022.07,624.639 C2017.38,628.545 2012.36,630.498 2007.02,630.498 C2003.9,630.498 2001.26,629.686 1999.11,628.061 C1997.09,626.3 1996.08,624.087 1996.08,621.42 C1996.08,616.93 1998.43,612.733 2003.11,608.826 C2007.68,604.92 2012.66,602.967 2018.05,602.967"/>
<path class="Note" d="M2119.28,590.467 C2122.4,590.467 2125.04,591.279 2127.2,592.904 C2129.21,594.665 2130.22,596.878 2130.22,599.545 C2130.22,604.035 2127.91,608.233 2123.29,612.139 C2118.61,616.045 2113.59,617.998 2108.25,617.998 C2105.12,617.998 2102.49,617.186 2100.34,615.561 C2098.32,613.8 2097.31,611.587 2097.31,608.92 C2097.31,604.43 2099.65,600.233 2104.34,596.326 C2108.9,592.42 2113.88,590.467 2119.28,590.467"/>
<path class="Note" d="M2220.5,602.967 C2223.63,602.967 2226.27,603.779 2228.43,605.404 C2230.44,607.165 2231.44,609.378 2231.44,612.045 C2231.44,616.535 2229.13,620.733 2224.52,624.639 C2219.83,628.545 2214.82,630.498 2209.47,630.498 C2206.35,630.498 2203.71,629.686 2201.57,628.061 C2199.55,626.3 2198.54,624.087 2198.54,621.42 C2198.54,616.93 2200.88,612.733 2205.57,608.826 C2210.13,604.92 2215.11,602.967 2220.5,602.967"/>
<path class="Note" d="M2350.73,615.467 C2353.85,615.467 2356.5,616.279 2358.65,617.904 C2360.66,619.665 2361.67,621.878 2361.67,624.545 C2361.67,629.035 2359.36,633.233 2354.75,637.139 C2350.06,641.045 2345.04,642.998 2339.7,642.998 C2336.57,642.998 2333.94,642.186 2331.79,640.561 C2329.77,638.8 2328.76,636.587 2328.76,633.92 C2328.76,629.431 2331.1,625.233 2335.79,621.326 C2340.35,617.42 2345.33,615.467 2350.73,615.467"/>
<path class="Note" d="M2566.24,615.467 C2569.36,615.467 2572,616.279 2574.16,617.904 C2576.17,619.665 2577.18,621.878 2577.18,624.545 C2577.18,629.035 2574.87,633.233 2570.25,637.139 C2565.57,641.045 2560.55,642.998 2555.21,642.998 C2552.08,642.998 2549.45,642.186 2547.3,640.561 C2545.28,638.8 2544.27,636.587 2544.27,633.92 C2544.27,629.431 2546.61,625.233 2551.3,621.326 C2555.86,617.42 2560.84,615.467 2566.24,615.467"/>
<path class="Note" d="M1178.69,565.467 C1181.82,565.467 1184.46,566.279 1186.62,567.904 C1188.63,569.665 1189.63,571.878 1189.63,574.545 C1189.63,579.035 1187.32,583.233 1182.71,587.139 C1178.02,591.045 1173.01,592.998 1167.66,592.998 C1164.54,592.998 1161.9,592.186 1159.76,590.561 C1157.74,588.8 1156.72,586.587 1156.72,583.92 C1156.72,579.43 1159.07,575.233 1163.76,571.326 C1168.32,567.42 1173.3,565.467 1178.69,565.467"/>
<path class="Clef" d="M198.451,616.139 C198.451,616.139 198.649,616.139 199.045,616.139 C199.305,616.076 199.529,616.045 199.717,616.045 C207.008,616.045 212.998,618.618 217.685,623.764 C222.373,628.837 224.717,634.759 224.717,641.529 C224.717,649.936 221.238,656.774 214.279,662.045 C212.456,663.483 210.076,664.654 207.139,665.561 C207.472,669.79 207.639,673.207 207.639,675.811 C207.639,676.332 207.571,678.222 207.435,681.483 C207.175,687.535 205.092,692.774 201.185,697.201 C197.415,701.566 192.727,703.748 187.123,703.748 C181.852,703.748 177.363,701.894 173.654,698.186 C169.935,694.404 168.076,689.847 168.076,684.514 C168.076,681.712 169.154,679.332 171.31,677.373 C173.519,675.425 176.086,674.451 179.014,674.451 C181.618,674.451 183.8,675.462 185.56,677.483 C187.383,679.368 188.295,681.712 188.295,684.514 C188.295,687.045 187.383,689.222 185.56,691.045 C183.738,692.868 181.555,693.779 179.014,693.779 C177.972,693.779 176.967,693.587 175.998,693.201 C178.863,697.431 182.67,699.545 187.42,699.545 C191.909,699.545 195.586,697.722 198.451,694.076 C201.451,690.306 203.081,685.91 203.342,680.889 C203.467,677.764 203.529,675.977 203.529,675.529 C203.529,671.884 203.399,668.889 203.139,666.545 C199.889,667.066 196.993,667.326 194.451,667.326 C185.399,667.326 177.685,663.743 171.31,656.576 C165.06,649.347 161.935,640.753 161.935,630.795 C161.935,628.712 162.128,626.597 162.514,624.451 C162.909,622.691 163.399,620.769 163.982,618.686 C164.305,617.509 165.185,615.618 166.623,613.014 C167.144,612.233 167.73,611.256 168.381,610.084 C169.032,608.912 169.488,608.134 169.748,607.748 C170.394,606.446 171.659,604.686 173.545,602.467 C174.066,601.884 174.605,601.235 175.162,600.522 C175.719,599.808 176.193,599.222 176.584,598.764 C176.974,598.306 177.266,597.946 177.459,597.686 C177.652,597.425 179.118,595.701 181.857,592.514 C182.503,591.858 183.136,591.157 183.756,590.412 C184.376,589.667 184.881,589.082 185.271,588.654 C185.662,588.227 185.956,587.92 186.154,587.733 C183.81,579.983 182.342,573.795 181.748,569.17 C181.3,565.462 181.076,560.384 181.076,553.936 C181.076,548.269 182.378,542.962 184.982,538.014 C187.514,532.878 191.06,528.681 195.623,525.42 C195.883,525.222 196.206,525.123 196.592,525.123 C197.05,525.123 197.378,525.222 197.576,525.42 C201.086,529.649 204.113,535.149 206.654,541.92 C209.258,548.691 210.56,554.847 210.56,560.389 C210.56,566.639 209.066,572.498 206.076,577.967 C202.691,583.759 198.326,589.748 192.982,595.936 C194.347,600.227 196.17,606.962 198.451,616.139 M206.748,661.561 C210.133,660.321 212.774,658.207 214.67,655.217 C216.753,652.352 217.795,649.128 217.795,645.545 C217.795,640.92 216.232,636.816 213.107,633.233 C209.909,629.524 205.836,627.441 200.889,626.983 C203.691,640.722 205.644,652.248 206.748,661.561 M168.967,638.998 C168.967,645.446 171.571,651.113 176.779,655.998 C182.113,660.748 188.102,663.123 194.748,663.123 C197.477,663.123 200.144,662.925 202.748,662.529 C201.706,652.634 199.654,640.785 196.592,626.983 C192.883,627.378 189.925,628.681 187.717,630.889 C185.56,633.17 184.482,635.743 184.482,638.608 C184.482,643.556 187.123,647.561 192.404,650.623 C192.852,651.082 193.076,651.571 193.076,652.092 C193.076,652.613 192.852,653.097 192.404,653.545 C192.008,654.003 191.519,654.233 190.935,654.233 C190.873,654.233 190.581,654.17 190.06,654.045 C186.342,652.024 183.477,649.42 181.467,646.233 C179.571,642.837 178.623,639.415 178.623,635.967 C178.623,631.477 180.024,627.41 182.826,623.764 C185.753,620.118 189.56,617.774 194.248,616.733 C192.425,609.441 190.93,603.743 189.764,599.639 C188.722,600.816 187.469,602.233 186.006,603.889 C184.542,605.545 183.68,606.54 183.42,606.873 C181.076,609.925 179.284,612.3 178.045,613.998 C175.826,617.061 174.196,619.696 173.154,621.904 C172.05,624.384 171.076,627.087 170.232,630.014 C169.389,632.816 168.967,635.811 168.967,638.998 M201.576,539.686 C196.691,542.092 192.852,545.54 190.06,550.029 C187.196,554.654 185.764,559.634 185.764,564.967 C185.764,569.654 186.935,575.972 189.279,583.92 C193.967,578.253 197.482,573.014 199.826,568.201 C202.295,563.118 203.529,557.811 203.529,552.279 C203.529,548.113 202.878,543.915 201.576,539.686"/>
<path class="KeySig" d="M321.248,585.389 C321.248,586.628 320.631,587.248 319.396,587.248 C318.162,587.248 317.545,586.628 317.545,585.389 L317.545,570.936 L309.248,574.061 L309.248,589.873 C309.248,591.113 308.628,591.733 307.389,591.733 C306.149,591.733 305.529,591.113 305.529,589.873 L305.529,575.326 L302.404,576.498 C302.342,576.561 302.081,576.592 301.623,576.592 C301.102,576.592 300.646,576.397 300.256,576.006 C299.865,575.615 299.67,575.16 299.67,574.639 L299.67,568.592 C299.67,567.613 300.092,566.993 300.936,566.733 L305.529,565.17 L305.529,549.154 L302.404,550.233 C302.342,550.295 302.081,550.326 301.623,550.326 C301.102,550.326 300.646,550.131 300.256,549.74 C299.865,549.35 299.67,548.894 299.67,548.373 L299.67,542.311 C299.67,541.404 300.092,540.821 300.936,540.561 L305.529,538.795 L305.529,523.076 C305.529,521.837 306.149,521.217 307.389,521.217 C308.628,521.217 309.248,521.837 309.248,523.076 L309.248,537.529 L317.545,534.404 L317.545,518.592 C317.545,517.352 318.162,516.733 319.396,516.733 C320.631,516.733 321.248,517.352 321.248,518.592 L321.248,533.139 L324.482,531.967 C324.545,531.904 324.769,531.873 325.154,531.873 C325.613,531.873 326.102,532.066 326.623,532.451 C327.019,532.847 327.217,533.305 327.217,533.826 L327.217,539.873 C327.217,540.79 326.758,541.41 325.842,541.733 L321.248,543.295 L321.248,559.311 L324.482,558.233 C324.545,558.17 324.769,558.139 325.154,558.139 C325.613,558.139 326.102,558.337 326.623,558.733 C327.019,559.118 327.217,559.571 327.217,560.092 L327.217,566.154 C327.217,566.998 326.758,567.582 325.842,567.904 L321.248,569.67 L321.248,585.389 M317.545,544.764 L309.248,547.686 L309.248,563.701 L317.545,560.779 L317.545,544.764 "/>
<path class="KeySig" d="M296.248,635.389 C296.248,636.628 295.631,637.248 294.396,637.248 C293.162,637.248 292.545,636.628 292.545,635.389 L292.545,620.936 L284.248,624.061 L284.248,639.873 C284.248,641.113 283.628,641.733 282.389,641.733 C281.149,641.733 280.529,641.113 280.529,639.873 L280.529,625.326 L277.404,626.498 C277.342,626.561 277.081,626.592 276.623,626.592 C276.102,626.592 275.646,626.397 275.256,626.006 C274.865,625.615 274.67,625.16 274.67,624.639 L274.67,618.592 C274.67,617.613 275.092,616.993 275.935,616.733 L280.529,615.17 L280.529,599.154 L277.404,600.233 C277.342,600.295 277.081,600.326 276.623,600.326 C276.102,600.326 275.646,600.131 275.256,599.74 C274.865,599.35 274.67,598.894 274.67,598.373 L274.67,592.311 C274.67,591.404 275.092,590.821 275.935,590.561 L280.529,588.795 L280.529,573.076 C280.529,571.837 281.149,571.217 282.389,571.217 C283.628,571.217 284.248,571.837 284.248,573.076 L284.248,587.529 L292.545,584.404 L292.545,568.592 C292.545,567.352 293.162,566.733 294.396,566.733 C295.631,566.733 296.248,567.352 296.248,568.592 L296.248,583.139 L299.482,581.967 C299.545,581.904 299.769,581.873 300.154,581.873 C300.613,581.873 301.102,582.066 301.623,582.451 C302.019,582.847 302.217,583.305 302.217,583.826 L302.217,589.873 C302.217,590.79 301.758,591.41 300.842,591.733 L296.248,593.295 L296.248,609.311 L299.482,608.233 C299.545,608.17 299.769,608.139 300.154,608.139 C300.613,608.139 301.102,608.337 301.623,608.733 C302.019,609.118 302.217,609.571 302.217,610.092 L302.217,616.154 C302.217,616.998 301.758,617.582 300.842,617.904 L296.248,619.67 L296.248,635.389 M292.545,594.764 L284.248,597.686 L284.248,613.701 L292.545,610.779 L292.545,594.764 "/>
<path class="KeySig" d="M271.248,597.889 C271.248,599.128 270.631,599.748 269.396,599.748 C268.162,599.748 267.545,599.128 267.545,597.889 L267.545,583.436 L259.248,586.561 L259.248,602.373 C259.248,603.613 258.628,604.233 257.389,604.233 C256.149,604.233 255.529,603.613 255.529,602.373 L255.529,587.826 L252.404,588.998 C252.342,589.061 252.081,589.092 251.623,589.092 C251.102,589.092 250.646,588.897 250.256,588.506 C249.865,588.115 249.67,587.66 249.67,587.139 L249.67,581.092 C249.67,580.113 250.092,579.493 250.935,579.233 L255.529,577.67 L255.529,561.654 L252.404,562.733 C252.342,562.795 252.081,562.826 251.623,562.826 C251.102,562.826 250.646,562.631 250.256,562.24 C249.865,561.85 249.67,561.394 249.67,560.873 L249.67,554.811 C249.67,553.904 250.092,553.321 250.935,553.061 L255.529,551.295 L255.529,535.576 C255.529,534.337 256.149,533.717 257.389,533.717 C258.628,533.717 259.248,534.337 259.248,535.576 L259.248,550.029 L267.545,546.904 L267.545,531.092 C267.545,529.852 268.162,529.233 269.396,529.233 C270.631,529.233 271.248,529.852 271.248,531.092 L271.248,545.639 L274.482,544.467 C274.545,544.404 274.769,544.373 275.154,544.373 C275.613,544.373 276.102,544.566 276.623,544.951 C277.019,545.347 277.217,545.805 277.217,546.326 L277.217,552.373 C277.217,553.29 276.758,553.91 275.842,554.233 L271.248,555.795 L271.248,571.811 L274.482,570.733 C274.545,570.67 274.769,570.639 275.154,570.639 C275.613,570.639 276.102,570.837 276.623,571.233 C277.019,571.618 277.217,572.071 277.217,572.592 L277.217,578.654 C277.217,579.498 276.758,580.082 275.842,580.404 L271.248,582.17 L271.248,597.889 M267.545,557.264 L259.248,560.186 L259.248,576.201 L267.545,573.279 L267.545,557.264 "/>
<path class="TimeSig" d="M370.881,591.139 C368.402,591.139 366.87,592.118 366.287,594.076 C365.829,595.514 365.6,597.925 365.6,601.311 L365.6,604.233 C365.6,607.618 365.829,610.029 366.287,611.467 C366.87,613.415 368.402,614.389 370.881,614.389 C373.61,614.389 375.334,613.248 376.053,610.967 C376.699,608.821 377.021,606.087 377.021,602.764 C377.021,598.93 376.667,596.035 375.959,594.076 C375.178,592.118 373.485,591.139 370.881,591.139 M365.6,590.17 C367.558,589.389 369.318,588.93 370.881,588.795 C376.089,588.795 380.256,589.972 383.381,592.326 C386.37,594.733 387.865,598.18 387.865,602.67 C387.865,607.233 386.334,610.748 383.271,613.217 C380.219,615.561 376.089,616.733 370.881,616.733 C365.537,616.733 361.368,614.259 358.373,609.311 C355.378,604.363 353.881,598.503 353.881,591.733 C353.881,585.087 355.641,579.227 359.162,574.154 C362.735,569.207 367.324,566.733 372.928,566.733 C376.574,566.733 379.798,567.675 382.6,569.561 C385.329,571.446 386.693,573.92 386.693,576.983 C386.693,578.868 386.042,580.43 384.74,581.67 C383.574,582.972 382.079,583.623 380.256,583.623 C378.433,583.623 376.87,582.972 375.568,581.67 C374.266,580.368 373.615,578.805 373.615,576.983 C373.615,576.264 374.266,575.451 375.568,574.545 C376.87,573.764 377.521,572.951 377.521,572.108 C377.521,571.191 377.063,570.441 376.146,569.858 C375.105,569.337 374.032,569.076 372.928,569.076 C369.928,569.076 367.943,570.279 366.975,572.686 C365.933,575.029 365.412,578.446 365.412,582.936 C365.412,584.238 365.443,585.444 365.506,586.553 C365.568,587.662 365.6,588.868 365.6,590.17"/>
<path class="TimeSig" d="M378.084,637.92 C381.344,634.337 382.975,630.951 382.975,627.764 C382.975,625.097 381.834,622.983 379.553,621.42 C377.344,619.858 374.61,619.076 371.35,619.076 C369.068,619.076 367.245,619.792 365.881,621.225 C364.516,622.657 363.834,624.285 363.834,626.108 C363.834,628.389 364.844,630.144 366.865,631.373 L378.084,637.92 M381.115,639.576 C386.646,642.774 389.412,647.04 389.412,652.373 C389.412,656.352 387.756,659.707 384.443,662.436 C381.12,665.3 376.464,666.733 370.475,666.733 C365.391,666.733 361.126,665.431 357.678,662.826 C354.032,660.222 352.209,656.868 352.209,652.764 C352.209,651.274 352.667,649.681 353.584,647.983 C354.428,646.483 355.271,645.311 356.115,644.467 C356.511,643.946 357.751,642.707 359.834,640.748 C355.792,637.884 353.74,634.337 353.678,630.108 C353.678,626.524 355.271,623.368 358.459,620.639 C361.646,618.035 365.943,616.733 371.35,616.733 C375.652,616.733 379.428,617.707 382.678,619.654 C385.803,621.613 387.365,624.316 387.365,627.764 C387.24,631.285 385.157,635.222 381.115,639.576 M362.85,642.514 C358.818,646.097 356.735,649.514 356.6,652.764 C356.6,656.087 358.001,658.858 360.803,661.076 C363.469,663.285 366.693,664.389 370.475,664.389 C373.141,664.389 375.225,663.545 376.725,661.858 C378.287,660.295 379.068,658.373 379.068,656.092 C379.068,653.29 377.928,651.238 375.646,649.936 L362.85,642.514 "/>
<path class="Rest" d="M2728.04,596.217 C2729.92,596.217 2731.36,596.738 2732.34,597.779 C2733.31,598.957 2733.84,600.066 2733.9,601.108 C2734.03,602.087 2734.36,603.191 2734.88,604.42 C2735.47,605.462 2736.21,605.983 2737.12,605.983 C2737.84,605.983 2738.91,605.17 2740.35,603.545 C2741.65,602.118 2742.6,600.847 2743.18,599.733 C2743.5,599.087 2743.95,598.764 2744.54,598.764 L2744.65,598.764 C2745.29,598.826 2745.75,599.149 2746.01,599.733 L2733.71,641.733 C2733.05,642.389 2732.14,642.717 2730.97,642.717 C2729.8,642.717 2728.89,642.389 2728.24,641.733 L2739.96,609.108 C2735.79,610.608 2732.28,611.358 2729.41,611.358 C2727.07,611.358 2725.05,610.608 2723.35,609.108 C2721.59,607.68 2720.71,605.795 2720.71,603.451 C2720.71,601.43 2721.43,599.738 2722.87,598.373 C2724.29,596.936 2726.02,596.217 2728.04,596.217"/>
<path class="Beam" fill-rule="evenodd" d="M1372.34,672.92 L1596.63,704.63 L1596.63,717.254 L1372.34,685.545 L1372.34,672.92 "/>
<path class="Beam" fill-rule="evenodd" d="M1996.08,685.483 L2201.79,685.483 L2201.79,697.983 L1996.08,697.983 L1996.08,685.483 "/>
<path class="Hook" d="M469.225,572.983 L469.225,547.983 L472.35,547.983 C472.35,551.691 473.068,555.404 474.506,559.123 C476.068,563.154 477.792,566.67 479.678,569.67 C481.042,571.816 483.094,575.102 485.834,579.529 C487.917,582.915 489.675,586.462 491.107,590.17 C492.54,593.878 493.256,597.592 493.256,601.311 C493.256,608.081 491.855,614.983 489.053,622.014 C488.532,622.795 487.912,623.186 487.193,623.186 C486.548,623.186 485.964,622.925 485.443,622.404 C485.048,622.009 484.85,621.519 484.85,620.936 L484.85,620.451 C487.652,614.003 489.053,607.623 489.053,601.311 C489.053,598.05 488.074,594.535 486.115,590.764 C484.167,586.92 482.183,583.858 480.162,581.576 C477.881,578.91 475.277,576.045 472.35,572.983 L469.225,572.983 "/>
<path class="Hook" d="M789.21,619.373 C790.71,619.373 792.309,621.811 794.007,626.686 C795.632,631.509 796.445,636.102 796.445,640.467 C796.445,644.175 795.533,647.852 793.71,651.498 C791.825,655.405 789.58,658.79 786.976,661.655 L778.96,670.639 C776.492,673.503 774.278,676.821 772.32,680.592 C770.497,684.238 769.585,687.951 769.585,691.733 L766.46,691.733 L766.46,666.733 L769.585,666.733 C771.346,665.628 773.95,663.868 777.398,661.451 C778.96,660.285 781.304,658.332 784.429,655.592 C786.971,653.248 788.893,650.842 790.195,648.373 C791.559,645.769 792.242,643.134 792.242,640.467 C792.242,634.28 790.45,628.123 786.867,621.998 C786.867,621.998 786.867,621.868 786.867,621.608 C786.867,621.024 787.064,620.54 787.46,620.155 C787.981,619.634 788.564,619.373 789.21,619.373"/>
<path class="Hook" d="M1050.12,556.873 C1051.62,556.873 1053.22,559.311 1054.92,564.186 C1056.55,569.009 1057.36,573.602 1057.36,577.967 C1057.36,581.675 1056.45,585.352 1054.62,588.998 C1052.74,592.904 1050.49,596.29 1047.89,599.154 L1039.87,608.139 C1037.4,611.003 1035.19,614.321 1033.23,618.092 C1031.41,621.738 1030.5,625.451 1030.5,629.233 L1027.37,629.233 L1027.37,604.233 L1030.5,604.233 C1032.26,603.128 1034.86,601.368 1038.31,598.951 C1039.87,597.785 1042.22,595.832 1045.34,593.092 C1047.88,590.748 1049.81,588.342 1051.11,585.873 C1052.47,583.269 1053.15,580.634 1053.15,577.967 C1053.15,571.779 1051.36,565.623 1047.78,559.498 C1047.78,559.498 1047.78,559.368 1047.78,559.108 C1047.78,558.524 1047.98,558.04 1048.37,557.654 C1048.89,557.134 1049.48,556.873 1050.12,556.873"/>
<path class="Hook" d="M1917.61,631.873 C1919.11,631.873 1920.71,634.311 1922.4,639.186 C1924.03,644.009 1924.84,648.602 1924.84,652.967 C1924.84,656.675 1923.93,660.352 1922.11,663.998 C1920.22,667.905 1917.98,671.29 1915.37,674.155 L1907.36,683.139 C1904.89,686.003 1902.67,689.321 1900.72,693.092 C1898.89,696.738 1897.98,700.451 1897.98,704.233 L1894.86,704.233 L1894.86,679.233 L1897.98,679.233 C1899.74,678.128 1902.35,676.368 1905.79,673.951 C1907.36,672.785 1909.7,670.832 1912.83,668.092 C1915.37,665.748 1917.29,663.342 1918.59,660.873 C1919.96,658.269 1920.64,655.634 1920.64,652.967 C1920.64,646.78 1918.85,640.623 1915.26,634.498 C1915.26,634.498 1915.26,634.368 1915.26,634.108 C1915.26,633.524 1915.46,633.04 1915.86,632.655 C1916.38,632.134 1916.96,631.873 1917.61,631.873"/>
<path class="NoteDot" d="M1200.05,583.24 C1198.94,582.131 1198.39,580.795 1198.39,579.233 C1198.39,577.67 1198.94,576.334 1200.05,575.225 C1201.16,574.115 1202.5,573.561 1204.06,573.561 C1205.62,573.561 1206.96,574.115 1208.06,575.225 C1209.17,576.334 1209.72,577.67 1209.72,579.233 C1209.72,580.795 1209.17,582.131 1208.06,583.24 C1206.96,584.35 1205.62,584.904 1204.06,584.904 C1202.5,584.904 1201.16,584.35 1200.05,583.24"/>
<path class="NoteDot" d="M2372.09,633.24 C2370.98,632.131 2370.43,630.795 2370.43,629.233 C2370.43,627.67 2370.98,626.334 2372.09,625.225 C2373.2,624.115 2374.53,623.561 2376.1,623.561 C2377.66,623.561 2378.99,624.115 2380.1,625.225 C2381.2,626.334 2381.75,627.67 2381.75,629.233 C2381.75,630.795 2381.2,632.131 2380.1,633.24 C2378.99,634.35 2377.66,634.904 2376.1,634.904 C2374.53,634.904 2373.2,634.35 2372.09,633.24"/>
</svg>
