<?xml version="1.0" encoding="UTF-8" standalone="no"?>
<svg width="2977.2px" height="4208.4px" viewBox="0 0 2977.2 4208.4"
 xmlns="http://www.w3.org/2000/svg" xmlns:xlink="http://www.w3.org/1999/xlink" version="1.2" baseProfile="tiny">
<title>0-3</title>
<desc>Generated by MuseScore 3.4.2</desc>
<polyline class="StaffLines" fill="none" stroke="#000000" stroke-width="2.00" stroke-linejoin="bevel" points="141.732,566.733 1483.1,566.733"/>
<polyline class="StaffLines" fill="none" stroke="#000000" stroke-width="2.00" stroke-linejoin="bevel" points="141.732,591.733 1483.1,591.733"/>
<polyline class="StaffLines" fill="none" stroke="#000000" stroke-width="2.00" stroke-linejoin="bevel" points="141.732,616.733 1483.1,616.733"/>
<polyline class="StaffLines" fill="none" stroke="#000000" stroke-width="2.00" stroke-linejoin="bevel" points="141.732,641.733 1483.1,641.733"/>
<polyline class="StaffLines" fill="none" stroke="#000000" stroke-width="2.00" stroke-linejoin="bevel" points="141.732,666.733 1483.1,666.733"/>
<path class="Text" d="M1191.04,152.576 C1189.61,152.576 1186.73,153.456 1182.4,155.217 L1182.4,153.529 L1204.01,142.623 L1204.97,142.857 L1204.97,214.857 C1204.97,217.732 1205.69,219.61 1207.13,220.49 C1208.57,221.37 1211.65,221.852 1216.37,221.935 L1216.37,223.732 L1183.25,223.732 L1183.25,221.935 C1187.73,221.769 1190.75,221.107 1192.31,219.951 C1193.87,218.795 1194.65,216.336 1194.65,212.576 L1194.65,158.217 C1194.65,154.456 1193.45,152.576 1191.04,152.576 M1238.81,214.373 C1240.65,214.373 1243.4,215.454 1247.04,217.615 C1250.68,219.777 1253.86,220.857 1256.58,220.857 C1260.97,220.857 1264.69,219.149 1267.73,215.732 C1270.77,212.316 1272.29,208.102 1272.29,203.092 C1272.29,199.987 1271.75,197.243 1270.67,194.857 C1269.59,192.472 1268.21,190.626 1266.53,189.318 C1264.85,188.011 1262.85,186.941 1260.53,186.107 C1258.21,185.274 1256.03,184.737 1253.99,184.498 C1251.95,184.258 1249.77,184.139 1247.45,184.139 L1247.45,182.576 C1250.17,181.618 1252.51,180.678 1254.47,179.756 C1256.42,178.834 1258.48,177.594 1260.65,176.037 C1262.81,174.48 1264.47,172.581 1265.63,170.342 C1266.79,168.102 1267.37,165.54 1267.37,162.654 C1267.37,158.894 1266.15,155.813 1263.71,153.412 C1261.27,151.011 1258.09,149.81 1254.17,149.81 C1250.41,149.81 1247.11,150.831 1244.27,152.873 C1241.43,154.915 1238.77,158.133 1236.29,162.529 L1234.5,162.06 C1236.57,156.373 1239.39,151.711 1242.95,148.076 C1246.51,144.441 1251.57,142.623 1258.12,142.623 C1263.64,142.623 1268.15,144.141 1271.63,147.178 C1275.12,150.214 1276.86,154.175 1276.86,159.06 C1276.86,162.342 1276.02,165.222 1274.33,167.701 C1272.65,170.18 1269.73,172.816 1265.58,175.607 C1270.37,177.68 1274.13,180.331 1276.85,183.56 C1279.57,186.79 1280.94,191.394 1280.94,197.373 C1280.94,205.873 1277.79,212.672 1271.51,217.771 C1265.23,222.87 1257.33,225.42 1247.81,225.42 C1243.65,225.42 1240.35,224.797 1237.91,223.553 C1235.47,222.308 1234.25,220.649 1234.25,218.576 C1234.25,217.295 1234.67,216.274 1235.51,215.514 C1236.36,214.753 1237.46,214.373 1238.81,214.373 M1403.81,221.451 L1403.81,223.732 L1373.22,223.732 L1373.22,221.451 C1376.41,221.368 1378.61,221.047 1379.81,220.49 C1381.01,219.933 1381.61,218.894 1381.61,217.373 C1381.61,215.456 1380.85,212.774 1379.33,209.326 L1374.4,197.81 L1342.97,197.81 L1337.45,211.857 C1336.82,213.534 1336.5,215.092 1336.5,216.529 C1336.5,219.81 1339.22,221.451 1344.65,221.451 L1344.65,223.732 L1320.89,223.732 L1320.89,221.451 C1323.85,221.295 1326.15,220.157 1327.79,218.037 C1329.43,215.917 1332.09,210.498 1335.76,201.779 L1360.73,142.857 L1363.12,142.857 L1393.01,211.014 C1394.93,215.409 1396.53,218.209 1397.81,219.412 C1399.09,220.615 1401.09,221.295 1403.81,221.451 M1345.01,192.889 L1372.73,192.889 L1358.81,159.889 L1345.01,192.889 M1407.29,148.982 L1407.29,147.06 C1415.21,145.133 1421.57,143.373 1426.37,141.779 L1426.86,142.014 L1426.86,213.654 C1426.86,216.935 1427.4,219.076 1428.47,220.076 C1429.55,221.076 1432.01,221.696 1435.86,221.935 L1435.86,223.732 L1407.53,223.732 L1407.53,221.935 C1411.29,221.612 1413.77,220.891 1414.97,219.771 C1416.16,218.652 1416.76,216.493 1416.76,213.295 L1416.76,156.06 C1416.76,153.258 1416.4,151.336 1415.69,150.295 C1414.97,149.253 1413.65,148.732 1411.73,148.732 C1410.13,148.732 1408.65,148.816 1407.29,148.982 M1438.29,148.982 L1438.29,147.06 C1446.21,145.133 1452.57,143.373 1457.37,141.779 L1457.86,142.014 L1457.86,213.654 C1457.86,216.935 1458.4,219.076 1459.47,220.076 C1460.55,221.076 1463.01,221.696 1466.86,221.935 L1466.86,223.732 L1438.53,223.732 L1438.53,221.935 C1442.29,221.612 1444.77,220.891 1445.97,219.771 C1447.16,218.652 1447.76,216.493 1447.76,213.295 L1447.76,156.06 C1447.76,153.258 1447.4,151.336 1446.69,150.295 C1445.97,149.253 1444.65,148.732 1442.73,148.732 C1441.13,148.732 1439.65,148.816 1438.29,148.982 M1479.73,190.498 C1479.89,195.54 1480.57,199.878 1481.77,203.514 C1482.97,207.149 1484.53,209.868 1486.45,211.67 C1488.37,213.472 1490.31,214.753 1492.27,215.514 C1494.23,216.274 1496.29,216.654 1498.45,216.654 C1502.29,216.654 1505.64,215.693 1508.47,213.771 C1511.31,211.849 1514.17,208.612 1517.04,204.06 L1518.97,204.889 C1516.49,211.368 1513.05,216.329 1508.65,219.771 C1504.25,223.214 1499.21,224.935 1493.53,224.935 C1486.65,224.935 1481.2,222.516 1477.15,217.678 C1473.11,212.839 1471.09,206.3 1471.09,198.06 C1471.09,189.175 1473.43,182.032 1478.12,176.631 C1482.8,171.23 1488.82,168.529 1496.17,168.529 C1502.25,168.529 1506.97,170.349 1510.33,173.99 C1513.69,177.631 1515.81,183.133 1516.69,190.498 L1479.73,190.498 M1479.97,186.889 L1504.45,186.889 C1503.65,181.691 1502.41,178.092 1500.73,176.092 C1499.06,174.092 1496.37,173.092 1492.69,173.092 C1485.49,173.092 1481.25,177.691 1479.97,186.889 M1528.29,217.248 C1528.29,215.727 1528.83,214.329 1529.91,213.053 C1530.99,211.777 1534.01,208.816 1538.97,204.17 C1534.97,202.159 1532.11,199.909 1530.39,197.42 C1528.67,194.93 1527.81,191.8 1527.81,188.029 C1527.81,182.602 1529.75,177.995 1533.63,174.209 C1537.51,170.422 1542.25,168.529 1547.86,168.529 C1550.97,168.529 1554.31,169.191 1557.87,170.514 C1561.44,171.836 1564.37,172.498 1566.69,172.498 L1575.94,172.498 L1575.94,177.06 L1565.97,177.06 C1567.49,180.508 1568.25,183.883 1568.25,187.185 C1568.25,192.727 1566.39,197.224 1562.67,200.678 C1558.95,204.131 1554.57,205.857 1549.53,205.857 C1548.57,205.857 1546.29,205.654 1542.69,205.248 C1541.09,205.727 1539.5,206.808 1537.9,208.49 C1536.3,210.172 1535.5,211.612 1535.5,212.81 C1535.5,214.727 1538.62,215.805 1544.86,216.045 L1560.33,216.779 C1564.73,216.935 1568.26,218.172 1570.9,220.49 C1573.54,222.808 1574.86,225.847 1574.86,229.607 C1574.86,235.368 1571.56,240.188 1564.95,244.068 C1558.35,247.948 1551.25,249.889 1543.65,249.889 C1537.98,249.889 1533.1,248.748 1529.01,246.467 C1524.93,244.185 1522.89,241.446 1522.89,238.248 C1522.89,236.008 1523.79,233.79 1525.59,231.592 C1527.39,229.394 1530.41,226.732 1534.65,223.607 C1532.17,222.409 1530.5,221.37 1529.62,220.49 C1528.73,219.61 1528.29,218.529 1528.29,217.248 M1537.17,223.967 C1534.69,226.935 1533.09,229.058 1532.37,230.334 C1531.65,231.61 1531.29,232.93 1531.29,234.295 C1531.29,236.93 1532.89,239.047 1536.09,240.646 C1539.29,242.245 1543.53,243.045 1548.81,243.045 C1555.61,243.045 1561.09,241.967 1565.25,239.81 C1569.4,237.654 1571.48,234.857 1571.48,231.42 C1571.48,229.253 1570.36,227.73 1568.12,226.849 C1565.88,225.969 1562.04,225.529 1556.61,225.529 C1548.53,225.529 1542.06,225.008 1537.17,223.967 M1559.01,191.889 C1559.01,190.545 1558.85,188.928 1558.53,187.037 C1558.21,185.146 1557.65,182.998 1556.85,180.592 C1556.05,178.185 1554.77,176.175 1553.01,174.56 C1551.25,172.946 1549.13,172.139 1546.65,172.139 C1543.85,172.139 1541.67,173.107 1540.11,175.045 C1538.54,176.982 1537.76,179.659 1537.76,183.076 C1537.76,189.993 1539.04,195.019 1541.61,198.154 C1544.17,201.29 1546.97,202.857 1550.01,202.857 C1552.82,202.857 1555.02,201.873 1556.62,199.904 C1558.21,197.935 1559.01,195.264 1559.01,191.889 M1613.22,180.295 C1612.01,180.295 1610.52,179.594 1608.76,178.193 C1607,176.792 1605.85,176.092 1605.29,176.092 C1603.69,176.092 1601.89,177.253 1599.89,179.576 C1597.89,181.899 1596.89,184.019 1596.89,185.935 L1596.89,212.935 C1596.89,216.373 1597.57,218.691 1598.93,219.889 C1600.29,221.086 1603.01,221.769 1607.09,221.935 L1607.09,223.732 L1578.29,223.732 L1578.29,221.935 C1582.13,221.217 1584.51,220.417 1585.43,219.537 C1586.35,218.657 1586.81,216.696 1586.81,213.654 L1586.81,183.654 C1586.81,181.019 1586.51,179.159 1585.91,178.076 C1585.31,176.993 1584.25,176.451 1582.73,176.451 C1581.45,176.451 1580.05,176.612 1578.53,176.935 L1578.53,175.014 C1584.94,172.93 1590.86,170.769 1596.29,168.529 L1596.89,168.779 L1596.89,179.81 C1599.85,175.571 1602.37,172.631 1604.45,170.99 C1606.53,169.349 1608.82,168.529 1611.29,168.529 C1613.37,168.529 1614.98,169.089 1616.15,170.209 C1617.31,171.329 1617.89,172.889 1617.89,174.889 C1617.89,176.576 1617.47,177.899 1616.63,178.857 C1615.79,179.816 1614.65,180.295 1613.22,180.295 M1629.73,190.498 C1629.89,195.54 1630.57,199.878 1631.77,203.514 C1632.97,207.149 1634.53,209.868 1636.45,211.67 C1638.37,213.472 1640.31,214.753 1642.27,215.514 C1644.23,216.274 1646.29,216.654 1648.45,216.654 C1652.29,216.654 1655.64,215.693 1658.47,213.771 C1661.31,211.849 1664.17,208.612 1667.04,204.06 L1668.97,204.889 C1666.49,211.368 1663.05,216.329 1658.65,219.771 C1654.25,223.214 1649.21,224.935 1643.53,224.935 C1636.65,224.935 1631.2,222.516 1627.15,217.678 C1623.11,212.839 1621.09,206.3 1621.09,198.06 C1621.09,189.175 1623.43,182.032 1628.12,176.631 C1632.8,171.23 1638.82,168.529 1646.17,168.529 C1652.25,168.529 1656.97,170.349 1660.33,173.99 C1663.69,177.631 1665.81,183.133 1666.69,190.498 L1629.73,190.498 M1629.97,186.889 L1654.45,186.889 C1653.65,181.691 1652.41,178.092 1650.73,176.092 C1649.06,174.092 1646.37,173.092 1642.69,173.092 C1635.49,173.092 1631.25,177.691 1629.97,186.889 M1702.17,169.732 L1702.17,173.342 L1690.04,173.342 L1690.04,207.654 C1690.04,211.415 1690.53,214.154 1691.49,215.873 C1692.45,217.592 1694.06,218.451 1696.29,218.451 C1698.77,218.451 1701.17,217.05 1703.5,214.248 L1705.04,215.576 C1701.21,221.816 1696.41,224.935 1690.65,224.935 C1683.53,224.935 1679.97,219.831 1679.97,209.623 L1679.97,173.342 L1673.61,173.342 C1673.29,173.112 1673.14,172.847 1673.14,172.545 C1673.14,172.17 1673.26,171.87 1673.5,171.646 C1673.74,171.422 1674.2,171.105 1674.87,170.693 C1675.55,170.282 1676.37,169.691 1677.33,168.92 C1678.3,168.149 1679.62,166.751 1681.29,164.724 C1682.97,162.698 1684.81,160.264 1686.81,157.42 C1688.09,155.555 1688.89,154.42 1689.22,154.014 C1689.77,154.014 1690.04,154.54 1690.04,155.592 L1690.04,169.732 L1702.17,169.732 M1736.17,169.732 L1736.17,173.342 L1724.04,173.342 L1724.04,207.654 C1724.04,211.415 1724.53,214.154 1725.49,215.873 C1726.45,217.592 1728.06,218.451 1730.29,218.451 C1732.77,218.451 1735.17,217.05 1737.5,214.248 L1739.04,215.576 C1735.21,221.816 1730.41,224.935 1724.65,224.935 C1717.53,224.935 1713.97,219.831 1713.97,209.623 L1713.97,173.342 L1707.61,173.342 C1707.29,173.112 1707.14,172.847 1707.14,172.545 C1707.14,172.17 1707.26,171.87 1707.5,171.646 C1707.74,171.422 1708.2,171.105 1708.87,170.693 C1709.55,170.282 1710.37,169.691 1711.33,168.92 C1712.3,168.149 1713.62,166.751 1715.29,164.724 C1716.97,162.698 1718.81,160.264 1720.81,157.42 C1722.09,155.555 1722.89,154.42 1723.22,154.014 C1723.77,154.014 1724.04,154.54 1724.04,155.592 L1724.04,169.732 L1736.17,169.732 M1768.61,168.529 C1776.28,168.529 1782.6,171.092 1787.57,176.217 C1792.53,181.342 1795.01,187.826 1795.01,195.67 C1795.01,203.982 1792.45,210.938 1787.33,216.537 C1782.21,222.136 1775.89,224.935 1768.37,224.935 C1760.85,224.935 1754.59,222.235 1749.59,216.834 C1744.59,211.433 1742.09,204.696 1742.09,196.623 C1742.09,188.383 1744.55,181.641 1749.47,176.396 C1754.4,171.152 1760.77,168.529 1768.61,168.529 M1752.89,190.795 C1752.89,199.274 1754.45,206.482 1757.57,212.42 C1760.69,218.357 1764.77,221.326 1769.81,221.326 C1774.29,221.326 1777.81,219.425 1780.37,215.623 C1782.94,211.821 1784.22,206.555 1784.22,199.826 C1784.22,191.659 1782.62,185.003 1779.41,179.857 C1776.21,174.711 1772.09,172.139 1767.04,172.139 C1762.81,172.139 1759.39,173.842 1756.79,177.248 C1754.19,180.654 1752.89,185.17 1752.89,190.795"/>
<path class="Text" d="M1435.98,290.355 L1418.06,330.465 L1417.09,330.465 L1399.51,291.965 L1399.51,320.168 C1399.51,323.72 1399.93,326.066 1400.77,327.207 C1401.61,328.347 1403.38,328.991 1406.09,329.136 L1406.09,330.465 L1389.64,330.465 L1389.64,329.136 C1392.53,328.949 1394.39,328.306 1395.21,327.207 C1396.03,326.108 1396.44,323.761 1396.44,320.168 L1396.44,291.746 C1396.44,289.183 1396.05,287.54 1395.28,286.816 C1394.51,286.092 1392.67,285.636 1389.78,285.449 L1389.78,284.121 L1403.64,284.121 L1419.81,319.48 L1435.28,284.121 L1449.22,284.121 L1449.22,285.449 C1446.6,285.678 1444.93,286.168 1444.21,286.918 C1443.48,287.668 1443.12,289.277 1443.12,291.746 L1443.12,322.84 C1443.12,325.308 1443.5,326.928 1444.25,327.699 C1445,328.47 1446.65,328.949 1449.22,329.136 L1449.22,330.465 L1429.62,330.465 L1429.62,329.136 C1432.37,328.949 1434.12,328.446 1434.87,327.629 C1435.61,326.811 1435.98,324.954 1435.98,322.058 L1435.98,290.355 M1467.81,298.261 C1472.29,298.261 1475.98,299.756 1478.87,302.746 C1481.77,305.735 1483.22,309.517 1483.22,314.09 C1483.22,318.944 1481.72,323.004 1478.73,326.269 C1475.74,329.535 1472.06,331.168 1467.67,331.168 C1463.28,331.168 1459.63,329.592 1456.72,326.441 C1453.8,323.29 1452.34,319.355 1452.34,314.636 C1452.34,309.834 1453.78,305.905 1456.65,302.847 C1459.52,299.79 1463.24,298.261 1467.81,298.261 M1458.64,311.246 C1458.64,316.194 1459.55,320.399 1461.37,323.863 C1463.2,327.327 1465.58,329.058 1468.51,329.058 C1471.13,329.058 1473.18,327.949 1474.68,325.73 C1476.17,323.511 1476.92,320.439 1476.92,316.511 C1476.92,311.751 1475.98,307.868 1474.12,304.863 C1472.25,301.858 1469.84,300.355 1466.9,300.355 C1464.42,300.355 1462.43,301.35 1460.91,303.34 C1459.4,305.329 1458.64,307.965 1458.64,311.246 M1502.45,328.371 C1504.26,328.371 1505.71,328.254 1506.78,328.019 C1507.85,327.785 1508.69,327.269 1509.3,326.472 C1509.91,325.676 1510.33,324.928 1510.57,324.23 C1510.8,323.532 1511.08,322.366 1511.4,320.73 L1512.67,321.011 L1511.69,330.465 L1485.29,330.465 L1485.29,329.418 L1503.92,301.058 L1494.25,301.058 C1492.15,301.058 1490.73,301.444 1489.98,302.215 C1489.23,302.985 1488.7,304.652 1488.37,307.215 L1487.11,307.215 L1487.33,298.965 L1511.61,298.965 L1511.61,300.011 L1492.78,328.371 L1502.45,328.371 M1515.34,323.558 C1515.34,322.715 1515.44,321.933 1515.62,321.215 C1515.81,320.496 1516.14,319.824 1516.6,319.199 C1517.06,318.574 1517.51,318.006 1517.93,317.496 C1518.35,316.985 1518.98,316.462 1519.82,315.926 C1520.66,315.389 1521.36,314.946 1521.92,314.597 C1522.48,314.248 1523.33,313.832 1524.47,313.347 C1525.62,312.863 1526.49,312.493 1527.1,312.238 C1527.71,311.983 1528.67,311.6 1529.97,311.09 C1531.28,310.579 1532.24,310.204 1532.84,309.965 L1532.84,305.73 C1532.84,301.876 1531.07,299.949 1527.53,299.949 C1526.12,299.949 1524.93,300.285 1523.95,300.957 C1522.97,301.629 1522.48,302.433 1522.48,303.371 C1522.48,303.746 1522.54,304.259 1522.65,304.91 C1522.77,305.561 1522.83,305.98 1522.83,306.168 C1522.83,306.959 1522.51,307.647 1521.88,308.23 C1521.25,308.814 1520.52,309.105 1519.69,309.105 C1518.89,309.105 1518.19,308.803 1517.58,308.199 C1516.97,307.595 1516.67,306.897 1516.67,306.105 C1516.67,303.907 1517.8,302.051 1520.07,300.535 C1522.33,299.019 1525.12,298.261 1528.44,298.261 C1532.26,298.261 1534.89,299.178 1536.34,301.011 C1537.79,302.845 1538.51,305.647 1538.51,309.418 L1538.51,322.996 C1538.51,324.527 1538.66,325.582 1538.97,326.16 C1539.27,326.738 1539.82,327.027 1540.61,327.027 C1541.6,327.027 1542.63,326.59 1543.7,325.715 L1543.7,327.543 C1542.48,328.939 1541.42,329.892 1540.51,330.402 C1539.59,330.912 1538.56,331.168 1537.39,331.168 C1535.94,331.168 1534.88,330.759 1534.21,329.941 C1533.54,329.123 1533.11,327.782 1532.92,325.918 C1528.9,329.418 1525.49,331.168 1522.69,331.168 C1520.54,331.168 1518.78,330.457 1517.4,329.035 C1516.03,327.613 1515.34,325.787 1515.34,323.558 M1532.84,321.746 L1532.84,311.636 C1528.64,313.168 1525.7,314.655 1524.02,316.097 C1522.34,317.54 1521.5,319.282 1521.5,321.324 C1521.5,323.23 1521.97,324.647 1522.9,325.574 C1523.84,326.501 1524.85,326.965 1525.92,326.965 C1527.5,326.965 1529.21,326.428 1531.03,325.355 C1531.77,324.939 1532.26,324.498 1532.49,324.035 C1532.72,323.571 1532.84,322.808 1532.84,321.746 M1564.67,305.121 C1563.96,305.121 1563.09,304.712 1562.07,303.894 C1561.04,303.077 1560.37,302.668 1560.04,302.668 C1559.11,302.668 1558.06,303.345 1556.89,304.699 C1555.72,306.053 1555.14,307.293 1555.14,308.418 L1555.14,324.168 C1555.14,326.168 1555.54,327.519 1556.33,328.222 C1557.13,328.926 1558.72,329.324 1561.09,329.418 L1561.09,330.465 L1544.29,330.465 L1544.29,329.418 C1546.53,328.991 1547.92,328.522 1548.46,328.011 C1549,327.501 1549.26,326.36 1549.26,324.59 L1549.26,307.09 C1549.26,305.548 1549.09,304.462 1548.74,303.832 C1548.39,303.202 1547.77,302.886 1546.89,302.886 C1546.14,302.886 1545.32,302.98 1544.44,303.168 L1544.44,302.043 C1548.16,300.824 1551.62,299.564 1554.79,298.261 L1555.14,298.402 L1555.14,304.84 C1556.87,302.371 1558.34,300.657 1559.55,299.699 C1560.77,298.741 1562.1,298.261 1563.54,298.261 C1564.75,298.261 1565.7,298.587 1566.37,299.238 C1567.05,299.889 1567.39,300.798 1567.39,301.965 C1567.39,302.954 1567.14,303.728 1566.65,304.285 C1566.16,304.842 1565.5,305.121 1564.67,305.121 M1585.72,298.965 L1585.72,301.058 L1578.65,301.058 L1578.65,321.09 C1578.65,323.277 1578.93,324.873 1579.49,325.879 C1580.05,326.884 1580.98,327.386 1582.29,327.386 C1583.74,327.386 1585.14,326.569 1586.5,324.933 L1587.4,325.699 C1585.16,329.345 1582.36,331.168 1579,331.168 C1574.85,331.168 1572.78,328.189 1572.78,322.23 L1572.78,301.058 L1569.06,301.058 C1568.87,300.933 1568.78,300.782 1568.78,300.605 C1568.78,300.386 1568.85,300.212 1568.99,300.082 C1569.13,299.952 1569.4,299.764 1569.79,299.519 C1570.19,299.274 1570.67,298.928 1571.23,298.48 C1571.79,298.032 1572.57,297.217 1573.54,296.035 C1574.52,294.853 1575.6,293.433 1576.76,291.777 C1577.51,290.694 1577.98,290.032 1578.17,289.793 C1578.49,289.793 1578.65,290.1 1578.65,290.715 L1578.65,298.965 L1585.72,298.965 "/>
<path class="SlurSegment" stroke="#000000" stroke-width="1.75" stroke-linecap="round" stroke-linejoin="round" fill-rule="evenodd" d="M618.733,664.233 C647.211,707.289 721.23,726.039 766.772,701.733 C720.248,729.917 646.229,711.167 618.733,664.233"/>
<polyline class="BarLine" stroke="#000000" stroke-width="4.00" stroke-linejoin="bevel" points="575.276,565.733 575.276,667.733"/>
<polyline class="BarLine" stroke="#000000" stroke-width="4.00" stroke-linejoin="bevel" points="1048.39,565.733 1048.39,667.733"/>
<polyline class="BarLine" stroke="#000000" stroke-width="4.00" stroke-linejoin="bevel" points="1481.1,565.733 1481.1,667.733"/>
<polyline class="Stem" stroke="#000000" stroke-width="3.25" stroke-linecap="round" stroke-linejoin="bevel" points="447.943,674.537 447.943,591.733"/>
<polyline class="Stem" stroke="#000000" stroke-width="3.25" stroke-linecap="round" stroke-linejoin="bevel" points="633.565,637.037 633.565,557.358"/>
<polyline class="Stem" stroke="#000000" stroke-width="3.25" stroke-linecap="round" stroke-linejoin="bevel" points="781.604,674.537 781.604,591.733"/>
<polyline class="Stem" stroke="#000000" stroke-width="3.25" stroke-linecap="round" stroke-linejoin="bevel" points="929.642,637.037 929.642,557.358"/>
<polyline class="Stem" stroke="#000000" stroke-width="3.25" stroke-linecap="round" stroke-linejoin="bevel" points="1108.49,637.893 1108.49,557.358"/>
<path class="Note" d="M438.623,665.467 C441.748,665.467 444.389,666.279 446.545,667.904 C448.555,669.665 449.561,671.878 449.561,674.545 C449.561,679.035 447.253,683.233 442.639,687.139 C437.951,691.045 432.936,692.998 427.592,692.998 C424.467,692.998 421.831,692.186 419.686,690.561 C417.665,688.8 416.654,686.587 416.654,683.92 C416.654,679.431 418.998,675.233 423.686,671.326 C428.248,667.42 433.227,665.467 438.623,665.467"/>
<path class="Note" d="M624.245,627.967 C627.37,627.967 630.011,628.779 632.167,630.404 C634.177,632.165 635.183,634.378 635.183,637.045 C635.183,641.535 632.875,645.733 628.261,649.639 C623.573,653.545 618.558,655.498 613.214,655.498 C610.089,655.498 607.453,654.686 605.308,653.061 C603.287,651.3 602.276,649.087 602.276,646.42 C602.276,641.931 604.62,637.733 609.308,633.826 C613.87,629.92 618.849,627.967 624.245,627.967"/>
<path class="Note" d="M772.284,665.467 C775.409,665.467 778.049,666.279 780.205,667.904 C782.216,669.665 783.221,671.878 783.221,674.545 C783.221,679.035 780.914,683.233 776.299,687.139 C771.612,691.045 766.596,692.998 761.252,692.998 C758.127,692.998 755.492,692.186 753.346,690.561 C751.325,688.8 750.315,686.587 750.315,683.92 C750.315,679.431 752.659,675.233 757.346,671.326 C761.909,667.42 766.888,665.467 772.284,665.467"/>
<path class="Note" d="M920.322,627.967 C923.447,627.967 926.088,628.779 928.244,630.404 C930.254,632.165 931.26,634.378 931.26,637.045 C931.26,641.535 928.952,645.733 924.338,649.639 C919.65,653.545 914.635,655.498 909.291,655.498 C906.166,655.498 903.53,654.686 901.385,653.061 C899.364,651.3 898.353,649.087 898.353,646.42 C898.353,641.931 900.697,637.733 905.385,633.826 C909.947,629.92 914.926,627.967 920.322,627.967"/>
<path class="Note" d="M1106.94,635.186 C1106.94,634.082 1106.52,633.139 1105.67,632.358 C1104.82,631.514 1103.84,631.092 1102.74,631.092 C1100.79,631.092 1096.85,633.045 1090.92,636.951 C1084.8,640.92 1081.05,643.753 1079.69,645.451 C1078.97,646.358 1078.61,647.3 1078.61,648.279 C1078.61,649.384 1079.04,650.326 1079.89,651.108 C1080.67,651.951 1081.65,652.373 1082.81,652.373 C1084.7,652.373 1088.67,650.42 1094.74,646.514 C1100.73,642.608 1104.43,639.774 1105.86,638.014 C1106.58,637.17 1106.94,636.227 1106.94,635.186 M1101.77,627.967 C1107.36,627.967 1110.16,630.373 1110.16,635.186 C1110.16,637.529 1109.48,640.264 1108.11,643.389 C1106.75,646.451 1104.92,648.795 1102.64,650.42 C1097.63,653.806 1091.35,655.498 1083.8,655.498 C1078.19,655.498 1075.39,653.092 1075.39,648.279 C1075.39,646.134 1076.07,643.431 1077.44,640.17 C1078.74,637.045 1080.56,634.67 1082.91,633.045 C1087.93,629.66 1094.21,627.967 1101.77,627.967"/>
<path class="Clef" d="M220.139,582.842 C219.165,581.863 218.678,580.657 218.678,579.225 C218.678,577.792 219.165,576.589 220.139,575.615 C221.113,574.641 222.316,574.154 223.748,574.154 C225.18,574.154 226.386,574.641 227.365,575.615 C228.344,576.589 228.834,577.792 228.834,579.225 C228.834,580.657 228.344,581.863 227.365,582.842 C226.386,583.821 225.18,584.311 223.748,584.311 C222.316,584.311 221.113,583.821 220.139,582.842 M220.139,607.85 C219.165,606.876 218.678,605.673 218.678,604.24 C218.678,602.808 219.165,601.602 220.139,600.623 C221.113,599.644 222.316,599.154 223.748,599.154 C225.18,599.154 226.386,599.644 227.365,600.623 C228.344,601.602 228.834,602.808 228.834,604.24 C228.834,605.673 228.344,606.876 227.365,607.85 C226.386,608.824 225.18,609.311 223.748,609.311 C222.316,609.311 221.113,608.824 220.139,607.85 M186.256,565.467 C194.912,565.467 202.006,567.644 207.537,571.998 C212.881,576.561 215.553,582.748 215.553,590.561 C215.553,595.832 214.511,600.649 212.428,605.014 C210.469,609.576 207.896,613.613 204.709,617.123 C201.448,620.707 197.511,624.092 192.896,627.279 C188.396,630.404 183.771,633.207 179.021,635.686 C169.323,640.561 163.985,642.998 163.006,642.998 C162.162,642.998 161.74,642.576 161.74,641.733 C161.74,641.41 161.87,641.118 162.131,640.858 C165.454,638.899 169.521,636.394 174.334,633.342 C177.459,631.321 181.105,628.519 185.271,624.936 C189.313,621.55 192.438,618.363 194.646,615.373 C196.928,612.436 199.011,608.79 200.896,604.436 C202.521,600.071 203.334,595.769 203.334,591.529 C203.334,585.217 201.771,579.717 198.646,575.029 C195.521,570.342 191.391,567.998 186.256,567.998 C182.61,567.998 179.485,569.17 176.881,571.514 C174.079,573.92 172.058,576.946 170.818,580.592 C172.058,580.071 173.198,579.811 174.24,579.811 C176.969,579.811 179.313,580.79 181.271,582.748 C183.219,584.832 184.193,587.207 184.193,589.873 C184.193,592.675 183.251,595.186 181.365,597.404 C179.344,599.415 176.969,600.42 174.24,600.42 C171.313,600.42 168.678,599.415 166.334,597.404 C164.115,595.186 163.006,592.675 163.006,589.873 C163.006,583.165 165.287,577.436 169.849,572.686 C174.339,567.873 179.808,565.467 186.256,565.467"/>
<path class="KeySig" d="M283.842,600.123 L283.842,607.842 C283.842,610.582 283.972,612.764 284.232,614.389 C286.378,612.566 287.909,611.201 288.826,610.295 C289.868,609.253 290.909,607.819 291.951,605.99 C292.993,604.162 293.514,602.337 293.514,600.514 C293.514,598.691 293.123,597.128 292.342,595.826 C291.56,594.524 290.519,593.873 289.217,593.873 C287.654,593.873 286.352,594.462 285.31,595.639 C284.331,596.941 283.842,598.436 283.842,600.123 M279.732,617.998 L278.467,558.529 C279.383,558.009 280.297,557.748 281.209,557.748 C282.12,557.748 283.029,558.009 283.935,558.529 L283.154,592.998 C285.821,590.717 288.883,589.576 292.342,589.576 C294.873,589.576 296.985,590.618 298.678,592.701 C300.37,594.785 301.217,597.165 301.217,599.842 C301.217,601.529 300.665,603.321 299.56,605.217 C298.519,606.967 297.415,608.332 296.248,609.311 C295.592,609.832 293.93,611.134 291.264,613.217 C290.482,613.8 289.555,614.483 288.482,615.264 C287.409,616.045 286.743,616.535 286.482,616.733 C286.024,616.993 285.597,617.514 285.201,618.295 C284.753,618.951 284.232,619.503 283.639,619.951 C283.191,620.347 282.641,620.545 281.99,620.545 C281.339,620.545 280.816,620.316 280.42,619.858 C279.962,619.399 279.732,618.779 279.732,617.998"/>
<path class="KeySig" d="M258.842,637.623 L258.842,645.342 C258.842,648.082 258.972,650.264 259.232,651.889 C261.378,650.066 262.909,648.701 263.826,647.795 C264.868,646.753 265.909,645.319 266.951,643.49 C267.993,641.662 268.514,639.837 268.514,638.014 C268.514,636.191 268.123,634.628 267.342,633.326 C266.56,632.024 265.519,631.373 264.217,631.373 C262.654,631.373 261.352,631.962 260.31,633.139 C259.331,634.441 258.842,635.936 258.842,637.623 M254.732,655.498 L253.467,596.029 C254.383,595.509 255.297,595.248 256.209,595.248 C257.12,595.248 258.029,595.509 258.935,596.029 L258.154,630.498 C260.821,628.217 263.883,627.076 267.342,627.076 C269.873,627.076 271.985,628.118 273.678,630.201 C275.37,632.285 276.217,634.665 276.217,637.342 C276.217,639.029 275.665,640.821 274.56,642.717 C273.519,644.467 272.415,645.832 271.248,646.811 C270.592,647.332 268.93,648.634 266.264,650.717 C265.482,651.3 264.555,651.983 263.482,652.764 C262.409,653.545 261.743,654.035 261.482,654.233 C261.024,654.493 260.597,655.014 260.201,655.795 C259.753,656.451 259.232,657.003 258.639,657.451 C258.191,657.847 257.641,658.045 256.99,658.045 C256.339,658.045 255.816,657.816 255.42,657.358 C254.962,656.899 254.732,656.279 254.732,655.498"/>
<path class="TimeSig" d="M356.436,590.264 C356.436,590.92 356.795,591.54 357.514,592.123 C358.555,592.904 359.368,593.493 359.951,593.889 C360.732,594.337 361.55,595.378 362.404,597.014 C363.113,598.576 363.467,600.493 363.467,602.764 C363.467,607.264 361.811,610.717 358.498,613.123 C355.113,615.529 350.816,616.733 345.607,616.733 C341.368,616.733 337.784,615.691 334.857,613.608 C331.732,611.66 330.17,608.925 330.17,605.404 C330.17,603.717 330.821,602.154 332.123,600.717 C333.488,599.477 335.05,598.858 336.811,598.858 C338.633,598.858 340.133,599.509 341.311,600.811 C342.613,602.05 343.264,603.582 343.264,605.404 C343.264,606.248 342.613,607.16 341.311,608.139 C339.936,609.055 339.248,609.936 339.248,610.779 C339.248,612.019 339.868,612.93 341.107,613.514 C342.347,614.097 343.847,614.389 345.607,614.389 C347.878,614.389 349.503,613.285 350.482,611.076 C351.399,608.66 351.857,605.889 351.857,602.764 L351.857,601.108 C351.857,599.222 351.79,597.561 351.654,596.123 C351.529,595.019 351.076,594.014 350.295,593.108 C349.576,592.191 348.436,591.733 346.873,591.733 L338.857,591.733 C337.951,591.733 337.498,591.243 337.498,590.264 C337.498,589.42 337.951,588.93 338.857,588.795 L346.873,588.795 C348.696,588.795 349.998,588.212 350.779,587.045 C351.425,586.128 351.784,584.498 351.857,582.154 L351.857,578.936 L351.857,578.154 C351.857,572.102 349.644,569.076 345.217,569.076 C341.311,569.076 339.321,570.149 339.248,572.295 C339.248,573.014 339.868,573.795 341.107,574.639 C342.284,575.483 342.873,576.264 342.873,576.983 C342.873,578.608 342.284,580.009 341.107,581.186 C340.003,582.29 338.639,582.842 337.014,582.842 C335.451,582.842 334.113,582.29 332.998,581.186 C331.894,579.946 331.342,578.545 331.342,576.983 C331.342,573.92 332.712,571.415 335.451,569.467 C338.316,567.644 341.571,566.733 345.217,566.733 C350.092,566.733 354.128,567.675 357.326,569.561 C360.514,571.384 362.107,574.248 362.107,578.154 C362.107,580.957 361.816,583.071 361.232,584.498 C360.639,585.998 359.988,586.91 359.279,587.233 C358.498,587.566 357.847,587.957 357.326,588.404 C356.732,588.863 356.436,589.483 356.436,590.264"/>
<path class="TimeSig" d="M349.217,618.084 C351.165,618.084 352.824,617.858 354.193,617.404 C355.563,616.951 356.441,616.725 356.826,616.725 C357.284,616.725 357.644,616.855 357.904,617.115 C358.102,617.303 358.232,617.527 358.295,617.787 C358.295,617.923 358.227,618.121 358.092,618.381 L329.686,651.397 L346.373,651.397 L346.373,638.303 C346.373,637.459 346.602,636.74 347.061,636.147 C347.842,635.501 348.493,635.11 349.014,634.975 C349.857,634.589 350.899,633.678 352.139,632.24 C353.18,631.074 354.42,629.027 355.857,626.1 C356.045,625.704 356.337,625.506 356.732,625.506 C357.514,625.506 357.967,625.964 358.092,626.881 L358.092,651.397 L365.232,651.397 C366.139,651.397 366.659,651.881 366.795,652.85 C366.795,653.829 366.274,654.319 365.232,654.319 L358.092,654.319 L358.092,655.1 C358.092,657.704 358.743,659.917 360.045,661.74 C361.545,663.563 363.305,664.475 365.326,664.475 C366.107,664.475 366.498,664.865 366.498,665.647 C366.498,666.428 366.107,666.819 365.326,666.819 C363.962,666.819 361.748,666.626 358.686,666.24 C355.883,665.782 353.701,665.553 352.139,665.553 C350.514,665.553 348.331,665.782 345.592,666.24 C342.665,666.626 340.488,666.819 339.061,666.819 C338.279,666.819 337.889,666.428 337.889,665.647 C337.889,664.865 338.279,664.475 339.061,664.475 C341.071,664.475 342.826,663.563 344.326,661.74 C345.691,659.855 346.373,657.641 346.373,655.1 L346.373,654.319 L329.686,654.319 C328.571,654.319 327.79,654.058 327.342,653.537 C326.811,653.152 326.545,652.631 326.545,651.975 C326.545,651.777 327.034,651.095 328.014,649.928 C329.128,648.626 330.3,647.032 331.529,645.147 C332.967,642.928 334.337,640.647 335.639,638.303 C337.066,635.636 338.206,632.574 339.061,629.115 C340.029,625.605 340.514,622.027 340.514,618.381 C340.514,617.339 340.972,616.819 341.889,616.819 C342.087,616.819 342.508,616.917 343.154,617.115 C343.352,617.178 343.761,617.274 344.381,617.404 C345.001,617.535 345.503,617.662 345.889,617.787 C347.066,617.985 348.175,618.084 349.217,618.084"/>
<path class="Rest" d="M1323.58,608.92 C1323.58,607.743 1324.24,606.441 1325.55,605.014 C1326.52,603.972 1327.95,602.733 1329.85,601.295 C1331.28,600.326 1332.67,598.863 1334.04,596.904 C1335.34,595.019 1335.99,592.967 1335.99,590.748 C1335.99,588.144 1335.15,585.837 1333.46,583.826 L1329.94,579.623 C1329.68,579.363 1329.55,579.037 1329.55,578.647 C1329.55,578.256 1329.74,577.899 1330.13,577.576 C1330.59,577.243 1330.98,577.076 1331.3,577.076 C1331.76,577.076 1332.12,577.274 1332.38,577.67 L1347.52,595.639 C1348.17,596.483 1348.49,597.326 1348.49,598.17 C1348.49,599.347 1347.84,600.649 1346.54,602.076 C1345.69,602.993 1344.3,604.233 1342.35,605.795 C1340.85,606.701 1339.42,608.165 1338.05,610.186 C1336.75,612.071 1336.1,614.123 1336.1,616.342 C1336.1,619.082 1336.88,621.394 1338.44,623.279 L1346.83,633.139 C1347.03,633.337 1347.19,633.665 1347.32,634.123 C1347.32,634.571 1347.16,634.962 1346.83,635.295 C1346.37,635.618 1345.98,635.779 1345.66,635.779 C1345.54,635.779 1345.02,635.42 1344.1,634.701 C1343.12,633.92 1341.82,633.17 1340.19,632.451 C1338.37,631.743 1336.58,631.389 1334.82,631.389 C1333.19,631.389 1331.86,631.842 1330.82,632.748 C1329.91,633.665 1329.46,635.425 1329.46,638.029 C1329.46,641.998 1330.4,645.123 1332.29,647.404 C1332.48,647.665 1332.52,647.988 1332.38,648.373 C1332.26,648.634 1332.03,648.764 1331.69,648.764 C1331.24,648.764 1330.24,647.592 1328.68,645.248 C1327.04,642.779 1325.51,639.946 1324.08,636.748 C1322.58,633.363 1321.83,630.566 1321.83,628.358 C1321.83,625.555 1323.17,624.154 1325.83,624.154 C1328.9,624.154 1332.87,625.196 1337.76,627.279 L1324.57,611.451 C1323.91,610.608 1323.58,609.764 1323.58,608.92"/>
<path class="Articulation" d="M434.877,519.967 C434.877,521.144 434.291,521.733 433.119,521.733 C431.947,521.733 431.361,521.144 431.361,519.967 L416.908,471.92 C416.846,471.795 416.814,471.571 416.814,471.248 C416.814,470.269 417.434,469.779 418.674,469.779 C419.58,469.779 420.132,470.17 420.33,470.951 L433.127,513.623 L445.924,470.951 C446.111,470.17 446.663,469.779 447.58,469.779 C448.82,469.779 449.439,470.269 449.439,471.248 C449.439,471.571 449.403,471.795 449.33,471.92 L434.877,519.967 "/>
</svg>
