<?xml version="1.0" encoding="UTF-8" standalone="no"?>
<svg width="2977.2px" height="4208.4px" viewBox="0 0 2977.2 4208.4"
 xmlns="http://www.w3.org/2000/svg" xmlns:xlink="http://www.w3.org/1999/xlink" version="1.2" baseProfile="tiny">
<title>13-allegretto</title>
<desc>Generated by MuseScore 3.4.2</desc>
<polyline class="StaffLines" fill="none" stroke="#000000" stroke-width="2.00" stroke-linejoin="bevel" points="141.732,566.733 2835.47,566.733"/>
<polyline class="StaffLines" fill="none" stroke="#000000" stroke-width="2.00" stroke-linejoin="bevel" points="141.732,591.733 2835.47,591.733"/>
<polyline class="StaffLines" fill="none" stroke="#000000" stroke-width="2.00" stroke-linejoin="bevel" points="141.732,616.733 2835.47,616.733"/>
<polyline class="StaffLines" fill="none" stroke="#000000" stroke-width="2.00" stroke-linejoin="bevel" points="141.732,641.733 2835.47,641.733"/>
<polyline class="StaffLines" fill="none" stroke="#000000" stroke-width="2.00" stroke-linejoin="bevel" points="141.732,666.733 2835.47,666.733"/>
<polyline class="StaffLines" fill="none" stroke="#000000" stroke-width="2.00" stroke-linejoin="bevel" points="141.732,1041.73 2835.47,1041.73"/>
<polyline class="StaffLines" fill="none" stroke="#000000" stroke-width="2.00" stroke-linejoin="bevel" points="141.732,1066.73 2835.47,1066.73"/>
<polyline class="StaffLines" fill="none" stroke="#000000" stroke-width="2.00" stroke-linejoin="bevel" points="141.732,1091.73 2835.47,1091.73"/>
<polyline class="StaffLines" fill="none" stroke="#000000" stroke-width="2.00" stroke-linejoin="bevel" points="141.732,1116.73 2835.47,1116.73"/>
<polyline class="StaffLines" fill="none" stroke="#000000" stroke-width="2.00" stroke-linejoin="bevel" points="141.732,1141.73 2835.47,1141.73"/>
<polyline class="StaffLines" fill="none" stroke="#000000" stroke-width="2.00" stroke-linejoin="bevel" points="141.732,1516.73 2835.47,1516.73"/>
<polyline class="StaffLines" fill="none" stroke="#000000" stroke-width="2.00" stroke-linejoin="bevel" points="141.732,1541.73 2835.47,1541.73"/>
<polyline class="StaffLines" fill="none" stroke="#000000" stroke-width="2.00" stroke-linejoin="bevel" points="141.732,1566.73 2835.47,1566.73"/>
<polyline class="StaffLines" fill="none" stroke="#000000" stroke-width="2.00" stroke-linejoin="bevel" points="141.732,1591.73 2835.47,1591.73"/>
<polyline class="StaffLines" fill="none" stroke="#000000" stroke-width="2.00" stroke-linejoin="bevel" points="141.732,1616.73 2835.47,1616.73"/>
<path class="Text" d="M1191.04,152.576 C1189.61,152.576 1186.73,153.456 1182.4,155.217 L1182.4,153.529 L1204.01,142.623 L1204.97,142.857 L1204.97,214.857 C1204.97,217.732 1205.69,219.61 1207.13,220.49 C1208.57,221.37 1211.65,221.852 1216.37,221.935 L1216.37,223.732 L1183.25,223.732 L1183.25,221.935 C1187.73,221.769 1190.75,221.107 1192.31,219.951 C1193.87,218.795 1194.65,216.336 1194.65,212.576 L1194.65,158.217 C1194.65,154.456 1193.45,152.576 1191.04,152.576 M1238.81,214.373 C1240.65,214.373 1243.4,215.454 1247.04,217.615 C1250.68,219.777 1253.86,220.857 1256.58,220.857 C1260.97,220.857 1264.69,219.149 1267.73,215.732 C1270.77,212.316 1272.29,208.102 1272.29,203.092 C1272.29,199.987 1271.75,197.243 1270.67,194.857 C1269.59,192.472 1268.21,190.626 1266.53,189.318 C1264.85,188.011 1262.85,186.941 1260.53,186.107 C1258.21,185.274 1256.03,184.737 1253.99,184.498 C1251.95,184.258 1249.77,184.139 1247.45,184.139 L1247.45,182.576 C1250.17,181.618 1252.51,180.678 1254.47,179.756 C1256.42,178.834 1258.48,177.594 1260.65,176.037 C1262.81,174.48 1264.47,172.581 1265.63,170.342 C1266.79,168.102 1267.37,165.54 1267.37,162.654 C1267.37,158.894 1266.15,155.813 1263.71,153.412 C1261.27,151.011 1258.09,149.81 1254.17,149.81 C1250.41,149.81 1247.11,150.831 1244.27,152.873 C1241.43,154.915 1238.77,158.133 1236.29,162.529 L1234.5,162.06 C1236.57,156.373 1239.39,151.711 1242.95,148.076 C1246.51,144.441 1251.57,142.623 1258.12,142.623 C1263.64,142.623 1268.15,144.141 1271.63,147.178 C1275.12,150.214 1276.86,154.175 1276.86,159.06 C1276.86,162.342 1276.02,165.222 1274.33,167.701 C1272.65,170.18 1269.73,172.816 1265.58,175.607 C1270.37,177.68 1274.13,180.331 1276.85,183.56 C1279.57,186.79 1280.94,191.394 1280.94,197.373 C1280.94,205.873 1277.79,212.672 1271.51,217.771 C1265.23,222.87 1257.33,225.42 1247.81,225.42 C1243.65,225.42 1240.35,224.797 1237.91,223.553 C1235.47,222.308 1234.25,220.649 1234.25,218.576 C1234.25,217.295 1234.67,216.274 1235.51,215.514 C1236.36,214.753 1237.46,214.373 1238.81,214.373 M1403.81,221.451 L1403.81,223.732 L1373.22,223.732 L1373.22,221.451 C1376.41,221.368 1378.61,221.047 1379.81,220.49 C1381.01,219.933 1381.61,218.894 1381.61,217.373 C1381.61,215.456 1380.85,212.774 1379.33,209.326 L1374.4,197.81 L1342.97,197.81 L1337.45,211.857 C1336.82,213.534 1336.5,215.092 1336.5,216.529 C1336.5,219.81 1339.22,221.451 1344.65,221.451 L1344.65,223.732 L1320.89,223.732 L1320.89,221.451 C1323.85,221.295 1326.15,220.157 1327.79,218.037 C1329.43,215.917 1332.09,210.498 1335.76,201.779 L1360.73,142.857 L1363.12,142.857 L1393.01,211.014 C1394.93,215.409 1396.53,218.209 1397.81,219.412 C1399.09,220.615 1401.09,221.295 1403.81,221.451 M1345.01,192.889 L1372.73,192.889 L1358.81,159.889 L1345.01,192.889 M1407.29,148.982 L1407.29,147.06 C1415.21,145.133 1421.57,143.373 1426.37,141.779 L1426.86,142.014 L1426.86,213.654 C1426.86,216.935 1427.4,219.076 1428.47,220.076 C1429.55,221.076 1432.01,221.696 1435.86,221.935 L1435.86,223.732 L1407.53,223.732 L1407.53,221.935 C1411.29,221.612 1413.77,220.891 1414.97,219.771 C1416.16,218.652 1416.76,216.493 1416.76,213.295 L1416.76,156.06 C1416.76,153.258 1416.4,151.336 1415.69,150.295 C1414.97,149.253 1413.65,148.732 1411.73,148.732 C1410.13,148.732 1408.65,148.816 1407.29,148.982 M1438.29,148.982 L1438.29,147.06 C1446.21,145.133 1452.57,143.373 1457.37,141.779 L1457.86,142.014 L1457.86,213.654 C1457.86,216.935 1458.4,219.076 1459.47,220.076 C1460.55,221.076 1463.01,221.696 1466.86,221.935 L1466.86,223.732 L1438.53,223.732 L1438.53,221.935 C1442.29,221.612 1444.77,220.891 1445.97,219.771 C1447.16,218.652 1447.76,216.493 1447.76,213.295 L1447.76,156.06 C1447.76,153.258 1447.4,151.336 1446.69,150.295 C1445.97,149.253 1444.65,148.732 1442.73,148.732 C1441.13,148.732 1439.65,148.816 1438.29,148.982 M1479.73,190.498 C1479.89,195.54 1480.57,199.878 1481.77,203.514 C1482.97,207.149 1484.53,209.868 1486.45,211.67 C1488.37,213.472 1490.31,214.753 1492.27,215.514 C1494.23,216.274 1496.29,216.654 1498.45,216.654 C1502.29,216.654 1505.64,215.693 1508.47,213.771 C1511.31,211.849 1514.17,208.612 1517.04,204.06 L1518.97,204.889 C1516.49,211.368 1513.05,216.329 1508.65,219.771 C1504.25,223.214 1499.21,224.935 1493.53,224.935 C1486.65,224.935 1481.2,222.516 1477.15,217.678 C1473.11,212.839 1471.09,206.3 1471.09,198.06 C1471.09,189.175 1473.43,182.032 1478.12,176.631 C1482.8,171.23 1488.82,168.529 1496.17,168.529 C1502.25,168.529 1506.97,170.349 1510.33,173.99 C1513.69,177.631 1515.81,183.133 1516.69,190.498 L1479.73,190.498 M1479.97,186.889 L1504.45,186.889 C1503.65,181.691 1502.41,178.092 1500.73,176.092 C1499.06,174.092 1496.37,173.092 1492.69,173.092 C1485.49,173.092 1481.25,177.691 1479.97,186.889 M1528.29,217.248 C1528.29,215.727 1528.83,214.329 1529.91,213.053 C1530.99,211.777 1534.01,208.816 1538.97,204.17 C1534.97,202.159 1532.11,199.909 1530.39,197.42 C1528.67,194.93 1527.81,191.8 1527.81,188.029 C1527.81,182.602 1529.75,177.995 1533.63,174.209 C1537.51,170.422 1542.25,168.529 1547.86,168.529 C1550.97,168.529 1554.31,169.191 1557.87,170.514 C1561.44,171.836 1564.37,172.498 1566.69,172.498 L1575.94,172.498 L1575.94,177.06 L1565.97,177.06 C1567.49,180.508 1568.25,183.883 1568.25,187.185 C1568.25,192.727 1566.39,197.224 1562.67,200.678 C1558.95,204.131 1554.57,205.857 1549.53,205.857 C1548.57,205.857 1546.29,205.654 1542.69,205.248 C1541.09,205.727 1539.5,206.808 1537.9,208.49 C1536.3,210.172 1535.5,211.612 1535.5,212.81 C1535.5,214.727 1538.62,215.805 1544.86,216.045 L1560.33,216.779 C1564.73,216.935 1568.26,218.172 1570.9,220.49 C1573.54,222.808 1574.86,225.847 1574.86,229.607 C1574.86,235.368 1571.56,240.188 1564.95,244.068 C1558.35,247.948 1551.25,249.889 1543.65,249.889 C1537.98,249.889 1533.1,248.748 1529.01,246.467 C1524.93,244.185 1522.89,241.446 1522.89,238.248 C1522.89,236.008 1523.79,233.79 1525.59,231.592 C1527.39,229.394 1530.41,226.732 1534.65,223.607 C1532.17,222.409 1530.5,221.37 1529.62,220.49 C1528.73,219.61 1528.29,218.529 1528.29,217.248 M1537.17,223.967 C1534.69,226.935 1533.09,229.058 1532.37,230.334 C1531.65,231.61 1531.29,232.93 1531.29,234.295 C1531.29,236.93 1532.89,239.047 1536.09,240.646 C1539.29,242.245 1543.53,243.045 1548.81,243.045 C1555.61,243.045 1561.09,241.967 1565.25,239.81 C1569.4,237.654 1571.48,234.857 1571.48,231.42 C1571.48,229.253 1570.36,227.73 1568.12,226.849 C1565.88,225.969 1562.04,225.529 1556.61,225.529 C1548.53,225.529 1542.06,225.008 1537.17,223.967 M1559.01,191.889 C1559.01,190.545 1558.85,188.928 1558.53,187.037 C1558.21,185.146 1557.65,182.998 1556.85,180.592 C1556.05,178.185 1554.77,176.175 1553.01,174.56 C1551.25,172.946 1549.13,172.139 1546.65,172.139 C1543.85,172.139 1541.67,173.107 1540.11,175.045 C1538.54,176.982 1537.76,179.659 1537.76,183.076 C1537.76,189.993 1539.04,195.019 1541.61,198.154 C1544.17,201.29 1546.97,202.857 1550.01,202.857 C1552.82,202.857 1555.02,201.873 1556.62,199.904 C1558.21,197.935 1559.01,195.264 1559.01,191.889 M1613.22,180.295 C1612.01,180.295 1610.52,179.594 1608.76,178.193 C1607,176.792 1605.85,176.092 1605.29,176.092 C1603.69,176.092 1601.89,177.253 1599.89,179.576 C1597.89,181.899 1596.89,184.019 1596.89,185.935 L1596.89,212.935 C1596.89,216.373 1597.57,218.691 1598.93,219.889 C1600.29,221.086 1603.01,221.769 1607.09,221.935 L1607.09,223.732 L1578.29,223.732 L1578.29,221.935 C1582.13,221.217 1584.51,220.417 1585.43,219.537 C1586.35,218.657 1586.81,216.696 1586.81,213.654 L1586.81,183.654 C1586.81,181.019 1586.51,179.159 1585.91,178.076 C1585.31,176.993 1584.25,176.451 1582.73,176.451 C1581.45,176.451 1580.05,176.612 1578.53,176.935 L1578.53,175.014 C1584.94,172.93 1590.86,170.769 1596.29,168.529 L1596.89,168.779 L1596.89,179.81 C1599.85,175.571 1602.37,172.631 1604.45,170.99 C1606.53,169.349 1608.82,168.529 1611.29,168.529 C1613.37,168.529 1614.98,169.089 1616.15,170.209 C1617.31,171.329 1617.89,172.889 1617.89,174.889 C1617.89,176.576 1617.47,177.899 1616.63,178.857 C1615.79,179.816 1614.65,180.295 1613.22,180.295 M1629.73,190.498 C1629.89,195.54 1630.57,199.878 1631.77,203.514 C1632.97,207.149 1634.53,209.868 1636.45,211.67 C1638.37,213.472 1640.31,214.753 1642.27,215.514 C1644.23,216.274 1646.29,216.654 1648.45,216.654 C1652.29,216.654 1655.64,215.693 1658.47,213.771 C1661.31,211.849 1664.17,208.612 1667.04,204.06 L1668.97,204.889 C1666.49,211.368 1663.05,216.329 1658.65,219.771 C1654.25,223.214 1649.21,224.935 1643.53,224.935 C1636.65,224.935 1631.2,222.516 1627.15,217.678 C1623.11,212.839 1621.09,206.3 1621.09,198.06 C1621.09,189.175 1623.43,182.032 1628.12,176.631 C1632.8,171.23 1638.82,168.529 1646.17,168.529 C1652.25,168.529 1656.97,170.349 1660.33,173.99 C1663.69,177.631 1665.81,183.133 1666.69,190.498 L1629.73,190.498 M1629.97,186.889 L1654.45,186.889 C1653.65,181.691 1652.41,178.092 1650.73,176.092 C1649.06,174.092 1646.37,173.092 1642.69,173.092 C1635.49,173.092 1631.25,177.691 1629.97,186.889 M1702.17,169.732 L1702.17,173.342 L1690.04,173.342 L1690.04,207.654 C1690.04,211.415 1690.53,214.154 1691.49,215.873 C1692.45,217.592 1694.06,218.451 1696.29,218.451 C1698.77,218.451 1701.17,217.05 1703.5,214.248 L1705.04,215.576 C1701.21,221.816 1696.41,224.935 1690.65,224.935 C1683.53,224.935 1679.97,219.831 1679.97,209.623 L1679.97,173.342 L1673.61,173.342 C1673.29,173.112 1673.14,172.847 1673.14,172.545 C1673.14,172.17 1673.26,171.87 1673.5,171.646 C1673.74,171.422 1674.2,171.105 1674.87,170.693 C1675.55,170.282 1676.37,169.691 1677.33,168.92 C1678.3,168.149 1679.62,166.751 1681.29,164.724 C1682.97,162.698 1684.81,160.264 1686.81,157.42 C1688.09,155.555 1688.89,154.42 1689.22,154.014 C1689.77,154.014 1690.04,154.54 1690.04,155.592 L1690.04,169.732 L1702.17,169.732 M1736.17,169.732 L1736.17,173.342 L1724.04,173.342 L1724.04,207.654 C1724.04,211.415 1724.53,214.154 1725.49,215.873 C1726.45,217.592 1728.06,218.451 1730.29,218.451 C1732.77,218.451 1735.17,217.05 1737.5,214.248 L1739.04,215.576 C1735.21,221.816 1730.41,224.935 1724.65,224.935 C1717.53,224.935 1713.97,219.831 1713.97,209.623 L1713.97,173.342 L1707.61,173.342 C1707.29,173.112 1707.14,172.847 1707.14,172.545 C1707.14,172.17 1707.26,171.87 1707.5,171.646 C1707.74,171.422 1708.2,171.105 1708.87,170.693 C1709.55,170.282 1710.37,169.691 1711.33,168.92 C1712.3,168.149 1713.62,166.751 1715.29,164.724 C1716.97,162.698 1718.81,160.264 1720.81,157.42 C1722.09,155.555 1722.89,154.42 1723.22,154.014 C1723.77,154.014 1724.04,154.54 1724.04,155.592 L1724.04,169.732 L1736.17,169.732 M1768.61,168.529 C1776.28,168.529 1782.6,171.092 1787.57,176.217 C1792.53,181.342 1795.01,187.826 1795.01,195.67 C1795.01,203.982 1792.45,210.938 1787.33,216.537 C1782.21,222.136 1775.89,224.935 1768.37,224.935 C1760.85,224.935 1754.59,222.235 1749.59,216.834 C1744.59,211.433 1742.09,204.696 1742.09,196.623 C1742.09,188.383 1744.55,181.641 1749.47,176.396 C1754.4,171.152 1760.77,168.529 1768.61,168.529 M1752.89,190.795 C1752.89,199.274 1754.45,206.482 1757.57,212.42 C1760.69,218.357 1764.77,221.326 1769.81,221.326 C1774.29,221.326 1777.81,219.425 1780.37,215.623 C1782.94,211.821 1784.22,206.555 1784.22,199.826 C1784.22,191.659 1782.62,185.003 1779.41,179.857 C1776.21,174.711 1772.09,172.139 1767.04,172.139 C1762.81,172.139 1759.39,173.842 1756.79,177.248 C1754.19,180.654 1752.89,185.17 1752.89,190.795"/>
<path class="Text" d="M1435.98,290.355 L1418.06,330.465 L1417.09,330.465 L1399.51,291.965 L1399.51,320.168 C1399.51,323.72 1399.93,326.066 1400.77,327.207 C1401.61,328.347 1403.38,328.991 1406.09,329.136 L1406.09,330.465 L1389.64,330.465 L1389.64,329.136 C1392.53,328.949 1394.39,328.306 1395.21,327.207 C1396.03,326.108 1396.44,323.761 1396.44,320.168 L1396.44,291.746 C1396.44,289.183 1396.05,287.54 1395.28,286.816 C1394.51,286.092 1392.67,285.636 1389.78,285.449 L1389.78,284.121 L1403.64,284.121 L1419.81,319.48 L1435.28,284.121 L1449.22,284.121 L1449.22,285.449 C1446.6,285.678 1444.93,286.168 1444.21,286.918 C1443.48,287.668 1443.12,289.277 1443.12,291.746 L1443.12,322.84 C1443.12,325.308 1443.5,326.928 1444.25,327.699 C1445,328.47 1446.65,328.949 1449.22,329.136 L1449.22,330.465 L1429.62,330.465 L1429.62,329.136 C1432.37,328.949 1434.12,328.446 1434.87,327.629 C1435.61,326.811 1435.98,324.954 1435.98,322.058 L1435.98,290.355 M1467.81,298.261 C1472.29,298.261 1475.98,299.756 1478.87,302.746 C1481.77,305.735 1483.22,309.517 1483.22,314.09 C1483.22,318.944 1481.72,323.004 1478.73,326.269 C1475.74,329.535 1472.06,331.168 1467.67,331.168 C1463.28,331.168 1459.63,329.592 1456.72,326.441 C1453.8,323.29 1452.34,319.355 1452.34,314.636 C1452.34,309.834 1453.78,305.905 1456.65,302.847 C1459.52,299.79 1463.24,298.261 1467.81,298.261 M1458.64,311.246 C1458.64,316.194 1459.55,320.399 1461.37,323.863 C1463.2,327.327 1465.58,329.058 1468.51,329.058 C1471.13,329.058 1473.18,327.949 1474.68,325.73 C1476.17,323.511 1476.92,320.439 1476.92,316.511 C1476.92,311.751 1475.98,307.868 1474.12,304.863 C1472.25,301.858 1469.84,300.355 1466.9,300.355 C1464.42,300.355 1462.43,301.35 1460.91,303.34 C1459.4,305.329 1458.64,307.965 1458.64,311.246 M1502.45,328.371 C1504.26,328.371 1505.71,328.254 1506.78,328.019 C1507.85,327.785 1508.69,327.269 1509.3,326.472 C1509.91,325.676 1510.33,324.928 1510.57,324.23 C1510.8,323.532 1511.08,322.366 1511.4,320.73 L1512.67,321.011 L1511.69,330.465 L1485.29,330.465 L1485.29,329.418 L1503.92,301.058 L1494.25,301.058 C1492.15,301.058 1490.73,301.444 1489.98,302.215 C1489.23,302.985 1488.7,304.652 1488.37,307.215 L1487.11,307.215 L1487.33,298.965 L1511.61,298.965 L1511.61,300.011 L1492.78,328.371 L1502.45,328.371 M1515.34,323.558 C1515.34,322.715 1515.44,321.933 1515.62,321.215 C1515.81,320.496 1516.14,319.824 1516.6,319.199 C1517.06,318.574 1517.51,318.006 1517.93,317.496 C1518.35,316.985 1518.98,316.462 1519.82,315.926 C1520.66,315.389 1521.36,314.946 1521.92,314.597 C1522.48,314.248 1523.33,313.832 1524.47,313.347 C1525.62,312.863 1526.49,312.493 1527.1,312.238 C1527.71,311.983 1528.67,311.6 1529.97,311.09 C1531.28,310.579 1532.24,310.204 1532.84,309.965 L1532.84,305.73 C1532.84,301.876 1531.07,299.949 1527.53,299.949 C1526.12,299.949 1524.93,300.285 1523.95,300.957 C1522.97,301.629 1522.48,302.433 1522.48,303.371 C1522.48,303.746 1522.54,304.259 1522.65,304.91 C1522.77,305.561 1522.83,305.98 1522.83,306.168 C1522.83,306.959 1522.51,307.647 1521.88,308.23 C1521.25,308.814 1520.52,309.105 1519.69,309.105 C1518.89,309.105 1518.19,308.803 1517.58,308.199 C1516.97,307.595 1516.67,306.897 1516.67,306.105 C1516.67,303.907 1517.8,302.051 1520.07,300.535 C1522.33,299.019 1525.12,298.261 1528.44,298.261 C1532.26,298.261 1534.89,299.178 1536.34,301.011 C1537.79,302.845 1538.51,305.647 1538.51,309.418 L1538.51,322.996 C1538.51,324.527 1538.66,325.582 1538.97,326.16 C1539.27,326.738 1539.82,327.027 1540.61,327.027 C1541.6,327.027 1542.63,326.59 1543.7,325.715 L1543.7,327.543 C1542.48,328.939 1541.42,329.892 1540.51,330.402 C1539.59,330.912 1538.56,331.168 1537.39,331.168 C1535.94,331.168 1534.88,330.759 1534.21,329.941 C1533.54,329.123 1533.11,327.782 1532.92,325.918 C1528.9,329.418 1525.49,331.168 1522.69,331.168 C1520.54,331.168 1518.78,330.457 1517.4,329.035 C1516.03,327.613 1515.34,325.787 1515.34,323.558 M1532.84,321.746 L1532.84,311.636 C1528.64,313.168 1525.7,314.655 1524.02,316.097 C1522.34,317.54 1521.5,319.282 1521.5,321.324 C1521.5,323.23 1521.97,324.647 1522.9,325.574 C1523.84,326.501 1524.85,326.965 1525.92,326.965 C1527.5,326.965 1529.21,326.428 1531.03,325.355 C1531.77,324.939 1532.26,324.498 1532.49,324.035 C1532.72,323.571 1532.84,322.808 1532.84,321.746 M1564.67,305.121 C1563.96,305.121 1563.09,304.712 1562.07,303.894 C1561.04,303.077 1560.37,302.668 1560.04,302.668 C1559.11,302.668 1558.06,303.345 1556.89,304.699 C1555.72,306.053 1555.14,307.293 1555.14,308.418 L1555.14,324.168 C1555.14,326.168 1555.54,327.519 1556.33,328.222 C1557.13,328.926 1558.72,329.324 1561.09,329.418 L1561.09,330.465 L1544.29,330.465 L1544.29,329.418 C1546.53,328.991 1547.92,328.522 1548.46,328.011 C1549,327.501 1549.26,326.36 1549.26,324.59 L1549.26,307.09 C1549.26,305.548 1549.09,304.462 1548.74,303.832 C1548.39,303.202 1547.77,302.886 1546.89,302.886 C1546.14,302.886 1545.32,302.98 1544.44,303.168 L1544.44,302.043 C1548.16,300.824 1551.62,299.564 1554.79,298.261 L1555.14,298.402 L1555.14,304.84 C1556.87,302.371 1558.34,300.657 1559.55,299.699 C1560.77,298.741 1562.1,298.261 1563.54,298.261 C1564.75,298.261 1565.7,298.587 1566.37,299.238 C1567.05,299.889 1567.39,300.798 1567.39,301.965 C1567.39,302.954 1567.14,303.728 1566.65,304.285 C1566.16,304.842 1565.5,305.121 1564.67,305.121 M1585.72,298.965 L1585.72,301.058 L1578.65,301.058 L1578.65,321.09 C1578.65,323.277 1578.93,324.873 1579.49,325.879 C1580.05,326.884 1580.98,327.386 1582.29,327.386 C1583.74,327.386 1585.14,326.569 1586.5,324.933 L1587.4,325.699 C1585.16,329.345 1582.36,331.168 1579,331.168 C1574.85,331.168 1572.78,328.189 1572.78,322.23 L1572.78,301.058 L1569.06,301.058 C1568.87,300.933 1568.78,300.782 1568.78,300.605 C1568.78,300.386 1568.85,300.212 1568.99,300.082 C1569.13,299.952 1569.4,299.764 1569.79,299.519 C1570.19,299.274 1570.67,298.928 1571.23,298.48 C1571.79,298.032 1572.57,297.217 1573.54,296.035 C1574.52,294.853 1575.6,293.433 1576.76,291.777 C1577.51,290.694 1577.98,290.032 1578.17,289.793 C1578.49,289.793 1578.65,290.1 1578.65,290.715 L1578.65,298.965 L1585.72,298.965 "/>
<path class="MeasureNumber" d="M142.045,992.295 C139.357,992.295 137.193,991.22 135.553,989.069 C133.912,986.918 133.092,984.077 133.092,980.545 C133.092,979.462 133.198,978.34 133.412,977.178 C133.626,976.017 134.092,974.699 134.81,973.225 C135.529,971.751 136.461,970.428 137.607,969.256 C138.753,968.084 140.36,967.038 142.428,966.116 C144.495,965.194 146.878,964.613 149.576,964.373 L149.654,965.014 C146.508,965.524 143.881,966.801 141.771,968.842 C139.662,970.884 138.342,973.41 137.81,976.42 C139.06,975.702 140.006,975.235 140.646,975.022 C141.287,974.808 142.05,974.702 142.935,974.702 C145.227,974.702 147.053,975.444 148.412,976.928 C149.771,978.413 150.451,980.415 150.451,982.936 C150.451,985.696 149.67,987.946 148.107,989.686 C146.545,991.426 144.524,992.295 142.045,992.295 M141.404,976.452 C139.592,976.452 138.373,976.85 137.748,977.647 C137.123,978.444 136.81,979.623 136.81,981.186 C136.81,984.259 137.318,986.678 138.334,988.444 C139.349,990.209 140.737,991.092 142.498,991.092 C143.904,991.092 144.982,990.501 145.732,989.319 C146.482,988.136 146.857,986.462 146.857,984.295 C146.857,981.795 146.383,979.863 145.435,978.498 C144.487,977.134 143.144,976.452 141.404,976.452"/>
<path class="MeasureNumber" d="M129.045,1443.01 C128.566,1443.01 127.607,1443.31 126.17,1443.89 L126.17,1443.34 L133.373,1439.7 L133.685,1439.78 L133.685,1463.78 C133.685,1464.74 133.925,1465.36 134.404,1465.65 C134.883,1465.95 135.909,1466.11 137.482,1466.14 L137.482,1466.73 L126.451,1466.73 L126.451,1466.14 C127.941,1466.08 128.946,1465.85 129.467,1465.47 C129.987,1465.08 130.248,1464.26 130.248,1463.01 L130.248,1444.89 C130.248,1443.64 129.847,1443.01 129.045,1443.01 M149.045,1443.01 C148.566,1443.01 147.607,1443.31 146.17,1443.89 L146.17,1443.34 L153.373,1439.7 L153.685,1439.78 L153.685,1463.78 C153.685,1464.74 153.925,1465.36 154.404,1465.65 C154.883,1465.95 155.909,1466.11 157.482,1466.14 L157.482,1466.73 L146.451,1466.73 L146.451,1466.14 C147.941,1466.08 148.946,1465.85 149.467,1465.47 C149.987,1465.08 150.248,1464.26 150.248,1463.01 L150.248,1444.89 C150.248,1443.64 149.847,1443.01 149.045,1443.01"/>
<path class="SlurSegment" stroke="#000000" stroke-width="1.75" stroke-linecap="round" stroke-linejoin="round" fill-rule="evenodd" d="M617.288,664.233 C645.375,707.075 718.671,725.825 763.881,701.733 C717.68,729.701 644.383,710.951 617.288,664.233"/>
<path class="SlurSegment" stroke="#000000" stroke-width="1.75" stroke-linecap="round" stroke-linejoin="round" fill-rule="evenodd" d="M1512.78,594.233 C1552.66,559.559 1625.95,565.809 1659.38,606.733 C1625.61,569.794 1552.32,563.544 1512.78,594.233"/>
<path class="SlurSegment" stroke="#000000" stroke-width="1.75" stroke-linecap="round" stroke-linejoin="round" fill-rule="evenodd" d="M2554.74,556.733 C2588.16,515.809 2661.46,509.559 2701.33,544.233 C2661.8,513.544 2588.5,519.794 2554.74,556.733"/>
<path class="SlurSegment" stroke="#000000" stroke-width="1.75" stroke-linecap="round" stroke-linejoin="round" fill-rule="evenodd" d="M825.767,1031.73 C854.278,1005.53 903.915,1011.78 925.04,1044.23 C903.415,1015.74 853.779,1009.49 825.767,1031.73"/>
<path class="SlurSegment" stroke="#000000" stroke-width="1.75" stroke-linecap="round" stroke-linejoin="round" fill-rule="evenodd" d="M1024.31,1056.73 C1052.83,1030.53 1102.46,1036.78 1123.59,1069.23 C1101.96,1040.74 1052.33,1034.49 1024.31,1056.73"/>
<path class="SlurSegment" stroke="#000000" stroke-width="1.75" stroke-linecap="round" stroke-linejoin="round" fill-rule="evenodd" d="M1222.86,1126.73 C1244.49,1155.22 1294.12,1161.47 1322.13,1139.23 C1293.62,1165.44 1243.99,1159.19 1222.86,1126.73"/>
<path class="SlurSegment" stroke="#000000" stroke-width="1.75" stroke-linecap="round" stroke-linejoin="round" fill-rule="evenodd" d="M1939.93,1139.23 C1969.89,1183.08 2046.64,1201.83 2093.44,1176.73 C2045.7,1205.72 1968.94,1186.97 1939.93,1139.23"/>
<path class="SlurSegment" stroke="#000000" stroke-width="1.75" stroke-linecap="round" stroke-linejoin="round" fill-rule="evenodd" d="M380.377,1544.23 C419.053,1510.31 489.865,1516.56 522.001,1556.73 C489.514,1520.54 418.701,1514.29 380.377,1544.23"/>
<polyline class="BarLine" stroke="#000000" stroke-width="4.00" stroke-linejoin="bevel" points="573.831,565.733 573.831,667.733"/>
<polyline class="BarLine" stroke="#000000" stroke-width="4.00" stroke-linejoin="bevel" points="1042.61,565.733 1042.61,667.733"/>
<polyline class="BarLine" stroke="#000000" stroke-width="4.00" stroke-linejoin="bevel" points="1469.33,565.733 1469.33,667.733"/>
<polyline class="BarLine" stroke="#000000" stroke-width="4.00" stroke-linejoin="bevel" points="1938.11,565.733 1938.11,667.733"/>
<polyline class="BarLine" stroke="#000000" stroke-width="4.00" stroke-linejoin="bevel" points="2364.69,565.733 2364.69,667.733"/>
<polyline class="BarLine" stroke="#000000" stroke-width="4.00" stroke-linejoin="bevel" points="2833.47,565.733 2833.47,667.733"/>
<polyline class="BarLine" stroke="#000000" stroke-width="4.00" stroke-linejoin="bevel" points="782.309,1040.73 782.309,1142.73"/>
<polyline class="BarLine" stroke="#000000" stroke-width="4.00" stroke-linejoin="bevel" points="1406.95,1040.73 1406.95,1142.73"/>
<polyline class="BarLine" stroke="#000000" stroke-width="4.00" stroke-linejoin="bevel" points="1896.48,1040.73 1896.48,1142.73"/>
<polyline class="BarLine" stroke="#000000" stroke-width="4.00" stroke-linejoin="bevel" points="2386,1040.73 2386,1142.73"/>
<polyline class="BarLine" stroke="#000000" stroke-width="4.00" stroke-linejoin="bevel" points="2833.47,1040.73 2833.47,1142.73"/>
<polyline class="BarLine" stroke="#000000" stroke-width="4.00" stroke-linejoin="bevel" points="790.793,1515.73 790.793,1617.73"/>
<polyline class="BarLine" stroke="#000000" stroke-width="4.00" stroke-linejoin="bevel" points="1202.47,1515.73 1202.47,1617.73"/>
<polyline class="BarLine" stroke="#000000" stroke-width="4.00" stroke-linejoin="bevel" points="1614.15,1515.73 1614.15,1617.73"/>
<polyline class="BarLine" stroke="#000000" stroke-width="4.00" stroke-linejoin="bevel" points="2024.79,1515.73 2024.79,1617.73"/>
<polyline class="BarLine" stroke="#000000" stroke-width="4.00" stroke-linejoin="bevel" points="2523.7,1515.73 2523.7,1617.73"/>
<polyline class="BarLine" stroke="#000000" stroke-width="4.00" stroke-linejoin="bevel" points="2810.97,1515.73 2810.97,1617.73"/>
<polyline class="BarLine" stroke="#000000" stroke-width="12.50" stroke-linejoin="bevel" points="2829.22,1515.73 2829.22,1617.73"/>
<polyline class="Stem" stroke="#000000" stroke-width="3.25" stroke-linecap="round" stroke-linejoin="bevel" points="447.943,674.537 447.943,591.733"/>
<polyline class="Stem" stroke="#000000" stroke-width="3.25" stroke-linecap="round" stroke-linejoin="bevel" points="632.12,637.037 632.12,557.358"/>
<polyline class="Stem" stroke="#000000" stroke-width="3.25" stroke-linecap="round" stroke-linejoin="bevel" points="778.713,674.537 778.713,591.733"/>
<polyline class="Stem" stroke="#000000" stroke-width="3.25" stroke-linecap="round" stroke-linejoin="bevel" points="925.306,637.037 925.306,557.358"/>
<polyline class="Stem" stroke="#000000" stroke-width="3.25" stroke-linecap="round" stroke-linejoin="bevel" points="1102.7,637.893 1102.7,557.358"/>
<polyline class="Stem" stroke="#000000" stroke-width="3.25" stroke-linecap="round" stroke-linejoin="bevel" points="1346,637.037 1346,557.358"/>
<polyline class="Stem" stroke="#000000" stroke-width="3.25" stroke-linecap="round" stroke-linejoin="bevel" points="1497.95,621.428 1497.95,694.858"/>
<polyline class="Stem" stroke="#000000" stroke-width="3.25" stroke-linecap="round" stroke-linejoin="bevel" points="1674.21,637.037 1674.21,557.358"/>
<polyline class="Stem" stroke="#000000" stroke-width="3.25" stroke-linecap="round" stroke-linejoin="bevel" points="1791.14,621.428 1791.14,694.858"/>
<polyline class="Stem" stroke="#000000" stroke-width="3.25" stroke-linecap="round" stroke-linejoin="bevel" points="1967.63,620.653 1967.63,694.858"/>
<polyline class="Stem" stroke="#000000" stroke-width="3.25" stroke-linecap="round" stroke-linejoin="bevel" points="2212.09,596.428 2212.09,676.108"/>
<polyline class="Stem" stroke="#000000" stroke-width="3.25" stroke-linecap="round" stroke-linejoin="bevel" points="2393.31,583.928 2393.31,666.733"/>
<polyline class="Stem" stroke="#000000" stroke-width="3.25" stroke-linecap="round" stroke-linejoin="bevel" points="2539.91,583.928 2539.91,666.733"/>
<polyline class="Stem" stroke="#000000" stroke-width="3.25" stroke-linecap="round" stroke-linejoin="bevel" points="2686.5,571.428 2686.5,654.233"/>
<polyline class="Stem" stroke="#000000" stroke-width="3.25" stroke-linecap="round" stroke-linejoin="bevel" points="365.545,1033.15 365.545,1116.73"/>
<polyline class="Stem" stroke="#000000" stroke-width="3.25" stroke-linecap="round" stroke-linejoin="bevel" points="622.132,1071.43 622.132,1151.11"/>
<polyline class="Stem" stroke="#000000" stroke-width="3.25" stroke-linecap="round" stroke-linejoin="bevel" points="810.934,1058.93 810.934,1135.48"/>
<polyline class="Stem" stroke="#000000" stroke-width="3.25" stroke-linecap="round" stroke-linejoin="bevel" points="910.208,1071.43 910.208,1141.73"/>
<polyline class="Stem" stroke="#000000" stroke-width="3.25" stroke-linecap="round" stroke-linejoin="bevel" points="1009.48,1083.93 1009.48,1160.48"/>
<polyline class="Stem" stroke="#000000" stroke-width="3.25" stroke-linecap="round" stroke-linejoin="bevel" points="1108.76,1096.43 1108.76,1166.73"/>
<polyline class="Stem" stroke="#000000" stroke-width="3.25" stroke-linecap="round" stroke-linejoin="bevel" points="1237.69,1099.54 1237.69,1035.48"/>
<polyline class="Stem" stroke="#000000" stroke-width="3.25" stroke-linecap="round" stroke-linejoin="bevel" points="1336.97,1112.04 1336.97,1041.73"/>
<polyline class="Stem" stroke="#000000" stroke-width="3.25" stroke-linecap="round" stroke-linejoin="bevel" points="1465.24,1124.54 1465.24,1041.73"/>
<polyline class="Stem" stroke="#000000" stroke-width="3.25" stroke-linecap="round" stroke-linejoin="bevel" points="1618.75,1149.54 1618.75,1066.73"/>
<polyline class="Stem" stroke="#000000" stroke-width="3.25" stroke-linecap="round" stroke-linejoin="bevel" points="1772.26,1149.54 1772.26,1066.73"/>
<polyline class="Stem" stroke="#000000" stroke-width="3.25" stroke-linecap="round" stroke-linejoin="bevel" points="1954.77,1112.04 1954.77,1032.36"/>
<polyline class="Stem" stroke="#000000" stroke-width="3.25" stroke-linecap="round" stroke-linejoin="bevel" points="2108.28,1149.54 2108.28,1066.73"/>
<polyline class="Stem" stroke="#000000" stroke-width="3.25" stroke-linecap="round" stroke-linejoin="bevel" points="2261.78,1112.04 2261.78,1032.36"/>
<polyline class="Stem" stroke="#000000" stroke-width="3.25" stroke-linecap="round" stroke-linejoin="bevel" points="2446.1,1112.89 2446.1,1032.36"/>
<polyline class="Stem" stroke="#000000" stroke-width="3.25" stroke-linecap="round" stroke-linejoin="bevel" points="2702.16,1112.04 2702.16,1032.36"/>
<polyline class="Stem" stroke="#000000" stroke-width="3.25" stroke-linecap="round" stroke-linejoin="bevel" points="365.545,1571.43 365.545,1644.86"/>
<polyline class="Stem" stroke="#000000" stroke-width="3.25" stroke-linecap="round" stroke-linejoin="bevel" points="536.834,1587.04 536.834,1507.36"/>
<polyline class="Stem" stroke="#000000" stroke-width="3.25" stroke-linecap="round" stroke-linejoin="bevel" points="648.794,1571.43 648.794,1644.86"/>
<polyline class="Stem" stroke="#000000" stroke-width="3.25" stroke-linecap="round" stroke-linejoin="bevel" points="820.321,1570.65 820.321,1644.86"/>
<polyline class="Stem" stroke="#000000" stroke-width="3.25" stroke-linecap="round" stroke-linejoin="bevel" points="1055.61,1546.43 1055.61,1626.11"/>
<polyline class="Stem" stroke="#000000" stroke-width="3.25" stroke-linecap="round" stroke-linejoin="bevel" points="1232,1533.15 1232,1616.73"/>
<polyline class="Stem" stroke="#000000" stroke-width="3.25" stroke-linecap="round" stroke-linejoin="bevel" points="1467.28,1521.43 1467.28,1604.23"/>
<polyline class="Stem" stroke="#000000" stroke-width="3.25" stroke-linecap="round" stroke-linejoin="bevel" points="1643.68,1508.15 1643.68,1591.73"/>
<polyline class="Stem" stroke="#000000" stroke-width="3.25" stroke-linecap="round" stroke-linejoin="bevel" points="1878.32,1546.43 1878.32,1626.11"/>
<polyline class="Stem" stroke="#000000" stroke-width="3.25" stroke-linecap="round" stroke-linejoin="bevel" points="2053.41,1533.93 2053.41,1610.48"/>
<polyline class="Stem" stroke="#000000" stroke-width="3.25" stroke-linecap="round" stroke-linejoin="bevel" points="2143.78,1558.93 2143.78,1622.98"/>
<polyline class="Stem" stroke="#000000" stroke-width="3.25" stroke-linecap="round" stroke-linejoin="bevel" points="2234.15,1571.43 2234.15,1644.86"/>
<polyline class="Stem" stroke="#000000" stroke-width="3.25" stroke-linecap="round" stroke-linejoin="bevel" points="2408.4,1574.54 2408.4,1497.98"/>
<polyline class="Stem" stroke="#000000" stroke-width="3.25" stroke-linecap="round" stroke-linejoin="bevel" points="2583.79,1587.89 2583.79,1507.36"/>
<path class="Note" d="M438.623,665.467 C441.748,665.467 444.389,666.279 446.545,667.904 C448.555,669.665 449.561,671.878 449.561,674.545 C449.561,679.035 447.253,683.233 442.639,687.139 C437.951,691.045 432.936,692.998 427.592,692.998 C424.467,692.998 421.831,692.186 419.686,690.561 C417.665,688.8 416.654,686.587 416.654,683.92 C416.654,679.431 418.998,675.233 423.686,671.326 C428.248,667.42 433.227,665.467 438.623,665.467"/>
<path class="Note" d="M622.8,627.967 C625.925,627.967 628.565,628.779 630.722,630.404 C632.732,632.165 633.737,634.378 633.737,637.045 C633.737,641.535 631.43,645.733 626.815,649.639 C622.128,653.545 617.112,655.498 611.768,655.498 C608.643,655.498 606.008,654.686 603.862,653.061 C601.841,651.3 600.831,649.087 600.831,646.42 C600.831,641.931 603.175,637.733 607.862,633.826 C612.425,629.92 617.404,627.967 622.8,627.967"/>
<path class="Note" d="M769.393,665.467 C772.518,665.467 775.158,666.279 777.315,667.904 C779.325,669.665 780.33,671.878 780.33,674.545 C780.33,679.035 778.023,683.233 773.408,687.139 C768.721,691.045 763.705,692.998 758.361,692.998 C755.236,692.998 752.601,692.186 750.455,690.561 C748.434,688.8 747.424,686.587 747.424,683.92 C747.424,679.431 749.768,675.233 754.455,671.326 C759.018,667.42 763.997,665.467 769.393,665.467"/>
<path class="Note" d="M915.986,627.967 C919.111,627.967 921.751,628.779 923.907,630.404 C925.918,632.165 926.923,634.378 926.923,637.045 C926.923,641.535 924.616,645.733 920.001,649.639 C915.314,653.545 910.298,655.498 904.954,655.498 C901.829,655.498 899.194,654.686 897.048,653.061 C895.027,651.3 894.017,649.087 894.017,646.42 C894.017,641.931 896.361,637.733 901.048,633.826 C905.611,629.92 910.59,627.967 915.986,627.967"/>
<path class="Note" d="M1101.16,635.186 C1101.16,634.082 1100.73,633.139 1099.89,632.358 C1099.04,631.514 1098.06,631.092 1096.95,631.092 C1095.01,631.092 1091.07,633.045 1085.14,636.951 C1079.02,640.92 1075.27,643.753 1073.91,645.451 C1073.19,646.358 1072.83,647.3 1072.83,648.279 C1072.83,649.384 1073.26,650.326 1074.11,651.108 C1074.89,651.951 1075.87,652.373 1077.03,652.373 C1078.92,652.373 1082.89,650.42 1088.95,646.514 C1094.94,642.608 1098.65,639.774 1100.08,638.014 C1100.8,637.17 1101.16,636.227 1101.16,635.186 M1095.98,627.967 C1101.58,627.967 1104.38,630.373 1104.38,635.186 C1104.38,637.529 1103.69,640.264 1102.33,643.389 C1100.96,646.451 1099.14,648.795 1096.86,650.42 C1091.85,653.806 1085.57,655.498 1078.02,655.498 C1072.41,655.498 1069.61,653.092 1069.61,648.279 C1069.61,646.134 1070.29,643.431 1071.66,640.17 C1072.96,637.045 1074.78,634.67 1077.13,633.045 C1082.15,629.66 1088.43,627.967 1095.98,627.967"/>
<path class="Note" d="M1336.68,627.967 C1339.8,627.967 1342.44,628.779 1344.6,630.404 C1346.61,632.165 1347.61,634.378 1347.61,637.045 C1347.61,641.535 1345.31,645.733 1340.69,649.639 C1336,653.545 1330.99,655.498 1325.64,655.498 C1322.52,655.498 1319.88,654.686 1317.74,653.061 C1315.72,651.3 1314.71,649.087 1314.71,646.42 C1314.71,641.931 1317.05,637.733 1321.74,633.826 C1326.3,629.92 1331.28,627.967 1336.68,627.967"/>
<path class="Note" d="M1518.3,602.967 C1521.42,602.967 1524.06,603.779 1526.22,605.404 C1528.23,607.165 1529.23,609.378 1529.23,612.045 C1529.23,616.535 1526.93,620.733 1522.31,624.639 C1517.62,628.545 1512.61,630.498 1507.27,630.498 C1504.14,630.498 1501.5,629.686 1499.36,628.061 C1497.34,626.3 1496.33,624.087 1496.33,621.42 C1496.33,616.93 1498.67,612.733 1503.36,608.826 C1507.92,604.92 1512.9,602.967 1518.3,602.967"/>
<path class="Note" d="M1664.89,627.967 C1668.01,627.967 1670.66,628.779 1672.81,630.404 C1674.82,632.165 1675.83,634.378 1675.83,637.045 C1675.83,641.535 1673.52,645.733 1668.91,649.639 C1664.22,653.545 1659.2,655.498 1653.86,655.498 C1650.73,655.498 1648.1,654.686 1645.95,653.061 C1643.93,651.3 1642.92,649.087 1642.92,646.42 C1642.92,641.931 1645.26,637.733 1649.95,633.826 C1654.51,629.92 1659.49,627.967 1664.89,627.967"/>
<path class="Note" d="M1811.48,602.967 C1814.61,602.967 1817.25,603.779 1819.4,605.404 C1821.41,607.165 1822.42,609.378 1822.42,612.045 C1822.42,616.535 1820.11,620.733 1815.5,624.639 C1810.81,628.545 1805.8,630.498 1800.45,630.498 C1797.33,630.498 1794.69,629.686 1792.55,628.061 C1790.52,626.3 1789.51,624.087 1789.51,621.42 C1789.51,616.93 1791.86,612.733 1796.55,608.826 C1801.11,604.92 1806.09,602.967 1811.48,602.967"/>
<path class="Note" d="M1997.56,610.186 C1997.56,609.082 1997.13,608.139 1996.29,607.358 C1995.44,606.514 1994.46,606.092 1993.35,606.092 C1991.4,606.092 1987.47,608.045 1981.54,611.951 C1975.42,615.92 1971.67,618.753 1970.31,620.451 C1969.59,621.358 1969.23,622.3 1969.23,623.279 C1969.23,624.384 1969.65,625.326 1970.51,626.108 C1971.29,626.951 1972.26,627.373 1973.43,627.373 C1975.32,627.373 1979.29,625.42 1985.35,621.514 C1991.34,617.608 1995.05,614.774 1996.48,613.014 C1997.2,612.17 1997.56,611.227 1997.56,610.186 M1992.38,602.967 C1997.98,602.967 2000.77,605.373 2000.77,610.186 C2000.77,612.529 2000.09,615.264 1998.73,618.389 C1997.36,621.451 1995.54,623.795 1993.26,625.42 C1988.25,628.805 1981.97,630.498 1974.42,630.498 C1968.81,630.498 1966.01,628.092 1966.01,623.279 C1966.01,621.134 1966.69,618.43 1968.06,615.17 C1969.36,612.045 1971.18,609.67 1973.52,608.045 C1978.55,604.66 1984.83,602.967 1992.38,602.967"/>
<path class="Note" d="M2232.44,577.967 C2235.56,577.967 2238.2,578.779 2240.36,580.404 C2242.37,582.165 2243.37,584.378 2243.37,587.045 C2243.37,591.535 2241.07,595.733 2236.45,599.639 C2231.76,603.545 2226.75,605.498 2221.4,605.498 C2218.28,605.498 2215.64,604.686 2213.5,603.061 C2211.48,601.3 2210.47,599.087 2210.47,596.42 C2210.47,591.93 2212.81,587.733 2217.5,583.826 C2222.06,579.92 2227.04,577.967 2232.44,577.967"/>
<path class="Note" d="M2413.66,565.467 C2416.78,565.467 2419.42,566.279 2421.58,567.904 C2423.59,569.665 2424.6,571.878 2424.6,574.545 C2424.6,579.035 2422.29,583.233 2417.67,587.139 C2412.99,591.045 2407.97,592.998 2402.63,592.998 C2399.5,592.998 2396.87,592.186 2394.72,590.561 C2392.7,588.8 2391.69,586.587 2391.69,583.92 C2391.69,579.43 2394.03,575.233 2398.72,571.326 C2403.28,567.42 2408.26,565.467 2413.66,565.467"/>
<path class="Note" d="M2560.25,565.467 C2563.38,565.467 2566.02,566.279 2568.17,567.904 C2570.18,569.665 2571.19,571.878 2571.19,574.545 C2571.19,579.035 2568.88,583.233 2564.27,587.139 C2559.58,591.045 2554.56,592.998 2549.22,592.998 C2546.09,592.998 2543.46,592.186 2541.31,590.561 C2539.29,588.8 2538.28,586.587 2538.28,583.92 C2538.28,579.43 2540.63,575.233 2545.31,571.326 C2549.88,567.42 2554.86,565.467 2560.25,565.467"/>
<path class="Note" d="M2706.84,552.967 C2709.97,552.967 2712.61,553.779 2714.77,555.404 C2716.78,557.165 2717.78,559.378 2717.78,562.045 C2717.78,566.535 2715.47,570.733 2710.86,574.639 C2706.17,578.545 2701.16,580.498 2695.81,580.498 C2692.69,580.498 2690.05,579.686 2687.91,578.061 C2685.89,576.3 2684.88,574.087 2684.88,571.42 C2684.88,566.93 2687.22,562.733 2691.91,558.826 C2696.47,554.92 2701.45,552.967 2706.84,552.967"/>
<path class="Note" d="M395.467,1022.69 C395.467,1021.58 395.045,1020.64 394.201,1019.86 C393.347,1019.01 392.368,1018.59 391.264,1018.59 C389.316,1018.59 385.378,1020.55 379.451,1024.45 C373.326,1028.42 369.581,1031.25 368.217,1032.95 C367.498,1033.86 367.139,1034.8 367.139,1035.78 C367.139,1036.88 367.566,1037.83 368.42,1038.61 C369.201,1039.45 370.175,1039.87 371.342,1039.87 C373.227,1039.87 377.201,1037.92 383.264,1034.01 C389.253,1030.11 392.962,1027.27 394.389,1025.51 C395.107,1024.67 395.467,1023.73 395.467,1022.69 M390.295,1015.47 C395.889,1015.47 398.686,1017.87 398.686,1022.69 C398.686,1025.03 398.003,1027.76 396.639,1030.89 C395.274,1033.95 393.451,1036.3 391.17,1037.92 C386.16,1041.31 379.878,1043 372.326,1043 C366.722,1043 363.92,1040.59 363.92,1035.78 C363.92,1033.63 364.602,1030.93 365.967,1027.67 C367.269,1024.55 369.092,1022.17 371.436,1020.55 C376.456,1017.16 382.743,1015.47 390.295,1015.47"/>
<path class="Note" d="M642.475,1052.97 C645.6,1052.97 648.241,1053.78 650.397,1055.4 C652.408,1057.17 653.413,1059.38 653.413,1062.05 C653.413,1066.53 651.106,1070.73 646.491,1074.64 C641.804,1078.55 636.788,1080.5 631.444,1080.5 C628.319,1080.5 625.684,1079.69 623.538,1078.06 C621.517,1076.3 620.507,1074.09 620.507,1071.42 C620.507,1066.93 622.85,1062.73 627.538,1058.83 C632.1,1054.92 637.08,1052.97 642.475,1052.97"/>
<path class="Note" d="M831.278,1040.47 C834.403,1040.47 837.044,1041.28 839.2,1042.9 C841.211,1044.67 842.216,1046.88 842.216,1049.55 C842.216,1054.03 839.908,1058.23 835.294,1062.14 C830.606,1066.05 825.591,1068 820.247,1068 C817.122,1068 814.487,1067.19 812.341,1065.56 C810.32,1063.8 809.309,1061.59 809.309,1058.92 C809.309,1054.43 811.653,1050.23 816.341,1046.33 C820.903,1042.42 825.882,1040.47 831.278,1040.47"/>
<path class="Note" d="M930.552,1052.97 C933.677,1052.97 936.318,1053.78 938.474,1055.4 C940.484,1057.17 941.489,1059.38 941.489,1062.05 C941.489,1066.53 939.182,1070.73 934.568,1074.64 C929.88,1078.55 924.864,1080.5 919.521,1080.5 C916.396,1080.5 913.76,1079.69 911.614,1078.06 C909.594,1076.3 908.583,1074.09 908.583,1071.42 C908.583,1066.93 910.927,1062.73 915.614,1058.83 C920.177,1054.92 925.156,1052.97 930.552,1052.97"/>
<path class="Note" d="M1029.83,1065.47 C1032.95,1065.47 1035.59,1066.28 1037.75,1067.9 C1039.76,1069.67 1040.76,1071.88 1040.76,1074.55 C1040.76,1079.03 1038.46,1083.23 1033.84,1087.14 C1029.15,1091.05 1024.14,1093 1018.79,1093 C1015.67,1093 1013.03,1092.19 1010.89,1090.56 C1008.87,1088.8 1007.86,1086.59 1007.86,1083.92 C1007.86,1079.43 1010.2,1075.23 1014.89,1071.33 C1019.45,1067.42 1024.43,1065.47 1029.83,1065.47"/>
<path class="Note" d="M1129.1,1077.97 C1132.22,1077.97 1134.86,1078.78 1137.02,1080.4 C1139.03,1082.17 1140.04,1084.38 1140.04,1087.05 C1140.04,1091.53 1137.73,1095.73 1133.11,1099.64 C1128.43,1103.55 1123.41,1105.5 1118.07,1105.5 C1114.94,1105.5 1112.31,1104.69 1110.16,1103.06 C1108.14,1101.3 1107.13,1099.09 1107.13,1096.42 C1107.13,1091.93 1109.47,1087.73 1114.16,1083.83 C1118.72,1079.92 1123.7,1077.97 1129.1,1077.97"/>
<path class="Note" d="M1228.37,1090.47 C1231.5,1090.47 1234.14,1091.28 1236.29,1092.9 C1238.31,1094.67 1239.31,1096.88 1239.31,1099.55 C1239.31,1104.03 1237,1108.23 1232.39,1112.14 C1227.7,1116.05 1222.69,1118 1217.34,1118 C1214.22,1118 1211.58,1117.19 1209.44,1115.56 C1207.41,1113.8 1206.4,1111.59 1206.4,1108.92 C1206.4,1104.43 1208.75,1100.23 1213.44,1096.33 C1218,1092.42 1222.98,1090.47 1228.37,1090.47"/>
<path class="Note" d="M1327.65,1102.97 C1330.77,1102.97 1333.41,1103.78 1335.57,1105.4 C1337.58,1107.17 1338.58,1109.38 1338.58,1112.05 C1338.58,1116.53 1336.28,1120.73 1331.66,1124.64 C1326.97,1128.55 1321.96,1130.5 1316.62,1130.5 C1313.49,1130.5 1310.85,1129.69 1308.71,1128.06 C1306.69,1126.3 1305.68,1124.09 1305.68,1121.42 C1305.68,1116.93 1308.02,1112.73 1312.71,1108.83 C1317.27,1104.92 1322.25,1102.97 1327.65,1102.97"/>
<path class="Note" d="M1455.92,1115.47 C1459.05,1115.47 1461.69,1116.28 1463.84,1117.9 C1465.85,1119.67 1466.86,1121.88 1466.86,1124.55 C1466.86,1129.03 1464.55,1133.23 1459.94,1137.14 C1455.25,1141.05 1450.23,1143 1444.89,1143 C1441.76,1143 1439.13,1142.19 1436.98,1140.56 C1434.96,1138.8 1433.95,1136.59 1433.95,1133.92 C1433.95,1129.43 1436.3,1125.23 1440.98,1121.33 C1445.55,1117.42 1450.52,1115.47 1455.92,1115.47"/>
<path class="Note" d="M1609.43,1140.47 C1612.55,1140.47 1615.19,1141.28 1617.35,1142.9 C1619.36,1144.67 1620.37,1146.88 1620.37,1149.55 C1620.37,1154.04 1618.06,1158.23 1613.44,1162.14 C1608.76,1166.05 1603.74,1168 1598.4,1168 C1595.27,1168 1592.64,1167.19 1590.49,1165.56 C1588.47,1163.8 1587.46,1161.59 1587.46,1158.92 C1587.46,1154.43 1589.8,1150.23 1594.49,1146.33 C1599.05,1142.42 1604.03,1140.47 1609.43,1140.47"/>
<path class="Note" d="M1762.94,1140.47 C1766.06,1140.47 1768.7,1141.28 1770.86,1142.9 C1772.87,1144.67 1773.88,1146.88 1773.88,1149.55 C1773.88,1154.04 1771.57,1158.23 1766.95,1162.14 C1762.27,1166.05 1757.25,1168 1751.91,1168 C1748.78,1168 1746.15,1167.19 1744,1165.56 C1741.98,1163.8 1740.97,1161.59 1740.97,1158.92 C1740.97,1154.43 1743.31,1150.23 1748,1146.33 C1752.56,1142.42 1757.54,1140.47 1762.94,1140.47"/>
<path class="Note" d="M1945.45,1102.97 C1948.57,1102.97 1951.21,1103.78 1953.37,1105.4 C1955.38,1107.17 1956.38,1109.38 1956.38,1112.05 C1956.38,1116.53 1954.08,1120.73 1949.46,1124.64 C1944.77,1128.55 1939.76,1130.5 1934.41,1130.5 C1931.29,1130.5 1928.65,1129.69 1926.51,1128.06 C1924.49,1126.3 1923.48,1124.09 1923.48,1121.42 C1923.48,1116.93 1925.82,1112.73 1930.51,1108.83 C1935.07,1104.92 1940.05,1102.97 1945.45,1102.97"/>
<path class="Note" d="M2098.95,1140.47 C2102.08,1140.47 2104.72,1141.28 2106.88,1142.9 C2108.89,1144.67 2109.89,1146.88 2109.89,1149.55 C2109.89,1154.04 2107.59,1158.23 2102.97,1162.14 C2098.28,1166.05 2093.27,1168 2087.92,1168 C2084.8,1168 2082.16,1167.19 2080.02,1165.56 C2078,1163.8 2076.99,1161.59 2076.99,1158.92 C2076.99,1154.43 2079.33,1150.23 2084.02,1146.33 C2088.58,1142.42 2093.56,1140.47 2098.95,1140.47"/>
<path class="Note" d="M2252.46,1102.97 C2255.59,1102.97 2258.23,1103.78 2260.39,1105.4 C2262.4,1107.17 2263.4,1109.38 2263.4,1112.05 C2263.4,1116.53 2261.09,1120.73 2256.48,1124.64 C2251.79,1128.55 2246.78,1130.5 2241.43,1130.5 C2238.31,1130.5 2235.67,1129.69 2233.53,1128.06 C2231.51,1126.3 2230.49,1124.09 2230.49,1121.42 C2230.49,1116.93 2232.84,1112.73 2237.53,1108.83 C2242.09,1104.92 2247.07,1102.97 2252.46,1102.97"/>
<path class="Note" d="M2444.55,1110.19 C2444.55,1109.08 2444.13,1108.14 2443.28,1107.36 C2442.43,1106.51 2441.45,1106.09 2440.35,1106.09 C2438.4,1106.09 2434.46,1108.05 2428.53,1111.95 C2422.41,1115.92 2418.66,1118.75 2417.3,1120.45 C2416.58,1121.36 2416.22,1122.3 2416.22,1123.28 C2416.22,1124.38 2416.65,1125.33 2417.5,1126.11 C2418.28,1126.95 2419.26,1127.37 2420.43,1127.37 C2422.31,1127.37 2426.28,1125.42 2432.35,1121.51 C2438.34,1117.61 2442.05,1114.77 2443.47,1113.01 C2444.19,1112.17 2444.55,1111.23 2444.55,1110.19 M2439.38,1102.97 C2444.97,1102.97 2447.77,1105.37 2447.77,1110.19 C2447.77,1112.53 2447.09,1115.26 2445.72,1118.39 C2444.36,1121.45 2442.53,1123.8 2440.25,1125.42 C2435.24,1128.81 2428.96,1130.5 2421.41,1130.5 C2415.81,1130.5 2413,1128.09 2413,1123.28 C2413,1121.13 2413.69,1118.43 2415.05,1115.17 C2416.35,1112.05 2418.18,1109.67 2420.52,1108.05 C2425.54,1104.66 2431.83,1102.97 2439.38,1102.97"/>
<path class="Note" d="M2692.84,1102.97 C2695.96,1102.97 2698.6,1103.78 2700.76,1105.4 C2702.77,1107.17 2703.77,1109.38 2703.77,1112.05 C2703.77,1116.53 2701.47,1120.73 2696.85,1124.64 C2692.16,1128.55 2687.15,1130.5 2681.8,1130.5 C2678.68,1130.5 2676.04,1129.69 2673.9,1128.06 C2671.88,1126.3 2670.87,1124.09 2670.87,1121.42 C2670.87,1116.93 2673.21,1112.73 2677.9,1108.83 C2682.46,1104.92 2687.44,1102.97 2692.84,1102.97"/>
<path class="Note" d="M385.889,1552.97 C389.014,1552.97 391.654,1553.78 393.811,1555.41 C395.821,1557.17 396.826,1559.38 396.826,1562.05 C396.826,1566.54 394.519,1570.73 389.904,1574.64 C385.217,1578.55 380.201,1580.5 374.857,1580.5 C371.732,1580.5 369.097,1579.69 366.951,1578.06 C364.93,1576.3 363.92,1574.09 363.92,1571.42 C363.92,1566.93 366.264,1562.73 370.951,1558.83 C375.514,1554.92 380.493,1552.97 385.889,1552.97"/>
<path class="Note" d="M527.513,1577.97 C530.638,1577.97 533.279,1578.78 535.435,1580.41 C537.445,1582.17 538.451,1584.38 538.451,1587.05 C538.451,1591.54 536.143,1595.73 531.529,1599.64 C526.841,1603.55 521.826,1605.5 516.482,1605.5 C513.357,1605.5 510.722,1604.69 508.576,1603.06 C506.555,1601.3 505.544,1599.09 505.544,1596.42 C505.544,1591.93 507.888,1587.73 512.576,1583.83 C517.138,1579.92 522.117,1577.97 527.513,1577.97"/>
<path class="Note" d="M669.138,1552.97 C672.263,1552.97 674.903,1553.78 677.06,1555.41 C679.07,1557.17 680.075,1559.38 680.075,1562.05 C680.075,1566.54 677.768,1570.73 673.153,1574.64 C668.466,1578.55 663.45,1580.5 658.106,1580.5 C654.981,1580.5 652.346,1579.69 650.2,1578.06 C648.179,1576.3 647.169,1574.09 647.169,1571.42 C647.169,1566.93 649.513,1562.73 654.2,1558.83 C658.763,1554.92 663.742,1552.97 669.138,1552.97"/>
<path class="Note" d="M850.243,1560.19 C850.243,1559.08 849.821,1558.14 848.977,1557.36 C848.123,1556.51 847.144,1556.09 846.04,1556.09 C844.092,1556.09 840.154,1558.05 834.227,1561.95 C828.102,1565.92 824.357,1568.75 822.993,1570.45 C822.274,1571.36 821.915,1572.3 821.915,1573.28 C821.915,1574.38 822.342,1575.33 823.196,1576.11 C823.977,1576.95 824.951,1577.37 826.118,1577.37 C828.003,1577.37 831.977,1575.42 838.04,1571.51 C844.029,1567.61 847.737,1564.77 849.165,1563.01 C849.883,1562.17 850.243,1561.23 850.243,1560.19 M845.071,1552.97 C850.665,1552.97 853.461,1555.37 853.461,1560.19 C853.461,1562.53 852.779,1565.26 851.415,1568.39 C850.05,1571.45 848.227,1573.8 845.946,1575.42 C840.935,1578.81 834.654,1580.5 827.102,1580.5 C821.498,1580.5 818.696,1578.09 818.696,1573.28 C818.696,1571.13 819.378,1568.43 820.743,1565.17 C822.045,1562.05 823.868,1559.67 826.211,1558.05 C831.232,1554.66 837.519,1552.97 845.071,1552.97"/>
<path class="Note" d="M1075.95,1527.97 C1079.08,1527.97 1081.72,1528.78 1083.87,1530.41 C1085.88,1532.17 1086.89,1534.38 1086.89,1537.05 C1086.89,1541.54 1084.58,1545.73 1079.97,1549.64 C1075.28,1553.55 1070.26,1555.5 1064.92,1555.5 C1061.79,1555.5 1059.16,1554.69 1057.01,1553.06 C1054.99,1551.3 1053.98,1549.09 1053.98,1546.42 C1053.98,1541.93 1056.33,1537.73 1061.01,1533.83 C1065.58,1529.92 1070.55,1527.97 1075.95,1527.97"/>
<path class="Note" d="M1261.92,1522.69 C1261.92,1521.58 1261.5,1520.64 1260.65,1519.86 C1259.8,1519.01 1258.82,1518.59 1257.72,1518.59 C1255.77,1518.59 1251.83,1520.55 1245.9,1524.45 C1239.78,1528.42 1236.03,1531.25 1234.67,1532.95 C1233.95,1533.86 1233.59,1534.8 1233.59,1535.78 C1233.59,1536.88 1234.02,1537.83 1234.87,1538.61 C1235.65,1539.45 1236.63,1539.87 1237.79,1539.87 C1239.68,1539.87 1243.65,1537.92 1249.72,1534.01 C1255.71,1530.11 1259.41,1527.27 1260.84,1525.51 C1261.56,1524.67 1261.92,1523.73 1261.92,1522.69 M1256.75,1515.47 C1262.34,1515.47 1265.14,1517.87 1265.14,1522.69 C1265.14,1525.03 1264.46,1527.76 1263.09,1530.89 C1261.73,1533.95 1259.9,1536.3 1257.62,1537.92 C1252.61,1541.31 1246.33,1543 1238.78,1543 C1233.18,1543 1230.37,1540.59 1230.37,1535.78 C1230.37,1533.63 1231.06,1530.93 1232.42,1527.67 C1233.72,1524.55 1235.54,1522.17 1237.89,1520.55 C1242.91,1517.16 1249.2,1515.47 1256.75,1515.47"/>
<path class="Note" d="M1487.63,1502.97 C1490.75,1502.97 1493.39,1503.78 1495.55,1505.41 C1497.56,1507.17 1498.56,1509.38 1498.56,1512.05 C1498.56,1516.54 1496.26,1520.73 1491.64,1524.64 C1486.96,1528.55 1481.94,1530.5 1476.6,1530.5 C1473.47,1530.5 1470.84,1529.69 1468.69,1528.06 C1466.67,1526.3 1465.66,1524.09 1465.66,1521.42 C1465.66,1516.93 1468,1512.73 1472.69,1508.83 C1477.25,1504.92 1482.23,1502.97 1487.63,1502.97"/>
<path class="Note" d="M1673.6,1497.69 C1673.6,1496.58 1673.18,1495.64 1672.33,1494.86 C1671.48,1494.01 1670.5,1493.59 1669.39,1493.59 C1667.45,1493.59 1663.51,1495.55 1657.58,1499.45 C1651.46,1503.42 1647.71,1506.25 1646.35,1507.95 C1645.63,1508.86 1645.27,1509.8 1645.27,1510.78 C1645.27,1511.88 1645.7,1512.83 1646.55,1513.61 C1647.33,1514.45 1648.31,1514.87 1649.47,1514.87 C1651.36,1514.87 1655.33,1512.92 1661.39,1509.01 C1667.38,1505.11 1671.09,1502.27 1672.52,1500.51 C1673.24,1499.67 1673.6,1498.73 1673.6,1497.69 M1668.43,1490.47 C1674.02,1490.47 1676.82,1492.87 1676.82,1497.69 C1676.82,1500.03 1676.13,1502.76 1674.77,1505.89 C1673.4,1508.95 1671.58,1511.3 1669.3,1512.92 C1664.29,1516.31 1658.01,1518 1650.46,1518 C1644.85,1518 1642.05,1515.59 1642.05,1510.78 C1642.05,1508.63 1642.73,1505.93 1644.1,1502.67 C1645.4,1499.55 1647.22,1497.17 1649.57,1495.55 C1654.59,1492.16 1660.87,1490.47 1668.43,1490.47"/>
<path class="Note" d="M1898.67,1527.97 C1901.79,1527.97 1904.43,1528.78 1906.59,1530.41 C1908.6,1532.17 1909.6,1534.38 1909.6,1537.05 C1909.6,1541.54 1907.3,1545.73 1902.68,1549.64 C1897.99,1553.55 1892.98,1555.5 1887.63,1555.5 C1884.51,1555.5 1881.87,1554.69 1879.73,1553.06 C1877.71,1551.3 1876.7,1549.09 1876.7,1546.42 C1876.7,1541.93 1879.04,1537.73 1883.73,1533.83 C1888.29,1529.92 1893.27,1527.97 1898.67,1527.97"/>
<path class="Note" d="M2073.76,1515.47 C2076.88,1515.47 2079.52,1516.28 2081.68,1517.91 C2083.69,1519.67 2084.69,1521.88 2084.69,1524.55 C2084.69,1529.04 2082.39,1533.23 2077.77,1537.14 C2073.08,1541.05 2068.07,1543 2062.72,1543 C2059.6,1543 2056.96,1542.19 2054.82,1540.56 C2052.8,1538.8 2051.79,1536.59 2051.79,1533.92 C2051.79,1529.43 2054.13,1525.23 2058.82,1521.33 C2063.38,1517.42 2068.36,1515.47 2073.76,1515.47"/>
<path class="Note" d="M2164.12,1540.47 C2167.25,1540.47 2169.89,1541.28 2172.05,1542.91 C2174.06,1544.67 2175.06,1546.88 2175.06,1549.55 C2175.06,1554.04 2172.75,1558.23 2168.14,1562.14 C2163.45,1566.05 2158.44,1568 2153.09,1568 C2149.97,1568 2147.33,1567.19 2145.19,1565.56 C2143.17,1563.8 2142.16,1561.59 2142.16,1558.92 C2142.16,1554.43 2144.5,1550.23 2149.19,1546.33 C2153.75,1542.42 2158.73,1540.47 2164.12,1540.47"/>
<path class="Note" d="M2254.49,1552.97 C2257.62,1552.97 2260.26,1553.78 2262.41,1555.41 C2264.42,1557.17 2265.43,1559.38 2265.43,1562.05 C2265.43,1566.54 2263.12,1570.73 2258.51,1574.64 C2253.82,1578.55 2248.8,1580.5 2243.46,1580.5 C2240.34,1580.5 2237.7,1579.69 2235.55,1578.06 C2233.53,1576.3 2232.52,1574.09 2232.52,1571.42 C2232.52,1566.93 2234.87,1562.73 2239.55,1558.83 C2244.12,1554.92 2249.1,1552.97 2254.49,1552.97"/>
<path class="Note" d="M2399.08,1565.47 C2402.21,1565.47 2404.85,1566.28 2407,1567.91 C2409.01,1569.67 2410.02,1571.88 2410.02,1574.55 C2410.02,1579.04 2407.71,1583.23 2403.1,1587.14 C2398.41,1591.05 2393.39,1593 2388.05,1593 C2384.92,1593 2382.29,1592.19 2380.14,1590.56 C2378.12,1588.8 2377.11,1586.59 2377.11,1583.92 C2377.11,1579.43 2379.46,1575.23 2384.14,1571.33 C2388.71,1567.42 2393.68,1565.47 2399.08,1565.47"/>
<path class="Note" d="M2582.25,1585.19 C2582.25,1584.08 2581.82,1583.14 2580.98,1582.36 C2580.13,1581.51 2579.15,1581.09 2578.04,1581.09 C2576.1,1581.09 2572.16,1583.05 2566.23,1586.95 C2560.11,1590.92 2556.36,1593.75 2555,1595.45 C2554.28,1596.36 2553.92,1597.3 2553.92,1598.28 C2553.92,1599.38 2554.35,1600.33 2555.2,1601.11 C2555.98,1601.95 2556.95,1602.37 2558.12,1602.37 C2560.01,1602.37 2563.98,1600.42 2570.04,1596.51 C2576.03,1592.61 2579.74,1589.77 2581.17,1588.01 C2581.89,1587.17 2582.25,1586.23 2582.25,1585.19 M2577.07,1577.97 C2582.67,1577.97 2585.47,1580.37 2585.47,1585.19 C2585.47,1587.53 2584.78,1590.26 2583.42,1593.39 C2582.05,1596.45 2580.23,1598.8 2577.95,1600.42 C2572.94,1603.81 2566.66,1605.5 2559.11,1605.5 C2553.5,1605.5 2550.7,1603.09 2550.7,1598.28 C2550.7,1596.13 2551.38,1593.43 2552.75,1590.17 C2554.05,1587.05 2555.87,1584.67 2558.22,1583.05 C2563.24,1579.66 2569.52,1577.97 2577.07,1577.97"/>
<path class="Clef" d="M220.139,582.842 C219.165,581.863 218.678,580.657 218.678,579.225 C218.678,577.792 219.165,576.589 220.139,575.615 C221.113,574.641 222.316,574.154 223.748,574.154 C225.18,574.154 226.386,574.641 227.365,575.615 C228.344,576.589 228.834,577.792 228.834,579.225 C228.834,580.657 228.344,581.863 227.365,582.842 C226.386,583.821 225.18,584.311 223.748,584.311 C222.316,584.311 221.113,583.821 220.139,582.842 M220.139,607.85 C219.165,606.876 218.678,605.673 218.678,604.24 C218.678,602.808 219.165,601.602 220.139,600.623 C221.113,599.644 222.316,599.154 223.748,599.154 C225.18,599.154 226.386,599.644 227.365,600.623 C228.344,601.602 228.834,602.808 228.834,604.24 C228.834,605.673 228.344,606.876 227.365,607.85 C226.386,608.824 225.18,609.311 223.748,609.311 C222.316,609.311 221.113,608.824 220.139,607.85 M186.256,565.467 C194.912,565.467 202.006,567.644 207.537,571.998 C212.881,576.561 215.553,582.748 215.553,590.561 C215.553,595.832 214.511,600.649 212.428,605.014 C210.469,609.576 207.896,613.613 204.709,617.123 C201.448,620.707 197.511,624.092 192.896,627.279 C188.396,630.404 183.771,633.207 179.021,635.686 C169.323,640.561 163.985,642.998 163.006,642.998 C162.162,642.998 161.74,642.576 161.74,641.733 C161.74,641.41 161.87,641.118 162.131,640.858 C165.454,638.899 169.521,636.394 174.334,633.342 C177.459,631.321 181.105,628.519 185.271,624.936 C189.313,621.55 192.438,618.363 194.646,615.373 C196.928,612.436 199.011,608.79 200.896,604.436 C202.521,600.071 203.334,595.769 203.334,591.529 C203.334,585.217 201.771,579.717 198.646,575.029 C195.521,570.342 191.391,567.998 186.256,567.998 C182.61,567.998 179.485,569.17 176.881,571.514 C174.079,573.92 172.058,576.946 170.818,580.592 C172.058,580.071 173.198,579.811 174.24,579.811 C176.969,579.811 179.313,580.79 181.271,582.748 C183.219,584.832 184.193,587.207 184.193,589.873 C184.193,592.675 183.251,595.186 181.365,597.404 C179.344,599.415 176.969,600.42 174.24,600.42 C171.313,600.42 168.678,599.415 166.334,597.404 C164.115,595.186 163.006,592.675 163.006,589.873 C163.006,583.165 165.287,577.436 169.849,572.686 C174.339,567.873 179.808,565.467 186.256,565.467"/>
<path class="Clef" d="M220.139,1057.84 C219.165,1056.86 218.678,1055.66 218.678,1054.23 C218.678,1052.79 219.165,1051.59 220.139,1050.62 C221.113,1049.64 222.316,1049.15 223.748,1049.15 C225.18,1049.15 226.386,1049.64 227.365,1050.62 C228.344,1051.59 228.834,1052.79 228.834,1054.23 C228.834,1055.66 228.344,1056.86 227.365,1057.84 C226.386,1058.82 225.18,1059.31 223.748,1059.31 C222.316,1059.31 221.113,1058.82 220.139,1057.84 M220.139,1082.85 C219.165,1081.88 218.678,1080.67 218.678,1079.24 C218.678,1077.81 219.165,1076.6 220.139,1075.62 C221.113,1074.64 222.316,1074.15 223.748,1074.15 C225.18,1074.15 226.386,1074.64 227.365,1075.62 C228.344,1076.6 228.834,1077.81 228.834,1079.24 C228.834,1080.67 228.344,1081.88 227.365,1082.85 C226.386,1083.82 225.18,1084.31 223.748,1084.31 C222.316,1084.31 221.113,1083.82 220.139,1082.85 M186.256,1040.47 C194.912,1040.47 202.006,1042.64 207.537,1047 C212.881,1051.56 215.553,1057.75 215.553,1065.56 C215.553,1070.83 214.511,1075.65 212.428,1080.01 C210.469,1084.58 207.896,1088.61 204.709,1092.12 C201.448,1095.71 197.511,1099.09 192.896,1102.28 C188.396,1105.4 183.771,1108.21 179.021,1110.69 C169.323,1115.56 163.985,1118 163.006,1118 C162.162,1118 161.74,1117.58 161.74,1116.73 C161.74,1116.41 161.87,1116.12 162.131,1115.86 C165.454,1113.9 169.521,1111.39 174.334,1108.34 C177.459,1106.32 181.105,1103.52 185.271,1099.94 C189.313,1096.55 192.438,1093.36 194.646,1090.37 C196.928,1087.44 199.011,1083.79 200.896,1079.44 C202.521,1075.07 203.334,1070.77 203.334,1066.53 C203.334,1060.22 201.771,1054.72 198.646,1050.03 C195.521,1045.34 191.391,1043 186.256,1043 C182.61,1043 179.485,1044.17 176.881,1046.51 C174.079,1048.92 172.058,1051.95 170.818,1055.59 C172.058,1055.07 173.198,1054.81 174.24,1054.81 C176.969,1054.81 179.313,1055.79 181.271,1057.75 C183.219,1059.83 184.193,1062.21 184.193,1064.87 C184.193,1067.68 183.251,1070.19 181.365,1072.4 C179.344,1074.42 176.969,1075.42 174.24,1075.42 C171.313,1075.42 168.678,1074.42 166.334,1072.4 C164.115,1070.19 163.006,1067.68 163.006,1064.87 C163.006,1058.17 165.287,1052.44 169.849,1047.69 C174.339,1042.87 179.808,1040.47 186.256,1040.47"/>
<path class="Clef" d="M220.139,1532.84 C219.165,1531.86 218.678,1530.66 218.678,1529.23 C218.678,1527.79 219.165,1526.59 220.139,1525.62 C221.113,1524.64 222.316,1524.16 223.748,1524.16 C225.18,1524.16 226.386,1524.64 227.365,1525.62 C228.344,1526.59 228.834,1527.79 228.834,1529.23 C228.834,1530.66 228.344,1531.86 227.365,1532.84 C226.386,1533.82 225.18,1534.31 223.748,1534.31 C222.316,1534.31 221.113,1533.82 220.139,1532.84 M220.139,1557.85 C219.165,1556.88 218.678,1555.67 218.678,1554.24 C218.678,1552.81 219.165,1551.6 220.139,1550.62 C221.113,1549.64 222.316,1549.16 223.748,1549.16 C225.18,1549.16 226.386,1549.64 227.365,1550.62 C228.344,1551.6 228.834,1552.81 228.834,1554.24 C228.834,1555.67 228.344,1556.88 227.365,1557.85 C226.386,1558.82 225.18,1559.31 223.748,1559.31 C222.316,1559.31 221.113,1558.82 220.139,1557.85 M186.256,1515.47 C194.912,1515.47 202.006,1517.64 207.537,1522 C212.881,1526.56 215.553,1532.75 215.553,1540.56 C215.553,1545.83 214.511,1550.65 212.428,1555.01 C210.469,1559.58 207.896,1563.61 204.709,1567.12 C201.448,1570.71 197.511,1574.09 192.896,1577.28 C188.396,1580.41 183.771,1583.21 179.021,1585.69 C169.323,1590.56 163.985,1593 163.006,1593 C162.162,1593 161.74,1592.58 161.74,1591.73 C161.74,1591.41 161.87,1591.12 162.131,1590.86 C165.454,1588.9 169.521,1586.39 174.334,1583.34 C177.459,1581.32 181.105,1578.52 185.271,1574.94 C189.313,1571.55 192.438,1568.36 194.646,1565.37 C196.928,1562.44 199.011,1558.79 200.896,1554.44 C202.521,1550.07 203.334,1545.77 203.334,1541.53 C203.334,1535.22 201.771,1529.72 198.646,1525.03 C195.521,1520.34 191.391,1518 186.256,1518 C182.61,1518 179.485,1519.17 176.881,1521.51 C174.079,1523.92 172.058,1526.95 170.818,1530.59 C172.058,1530.07 173.198,1529.81 174.24,1529.81 C176.969,1529.81 179.313,1530.79 181.271,1532.75 C183.219,1534.83 184.193,1537.21 184.193,1539.87 C184.193,1542.68 183.251,1545.19 181.365,1547.41 C179.344,1549.42 176.969,1550.42 174.24,1550.42 C171.313,1550.42 168.678,1549.42 166.334,1547.41 C164.115,1545.19 163.006,1542.68 163.006,1539.87 C163.006,1533.17 165.287,1527.44 169.849,1522.69 C174.339,1517.87 179.808,1515.47 186.256,1515.47"/>
<path class="KeySig" d="M283.842,600.123 L283.842,607.842 C283.842,610.582 283.972,612.764 284.232,614.389 C286.378,612.566 287.909,611.201 288.826,610.295 C289.868,609.253 290.909,607.819 291.951,605.99 C292.993,604.162 293.514,602.337 293.514,600.514 C293.514,598.691 293.123,597.128 292.342,595.826 C291.56,594.524 290.519,593.873 289.217,593.873 C287.654,593.873 286.352,594.462 285.31,595.639 C284.331,596.941 283.842,598.436 283.842,600.123 M279.732,617.998 L278.467,558.529 C279.383,558.009 280.297,557.748 281.209,557.748 C282.12,557.748 283.029,558.009 283.935,558.529 L283.154,592.998 C285.821,590.717 288.883,589.576 292.342,589.576 C294.873,589.576 296.985,590.618 298.678,592.701 C300.37,594.785 301.217,597.165 301.217,599.842 C301.217,601.529 300.665,603.321 299.56,605.217 C298.519,606.967 297.415,608.332 296.248,609.311 C295.592,609.832 293.93,611.134 291.264,613.217 C290.482,613.8 289.555,614.483 288.482,615.264 C287.409,616.045 286.743,616.535 286.482,616.733 C286.024,616.993 285.597,617.514 285.201,618.295 C284.753,618.951 284.232,619.503 283.639,619.951 C283.191,620.347 282.641,620.545 281.99,620.545 C281.339,620.545 280.816,620.316 280.42,619.858 C279.962,619.399 279.732,618.779 279.732,617.998"/>
<path class="KeySig" d="M258.842,637.623 L258.842,645.342 C258.842,648.082 258.972,650.264 259.232,651.889 C261.378,650.066 262.909,648.701 263.826,647.795 C264.868,646.753 265.909,645.319 266.951,643.49 C267.993,641.662 268.514,639.837 268.514,638.014 C268.514,636.191 268.123,634.628 267.342,633.326 C266.56,632.024 265.519,631.373 264.217,631.373 C262.654,631.373 261.352,631.962 260.31,633.139 C259.331,634.441 258.842,635.936 258.842,637.623 M254.732,655.498 L253.467,596.029 C254.383,595.509 255.297,595.248 256.209,595.248 C257.12,595.248 258.029,595.509 258.935,596.029 L258.154,630.498 C260.821,628.217 263.883,627.076 267.342,627.076 C269.873,627.076 271.985,628.118 273.678,630.201 C275.37,632.285 276.217,634.665 276.217,637.342 C276.217,639.029 275.665,640.821 274.56,642.717 C273.519,644.467 272.415,645.832 271.248,646.811 C270.592,647.332 268.93,648.634 266.264,650.717 C265.482,651.3 264.555,651.983 263.482,652.764 C262.409,653.545 261.743,654.035 261.482,654.233 C261.024,654.493 260.597,655.014 260.201,655.795 C259.753,656.451 259.232,657.003 258.639,657.451 C258.191,657.847 257.641,658.045 256.99,658.045 C256.339,658.045 255.816,657.816 255.42,657.358 C254.962,656.899 254.732,656.279 254.732,655.498"/>
<path class="KeySig" d="M283.842,1075.12 L283.842,1082.84 C283.842,1085.58 283.972,1087.76 284.232,1089.39 C286.378,1087.57 287.909,1086.2 288.826,1085.3 C289.868,1084.25 290.909,1082.82 291.951,1080.99 C292.993,1079.16 293.514,1077.34 293.514,1075.51 C293.514,1073.69 293.123,1072.13 292.342,1070.83 C291.56,1069.52 290.519,1068.87 289.217,1068.87 C287.654,1068.87 286.352,1069.46 285.31,1070.64 C284.331,1071.94 283.842,1073.44 283.842,1075.12 M279.732,1093 L278.467,1033.53 C279.383,1033.01 280.297,1032.75 281.209,1032.75 C282.12,1032.75 283.029,1033.01 283.935,1033.53 L283.154,1068 C285.821,1065.72 288.883,1064.58 292.342,1064.58 C294.873,1064.58 296.985,1065.62 298.678,1067.7 C300.37,1069.78 301.217,1072.17 301.217,1074.84 C301.217,1076.53 300.665,1078.32 299.56,1080.22 C298.519,1081.97 297.415,1083.33 296.248,1084.31 C295.592,1084.83 293.93,1086.13 291.264,1088.22 C290.482,1088.8 289.555,1089.48 288.482,1090.26 C287.409,1091.05 286.743,1091.53 286.482,1091.73 C286.024,1091.99 285.597,1092.51 285.201,1093.3 C284.753,1093.95 284.232,1094.5 283.639,1094.95 C283.191,1095.35 282.641,1095.55 281.99,1095.55 C281.339,1095.55 280.816,1095.32 280.42,1094.86 C279.962,1094.4 279.732,1093.78 279.732,1093"/>
<path class="KeySig" d="M258.842,1112.62 L258.842,1120.34 C258.842,1123.08 258.972,1125.26 259.232,1126.89 C261.378,1125.07 262.909,1123.7 263.826,1122.8 C264.868,1121.75 265.909,1120.32 266.951,1118.49 C267.993,1116.66 268.514,1114.84 268.514,1113.01 C268.514,1111.19 268.123,1109.63 267.342,1108.33 C266.56,1107.02 265.519,1106.37 264.217,1106.37 C262.654,1106.37 261.352,1106.96 260.31,1108.14 C259.331,1109.44 258.842,1110.94 258.842,1112.62 M254.732,1130.5 L253.467,1071.03 C254.383,1070.51 255.297,1070.25 256.209,1070.25 C257.12,1070.25 258.029,1070.51 258.935,1071.03 L258.154,1105.5 C260.821,1103.22 263.883,1102.08 267.342,1102.08 C269.873,1102.08 271.985,1103.12 273.678,1105.2 C275.37,1107.28 276.217,1109.67 276.217,1112.34 C276.217,1114.03 275.665,1115.82 274.56,1117.72 C273.519,1119.47 272.415,1120.83 271.248,1121.81 C270.592,1122.33 268.93,1123.63 266.264,1125.72 C265.482,1126.3 264.555,1126.98 263.482,1127.76 C262.409,1128.55 261.743,1129.03 261.482,1129.23 C261.024,1129.49 260.597,1130.01 260.201,1130.8 C259.753,1131.45 259.232,1132 258.639,1132.45 C258.191,1132.85 257.641,1133.05 256.99,1133.05 C256.339,1133.05 255.816,1132.82 255.42,1132.36 C254.962,1131.9 254.732,1131.28 254.732,1130.5"/>
<path class="KeySig" d="M283.842,1550.12 L283.842,1557.84 C283.842,1560.58 283.972,1562.76 284.232,1564.39 C286.378,1562.57 287.909,1561.2 288.826,1560.3 C289.868,1559.25 290.909,1557.82 291.951,1555.99 C292.993,1554.16 293.514,1552.34 293.514,1550.51 C293.514,1548.69 293.123,1547.13 292.342,1545.83 C291.56,1544.52 290.519,1543.87 289.217,1543.87 C287.654,1543.87 286.352,1544.46 285.31,1545.64 C284.331,1546.94 283.842,1548.44 283.842,1550.12 M279.732,1568 L278.467,1508.53 C279.383,1508.01 280.297,1507.75 281.209,1507.75 C282.12,1507.75 283.029,1508.01 283.935,1508.53 L283.154,1543 C285.821,1540.72 288.883,1539.58 292.342,1539.58 C294.873,1539.58 296.985,1540.62 298.678,1542.7 C300.37,1544.79 301.217,1547.17 301.217,1549.84 C301.217,1551.53 300.665,1553.32 299.56,1555.22 C298.519,1556.97 297.415,1558.33 296.248,1559.31 C295.592,1559.83 293.93,1561.13 291.264,1563.22 C290.482,1563.8 289.555,1564.48 288.482,1565.26 C287.409,1566.05 286.743,1566.54 286.482,1566.73 C286.024,1566.99 285.597,1567.51 285.201,1568.3 C284.753,1568.95 284.232,1569.5 283.639,1569.95 C283.191,1570.35 282.641,1570.55 281.99,1570.55 C281.339,1570.55 280.816,1570.32 280.42,1569.86 C279.962,1569.4 279.732,1568.78 279.732,1568"/>
<path class="KeySig" d="M258.842,1587.62 L258.842,1595.34 C258.842,1598.08 258.972,1600.26 259.232,1601.89 C261.378,1600.07 262.909,1598.7 263.826,1597.8 C264.868,1596.75 265.909,1595.32 266.951,1593.49 C267.993,1591.66 268.514,1589.84 268.514,1588.01 C268.514,1586.19 268.123,1584.63 267.342,1583.33 C266.56,1582.02 265.519,1581.37 264.217,1581.37 C262.654,1581.37 261.352,1581.96 260.31,1583.14 C259.331,1584.44 258.842,1585.94 258.842,1587.62 M254.732,1605.5 L253.467,1546.03 C254.383,1545.51 255.297,1545.25 256.209,1545.25 C257.12,1545.25 258.029,1545.51 258.935,1546.03 L258.154,1580.5 C260.821,1578.22 263.883,1577.08 267.342,1577.08 C269.873,1577.08 271.985,1578.12 273.678,1580.2 C275.37,1582.29 276.217,1584.67 276.217,1587.34 C276.217,1589.03 275.665,1590.82 274.56,1592.72 C273.519,1594.47 272.415,1595.83 271.248,1596.81 C270.592,1597.33 268.93,1598.63 266.264,1600.72 C265.482,1601.3 264.555,1601.98 263.482,1602.76 C262.409,1603.55 261.743,1604.04 261.482,1604.23 C261.024,1604.49 260.597,1605.01 260.201,1605.8 C259.753,1606.45 259.232,1607 258.639,1607.45 C258.191,1607.85 257.641,1608.05 256.99,1608.05 C256.339,1608.05 255.816,1607.82 255.42,1607.36 C254.962,1606.9 254.732,1606.28 254.732,1605.5"/>
<path class="TimeSig" d="M356.436,590.264 C356.436,590.92 356.795,591.54 357.514,592.123 C358.555,592.904 359.368,593.493 359.951,593.889 C360.732,594.337 361.55,595.378 362.404,597.014 C363.113,598.576 363.467,600.493 363.467,602.764 C363.467,607.264 361.811,610.717 358.498,613.123 C355.113,615.529 350.816,616.733 345.607,616.733 C341.368,616.733 337.784,615.691 334.857,613.608 C331.732,611.66 330.17,608.925 330.17,605.404 C330.17,603.717 330.821,602.154 332.123,600.717 C333.488,599.477 335.05,598.858 336.811,598.858 C338.633,598.858 340.133,599.509 341.311,600.811 C342.613,602.05 343.264,603.582 343.264,605.404 C343.264,606.248 342.613,607.16 341.311,608.139 C339.936,609.055 339.248,609.936 339.248,610.779 C339.248,612.019 339.868,612.93 341.107,613.514 C342.347,614.097 343.847,614.389 345.607,614.389 C347.878,614.389 349.503,613.285 350.482,611.076 C351.399,608.66 351.857,605.889 351.857,602.764 L351.857,601.108 C351.857,599.222 351.79,597.561 351.654,596.123 C351.529,595.019 351.076,594.014 350.295,593.108 C349.576,592.191 348.436,591.733 346.873,591.733 L338.857,591.733 C337.951,591.733 337.498,591.243 337.498,590.264 C337.498,589.42 337.951,588.93 338.857,588.795 L346.873,588.795 C348.696,588.795 349.998,588.212 350.779,587.045 C351.425,586.128 351.784,584.498 351.857,582.154 L351.857,578.936 L351.857,578.154 C351.857,572.102 349.644,569.076 345.217,569.076 C341.311,569.076 339.321,570.149 339.248,572.295 C339.248,573.014 339.868,573.795 341.107,574.639 C342.284,575.483 342.873,576.264 342.873,576.983 C342.873,578.608 342.284,580.009 341.107,581.186 C340.003,582.29 338.639,582.842 337.014,582.842 C335.451,582.842 334.113,582.29 332.998,581.186 C331.894,579.946 331.342,578.545 331.342,576.983 C331.342,573.92 332.712,571.415 335.451,569.467 C338.316,567.644 341.571,566.733 345.217,566.733 C350.092,566.733 354.128,567.675 357.326,569.561 C360.514,571.384 362.107,574.248 362.107,578.154 C362.107,580.957 361.816,583.071 361.232,584.498 C360.639,585.998 359.988,586.91 359.279,587.233 C358.498,587.566 357.847,587.957 357.326,588.404 C356.732,588.863 356.436,589.483 356.436,590.264"/>
<path class="TimeSig" d="M349.217,618.084 C351.165,618.084 352.824,617.858 354.193,617.404 C355.563,616.951 356.441,616.725 356.826,616.725 C357.284,616.725 357.644,616.855 357.904,617.115 C358.102,617.303 358.232,617.527 358.295,617.787 C358.295,617.923 358.227,618.121 358.092,618.381 L329.686,651.397 L346.373,651.397 L346.373,638.303 C346.373,637.459 346.602,636.74 347.061,636.147 C347.842,635.501 348.493,635.11 349.014,634.975 C349.857,634.589 350.899,633.678 352.139,632.24 C353.18,631.074 354.42,629.027 355.857,626.1 C356.045,625.704 356.337,625.506 356.732,625.506 C357.514,625.506 357.967,625.964 358.092,626.881 L358.092,651.397 L365.232,651.397 C366.139,651.397 366.659,651.881 366.795,652.85 C366.795,653.829 366.274,654.319 365.232,654.319 L358.092,654.319 L358.092,655.1 C358.092,657.704 358.743,659.917 360.045,661.74 C361.545,663.563 363.305,664.475 365.326,664.475 C366.107,664.475 366.498,664.865 366.498,665.647 C366.498,666.428 366.107,666.819 365.326,666.819 C363.962,666.819 361.748,666.626 358.686,666.24 C355.883,665.782 353.701,665.553 352.139,665.553 C350.514,665.553 348.331,665.782 345.592,666.24 C342.665,666.626 340.488,666.819 339.061,666.819 C338.279,666.819 337.889,666.428 337.889,665.647 C337.889,664.865 338.279,664.475 339.061,664.475 C341.071,664.475 342.826,663.563 344.326,661.74 C345.691,659.855 346.373,657.641 346.373,655.1 L346.373,654.319 L329.686,654.319 C328.571,654.319 327.79,654.058 327.342,653.537 C326.811,653.152 326.545,652.631 326.545,651.975 C326.545,651.777 327.034,651.095 328.014,649.928 C329.128,648.626 330.3,647.032 331.529,645.147 C332.967,642.928 334.337,640.647 335.639,638.303 C337.066,635.636 338.206,632.574 339.061,629.115 C340.029,625.605 340.514,622.027 340.514,618.381 C340.514,617.339 340.972,616.819 341.889,616.819 C342.087,616.819 342.508,616.917 343.154,617.115 C343.352,617.178 343.761,617.274 344.381,617.404 C345.001,617.535 345.503,617.662 345.889,617.787 C347.066,617.985 348.175,618.084 349.217,618.084"/>
<path class="Articulation" d="M434.877,519.967 C434.877,521.144 434.291,521.733 433.119,521.733 C431.947,521.733 431.361,521.144 431.361,519.967 L416.908,471.92 C416.846,471.795 416.814,471.571 416.814,471.248 C416.814,470.269 417.434,469.779 418.674,469.779 C419.58,469.779 420.132,470.17 420.33,470.951 L433.127,513.623 L445.924,470.951 C446.111,470.17 446.663,469.779 447.58,469.779 C448.82,469.779 449.439,470.269 449.439,471.248 C449.439,471.571 449.403,471.795 449.33,471.92 L434.877,519.967 "/>
<path class="Dynamic" d="M394.111,753.78 C394.111,753.571 394.273,753.05 394.596,752.217 C395.512,749.696 396.851,747.196 398.611,744.717 C400.934,741.477 403.492,739.858 406.283,739.858 C407.492,739.858 408.434,740.337 409.111,741.295 C409.747,742.17 410.127,743.311 410.252,744.717 C412.367,741.477 414.768,739.858 417.455,739.858 C418.528,739.858 419.486,740.337 420.33,741.295 C421.091,742.379 421.528,743.597 421.643,744.951 C423.684,741.556 426.028,739.858 428.674,739.858 C429.955,739.858 431.184,740.407 432.361,741.506 C433.538,742.605 434.127,744.076 434.127,745.92 C434.127,746.274 434.07,746.712 433.955,747.233 L430.768,760.795 C430.726,760.951 430.705,761.071 430.705,761.155 C430.705,761.675 430.887,761.936 431.252,761.936 C431.887,761.936 432.887,761.415 434.252,760.373 L436.346,758.748 C436.752,758.748 436.955,758.91 436.955,759.233 C436.955,759.472 436.851,759.691 436.643,759.889 C433.809,762.576 431.83,764.316 430.705,765.108 C428.872,766.431 427.111,767.092 425.424,767.092 C424.466,767.092 423.747,766.832 423.268,766.311 C422.747,765.748 422.466,765.087 422.424,764.326 C422.424,764.056 422.466,763.738 422.549,763.373 L425.971,748.498 C426.085,747.894 426.163,747.472 426.205,747.233 C426.205,746.076 425.887,745.498 425.252,745.498 C424.492,745.498 423.71,745.795 422.908,746.389 C422.231,746.91 421.752,747.613 421.471,748.498 L416.486,765.78 C416.288,766.415 415.908,766.733 415.346,766.733 L410.127,766.733 C409.648,766.733 409.408,766.535 409.408,766.139 C409.408,766.014 409.429,765.894 409.471,765.78 L414.393,748.498 C414.591,747.78 414.689,747.3 414.689,747.061 C414.689,746.019 414.288,745.498 413.486,745.498 C412.726,745.498 411.986,745.816 411.268,746.451 C410.507,747.097 410.007,747.78 409.768,748.498 L403.893,765.78 C403.695,766.415 403.294,766.733 402.689,766.733 L397.471,766.733 C397.075,766.733 396.877,766.571 396.877,766.248 C396.877,766.134 396.913,765.977 396.986,765.78 L402.877,748.498 C403.075,747.894 403.174,747.431 403.174,747.108 C403.174,746.035 402.716,745.498 401.799,745.498 C400.518,745.498 399.393,746.358 398.424,748.076 C397.674,749.191 396.856,750.988 395.971,753.467 C395.773,754.03 395.351,754.311 394.705,754.311 C394.309,754.196 394.111,754.019 394.111,753.78 M456.408,741.358 L451.611,756.826 C449.809,762.587 447.028,767.967 443.268,772.967 C439.309,778.207 435.273,780.826 431.158,780.826 C428.992,780.826 427.088,780.267 425.447,779.147 C423.807,778.027 422.986,776.571 422.986,774.78 C422.986,772.738 423.429,771.014 424.314,769.608 C425.231,768.17 426.429,767.451 427.908,767.451 C429.075,767.451 430.046,767.871 430.822,768.709 C431.598,769.548 431.986,770.509 431.986,771.592 C431.986,772.634 431.429,773.535 430.314,774.295 C429.075,775.129 428.455,775.967 428.455,776.811 C428.455,777.457 429.314,777.78 431.033,777.78 C432.835,777.78 434.216,777.035 435.174,775.545 C436.216,773.951 437.054,771.675 437.689,768.717 C437.846,767.915 437.966,767.373 438.049,767.092 L444.471,741.358 L439.486,741.358 C439.049,741.358 438.71,741.196 438.471,740.873 C438.231,740.477 438.111,740.097 438.111,739.733 C438.111,739.254 438.231,738.894 438.471,738.655 C438.794,738.332 439.132,738.17 439.486,738.17 L445.377,738.17 C446.929,733.451 449.606,729.233 453.408,725.514 C457.127,721.879 461.127,720.061 465.408,720.061 C467.606,720.061 469.507,720.639 471.111,721.795 C472.716,722.951 473.533,724.389 473.564,726.108 C473.564,728.035 473.148,729.738 472.314,731.217 C471.314,732.655 470.111,733.373 468.705,733.373 C467.549,733.373 466.57,732.964 465.768,732.147 C464.966,731.329 464.564,730.379 464.564,729.295 C464.564,728.337 465.156,727.488 466.338,726.748 C467.52,726.009 468.111,725.118 468.111,724.076 C468.111,723.358 467.21,722.998 465.408,722.998 C464.45,722.998 463.471,723.337 462.471,724.014 C461.835,724.451 461.117,725.373 460.314,726.78 C459.794,727.655 459.351,728.733 458.986,730.014 C458.913,730.295 458.637,731.733 458.158,734.326 C457.877,735.847 457.575,737.129 457.252,738.17 L462.643,738.17 C463.091,738.17 463.473,738.321 463.791,738.623 C464.109,738.925 464.268,739.295 464.268,739.733 C464.268,740.17 464.109,740.55 463.791,740.873 C463.473,741.196 463.091,741.358 462.643,741.358 L456.408,741.358 "/>
<path class="Dynamic" d="M1765.72,1216.36 L1760.93,1231.83 C1759.12,1237.59 1756.34,1242.97 1752.58,1247.97 C1748.62,1253.21 1744.59,1255.83 1740.47,1255.83 C1738.31,1255.83 1736.4,1255.27 1734.76,1254.15 C1733.12,1253.03 1732.3,1251.57 1732.3,1249.78 C1732.3,1247.74 1732.74,1246.01 1733.63,1244.61 C1734.55,1243.17 1735.74,1242.45 1737.22,1242.45 C1738.39,1242.45 1739.36,1242.87 1740.14,1243.71 C1740.91,1244.55 1741.3,1245.51 1741.3,1246.59 C1741.3,1247.63 1740.74,1248.54 1739.63,1249.3 C1738.39,1250.13 1737.77,1250.97 1737.77,1251.81 C1737.77,1252.46 1738.63,1252.78 1740.35,1252.78 C1742.15,1252.78 1743.53,1252.04 1744.49,1250.55 C1745.53,1248.95 1746.37,1246.68 1747,1243.72 C1747.16,1242.92 1747.28,1242.37 1747.36,1242.09 L1753.79,1216.36 L1748.8,1216.36 C1748.36,1216.36 1748.02,1216.2 1747.79,1215.87 C1747.55,1215.48 1747.43,1215.1 1747.43,1214.73 C1747.43,1214.25 1747.55,1213.89 1747.79,1213.65 C1748.11,1213.33 1748.45,1213.17 1748.8,1213.17 L1754.69,1213.17 C1756.24,1208.45 1758.92,1204.23 1762.72,1200.51 C1766.44,1196.88 1770.44,1195.06 1774.72,1195.06 C1776.92,1195.06 1778.82,1195.64 1780.43,1196.8 C1782.03,1197.95 1782.85,1199.39 1782.88,1201.11 C1782.88,1203.04 1782.46,1204.74 1781.63,1206.22 C1780.63,1207.65 1779.43,1208.37 1778.02,1208.37 C1776.86,1208.37 1775.88,1207.96 1775.08,1207.15 C1774.28,1206.33 1773.88,1205.38 1773.88,1204.3 C1773.88,1203.34 1774.47,1202.49 1775.65,1201.75 C1776.83,1201.01 1777.43,1200.12 1777.43,1199.08 C1777.43,1198.36 1776.52,1198 1774.72,1198 C1773.76,1198 1772.79,1198.34 1771.79,1199.01 C1771.15,1199.45 1770.43,1200.37 1769.63,1201.78 C1769.11,1202.65 1768.67,1203.73 1768.3,1205.01 C1768.23,1205.3 1767.95,1206.73 1767.47,1209.33 C1767.19,1210.85 1766.89,1212.13 1766.57,1213.17 L1771.96,1213.17 C1772.4,1213.17 1772.79,1213.32 1773.11,1213.62 C1773.42,1213.93 1773.58,1214.3 1773.58,1214.73 C1773.58,1215.17 1773.42,1215.55 1773.11,1215.87 C1772.79,1216.2 1772.4,1216.36 1771.96,1216.36 L1765.72,1216.36 "/>
<path class="Beam" fill-rule="evenodd" d="M809.309,1129.22 L911.833,1135.68 L911.833,1148.2 L809.309,1141.75 L809.309,1129.22 "/>
<path class="Beam" fill-rule="evenodd" d="M1007.86,1154.22 L1110.38,1160.68 L1110.38,1173.2 L1007.86,1166.75 L1007.86,1154.22 "/>
<path class="Beam" fill-rule="evenodd" d="M1236.07,1029.02 L1338.59,1035.47 L1338.59,1048 L1236.07,1041.54 L1236.07,1029.02 "/>
<path class="Beam" fill-rule="evenodd" d="M2051.79,1604.17 L2145.41,1617.12 L2145.41,1629.74 L2051.79,1616.79 L2051.79,1604.17 "/>
<path class="Fingering" d="M378.592,969.389 C378.113,969.389 377.154,969.681 375.717,970.264 L375.717,969.717 L382.92,966.077 L383.232,966.155 L383.232,990.155 C383.232,991.113 383.472,991.738 383.951,992.03 C384.43,992.321 385.456,992.483 387.029,992.514 L387.029,993.108 L375.998,993.108 L375.998,992.514 C377.488,992.452 378.493,992.228 379.014,991.842 C379.535,991.457 379.795,990.639 379.795,989.389 L379.795,971.264 C379.795,970.014 379.394,969.389 378.592,969.389"/>
<path class="Fingering" d="M628.198,1002.65 C628.334,1002.04 628.469,1001.51 628.604,1001.06 C628.74,1000.61 629.026,999.957 629.464,999.092 C629.901,998.228 630.393,997.511 630.94,996.944 C631.487,996.376 632.248,995.866 633.222,995.413 C634.196,994.959 635.297,994.733 636.526,994.733 C638.599,994.733 640.349,995.41 641.776,996.764 C643.203,998.118 643.917,999.79 643.917,1001.78 C643.917,1004.79 642.214,1008.08 638.807,1011.65 L632.089,1018.69 L641.636,1018.69 C642.542,1018.69 643.216,1018.53 643.659,1018.23 C644.102,1017.93 644.698,1017.21 645.448,1016.06 L645.964,1016.25 L643.761,1021.73 L628.167,1021.73 L628.167,1021.25 L635.276,1013.7 C638.745,1010.01 640.479,1006.55 640.479,1003.3 C640.479,1001.62 639.959,1000.26 638.917,999.217 C637.875,998.176 636.516,997.655 634.839,997.655 C633.453,997.655 632.341,998.035 631.503,998.795 C630.664,999.556 629.844,1000.91 629.042,1002.86 L628.198,1002.65 "/>
<path class="Fingering" d="M918.775,995.155 C918.91,994.54 919.045,994.009 919.181,993.561 C919.316,993.113 919.603,992.457 920.04,991.592 C920.478,990.728 920.97,990.011 921.517,989.444 C922.064,988.876 922.824,988.366 923.798,987.913 C924.772,987.459 925.874,987.233 927.103,987.233 C929.176,987.233 930.926,987.91 932.353,989.264 C933.78,990.618 934.493,992.29 934.493,994.28 C934.493,997.29 932.79,1000.58 929.384,1004.15 L922.665,1011.19 L932.212,1011.19 C933.118,1011.19 933.793,1011.03 934.236,1010.73 C934.678,1010.43 935.275,1009.71 936.025,1008.56 L936.54,1008.75 L934.337,1014.23 L918.743,1014.23 L918.743,1013.75 L925.853,1006.2 C929.321,1002.51 931.056,999.045 931.056,995.795 C931.056,994.118 930.535,992.759 929.493,991.717 C928.452,990.676 927.092,990.155 925.415,990.155 C924.03,990.155 922.918,990.535 922.079,991.295 C921.241,992.056 920.42,993.41 919.618,995.358 L918.775,995.155 "/>
<path class="Fingering" d="M1021.63,1003.01 C1021.15,1003.01 1020.19,1003.31 1018.75,1003.89 L1018.75,1003.34 L1025.95,999.702 L1026.27,999.78 L1026.27,1023.78 C1026.27,1024.74 1026.51,1025.36 1026.99,1025.65 C1027.46,1025.95 1028.49,1026.11 1030.06,1026.14 L1030.06,1026.73 L1019.03,1026.73 L1019.03,1026.14 C1020.52,1026.08 1021.53,1025.85 1022.05,1025.47 C1022.57,1025.08 1022.83,1024.26 1022.83,1023.01 L1022.83,1004.89 C1022.83,1003.64 1022.43,1003.01 1021.63,1003.01"/>
<path class="Fingering" d="M2077.62,1476.45 L2077.62,1479.01 L2073.54,1479.01 L2073.54,1485.69 L2070.46,1485.69 L2070.46,1479.01 L2059.23,1479.01 L2059.23,1476.45 L2071.78,1458.66 L2073.54,1458.66 L2073.54,1476.45 L2077.62,1476.45 M2070.42,1476.45 L2070.42,1462.73 L2060.82,1476.45 L2070.42,1476.45 "/>
<path class="Fingering" d="M2155.92,1480.51 C2155.45,1480.51 2154.49,1480.81 2153.05,1481.39 L2153.05,1480.84 L2160.25,1477.2 L2160.57,1477.28 L2160.57,1501.28 C2160.57,1502.24 2160.8,1502.86 2161.28,1503.16 C2161.76,1503.45 2162.79,1503.61 2164.36,1503.64 L2164.36,1504.23 L2153.33,1504.23 L2153.33,1503.64 C2154.82,1503.58 2155.83,1503.35 2156.35,1502.97 C2156.87,1502.58 2157.13,1501.76 2157.13,1500.51 L2157.13,1482.39 C2157.13,1481.14 2156.73,1480.51 2155.92,1480.51"/>
<path class="StaffText" d="M502.409,993.182 C502.773,992.62 503.206,991.997 503.706,991.315 C504.206,990.633 504.581,990.115 504.831,989.76 C505.081,989.406 505.299,989.047 505.487,988.682 C505.674,988.318 505.768,988 505.768,987.729 C505.768,987.104 505.101,986.74 503.768,986.635 L503.768,985.885 L511.659,985.885 L511.659,986.635 C509.961,986.698 508.612,987.432 507.612,988.838 L503.456,994.838 L509.862,1004.64 C510.591,1005.74 511.265,1006.52 511.885,1006.96 C512.505,1007.41 513.195,1007.64 513.956,1007.64 L513.956,1008.39 L503.909,1008.39 L503.909,1007.64 C504.742,1007.57 505.284,1007.47 505.534,1007.32 C505.784,1007.16 505.909,1006.87 505.909,1006.43 C505.909,1006.13 505.81,1005.83 505.612,1005.54 L501.065,998.542 L497.112,1004.68 C496.445,1005.71 496.112,1006.4 496.112,1006.73 C496.112,1007.33 496.779,1007.64 498.112,1007.64 L498.112,1008.39 L490.862,1008.39 L490.862,1007.64 C491.695,1007.57 492.336,1007.39 492.784,1007.09 C493.232,1006.79 493.81,1006.12 494.518,1005.09 L500.206,996.838 L495.518,989.635 C494.914,988.698 494.37,988.013 493.885,987.581 C493.401,987.148 493,986.883 492.682,986.784 C492.364,986.685 491.872,986.635 491.206,986.635 L491.206,985.885 L501.565,985.885 L501.565,986.635 C500.127,986.667 499.409,987.031 499.409,987.729 C499.409,988.396 500.174,989.88 501.706,992.182 L502.409,993.182 "/>
<path class="StaffText" d="M981.408,1005.68 C981.772,1005.12 982.204,1004.5 982.704,1003.82 C983.204,1003.13 983.579,1002.61 983.829,1002.26 C984.079,1001.91 984.298,1001.55 984.486,1001.18 C984.673,1000.82 984.767,1000.5 984.767,1000.23 C984.767,999.604 984.1,999.24 982.767,999.135 L982.767,998.385 L990.658,998.385 L990.658,999.135 C988.96,999.198 987.611,999.932 986.611,1001.34 L982.454,1007.34 L988.861,1017.14 C989.59,1018.24 990.264,1019.02 990.884,1019.46 C991.504,1019.91 992.194,1020.14 992.954,1020.14 L992.954,1020.89 L982.908,1020.89 L982.908,1020.14 C983.741,1020.07 984.283,1019.97 984.533,1019.82 C984.783,1019.66 984.908,1019.37 984.908,1018.93 C984.908,1018.63 984.809,1018.33 984.611,1018.04 L980.064,1011.04 L976.111,1017.18 C975.444,1018.21 975.111,1018.9 975.111,1019.23 C975.111,1019.83 975.777,1020.14 977.111,1020.14 L977.111,1020.89 L969.861,1020.89 L969.861,1020.14 C970.694,1020.07 971.335,1019.89 971.783,1019.59 C972.23,1019.29 972.809,1018.62 973.517,1017.59 L979.204,1009.34 L974.517,1002.14 C973.913,1001.2 973.369,1000.51 972.884,1000.08 C972.4,999.648 971.999,999.383 971.681,999.284 C971.363,999.185 970.871,999.135 970.204,999.135 L970.204,998.385 L980.564,998.385 L980.564,999.135 C979.126,999.167 978.408,999.531 978.408,1000.23 C978.408,1000.9 979.173,1002.38 980.704,1004.68 L981.408,1005.68 "/>
<path class="StaffText" d="M2119.61,1478.18 C2119.98,1477.62 2120.41,1477 2120.91,1476.32 C2121.41,1475.63 2121.78,1475.11 2122.03,1474.76 C2122.28,1474.41 2122.5,1474.05 2122.69,1473.68 C2122.88,1473.32 2122.97,1473 2122.97,1472.73 C2122.97,1472.1 2122.3,1471.74 2120.97,1471.64 L2120.97,1470.89 L2128.86,1470.89 L2128.86,1471.64 C2127.16,1471.7 2125.82,1472.43 2124.82,1473.84 L2120.66,1479.84 L2127.07,1489.64 C2127.79,1490.74 2128.47,1491.52 2129.09,1491.96 C2129.71,1492.41 2130.4,1492.64 2131.16,1492.64 L2131.16,1493.39 L2121.11,1493.39 L2121.11,1492.64 C2121.95,1492.57 2122.49,1492.47 2122.74,1492.32 C2122.99,1492.16 2123.11,1491.87 2123.11,1491.43 C2123.11,1491.13 2123.01,1490.83 2122.82,1490.54 L2118.27,1483.54 L2114.32,1489.68 C2113.65,1490.71 2113.32,1491.4 2113.32,1491.73 C2113.32,1492.33 2113.98,1492.64 2115.32,1492.64 L2115.32,1493.39 L2108.07,1493.39 L2108.07,1492.64 C2108.9,1492.57 2109.54,1492.39 2109.99,1492.09 C2110.43,1491.79 2111.01,1491.12 2111.72,1490.09 L2117.41,1481.84 L2112.72,1474.64 C2112.12,1473.7 2111.57,1473.01 2111.09,1472.58 C2110.6,1472.15 2110.2,1471.88 2109.89,1471.78 C2109.57,1471.69 2109.08,1471.64 2108.41,1471.64 L2108.41,1470.89 L2118.77,1470.89 L2118.77,1471.64 C2117.33,1471.67 2116.61,1472.03 2116.61,1472.73 C2116.61,1473.4 2117.38,1474.88 2118.91,1477.18 L2119.61,1478.18 "/>
<polyline class="HairpinSegment" fill="none" stroke="#000000" stroke-width="3.25" stroke-linecap="square" stroke-linejoin="bevel" points="2391.69,754.233 2805.69,769.233"/>
<polyline class="HairpinSegment" fill="none" stroke="#000000" stroke-width="3.25" stroke-linecap="square" stroke-linejoin="bevel" points="2391.69,754.233 2805.69,739.233"/>
<polyline class="HairpinSegment" fill="none" stroke="#000000" stroke-width="3.25" stroke-linecap="square" stroke-linejoin="bevel" points="1433.95,1244.23 1715.95,1229.23"/>
<polyline class="HairpinSegment" fill="none" stroke="#000000" stroke-width="3.25" stroke-linecap="square" stroke-linejoin="bevel" points="1433.95,1214.23 1715.95,1229.23"/>
<polyline class="HairpinSegment" fill="none" stroke="#000000" stroke-width="3.25" stroke-linecap="square" stroke-linejoin="bevel" points="1231.28,1704.23 1586.28,1719.23"/>
<polyline class="HairpinSegment" fill="none" stroke="#000000" stroke-width="3.25" stroke-linecap="square" stroke-linejoin="bevel" points="1231.28,1704.23 1586.28,1689.23"/>
<polyline class="HairpinSegment" fill="none" stroke="#000000" stroke-width="3.25" stroke-linecap="square" stroke-linejoin="bevel" points="2051.79,1719.23 2809.79,1704.23"/>
<polyline class="HairpinSegment" fill="none" stroke="#000000" stroke-width="3.25" stroke-linecap="square" stroke-linejoin="bevel" points="2051.79,1689.23 2809.79,1704.23"/>
</svg>
