<?xml version="1.0" encoding="UTF-8" standalone="no"?>
<svg width="2977.2px" height="4208.4px" viewBox="0 0 2977.2 4208.4"
 xmlns="http://www.w3.org/2000/svg" xmlns:xlink="http://www.w3.org/1999/xlink" version="1.2" baseProfile="tiny">
<title>0-4</title>
<desc>Generated by MuseScore 3.4.2</desc>
<polyline class="StaffLines" fill="none" stroke="#000000" stroke-width="2.00" stroke-linejoin="bevel" points="141.732,566.733 2835.47,566.733"/>
<polyline class="StaffLines" fill="none" stroke="#000000" stroke-width="2.00" stroke-linejoin="bevel" points="141.732,591.733 2835.47,591.733"/>
<polyline class="StaffLines" fill="none" stroke="#000000" stroke-width="2.00" stroke-linejoin="bevel" points="141.732,616.733 2835.47,616.733"/>
<polyline class="StaffLines" fill="none" stroke="#000000" stroke-width="2.00" stroke-linejoin="bevel" points="141.732,641.733 2835.47,641.733"/>
<polyline class="StaffLines" fill="none" stroke="#000000" stroke-width="2.00" stroke-linejoin="bevel" points="141.732,666.733 2835.47,666.733"/>
<path class="Text" d="M953.81,225.42 C943.008,225.42 933.889,221.586 926.451,213.92 C919.014,206.253 915.295,196.243 915.295,183.889 C915.295,171.774 918.974,161.826 926.334,154.045 C933.693,146.264 943.092,142.373 954.529,142.373 C966.05,142.373 975.469,146.245 982.787,153.99 C990.105,161.735 993.764,171.862 993.764,184.373 C993.764,196.487 990.066,206.357 982.67,213.982 C975.274,221.607 965.654,225.42 953.81,225.42 M980.092,184.248 C980.092,178.508 979.532,173.407 978.412,168.943 C977.292,164.48 975.873,160.891 974.154,158.178 C972.435,155.464 970.415,153.232 968.092,151.482 C965.769,149.732 963.508,148.537 961.31,147.896 C959.112,147.256 956.852,146.935 954.529,146.935 C950.612,146.935 947.094,147.771 943.974,149.443 C940.855,151.115 938.394,153.209 936.592,155.724 C934.79,158.24 933.29,161.211 932.092,164.639 C930.894,168.066 930.073,171.355 929.631,174.506 C929.188,177.657 928.967,180.868 928.967,184.139 C928.967,188.201 929.368,192.185 930.17,196.092 C930.972,199.998 932.253,203.904 934.014,207.81 C935.774,211.717 938.394,214.868 941.873,217.264 C945.352,219.659 949.493,220.857 954.295,220.857 C959.17,220.857 963.389,219.659 966.951,217.264 C970.514,214.868 973.193,211.717 974.99,207.81 C976.787,203.904 978.086,199.998 978.889,196.092 C979.691,192.185 980.092,188.237 980.092,184.248 M999.779,176.576 L999.779,174.654 C1004.81,173.133 1010.57,171.092 1017.04,168.529 L1017.76,168.779 L1017.76,178.029 C1022.89,171.696 1028.65,168.529 1035.04,168.529 C1040.89,168.529 1045.69,170.938 1049.45,175.756 C1053.21,180.573 1055.09,186.717 1055.09,194.185 C1055.09,202.883 1052.67,210.183 1047.83,216.084 C1043,221.985 1037.01,224.935 1029.89,224.935 C1027.33,224.935 1025.19,224.592 1023.47,223.904 C1021.75,223.217 1019.85,221.915 1017.76,219.998 L1017.76,238.685 C1017.76,242.415 1018.4,244.816 1019.69,245.889 C1020.97,246.961 1023.85,247.534 1028.33,247.607 L1028.33,249.764 L999.295,249.764 L999.295,247.732 C1002.82,247.409 1005.09,246.73 1006.13,245.693 C1007.17,244.657 1007.69,242.576 1007.69,239.451 L1007.69,183.295 C1007.69,180.493 1007.37,178.652 1006.73,177.771 C1006.1,176.891 1004.78,176.451 1002.78,176.451 C1001.5,176.451 1000.5,176.493 999.779,176.576 M1017.76,183.701 L1017.76,213.373 C1017.76,215.144 1019.14,216.912 1021.9,218.678 C1024.66,220.443 1027.45,221.326 1030.25,221.326 C1034.57,221.326 1038.07,219.256 1040.75,215.115 C1043.42,210.974 1044.76,205.566 1044.76,198.889 C1044.76,191.899 1043.42,186.292 1040.75,182.068 C1038.07,177.844 1034.49,175.732 1030.01,175.732 C1027.21,175.732 1024.47,176.618 1021.79,178.389 C1019.1,180.159 1017.76,181.93 1017.76,183.701 M1089.65,176.217 L1089.65,174.17 C1095.41,172.503 1101.01,170.623 1106.45,168.529 L1107.29,168.779 L1107.29,177.998 C1112.25,174.144 1115.93,171.602 1118.33,170.373 C1120.73,169.144 1123.25,168.529 1125.89,168.529 C1132.21,168.529 1136.45,171.967 1138.61,178.842 C1144.85,171.967 1151.37,168.529 1158.17,168.529 C1167.45,168.529 1172.09,175.706 1172.09,190.06 L1172.09,214.654 C1172.09,219.112 1173.81,221.461 1177.25,221.701 L1180.37,221.935 L1180.37,223.732 L1154.09,223.732 L1154.09,221.935 C1157.61,221.54 1159.81,220.862 1160.69,219.904 C1161.57,218.946 1162.01,216.758 1162.01,213.342 L1162.01,188.139 C1162.01,183.211 1161.37,179.792 1160.09,177.881 C1158.81,175.969 1156.45,175.014 1153.01,175.014 C1147.73,175.014 1143.37,177.441 1139.94,182.295 L1139.94,212.389 C1139.94,216.128 1140.51,218.633 1141.67,219.904 C1142.83,221.175 1145.13,221.852 1148.58,221.935 L1148.58,223.732 L1121.69,223.732 L1121.69,221.935 C1125.13,221.696 1127.36,221.058 1128.36,220.021 C1129.36,218.985 1129.86,216.795 1129.86,213.451 L1129.86,187.545 C1129.86,179.191 1127.22,175.014 1121.94,175.014 C1119.7,175.014 1117.2,175.571 1114.44,176.685 C1111.67,177.8 1109.45,179.592 1107.76,182.06 L1107.76,215.732 C1107.76,218.034 1108.33,219.605 1109.45,220.443 C1110.58,221.282 1112.74,221.779 1115.94,221.935 L1115.94,223.732 L1089.29,223.732 L1089.29,221.935 C1092.65,221.852 1094.89,221.253 1096.01,220.139 C1097.13,219.024 1097.69,216.836 1097.69,213.576 L1097.69,183.373 C1097.69,180.508 1097.39,178.519 1096.79,177.404 C1096.19,176.29 1095.09,175.732 1093.5,175.732 C1092.29,175.732 1091.01,175.894 1089.65,176.217 M1184.09,211.889 C1184.09,210.451 1184.25,209.115 1184.57,207.881 C1184.89,206.646 1185.45,205.493 1186.25,204.42 C1187.05,203.347 1187.81,202.373 1188.53,201.498 C1189.25,200.623 1190.33,199.727 1191.77,198.81 C1193.21,197.894 1194.41,197.139 1195.37,196.545 C1196.33,195.951 1197.79,195.235 1199.75,194.396 C1201.71,193.558 1203.21,192.92 1204.25,192.482 C1205.29,192.045 1206.93,191.389 1209.17,190.514 C1211.41,189.639 1213.05,189.003 1214.09,188.607 L1214.09,181.326 C1214.09,174.722 1211.05,171.42 1204.97,171.42 C1202.57,171.42 1200.53,171.998 1198.85,173.154 C1197.17,174.31 1196.33,175.691 1196.33,177.295 C1196.33,177.93 1196.43,178.808 1196.63,179.928 C1196.83,181.047 1196.94,181.769 1196.94,182.092 C1196.94,183.456 1196.39,184.639 1195.31,185.639 C1194.23,186.639 1192.97,187.139 1191.53,187.139 C1190.17,187.139 1188.98,186.618 1187.94,185.576 C1186.89,184.534 1186.37,183.331 1186.37,181.967 C1186.37,178.217 1188.31,175.04 1192.19,172.435 C1196.07,169.831 1200.85,168.529 1206.53,168.529 C1213.09,168.529 1217.61,170.102 1220.09,173.248 C1222.57,176.394 1223.81,181.196 1223.81,187.654 L1223.81,210.935 C1223.81,213.56 1224.07,215.37 1224.59,216.365 C1225.11,217.36 1226.05,217.857 1227.4,217.857 C1229.09,217.857 1230.85,217.102 1232.69,215.592 L1232.69,218.732 C1230.61,221.128 1228.79,222.761 1227.23,223.631 C1225.67,224.501 1223.89,224.935 1221.89,224.935 C1219.41,224.935 1217.59,224.237 1216.43,222.842 C1215.27,221.446 1214.53,219.144 1214.22,215.935 C1207.33,221.935 1201.49,224.935 1196.69,224.935 C1193.01,224.935 1189.99,223.714 1187.63,221.271 C1185.27,218.829 1184.09,215.701 1184.09,211.889 M1214.09,208.779 L1214.09,191.467 C1206.89,194.092 1201.85,196.639 1198.97,199.107 C1196.09,201.576 1194.65,204.56 1194.65,208.06 C1194.65,211.321 1195.45,213.748 1197.05,215.342 C1198.65,216.935 1200.37,217.732 1202.22,217.732 C1204.94,217.732 1207.85,216.816 1210.97,214.982 C1212.25,214.274 1213.09,213.521 1213.49,212.724 C1213.89,211.928 1214.09,210.612 1214.09,208.779 M1236.09,211.889 C1236.09,210.451 1236.25,209.115 1236.57,207.881 C1236.89,206.646 1237.45,205.493 1238.25,204.42 C1239.05,203.347 1239.81,202.373 1240.53,201.498 C1241.25,200.623 1242.33,199.727 1243.77,198.81 C1245.21,197.894 1246.41,197.139 1247.37,196.545 C1248.33,195.951 1249.79,195.235 1251.75,194.396 C1253.71,193.558 1255.21,192.92 1256.25,192.482 C1257.29,192.045 1258.93,191.389 1261.17,190.514 C1263.41,189.639 1265.05,189.003 1266.09,188.607 L1266.09,181.326 C1266.09,174.722 1263.05,171.42 1256.97,171.42 C1254.57,171.42 1252.53,171.998 1250.85,173.154 C1249.17,174.31 1248.33,175.691 1248.33,177.295 C1248.33,177.93 1248.43,178.808 1248.63,179.928 C1248.83,181.047 1248.94,181.769 1248.94,182.092 C1248.94,183.456 1248.39,184.639 1247.31,185.639 C1246.23,186.639 1244.97,187.139 1243.53,187.139 C1242.17,187.139 1240.98,186.618 1239.94,185.576 C1238.89,184.534 1238.37,183.331 1238.37,181.967 C1238.37,178.217 1240.31,175.04 1244.19,172.435 C1248.07,169.831 1252.85,168.529 1258.53,168.529 C1265.09,168.529 1269.61,170.102 1272.09,173.248 C1274.57,176.394 1275.81,181.196 1275.81,187.654 L1275.81,210.935 C1275.81,213.56 1276.07,215.37 1276.59,216.365 C1277.11,217.36 1278.05,217.857 1279.4,217.857 C1281.09,217.857 1282.85,217.102 1284.69,215.592 L1284.69,218.732 C1282.61,221.128 1280.79,222.761 1279.23,223.631 C1277.67,224.501 1275.89,224.935 1273.89,224.935 C1271.41,224.935 1269.59,224.237 1268.43,222.842 C1267.27,221.446 1266.53,219.144 1266.22,215.935 C1259.33,221.935 1253.49,224.935 1248.69,224.935 C1245.01,224.935 1241.99,223.714 1239.63,221.271 C1237.27,218.829 1236.09,215.701 1236.09,211.889 M1266.09,208.779 L1266.09,191.467 C1258.89,194.092 1253.85,196.639 1250.97,199.107 C1248.09,201.576 1246.65,204.56 1246.65,208.06 C1246.65,211.321 1247.45,213.748 1249.05,215.342 C1250.65,216.935 1252.37,217.732 1254.22,217.732 C1256.94,217.732 1259.85,216.816 1262.97,214.982 C1264.25,214.274 1265.09,213.521 1265.49,212.724 C1265.89,211.928 1266.09,210.612 1266.09,208.779 M1316.17,169.732 L1316.17,173.342 L1304.04,173.342 L1304.04,207.654 C1304.04,211.415 1304.53,214.154 1305.49,215.873 C1306.45,217.592 1308.06,218.451 1310.29,218.451 C1312.77,218.451 1315.17,217.05 1317.5,214.248 L1319.04,215.576 C1315.21,221.816 1310.41,224.935 1304.65,224.935 C1297.53,224.935 1293.97,219.831 1293.97,209.623 L1293.97,173.342 L1287.61,173.342 C1287.29,173.112 1287.14,172.847 1287.14,172.545 C1287.14,172.17 1287.26,171.87 1287.5,171.646 C1287.74,171.422 1288.2,171.105 1288.87,170.693 C1289.55,170.282 1290.37,169.691 1291.33,168.92 C1292.3,168.149 1293.62,166.751 1295.29,164.724 C1296.97,162.698 1298.81,160.264 1300.81,157.42 C1302.09,155.555 1302.89,154.42 1303.22,154.014 C1303.77,154.014 1304.04,154.54 1304.04,155.592 L1304.04,169.732 L1316.17,169.732 M1356.29,217.248 C1356.29,215.727 1356.83,214.329 1357.91,213.053 C1358.99,211.777 1362.01,208.816 1366.97,204.17 C1362.97,202.159 1360.11,199.909 1358.39,197.42 C1356.67,194.93 1355.81,191.8 1355.81,188.029 C1355.81,182.602 1357.75,177.995 1361.63,174.209 C1365.51,170.422 1370.25,168.529 1375.86,168.529 C1378.97,168.529 1382.31,169.191 1385.87,170.514 C1389.44,171.836 1392.37,172.498 1394.69,172.498 L1403.94,172.498 L1403.94,177.06 L1393.97,177.06 C1395.49,180.508 1396.25,183.883 1396.25,187.185 C1396.25,192.727 1394.39,197.224 1390.67,200.678 C1386.95,204.131 1382.57,205.857 1377.53,205.857 C1376.57,205.857 1374.29,205.654 1370.69,205.248 C1369.09,205.727 1367.5,206.808 1365.9,208.49 C1364.3,210.172 1363.5,211.612 1363.5,212.81 C1363.5,214.727 1366.62,215.805 1372.86,216.045 L1388.33,216.779 C1392.73,216.935 1396.26,218.172 1398.9,220.49 C1401.54,222.808 1402.86,225.847 1402.86,229.607 C1402.86,235.368 1399.56,240.188 1392.95,244.068 C1386.35,247.948 1379.25,249.889 1371.65,249.889 C1365.98,249.889 1361.1,248.748 1357.01,246.467 C1352.93,244.185 1350.89,241.446 1350.89,238.248 C1350.89,236.008 1351.79,233.79 1353.59,231.592 C1355.39,229.394 1358.41,226.732 1362.65,223.607 C1360.17,222.409 1358.5,221.37 1357.62,220.49 C1356.73,219.61 1356.29,218.529 1356.29,217.248 M1365.17,223.967 C1362.69,226.935 1361.09,229.058 1360.37,230.334 C1359.65,231.61 1359.29,232.93 1359.29,234.295 C1359.29,236.93 1360.89,239.047 1364.09,240.646 C1367.29,242.245 1371.53,243.045 1376.81,243.045 C1383.61,243.045 1389.09,241.967 1393.25,239.81 C1397.4,237.654 1399.48,234.857 1399.48,231.42 C1399.48,229.253 1398.36,227.73 1396.12,226.849 C1393.88,225.969 1390.04,225.529 1384.61,225.529 C1376.53,225.529 1370.06,225.008 1365.17,223.967 M1387.01,191.889 C1387.01,190.545 1386.85,188.928 1386.53,187.037 C1386.21,185.146 1385.65,182.998 1384.85,180.592 C1384.05,178.185 1382.77,176.175 1381.01,174.56 C1379.25,172.946 1377.13,172.139 1374.65,172.139 C1371.85,172.139 1369.67,173.107 1368.11,175.045 C1366.54,176.982 1365.76,179.659 1365.76,183.076 C1365.76,189.993 1367.04,195.019 1369.61,198.154 C1372.17,201.29 1374.97,202.857 1378.01,202.857 C1380.82,202.857 1383.02,201.873 1384.62,199.904 C1386.21,197.935 1387.01,195.264 1387.01,191.889 M1416.73,190.498 C1416.89,195.54 1417.57,199.878 1418.77,203.514 C1419.97,207.149 1421.53,209.868 1423.45,211.67 C1425.37,213.472 1427.31,214.753 1429.27,215.514 C1431.23,216.274 1433.29,216.654 1435.45,216.654 C1439.29,216.654 1442.64,215.693 1445.47,213.771 C1448.31,211.849 1451.17,208.612 1454.04,204.06 L1455.97,204.889 C1453.49,211.368 1450.05,216.329 1445.65,219.771 C1441.25,223.214 1436.21,224.935 1430.53,224.935 C1423.65,224.935 1418.2,222.516 1414.15,217.678 C1410.11,212.839 1408.09,206.3 1408.09,198.06 C1408.09,189.175 1410.43,182.032 1415.12,176.631 C1419.8,171.23 1425.82,168.529 1433.17,168.529 C1439.25,168.529 1443.97,170.349 1447.33,173.99 C1450.69,177.631 1452.81,183.133 1453.69,190.498 L1416.73,190.498 M1416.97,186.889 L1441.45,186.889 C1440.65,181.691 1439.41,178.092 1437.73,176.092 C1436.06,174.092 1433.37,173.092 1429.69,173.092 C1422.49,173.092 1418.25,177.691 1416.97,186.889 M1459.65,176.217 L1459.65,174.17 C1465.41,172.503 1471.01,170.623 1476.45,168.529 L1477.29,168.779 L1477.29,177.998 C1482.25,174.144 1485.93,171.602 1488.33,170.373 C1490.73,169.144 1493.25,168.529 1495.89,168.529 C1502.21,168.529 1506.45,171.967 1508.61,178.842 C1514.85,171.967 1521.37,168.529 1528.17,168.529 C1537.45,168.529 1542.09,175.706 1542.09,190.06 L1542.09,214.654 C1542.09,219.112 1543.81,221.461 1547.25,221.701 L1550.37,221.935 L1550.37,223.732 L1524.09,223.732 L1524.09,221.935 C1527.61,221.54 1529.81,220.862 1530.69,219.904 C1531.57,218.946 1532.01,216.758 1532.01,213.342 L1532.01,188.139 C1532.01,183.211 1531.37,179.792 1530.09,177.881 C1528.81,175.969 1526.45,175.014 1523.01,175.014 C1517.73,175.014 1513.37,177.441 1509.94,182.295 L1509.94,212.389 C1509.94,216.128 1510.51,218.633 1511.67,219.904 C1512.83,221.175 1515.13,221.852 1518.58,221.935 L1518.58,223.732 L1491.69,223.732 L1491.69,221.935 C1495.13,221.696 1497.36,221.058 1498.36,220.021 C1499.36,218.985 1499.86,216.795 1499.86,213.451 L1499.86,187.545 C1499.86,179.191 1497.22,175.014 1491.94,175.014 C1489.7,175.014 1487.2,175.571 1484.44,176.685 C1481.67,177.8 1479.45,179.592 1477.76,182.06 L1477.76,215.732 C1477.76,218.034 1478.33,219.605 1479.45,220.443 C1480.58,221.282 1482.74,221.779 1485.94,221.935 L1485.94,223.732 L1459.29,223.732 L1459.29,221.935 C1462.65,221.852 1464.89,221.253 1466.01,220.139 C1467.13,219.024 1467.69,216.836 1467.69,213.576 L1467.69,183.373 C1467.69,180.508 1467.39,178.519 1466.79,177.404 C1466.19,176.29 1465.09,175.732 1463.5,175.732 C1462.29,175.732 1461.01,175.894 1459.65,176.217 M1554.09,211.889 C1554.09,210.451 1554.25,209.115 1554.57,207.881 C1554.89,206.646 1555.45,205.493 1556.25,204.42 C1557.05,203.347 1557.81,202.373 1558.53,201.498 C1559.25,200.623 1560.33,199.727 1561.77,198.81 C1563.21,197.894 1564.41,197.139 1565.37,196.545 C1566.33,195.951 1567.79,195.235 1569.75,194.396 C1571.71,193.558 1573.21,192.92 1574.25,192.482 C1575.29,192.045 1576.93,191.389 1579.17,190.514 C1581.41,189.639 1583.05,189.003 1584.09,188.607 L1584.09,181.326 C1584.09,174.722 1581.05,171.42 1574.97,171.42 C1572.57,171.42 1570.53,171.998 1568.85,173.154 C1567.17,174.31 1566.33,175.691 1566.33,177.295 C1566.33,177.93 1566.43,178.808 1566.63,179.928 C1566.83,181.047 1566.94,181.769 1566.94,182.092 C1566.94,183.456 1566.39,184.639 1565.31,185.639 C1564.23,186.639 1562.97,187.139 1561.53,187.139 C1560.17,187.139 1558.98,186.618 1557.94,185.576 C1556.89,184.534 1556.37,183.331 1556.37,181.967 C1556.37,178.217 1558.31,175.04 1562.19,172.435 C1566.07,169.831 1570.85,168.529 1576.53,168.529 C1583.09,168.529 1587.61,170.102 1590.09,173.248 C1592.57,176.394 1593.81,181.196 1593.81,187.654 L1593.81,210.935 C1593.81,213.56 1594.07,215.37 1594.59,216.365 C1595.11,217.36 1596.05,217.857 1597.4,217.857 C1599.09,217.857 1600.85,217.102 1602.69,215.592 L1602.69,218.732 C1600.61,221.128 1598.79,222.761 1597.23,223.631 C1595.67,224.501 1593.89,224.935 1591.89,224.935 C1589.41,224.935 1587.59,224.237 1586.43,222.842 C1585.27,221.446 1584.53,219.144 1584.22,215.935 C1577.33,221.935 1571.49,224.935 1566.69,224.935 C1563.01,224.935 1559.99,223.714 1557.63,221.271 C1555.27,218.829 1554.09,215.701 1554.09,211.889 M1584.09,208.779 L1584.09,191.467 C1576.89,194.092 1571.85,196.639 1568.97,199.107 C1566.09,201.576 1564.65,204.56 1564.65,208.06 C1564.65,211.321 1565.45,213.748 1567.05,215.342 C1568.65,216.935 1570.37,217.732 1572.22,217.732 C1574.94,217.732 1577.85,216.816 1580.97,214.982 C1582.25,214.274 1583.09,213.521 1583.49,212.724 C1583.89,211.928 1584.09,210.612 1584.09,208.779 M1606.09,211.889 C1606.09,210.451 1606.25,209.115 1606.57,207.881 C1606.89,206.646 1607.45,205.493 1608.25,204.42 C1609.05,203.347 1609.81,202.373 1610.53,201.498 C1611.25,200.623 1612.33,199.727 1613.77,198.81 C1615.21,197.894 1616.41,197.139 1617.37,196.545 C1618.33,195.951 1619.79,195.235 1621.75,194.396 C1623.71,193.558 1625.21,192.92 1626.25,192.482 C1627.29,192.045 1628.93,191.389 1631.17,190.514 C1633.41,189.639 1635.05,189.003 1636.09,188.607 L1636.09,181.326 C1636.09,174.722 1633.05,171.42 1626.97,171.42 C1624.57,171.42 1622.53,171.998 1620.85,173.154 C1619.17,174.31 1618.33,175.691 1618.33,177.295 C1618.33,177.93 1618.43,178.808 1618.63,179.928 C1618.83,181.047 1618.94,181.769 1618.94,182.092 C1618.94,183.456 1618.39,184.639 1617.31,185.639 C1616.23,186.639 1614.97,187.139 1613.53,187.139 C1612.17,187.139 1610.98,186.618 1609.94,185.576 C1608.89,184.534 1608.37,183.331 1608.37,181.967 C1608.37,178.217 1610.31,175.04 1614.19,172.435 C1618.07,169.831 1622.85,168.529 1628.53,168.529 C1635.09,168.529 1639.61,170.102 1642.09,173.248 C1644.57,176.394 1645.81,181.196 1645.81,187.654 L1645.81,210.935 C1645.81,213.56 1646.07,215.37 1646.59,216.365 C1647.11,217.36 1648.05,217.857 1649.4,217.857 C1651.09,217.857 1652.85,217.102 1654.69,215.592 L1654.69,218.732 C1652.61,221.128 1650.79,222.761 1649.23,223.631 C1647.67,224.501 1645.89,224.935 1643.89,224.935 C1641.41,224.935 1639.59,224.237 1638.43,222.842 C1637.27,221.446 1636.53,219.144 1636.22,215.935 C1629.33,221.935 1623.49,224.935 1618.69,224.935 C1615.01,224.935 1611.99,223.714 1609.63,221.271 C1607.27,218.829 1606.09,215.701 1606.09,211.889 M1636.09,208.779 L1636.09,191.467 C1628.89,194.092 1623.85,196.639 1620.97,199.107 C1618.09,201.576 1616.65,204.56 1616.65,208.06 C1616.65,211.321 1617.45,213.748 1619.05,215.342 C1620.65,216.935 1622.37,217.732 1624.22,217.732 C1626.94,217.732 1629.85,216.816 1632.97,214.982 C1634.25,214.274 1635.09,213.521 1635.49,212.724 C1635.89,211.928 1636.09,210.612 1636.09,208.779 M1656.29,148.982 L1656.29,147.06 C1663.1,145.373 1669.29,143.612 1674.89,141.779 L1675.37,142.014 L1675.37,192.42 L1691.81,177.779 C1693.65,176.175 1694.58,174.816 1694.58,173.701 C1694.58,172.899 1694.15,172.336 1693.31,172.014 C1692.47,171.691 1690.89,171.493 1688.58,171.42 L1688.58,169.732 L1713.04,169.732 L1713.04,171.529 C1711.21,171.529 1709.75,171.631 1708.67,171.834 C1707.59,172.037 1706.04,172.579 1704.04,173.459 C1702.04,174.339 1699.71,175.857 1697.03,178.014 C1694.35,180.17 1691.05,183.05 1687.12,186.654 L1683.65,189.889 L1702.01,213.17 C1704.49,216.211 1706.79,218.391 1708.91,219.709 C1711.03,221.027 1713.41,221.769 1716.04,221.935 L1716.04,223.732 L1689.89,223.732 L1689.89,221.935 C1693.09,221.935 1694.69,221.336 1694.69,220.139 C1694.69,219.816 1694.57,219.433 1694.33,218.99 C1694.09,218.547 1693.71,218.027 1693.19,217.428 C1692.66,216.829 1692.33,216.368 1692.17,216.045 L1675.37,193.607 L1675.37,214.139 C1675.37,217.014 1675.83,218.852 1676.76,219.654 C1677.68,220.456 1680.22,221.217 1684.37,221.935 L1684.37,223.732 L1656.29,223.732 L1656.29,221.935 C1660.62,221.217 1663.2,220.477 1664.04,219.717 C1664.88,218.956 1665.29,217.014 1665.29,213.889 L1665.29,156.06 C1665.29,153.175 1664.94,151.232 1664.22,150.232 C1663.5,149.232 1662.14,148.732 1660.14,148.732 C1659.01,148.732 1657.73,148.816 1656.29,148.982 M1748.17,169.732 L1748.17,173.342 L1736.04,173.342 L1736.04,207.654 C1736.04,211.415 1736.53,214.154 1737.49,215.873 C1738.45,217.592 1740.06,218.451 1742.29,218.451 C1744.77,218.451 1747.17,217.05 1749.5,214.248 L1751.04,215.576 C1747.21,221.816 1742.41,224.935 1736.65,224.935 C1729.53,224.935 1725.97,219.831 1725.97,209.623 L1725.97,173.342 L1719.61,173.342 C1719.29,173.112 1719.14,172.847 1719.14,172.545 C1719.14,172.17 1719.26,171.87 1719.5,171.646 C1719.74,171.422 1720.2,171.105 1720.87,170.693 C1721.55,170.282 1722.37,169.691 1723.33,168.92 C1724.3,168.149 1725.62,166.751 1727.29,164.724 C1728.97,162.698 1730.81,160.264 1732.81,157.42 C1734.09,155.555 1734.89,154.42 1735.22,154.014 C1735.77,154.014 1736.04,154.54 1736.04,155.592 L1736.04,169.732 L1748.17,169.732 M1816.12,244.967 C1814.05,243.685 1811.89,242.146 1809.65,240.349 C1807.41,238.553 1804.87,236.053 1802.03,232.849 C1799.19,229.646 1796.69,226.227 1794.53,222.592 C1792.37,218.956 1790.56,214.579 1789.08,209.459 C1787.6,204.339 1786.86,199.019 1786.86,193.498 C1786.86,187.737 1787.6,182.277 1789.08,177.115 C1790.56,171.954 1792.29,167.672 1794.29,164.271 C1796.29,160.87 1798.83,157.592 1801.91,154.435 C1804.99,151.279 1807.53,148.941 1809.53,147.42 C1811.53,145.899 1813.85,144.3 1816.5,142.623 L1817.58,144.529 C1814.06,147.415 1811.21,150.016 1809.05,152.334 C1806.89,154.652 1804.81,157.672 1802.81,161.396 C1800.81,165.12 1799.37,169.56 1798.49,174.717 C1797.61,179.873 1797.17,186.014 1797.17,193.139 C1797.17,200.576 1797.61,206.974 1798.49,212.334 C1799.37,217.693 1800.81,222.274 1802.81,226.076 C1804.81,229.878 1806.89,232.977 1809.05,235.373 C1811.21,237.769 1814.06,240.326 1817.58,243.045 L1816.12,244.967 M1862.12,224.935 L1861.65,224.56 L1861.65,216.67 C1857.81,222.18 1852.69,224.935 1846.29,224.935 C1839.65,224.935 1834.29,222.55 1830.21,217.779 C1826.13,213.008 1824.09,206.779 1824.09,199.092 C1824.09,190.623 1826.53,183.412 1831.41,177.459 C1836.29,171.506 1842.17,168.529 1849.04,168.529 C1853.37,168.529 1857.57,170.326 1861.65,173.92 L1861.65,155.029 C1861.65,152.529 1861.29,150.876 1860.58,150.068 C1859.86,149.261 1858.37,148.857 1856.12,148.857 C1855.01,148.857 1854.13,148.899 1853.5,148.982 L1853.5,147.06 C1860.77,145.133 1866.64,143.373 1871.12,141.779 L1871.73,142.014 L1871.73,209.857 C1871.73,212.649 1872.07,214.482 1872.75,215.357 C1873.42,216.232 1874.85,216.67 1877.01,216.67 C1877.41,216.67 1878.33,216.633 1879.76,216.56 L1879.76,218.451 L1862.12,224.935 M1850.97,218.451 C1854.01,218.451 1856.55,217.599 1858.59,215.896 C1860.63,214.193 1861.65,212.67 1861.65,211.326 L1861.65,184.014 C1861.65,180.847 1860.41,178.076 1857.94,175.701 C1855.46,173.326 1852.61,172.139 1849.4,172.139 C1844.85,172.139 1841.21,174.157 1838.49,178.193 C1835.77,182.23 1834.4,187.612 1834.4,194.342 C1834.4,201.623 1835.92,207.461 1838.97,211.857 C1842.01,216.253 1846.01,218.451 1850.97,218.451 M1938.69,217.498 L1938.69,219.17 C1932.45,220.93 1926.97,222.81 1922.25,224.81 L1921.76,224.56 L1921.76,214.389 C1921.52,214.628 1920.83,215.344 1919.67,216.537 C1918.51,217.73 1917.7,218.555 1917.22,219.014 C1916.74,219.472 1915.92,220.178 1914.76,221.131 C1913.59,222.084 1912.57,222.769 1911.69,223.185 C1910.81,223.602 1909.69,223.998 1908.33,224.373 C1906.97,224.748 1905.61,224.935 1904.25,224.935 C1899.85,224.935 1896.33,223.498 1893.69,220.623 C1891.05,217.748 1889.73,213.92 1889.73,209.139 L1889.73,179.06 C1889.73,176.269 1889.21,174.336 1888.17,173.264 C1887.13,172.191 1885.17,171.576 1882.29,171.42 L1882.29,169.732 L1899.81,169.732 L1899.81,208.654 C1899.81,211.123 1900.65,213.253 1902.33,215.045 C1904.02,216.836 1906.01,217.732 1908.33,217.732 C1909.21,217.732 1910.25,217.612 1911.45,217.373 C1912.65,217.133 1914.03,216.675 1915.59,215.998 C1917.15,215.321 1918.47,214.248 1919.55,212.779 C1920.63,211.31 1921.17,209.498 1921.17,207.342 L1921.17,179.295 C1921.17,176.347 1920.63,174.396 1919.55,173.443 C1918.47,172.49 1916.06,171.935 1912.29,171.779 L1912.29,169.732 L1931.25,169.732 L1931.25,210.685 C1931.25,213.477 1931.69,215.31 1932.57,216.185 C1933.45,217.06 1935.29,217.498 1938.09,217.498 L1938.69,217.498 M1951.73,190.498 C1951.89,195.54 1952.57,199.878 1953.77,203.514 C1954.97,207.149 1956.53,209.868 1958.45,211.67 C1960.37,213.472 1962.31,214.753 1964.27,215.514 C1966.23,216.274 1968.29,216.654 1970.45,216.654 C1974.29,216.654 1977.64,215.693 1980.47,213.771 C1983.31,211.849 1986.17,208.612 1989.04,204.06 L1990.97,204.889 C1988.49,211.368 1985.05,216.329 1980.65,219.771 C1976.25,223.214 1971.21,224.935 1965.53,224.935 C1958.65,224.935 1953.2,222.516 1949.15,217.678 C1945.11,212.839 1943.09,206.3 1943.09,198.06 C1943.09,189.175 1945.43,182.032 1950.12,176.631 C1954.8,171.23 1960.82,168.529 1968.17,168.529 C1974.25,168.529 1978.97,170.349 1982.33,173.99 C1985.69,177.631 1987.81,183.133 1988.69,190.498 L1951.73,190.498 M1951.97,186.889 L1976.45,186.889 C1975.65,181.691 1974.41,178.092 1972.73,176.092 C1971.06,174.092 1968.37,173.092 1964.69,173.092 C1957.49,173.092 1953.25,177.691 1951.97,186.889 M2024.17,169.732 L2024.17,173.342 L2012.04,173.342 L2012.04,207.654 C2012.04,211.415 2012.53,214.154 2013.49,215.873 C2014.45,217.592 2016.06,218.451 2018.29,218.451 C2020.77,218.451 2023.17,217.05 2025.5,214.248 L2027.04,215.576 C2023.21,221.816 2018.41,224.935 2012.65,224.935 C2005.53,224.935 2001.97,219.831 2001.97,209.623 L2001.97,173.342 L1995.61,173.342 C1995.29,173.112 1995.14,172.847 1995.14,172.545 C1995.14,172.17 1995.26,171.87 1995.5,171.646 C1995.74,171.422 1996.2,171.105 1996.87,170.693 C1997.55,170.282 1998.37,169.691 1999.33,168.92 C2000.3,168.149 2001.62,166.751 2003.29,164.724 C2004.97,162.698 2006.81,160.264 2008.81,157.42 C2010.09,155.555 2010.89,154.42 2011.22,154.014 C2011.77,154.014 2012.04,154.54 2012.04,155.592 L2012.04,169.732 L2024.17,169.732 M2032.01,142.623 C2034.1,143.894 2036.26,145.43 2038.5,147.232 C2040.74,149.034 2043.28,151.534 2046.12,154.732 C2048.95,157.93 2051.45,161.349 2053.62,164.99 C2055.78,168.631 2057.6,173.011 2059.08,178.131 C2060.56,183.251 2061.29,188.571 2061.29,194.092 C2061.29,199.852 2060.56,205.313 2059.08,210.474 C2057.6,215.636 2055.86,219.917 2053.86,223.318 C2051.86,226.719 2049.32,229.998 2046.23,233.154 C2043.15,236.31 2040.61,238.649 2038.61,240.17 C2036.61,241.691 2034.29,243.29 2031.65,244.967 L2030.58,243.045 C2034.1,240.17 2036.94,237.573 2039.09,235.256 C2041.25,232.938 2043.33,229.917 2045.33,226.193 C2047.33,222.469 2048.77,218.029 2049.65,212.873 C2050.53,207.717 2050.97,201.576 2050.97,194.451 C2050.97,187.014 2050.53,180.615 2049.65,175.256 C2048.77,169.896 2047.33,165.316 2045.33,161.514 C2043.33,157.711 2041.25,154.612 2039.09,152.217 C2036.94,149.821 2034.1,147.258 2030.58,144.529 L2032.01,142.623 "/>
<path class="SlurSegment" stroke="#000000" stroke-width="1.75" stroke-linecap="round" stroke-linejoin="round" fill-rule="evenodd" d="M457.857,600.483 C482.523,568.134 535.486,565.009 563.784,594.233 C535.722,569.002 482.758,572.127 457.857,600.483"/>
<path class="SlurSegment" stroke="#000000" stroke-width="1.75" stroke-linecap="round" stroke-linejoin="round" fill-rule="evenodd" d="M1036.21,594.233 C1071.17,560.045 1137.73,563.17 1169.34,600.483 C1137.55,567.166 1070.98,564.041 1036.21,594.233"/>
<path class="SlurSegment" stroke="#000000" stroke-width="1.75" stroke-linecap="round" stroke-linejoin="round" fill-rule="evenodd" d="M1679.96,600.483 C1705.46,567.479 1760.04,564.354 1789.14,594.233 C1760.27,568.347 1705.69,571.472 1679.96,600.483"/>
<path class="TieSegment" stroke="#000000" stroke-width="1.75" stroke-linecap="round" stroke-linejoin="round" fill-rule="evenodd" d="M824.811,564.092 C839.477,550.946 883.476,550.946 898.142,564.092 C883.476,554.946 839.477,554.946 824.811,564.092"/>
<path class="TieSegment" stroke="#000000" stroke-width="1.75" stroke-linecap="round" stroke-linejoin="round" fill-rule="evenodd" d="M1419.61,697.983 C1434.28,707.129 1478.28,707.129 1492.94,697.983 C1478.28,711.129 1434.28,711.129 1419.61,697.983"/>
<path class="TieSegment" stroke="#000000" stroke-width="1.75" stroke-linecap="round" stroke-linejoin="round" fill-rule="evenodd" d="M2041.31,564.309 C2056.36,550.874 2101.5,550.874 2116.55,564.309 C2101.5,554.874 2056.36,554.874 2041.31,564.309"/>
<path class="TieSegment" stroke="#000000" stroke-width="1.75" stroke-linecap="round" stroke-linejoin="round" fill-rule="evenodd" d="M2483.89,560.483 C2505.04,542.405 2568.51,542.405 2589.66,560.483 C2568.51,546.405 2505.04,546.405 2483.89,560.483"/>
<path class="TieSegment" stroke="#000000" stroke-width="1.75" stroke-linecap="round" stroke-linejoin="round" fill-rule="evenodd" d="M824.811,564.092 C839.477,550.946 883.476,550.946 898.142,564.092 C883.476,554.946 839.477,554.946 824.811,564.092"/>
<path class="TieSegment" stroke="#000000" stroke-width="1.75" stroke-linecap="round" stroke-linejoin="round" fill-rule="evenodd" d="M1419.61,697.983 C1434.28,707.129 1478.28,707.129 1492.94,697.983 C1478.28,711.129 1434.28,711.129 1419.61,697.983"/>
<path class="TieSegment" stroke="#000000" stroke-width="1.75" stroke-linecap="round" stroke-linejoin="round" fill-rule="evenodd" d="M2041.31,564.309 C2056.36,550.874 2101.5,550.874 2116.55,564.309 C2101.5,554.874 2056.36,554.874 2041.31,564.309"/>
<path class="TieSegment" stroke="#000000" stroke-width="1.75" stroke-linecap="round" stroke-linejoin="round" fill-rule="evenodd" d="M2483.89,560.483 C2505.04,542.405 2568.51,542.405 2589.66,560.483 C2568.51,546.405 2505.04,546.405 2483.89,560.483"/>
<polyline class="BarLine" stroke="#000000" stroke-width="4.00" stroke-linejoin="bevel" points="679.211,565.733 679.211,667.733"/>
<polyline class="BarLine" stroke="#000000" stroke-width="4.00" stroke-linejoin="bevel" points="693.211,565.733 693.211,667.733"/>
<polyline class="BarLine" stroke="#000000" stroke-width="4.00" stroke-linejoin="bevel" points="1288.01,565.733 1288.01,667.733"/>
<polyline class="BarLine" stroke="#000000" stroke-width="4.00" stroke-linejoin="bevel" points="1907.81,565.733 1907.81,667.733"/>
<polyline class="BarLine" stroke="#000000" stroke-width="4.00" stroke-linejoin="bevel" points="2549.61,565.733 2549.61,667.733"/>
<polyline class="BarLine" stroke="#000000" stroke-width="4.00" stroke-linejoin="bevel" points="2833.47,565.733 2833.47,667.733"/>
<polyline class="Stem" stroke="#000000" stroke-width="3.25" stroke-linecap="round" stroke-linejoin="bevel" points="448.732,624.537 448.732,547.983"/>
<polyline class="Stem" stroke="#000000" stroke-width="3.25" stroke-linecap="round" stroke-linejoin="bevel" points="548.952,621.428 548.952,694.858"/>
<polyline class="Stem" stroke="#000000" stroke-width="3.25" stroke-linecap="round" stroke-linejoin="bevel" points="721.836,596.428 721.836,666.733"/>
<polyline class="Stem" stroke="#000000" stroke-width="3.25" stroke-linecap="round" stroke-linejoin="bevel" points="805.041,596.428 805.041,666.733"/>
<polyline class="Stem" stroke="#000000" stroke-width="3.25" stroke-linecap="round" stroke-linejoin="bevel" points="888.247,596.428 888.247,676.108"/>
<polyline class="Stem" stroke="#000000" stroke-width="3.25" stroke-linecap="round" stroke-linejoin="bevel" points="1021.38,621.428 1021.38,694.858"/>
<polyline class="Stem" stroke="#000000" stroke-width="3.25" stroke-linecap="round" stroke-linejoin="bevel" points="1184.17,624.537 1184.17,547.983"/>
<polyline class="Stem" stroke="#000000" stroke-width="3.25" stroke-linecap="round" stroke-linejoin="bevel" points="1346.3,649.537 1346.3,585.483"/>
<polyline class="Stem" stroke="#000000" stroke-width="3.25" stroke-linecap="round" stroke-linejoin="bevel" points="1429.5,674.537 1429.5,597.983"/>
<polyline class="Stem" stroke="#000000" stroke-width="3.25" stroke-linecap="round" stroke-linejoin="bevel" points="1512.71,674.537 1512.71,591.733"/>
<polyline class="Stem" stroke="#000000" stroke-width="3.25" stroke-linecap="round" stroke-linejoin="bevel" points="1670.84,624.537 1670.84,547.983"/>
<polyline class="Stem" stroke="#000000" stroke-width="3.25" stroke-linecap="round" stroke-linejoin="bevel" points="1774.3,621.428 1774.3,694.858"/>
<polyline class="Stem" stroke="#000000" stroke-width="3.25" stroke-linecap="round" stroke-linejoin="bevel" points="1936.43,596.428 1936.43,666.733"/>
<polyline class="Stem" stroke="#000000" stroke-width="3.25" stroke-linecap="round" stroke-linejoin="bevel" points="2021.54,596.428 2021.54,666.733"/>
<polyline class="Stem" stroke="#000000" stroke-width="3.25" stroke-linecap="round" stroke-linejoin="bevel" points="2106.66,596.428 2106.66,676.108"/>
<polyline class="Stem" stroke="#000000" stroke-width="3.25" stroke-linecap="round" stroke-linejoin="bevel" points="2242.83,571.428 2242.83,654.233"/>
<polyline class="Stem" stroke="#000000" stroke-width="3.25" stroke-linecap="round" stroke-linejoin="bevel" points="2379.01,571.428 2379.01,641.733"/>
<polyline class="Stem" stroke="#000000" stroke-width="3.25" stroke-linecap="round" stroke-linejoin="bevel" points="2464.12,583.928 2464.12,647.983"/>
<polyline class="Stem" stroke="#000000" stroke-width="3.25" stroke-linecap="round" stroke-linejoin="bevel" points="2579.13,583.153 2579.13,666.733"/>
<path class="Note" d="M439.412,615.467 C442.537,615.467 445.178,616.279 447.334,617.904 C449.344,619.665 450.35,621.878 450.35,624.545 C450.35,629.035 448.042,633.233 443.428,637.139 C438.74,641.045 433.725,642.998 428.381,642.998 C425.256,642.998 422.62,642.186 420.475,640.561 C418.454,638.8 417.443,636.587 417.443,633.92 C417.443,629.431 419.787,625.233 424.475,621.326 C429.037,617.42 434.016,615.467 439.412,615.467"/>
<path class="Note" d="M569.296,602.967 C572.421,602.967 575.061,603.779 577.218,605.404 C579.228,607.165 580.233,609.378 580.233,612.045 C580.233,616.535 577.926,620.733 573.311,624.639 C568.624,628.545 563.608,630.498 558.265,630.498 C555.14,630.498 552.504,629.686 550.358,628.061 C548.337,626.3 547.327,624.087 547.327,621.42 C547.327,616.93 549.671,612.733 554.358,608.826 C558.921,604.92 563.9,602.967 569.296,602.967"/>
<path class="Note" d="M742.179,577.967 C745.304,577.967 747.945,578.779 750.101,580.404 C752.112,582.165 753.117,584.378 753.117,587.045 C753.117,591.535 750.81,595.733 746.195,599.639 C741.508,603.545 736.492,605.498 731.148,605.498 C728.023,605.498 725.388,604.686 723.242,603.061 C721.221,601.3 720.211,599.087 720.211,596.42 C720.211,591.93 722.554,587.733 727.242,583.826 C731.804,579.92 736.784,577.967 742.179,577.967"/>
<path class="Note" d="M825.385,577.967 C828.51,577.967 831.151,578.779 833.307,580.404 C835.317,582.165 836.323,584.378 836.323,587.045 C836.323,591.535 834.015,595.733 829.401,599.639 C824.713,603.545 819.698,605.498 814.354,605.498 C811.229,605.498 808.594,604.686 806.448,603.061 C804.427,601.3 803.416,599.087 803.416,596.42 C803.416,591.93 805.76,587.733 810.448,583.826 C815.01,579.92 819.989,577.967 825.385,577.967"/>
<path class="Note" d="M908.591,577.967 C911.716,577.967 914.357,578.779 916.513,580.404 C918.523,582.165 919.528,584.378 919.528,587.045 C919.528,591.535 917.221,595.733 912.607,599.639 C907.919,603.545 902.903,605.498 897.56,605.498 C894.435,605.498 891.799,604.686 889.653,603.061 C887.633,601.3 886.622,599.087 886.622,596.42 C886.622,591.93 888.966,587.733 893.653,583.826 C898.216,579.92 903.195,577.967 908.591,577.967"/>
<path class="Note" d="M1041.72,602.967 C1044.85,602.967 1047.49,603.779 1049.64,605.404 C1051.65,607.165 1052.66,609.378 1052.66,612.045 C1052.66,616.535 1050.35,620.733 1045.74,624.639 C1041.05,628.545 1036.03,630.498 1030.69,630.498 C1027.56,630.498 1024.93,629.686 1022.78,628.061 C1020.76,626.3 1019.75,624.087 1019.75,621.42 C1019.75,616.93 1022.1,612.733 1026.78,608.826 C1031.35,604.92 1036.32,602.967 1041.72,602.967"/>
<path class="Note" d="M1174.85,615.467 C1177.97,615.467 1180.62,616.279 1182.77,617.904 C1184.78,619.665 1185.79,621.878 1185.79,624.545 C1185.79,629.035 1183.48,633.233 1178.87,637.139 C1174.18,641.045 1169.16,642.998 1163.82,642.998 C1160.69,642.998 1158.06,642.186 1155.91,640.561 C1153.89,638.8 1152.88,636.587 1152.88,633.92 C1152.88,629.431 1155.22,625.233 1159.91,621.326 C1164.47,617.42 1169.45,615.467 1174.85,615.467"/>
<path class="Note" d="M1336.98,640.467 C1340.1,640.467 1342.74,641.279 1344.9,642.904 C1346.91,644.665 1347.92,646.878 1347.92,649.545 C1347.92,654.035 1345.61,658.233 1340.99,662.139 C1336.31,666.045 1331.29,667.998 1325.95,667.998 C1322.82,667.998 1320.19,667.186 1318.04,665.561 C1316.02,663.8 1315.01,661.587 1315.01,658.92 C1315.01,654.431 1317.35,650.233 1322.04,646.326 C1326.6,642.42 1331.58,640.467 1336.98,640.467"/>
<path class="Note" d="M1420.18,665.467 C1423.31,665.467 1425.95,666.279 1428.11,667.904 C1430.12,669.665 1431.12,671.878 1431.12,674.545 C1431.12,679.035 1428.81,683.233 1424.2,687.139 C1419.51,691.045 1414.5,692.998 1409.15,692.998 C1406.03,692.998 1403.39,692.186 1401.25,690.561 C1399.23,688.8 1398.22,686.587 1398.22,683.92 C1398.22,679.431 1400.56,675.233 1405.25,671.326 C1409.81,667.42 1414.79,665.467 1420.18,665.467"/>
<path class="Note" d="M1503.39,665.467 C1506.52,665.467 1509.16,666.279 1511.31,667.904 C1513.32,669.665 1514.33,671.878 1514.33,674.545 C1514.33,679.035 1512.02,683.233 1507.41,687.139 C1502.72,691.045 1497.7,692.998 1492.36,692.998 C1489.23,692.998 1486.6,692.186 1484.45,690.561 C1482.43,688.8 1481.42,686.587 1481.42,683.92 C1481.42,679.431 1483.77,675.233 1488.45,671.326 C1493.02,667.42 1497.99,665.467 1503.39,665.467"/>
<path class="Note" d="M1661.52,615.467 C1664.64,615.467 1667.29,616.279 1669.44,617.904 C1671.45,619.665 1672.46,621.878 1672.46,624.545 C1672.46,629.035 1670.15,633.233 1665.54,637.139 C1660.85,641.045 1655.83,642.998 1650.49,642.998 C1647.36,642.998 1644.73,642.186 1642.58,640.561 C1640.56,638.8 1639.55,636.587 1639.55,633.92 C1639.55,629.431 1641.89,625.233 1646.58,621.326 C1651.14,617.42 1656.12,615.467 1661.52,615.467"/>
<path class="Note" d="M1794.65,602.967 C1797.77,602.967 1800.41,603.779 1802.57,605.404 C1804.58,607.165 1805.59,609.378 1805.59,612.045 C1805.59,616.535 1803.28,620.733 1798.66,624.639 C1793.98,628.545 1788.96,630.498 1783.62,630.498 C1780.49,630.498 1777.86,629.686 1775.71,628.061 C1773.69,626.3 1772.68,624.087 1772.68,621.42 C1772.68,616.93 1775.02,612.733 1779.71,608.826 C1784.27,604.92 1789.25,602.967 1794.65,602.967"/>
<path class="Note" d="M1956.78,577.967 C1959.9,577.967 1962.54,578.779 1964.7,580.404 C1966.71,582.165 1967.72,584.378 1967.72,587.045 C1967.72,591.535 1965.41,595.733 1960.79,599.639 C1956.11,603.545 1951.09,605.498 1945.75,605.498 C1942.62,605.498 1939.99,604.686 1937.84,603.061 C1935.82,601.3 1934.81,599.087 1934.81,596.42 C1934.81,591.93 1937.15,587.733 1941.84,583.826 C1946.4,579.92 1951.38,577.967 1956.78,577.967"/>
<path class="Note" d="M2041.89,577.967 C2045.01,577.967 2047.65,578.779 2049.81,580.404 C2051.82,582.165 2052.83,584.378 2052.83,587.045 C2052.83,591.535 2050.52,595.733 2045.9,599.639 C2041.22,603.545 2036.2,605.498 2030.86,605.498 C2027.73,605.498 2025.1,604.686 2022.95,603.061 C2020.93,601.3 2019.92,599.087 2019.92,596.42 C2019.92,591.93 2022.26,587.733 2026.95,583.826 C2031.51,579.92 2036.49,577.967 2041.89,577.967"/>
<path class="Note" d="M2127,577.967 C2130.12,577.967 2132.76,578.779 2134.92,580.404 C2136.93,582.165 2137.94,584.378 2137.94,587.045 C2137.94,591.535 2135.63,595.733 2131.01,599.639 C2126.33,603.545 2121.31,605.498 2115.97,605.498 C2112.84,605.498 2110.21,604.686 2108.06,603.061 C2106.04,601.3 2105.03,599.087 2105.03,596.42 C2105.03,591.93 2107.37,587.733 2112.06,583.826 C2116.62,579.92 2121.6,577.967 2127,577.967"/>
<path class="Note" d="M2263.18,552.967 C2266.3,552.967 2268.94,553.779 2271.1,555.404 C2273.11,557.165 2274.11,559.378 2274.11,562.045 C2274.11,566.535 2271.81,570.733 2267.19,574.639 C2262.5,578.545 2257.49,580.498 2252.14,580.498 C2249.02,580.498 2246.38,579.686 2244.24,578.061 C2242.22,576.3 2241.21,574.087 2241.21,571.42 C2241.21,566.93 2243.55,562.733 2248.24,558.826 C2252.8,554.92 2257.78,552.967 2263.18,552.967"/>
<path class="Note" d="M2399.35,552.967 C2402.48,552.967 2405.12,553.779 2407.27,555.404 C2409.29,557.165 2410.29,559.378 2410.29,562.045 C2410.29,566.535 2407.98,570.733 2403.37,574.639 C2398.68,578.545 2393.67,580.498 2388.32,580.498 C2385.2,580.498 2382.56,579.686 2380.42,578.061 C2378.39,576.3 2377.38,574.087 2377.38,571.42 C2377.38,566.93 2379.73,562.733 2384.42,558.826 C2388.98,554.92 2393.96,552.967 2399.35,552.967"/>
<path class="Note" d="M2484.46,565.467 C2487.59,565.467 2490.23,566.279 2492.39,567.904 C2494.4,569.665 2495.4,571.878 2495.4,574.545 C2495.4,579.035 2493.09,583.233 2488.48,587.139 C2483.79,591.045 2478.78,592.998 2473.43,592.998 C2470.31,592.998 2467.67,592.186 2465.53,590.561 C2463.51,588.8 2462.49,586.587 2462.49,583.92 C2462.49,579.43 2464.84,575.233 2469.53,571.326 C2474.09,567.42 2479.07,565.467 2484.46,565.467"/>
<path class="Note" d="M2609.05,572.686 C2609.05,571.582 2608.63,570.639 2607.79,569.858 C2606.93,569.014 2605.96,568.592 2604.85,568.592 C2602.9,568.592 2598.97,570.545 2593.04,574.451 C2586.91,578.42 2583.17,581.253 2581.8,582.951 C2581.09,583.858 2580.73,584.8 2580.73,585.779 C2580.73,586.884 2581.15,587.826 2582.01,588.608 C2582.79,589.451 2583.76,589.873 2584.93,589.873 C2586.81,589.873 2590.79,587.92 2596.85,584.014 C2602.84,580.108 2606.55,577.274 2607.98,575.514 C2608.7,574.67 2609.05,573.727 2609.05,572.686 M2603.88,565.467 C2609.48,565.467 2612.27,567.873 2612.27,572.686 C2612.27,575.029 2611.59,577.764 2610.23,580.889 C2608.86,583.951 2607.04,586.295 2604.76,587.92 C2599.75,591.305 2593.47,592.998 2585.91,592.998 C2580.31,592.998 2577.51,590.592 2577.51,585.779 C2577.51,583.634 2578.19,580.93 2579.55,577.67 C2580.86,574.545 2582.68,572.17 2585.02,570.545 C2590.04,567.16 2596.33,565.467 2603.88,565.467"/>
<path class="Clef" d="M198.451,616.139 C198.451,616.139 198.649,616.139 199.045,616.139 C199.305,616.076 199.529,616.045 199.717,616.045 C207.008,616.045 212.998,618.618 217.685,623.764 C222.373,628.837 224.717,634.759 224.717,641.529 C224.717,649.936 221.238,656.774 214.279,662.045 C212.456,663.483 210.076,664.654 207.139,665.561 C207.472,669.79 207.639,673.207 207.639,675.811 C207.639,676.332 207.571,678.222 207.435,681.483 C207.175,687.535 205.092,692.774 201.185,697.201 C197.415,701.566 192.727,703.748 187.123,703.748 C181.852,703.748 177.363,701.894 173.654,698.186 C169.935,694.404 168.076,689.847 168.076,684.514 C168.076,681.712 169.154,679.332 171.31,677.373 C173.519,675.425 176.086,674.451 179.014,674.451 C181.618,674.451 183.8,675.462 185.56,677.483 C187.383,679.368 188.295,681.712 188.295,684.514 C188.295,687.045 187.383,689.222 185.56,691.045 C183.738,692.868 181.555,693.779 179.014,693.779 C177.972,693.779 176.967,693.587 175.998,693.201 C178.863,697.431 182.67,699.545 187.42,699.545 C191.909,699.545 195.586,697.722 198.451,694.076 C201.451,690.306 203.081,685.91 203.342,680.889 C203.467,677.764 203.529,675.977 203.529,675.529 C203.529,671.884 203.399,668.889 203.139,666.545 C199.889,667.066 196.993,667.326 194.451,667.326 C185.399,667.326 177.685,663.743 171.31,656.576 C165.06,649.347 161.935,640.753 161.935,630.795 C161.935,628.712 162.128,626.597 162.514,624.451 C162.909,622.691 163.399,620.769 163.982,618.686 C164.305,617.509 165.185,615.618 166.623,613.014 C167.144,612.233 167.73,611.256 168.381,610.084 C169.032,608.912 169.488,608.134 169.748,607.748 C170.394,606.446 171.659,604.686 173.545,602.467 C174.066,601.884 174.605,601.235 175.162,600.522 C175.719,599.808 176.193,599.222 176.584,598.764 C176.974,598.306 177.266,597.946 177.459,597.686 C177.652,597.425 179.118,595.701 181.857,592.514 C182.503,591.858 183.136,591.157 183.756,590.412 C184.376,589.667 184.881,589.082 185.271,588.654 C185.662,588.227 185.956,587.92 186.154,587.733 C183.81,579.983 182.342,573.795 181.748,569.17 C181.3,565.462 181.076,560.384 181.076,553.936 C181.076,548.269 182.378,542.962 184.982,538.014 C187.514,532.878 191.06,528.681 195.623,525.42 C195.883,525.222 196.206,525.123 196.592,525.123 C197.05,525.123 197.378,525.222 197.576,525.42 C201.086,529.649 204.113,535.149 206.654,541.92 C209.258,548.691 210.56,554.847 210.56,560.389 C210.56,566.639 209.066,572.498 206.076,577.967 C202.691,583.759 198.326,589.748 192.982,595.936 C194.347,600.227 196.17,606.962 198.451,616.139 M206.748,661.561 C210.133,660.321 212.774,658.207 214.67,655.217 C216.753,652.352 217.795,649.128 217.795,645.545 C217.795,640.92 216.232,636.816 213.107,633.233 C209.909,629.524 205.836,627.441 200.889,626.983 C203.691,640.722 205.644,652.248 206.748,661.561 M168.967,638.998 C168.967,645.446 171.571,651.113 176.779,655.998 C182.113,660.748 188.102,663.123 194.748,663.123 C197.477,663.123 200.144,662.925 202.748,662.529 C201.706,652.634 199.654,640.785 196.592,626.983 C192.883,627.378 189.925,628.681 187.717,630.889 C185.56,633.17 184.482,635.743 184.482,638.608 C184.482,643.556 187.123,647.561 192.404,650.623 C192.852,651.082 193.076,651.571 193.076,652.092 C193.076,652.613 192.852,653.097 192.404,653.545 C192.008,654.003 191.519,654.233 190.935,654.233 C190.873,654.233 190.581,654.17 190.06,654.045 C186.342,652.024 183.477,649.42 181.467,646.233 C179.571,642.837 178.623,639.415 178.623,635.967 C178.623,631.477 180.024,627.41 182.826,623.764 C185.753,620.118 189.56,617.774 194.248,616.733 C192.425,609.441 190.93,603.743 189.764,599.639 C188.722,600.816 187.469,602.233 186.006,603.889 C184.542,605.545 183.68,606.54 183.42,606.873 C181.076,609.925 179.284,612.3 178.045,613.998 C175.826,617.061 174.196,619.696 173.154,621.904 C172.05,624.384 171.076,627.087 170.232,630.014 C169.389,632.816 168.967,635.811 168.967,638.998 M201.576,539.686 C196.691,542.092 192.852,545.54 190.06,550.029 C187.196,554.654 185.764,559.634 185.764,564.967 C185.764,569.654 186.935,575.972 189.279,583.92 C193.967,578.253 197.482,573.014 199.826,568.201 C202.295,563.118 203.529,557.811 203.529,552.279 C203.529,548.113 202.878,543.915 201.576,539.686"/>
<path class="KeySig" d="M296.248,635.389 C296.248,636.628 295.631,637.248 294.396,637.248 C293.162,637.248 292.545,636.628 292.545,635.389 L292.545,620.936 L284.248,624.061 L284.248,639.873 C284.248,641.113 283.628,641.733 282.389,641.733 C281.149,641.733 280.529,641.113 280.529,639.873 L280.529,625.326 L277.404,626.498 C277.342,626.561 277.081,626.592 276.623,626.592 C276.102,626.592 275.646,626.397 275.256,626.006 C274.865,625.615 274.67,625.16 274.67,624.639 L274.67,618.592 C274.67,617.613 275.092,616.993 275.935,616.733 L280.529,615.17 L280.529,599.154 L277.404,600.233 C277.342,600.295 277.081,600.326 276.623,600.326 C276.102,600.326 275.646,600.131 275.256,599.74 C274.865,599.35 274.67,598.894 274.67,598.373 L274.67,592.311 C274.67,591.404 275.092,590.821 275.935,590.561 L280.529,588.795 L280.529,573.076 C280.529,571.837 281.149,571.217 282.389,571.217 C283.628,571.217 284.248,571.837 284.248,573.076 L284.248,587.529 L292.545,584.404 L292.545,568.592 C292.545,567.352 293.162,566.733 294.396,566.733 C295.631,566.733 296.248,567.352 296.248,568.592 L296.248,583.139 L299.482,581.967 C299.545,581.904 299.769,581.873 300.154,581.873 C300.613,581.873 301.102,582.066 301.623,582.451 C302.019,582.847 302.217,583.305 302.217,583.826 L302.217,589.873 C302.217,590.79 301.758,591.41 300.842,591.733 L296.248,593.295 L296.248,609.311 L299.482,608.233 C299.545,608.17 299.769,608.139 300.154,608.139 C300.613,608.139 301.102,608.337 301.623,608.733 C302.019,609.118 302.217,609.571 302.217,610.092 L302.217,616.154 C302.217,616.998 301.758,617.582 300.842,617.904 L296.248,619.67 L296.248,635.389 M292.545,594.764 L284.248,597.686 L284.248,613.701 L292.545,610.779 L292.545,594.764 "/>
<path class="KeySig" d="M271.248,597.889 C271.248,599.128 270.631,599.748 269.396,599.748 C268.162,599.748 267.545,599.128 267.545,597.889 L267.545,583.436 L259.248,586.561 L259.248,602.373 C259.248,603.613 258.628,604.233 257.389,604.233 C256.149,604.233 255.529,603.613 255.529,602.373 L255.529,587.826 L252.404,588.998 C252.342,589.061 252.081,589.092 251.623,589.092 C251.102,589.092 250.646,588.897 250.256,588.506 C249.865,588.115 249.67,587.66 249.67,587.139 L249.67,581.092 C249.67,580.113 250.092,579.493 250.935,579.233 L255.529,577.67 L255.529,561.654 L252.404,562.733 C252.342,562.795 252.081,562.826 251.623,562.826 C251.102,562.826 250.646,562.631 250.256,562.24 C249.865,561.85 249.67,561.394 249.67,560.873 L249.67,554.811 C249.67,553.904 250.092,553.321 250.935,553.061 L255.529,551.295 L255.529,535.576 C255.529,534.337 256.149,533.717 257.389,533.717 C258.628,533.717 259.248,534.337 259.248,535.576 L259.248,550.029 L267.545,546.904 L267.545,531.092 C267.545,529.852 268.162,529.233 269.396,529.233 C270.631,529.233 271.248,529.852 271.248,531.092 L271.248,545.639 L274.482,544.467 C274.545,544.404 274.769,544.373 275.154,544.373 C275.613,544.373 276.102,544.566 276.623,544.951 C277.019,545.347 277.217,545.805 277.217,546.326 L277.217,552.373 C277.217,553.29 276.758,553.91 275.842,554.233 L271.248,555.795 L271.248,571.811 L274.482,570.733 C274.545,570.67 274.769,570.639 275.154,570.639 C275.613,570.639 276.102,570.837 276.623,571.233 C277.019,571.618 277.217,572.071 277.217,572.592 L277.217,578.654 C277.217,579.498 276.758,580.082 275.842,580.404 L271.248,582.17 L271.248,597.889 M267.545,557.264 L259.248,560.186 L259.248,576.201 L267.545,573.279 L267.545,557.264 "/>
<path class="TimeSig" d="M350.006,567.912 C351.954,567.912 353.613,567.686 354.982,567.233 C356.352,566.779 357.23,566.553 357.615,566.553 C358.074,566.553 358.433,566.683 358.693,566.944 C358.891,567.131 359.021,567.355 359.084,567.615 C359.084,567.751 359.016,567.949 358.881,568.209 L330.475,601.225 L347.162,601.225 L347.162,588.131 C347.162,587.287 347.391,586.569 347.85,585.975 C348.631,585.329 349.282,584.938 349.803,584.803 C350.646,584.417 351.688,583.506 352.928,582.069 C353.969,580.902 355.209,578.855 356.646,575.928 C356.834,575.532 357.126,575.334 357.521,575.334 C358.303,575.334 358.756,575.792 358.881,576.709 L358.881,601.225 L366.021,601.225 C366.928,601.225 367.449,601.709 367.584,602.678 C367.584,603.657 367.063,604.147 366.021,604.147 L358.881,604.147 L358.881,604.928 C358.881,607.532 359.532,609.746 360.834,611.569 C362.334,613.391 364.094,614.303 366.115,614.303 C366.896,614.303 367.287,614.694 367.287,615.475 C367.287,616.256 366.896,616.647 366.115,616.647 C364.751,616.647 362.537,616.454 359.475,616.069 C356.673,615.61 354.49,615.381 352.928,615.381 C351.303,615.381 349.12,615.61 346.381,616.069 C343.454,616.454 341.277,616.647 339.85,616.647 C339.068,616.647 338.678,616.256 338.678,615.475 C338.678,614.694 339.068,614.303 339.85,614.303 C341.86,614.303 343.615,613.391 345.115,611.569 C346.48,609.683 347.162,607.47 347.162,604.928 L347.162,604.147 L330.475,604.147 C329.36,604.147 328.579,603.886 328.131,603.365 C327.6,602.98 327.334,602.459 327.334,601.803 C327.334,601.605 327.824,600.923 328.803,599.756 C329.917,598.454 331.089,596.86 332.318,594.975 C333.756,592.756 335.126,590.475 336.428,588.131 C337.855,585.464 338.995,582.402 339.85,578.944 C340.818,575.433 341.303,571.855 341.303,568.209 C341.303,567.167 341.761,566.647 342.678,566.647 C342.876,566.647 343.298,566.746 343.943,566.944 C344.141,567.006 344.55,567.102 345.17,567.233 C345.79,567.363 346.292,567.49 346.678,567.615 C347.855,567.813 348.964,567.912 350.006,567.912"/>
<path class="TimeSig" d="M350.006,618.084 C351.954,618.084 353.613,617.858 354.982,617.404 C356.352,616.951 357.23,616.725 357.615,616.725 C358.074,616.725 358.433,616.855 358.693,617.115 C358.891,617.303 359.021,617.527 359.084,617.787 C359.084,617.923 359.016,618.121 358.881,618.381 L330.475,651.397 L347.162,651.397 L347.162,638.303 C347.162,637.459 347.391,636.74 347.85,636.147 C348.631,635.501 349.282,635.11 349.803,634.975 C350.646,634.589 351.688,633.678 352.928,632.24 C353.969,631.074 355.209,629.027 356.646,626.1 C356.834,625.704 357.126,625.506 357.521,625.506 C358.303,625.506 358.756,625.964 358.881,626.881 L358.881,651.397 L366.021,651.397 C366.928,651.397 367.449,651.881 367.584,652.85 C367.584,653.829 367.063,654.319 366.021,654.319 L358.881,654.319 L358.881,655.1 C358.881,657.704 359.532,659.917 360.834,661.74 C362.334,663.563 364.094,664.475 366.115,664.475 C366.896,664.475 367.287,664.865 367.287,665.647 C367.287,666.428 366.896,666.819 366.115,666.819 C364.751,666.819 362.537,666.626 359.475,666.24 C356.673,665.782 354.49,665.553 352.928,665.553 C351.303,665.553 349.12,665.782 346.381,666.24 C343.454,666.626 341.277,666.819 339.85,666.819 C339.068,666.819 338.678,666.428 338.678,665.647 C338.678,664.865 339.068,664.475 339.85,664.475 C341.86,664.475 343.615,663.563 345.115,661.74 C346.48,659.855 347.162,657.641 347.162,655.1 L347.162,654.319 L330.475,654.319 C329.36,654.319 328.579,654.058 328.131,653.537 C327.6,653.152 327.334,652.631 327.334,651.975 C327.334,651.777 327.824,651.095 328.803,649.928 C329.917,648.626 331.089,647.032 332.318,645.147 C333.756,642.928 335.126,640.647 336.428,638.303 C337.855,635.636 338.995,632.574 339.85,629.115 C340.818,625.605 341.303,622.027 341.303,618.381 C341.303,617.339 341.761,616.819 342.678,616.819 C342.876,616.819 343.298,616.917 343.943,617.115 C344.141,617.178 344.55,617.274 345.17,617.404 C345.79,617.535 346.292,617.662 346.678,617.787 C347.855,617.985 348.964,618.084 350.006,618.084"/>
<path class="Breath" d="M1619.83,562.623 C1619.83,559.957 1619.27,557.649 1618.16,555.701 C1617.12,553.483 1616.6,552.243 1616.6,551.983 C1616.6,551.003 1616.96,550.092 1617.68,549.248 C1618.39,548.529 1619.27,548.17 1620.32,548.17 C1622.14,548.17 1623.57,549.279 1624.61,551.498 C1625.59,553.707 1626.08,555.889 1626.08,558.045 C1626.08,563.378 1623.18,570.212 1617.38,578.545 C1617.12,579.003 1616.67,579.233 1616.02,579.233 C1615.04,579.233 1614.55,578.712 1614.55,577.67 C1614.55,577.535 1615.01,576.722 1615.93,575.233 C1616.77,573.93 1617.64,572.108 1618.55,569.764 C1619.4,567.483 1619.83,565.102 1619.83,562.623"/>
<path class="Dynamic" d="M394.9,753.78 C394.9,753.571 395.062,753.05 395.385,752.217 C396.301,749.696 397.64,747.196 399.4,744.717 C401.723,741.477 404.281,739.858 407.072,739.858 C408.281,739.858 409.223,740.337 409.9,741.295 C410.536,742.17 410.916,743.311 411.041,744.717 C413.156,741.477 415.557,739.858 418.244,739.858 C419.317,739.858 420.275,740.337 421.119,741.295 C421.88,742.379 422.317,743.597 422.432,744.951 C424.473,741.556 426.817,739.858 429.463,739.858 C430.744,739.858 431.973,740.407 433.15,741.506 C434.328,742.605 434.916,744.076 434.916,745.92 C434.916,746.274 434.859,746.712 434.744,747.233 L431.557,760.795 C431.515,760.951 431.494,761.071 431.494,761.155 C431.494,761.675 431.676,761.936 432.041,761.936 C432.676,761.936 433.676,761.415 435.041,760.373 L437.135,758.748 C437.541,758.748 437.744,758.91 437.744,759.233 C437.744,759.472 437.64,759.691 437.432,759.889 C434.598,762.576 432.619,764.316 431.494,765.108 C429.661,766.431 427.9,767.092 426.213,767.092 C425.255,767.092 424.536,766.832 424.057,766.311 C423.536,765.748 423.255,765.087 423.213,764.326 C423.213,764.056 423.255,763.738 423.338,763.373 L426.76,748.498 C426.874,747.894 426.953,747.472 426.994,747.233 C426.994,746.076 426.676,745.498 426.041,745.498 C425.281,745.498 424.499,745.795 423.697,746.389 C423.02,746.91 422.541,747.613 422.26,748.498 L417.275,765.78 C417.078,766.415 416.697,766.733 416.135,766.733 L410.916,766.733 C410.437,766.733 410.197,766.535 410.197,766.139 C410.197,766.014 410.218,765.894 410.26,765.78 L415.182,748.498 C415.38,747.78 415.479,747.3 415.479,747.061 C415.479,746.019 415.078,745.498 414.275,745.498 C413.515,745.498 412.775,745.816 412.057,746.451 C411.296,747.097 410.796,747.78 410.557,748.498 L404.682,765.78 C404.484,766.415 404.083,766.733 403.479,766.733 L398.26,766.733 C397.864,766.733 397.666,766.571 397.666,766.248 C397.666,766.134 397.703,765.977 397.775,765.78 L403.666,748.498 C403.864,747.894 403.963,747.431 403.963,747.108 C403.963,746.035 403.505,745.498 402.588,745.498 C401.307,745.498 400.182,746.358 399.213,748.076 C398.463,749.191 397.645,750.988 396.76,753.467 C396.562,754.03 396.14,754.311 395.494,754.311 C395.098,754.196 394.9,754.019 394.9,753.78 M457.197,741.358 L452.4,756.826 C450.598,762.587 447.817,767.967 444.057,772.967 C440.098,778.207 436.062,780.826 431.947,780.826 C429.781,780.826 427.877,780.267 426.236,779.147 C424.596,778.027 423.775,776.571 423.775,774.78 C423.775,772.738 424.218,771.014 425.104,769.608 C426.02,768.17 427.218,767.451 428.697,767.451 C429.864,767.451 430.835,767.871 431.611,768.709 C432.387,769.548 432.775,770.509 432.775,771.592 C432.775,772.634 432.218,773.535 431.104,774.295 C429.864,775.129 429.244,775.967 429.244,776.811 C429.244,777.457 430.104,777.78 431.822,777.78 C433.624,777.78 435.005,777.035 435.963,775.545 C437.005,773.951 437.843,771.675 438.479,768.717 C438.635,767.915 438.755,767.373 438.838,767.092 L445.26,741.358 L440.275,741.358 C439.838,741.358 439.499,741.196 439.26,740.873 C439.02,740.477 438.9,740.097 438.9,739.733 C438.9,739.254 439.02,738.894 439.26,738.655 C439.583,738.332 439.921,738.17 440.275,738.17 L446.166,738.17 C447.718,733.451 450.395,729.233 454.197,725.514 C457.916,721.879 461.916,720.061 466.197,720.061 C468.395,720.061 470.296,720.639 471.9,721.795 C473.505,722.951 474.322,724.389 474.354,726.108 C474.354,728.035 473.937,729.738 473.104,731.217 C472.104,732.655 470.9,733.373 469.494,733.373 C468.338,733.373 467.359,732.964 466.557,732.147 C465.755,731.329 465.354,730.379 465.354,729.295 C465.354,728.337 465.945,727.488 467.127,726.748 C468.309,726.009 468.9,725.118 468.9,724.076 C468.9,723.358 467.999,722.998 466.197,722.998 C465.239,722.998 464.26,723.337 463.26,724.014 C462.624,724.451 461.906,725.373 461.104,726.78 C460.583,727.655 460.14,728.733 459.775,730.014 C459.703,730.295 459.426,731.733 458.947,734.326 C458.666,735.847 458.364,737.129 458.041,738.17 L463.432,738.17 C463.88,738.17 464.262,738.321 464.58,738.623 C464.898,738.925 465.057,739.295 465.057,739.733 C465.057,740.17 464.898,740.55 464.58,740.873 C464.262,741.196 463.88,741.358 463.432,741.358 L457.197,741.358 "/>
<path class="Beam" fill-rule="evenodd" d="M720.211,660.483 L806.666,660.483 L806.666,672.983 L720.211,672.983 L720.211,660.483 "/>
<path class="Beam" fill-rule="evenodd" d="M1344.67,578.674 L1431.13,591.662 L1431.13,604.303 L1344.67,591.314 L1344.67,578.674 "/>
<path class="Beam" fill-rule="evenodd" d="M1934.81,660.483 L2023.17,660.483 L2023.17,672.983 L1934.81,672.983 L1934.81,660.483 "/>
<path class="Beam" fill-rule="evenodd" d="M2377.38,635.466 L2465.74,641.954 L2465.74,654.488 L2377.38,647.999 L2377.38,635.466 "/>
</svg>
