<?xml version="1.0" encoding="UTF-8" standalone="no"?>
<svg width="2977.2px" height="4208.4px" viewBox="0 0 2977.2 4208.4"
 xmlns="http://www.w3.org/2000/svg" xmlns:xlink="http://www.w3.org/1999/xlink" version="1.2" baseProfile="tiny">
<title>op-maat-gemaakt</title>
<desc>Generated by MuseScore 3.4.2</desc>
<polyline class="StaffLines" fill="none" stroke="#000000" stroke-width="2.00" stroke-linejoin="bevel" points="141.732,566.733 2835.47,566.733"/>
<polyline class="StaffLines" fill="none" stroke="#000000" stroke-width="2.00" stroke-linejoin="bevel" points="141.732,591.733 2835.47,591.733"/>
<polyline class="StaffLines" fill="none" stroke="#000000" stroke-width="2.00" stroke-linejoin="bevel" points="141.732,616.733 2835.47,616.733"/>
<polyline class="StaffLines" fill="none" stroke="#000000" stroke-width="2.00" stroke-linejoin="bevel" points="141.732,641.733 2835.47,641.733"/>
<polyline class="StaffLines" fill="none" stroke="#000000" stroke-width="2.00" stroke-linejoin="bevel" points="141.732,666.733 2835.47,666.733"/>
<polyline class="StaffLines" fill="none" stroke="#000000" stroke-width="2.00" stroke-linejoin="bevel" points="141.732,1041.73 2835.47,1041.73"/>
<polyline class="StaffLines" fill="none" stroke="#000000" stroke-width="2.00" stroke-linejoin="bevel" points="141.732,1066.73 2835.47,1066.73"/>
<polyline class="StaffLines" fill="none" stroke="#000000" stroke-width="2.00" stroke-linejoin="bevel" points="141.732,1091.73 2835.47,1091.73"/>
<polyline class="StaffLines" fill="none" stroke="#000000" stroke-width="2.00" stroke-linejoin="bevel" points="141.732,1116.73 2835.47,1116.73"/>
<polyline class="StaffLines" fill="none" stroke="#000000" stroke-width="2.00" stroke-linejoin="bevel" points="141.732,1141.73 2835.47,1141.73"/>
<path class="Text" d="M953.81,225.42 C943.008,225.42 933.889,221.586 926.451,213.92 C919.014,206.253 915.295,196.243 915.295,183.889 C915.295,171.774 918.974,161.826 926.334,154.045 C933.693,146.264 943.092,142.373 954.529,142.373 C966.05,142.373 975.469,146.245 982.787,153.99 C990.105,161.735 993.764,171.862 993.764,184.373 C993.764,196.487 990.066,206.357 982.67,213.982 C975.274,221.607 965.654,225.42 953.81,225.42 M980.092,184.248 C980.092,178.508 979.532,173.407 978.412,168.943 C977.292,164.48 975.873,160.891 974.154,158.178 C972.435,155.464 970.415,153.232 968.092,151.482 C965.769,149.732 963.508,148.537 961.31,147.896 C959.112,147.256 956.852,146.935 954.529,146.935 C950.612,146.935 947.094,147.771 943.974,149.443 C940.855,151.115 938.394,153.209 936.592,155.724 C934.79,158.24 933.29,161.211 932.092,164.639 C930.894,168.066 930.073,171.355 929.631,174.506 C929.188,177.657 928.967,180.868 928.967,184.139 C928.967,188.201 929.368,192.185 930.17,196.092 C930.972,199.998 932.253,203.904 934.014,207.81 C935.774,211.717 938.394,214.868 941.873,217.264 C945.352,219.659 949.493,220.857 954.295,220.857 C959.17,220.857 963.389,219.659 966.951,217.264 C970.514,214.868 973.193,211.717 974.99,207.81 C976.787,203.904 978.086,199.998 978.889,196.092 C979.691,192.185 980.092,188.237 980.092,184.248 M999.779,176.576 L999.779,174.654 C1004.81,173.133 1010.57,171.092 1017.04,168.529 L1017.76,168.779 L1017.76,178.029 C1022.89,171.696 1028.65,168.529 1035.04,168.529 C1040.89,168.529 1045.69,170.938 1049.45,175.756 C1053.21,180.573 1055.09,186.717 1055.09,194.185 C1055.09,202.883 1052.67,210.183 1047.83,216.084 C1043,221.985 1037.01,224.935 1029.89,224.935 C1027.33,224.935 1025.19,224.592 1023.47,223.904 C1021.75,223.217 1019.85,221.915 1017.76,219.998 L1017.76,238.685 C1017.76,242.415 1018.4,244.816 1019.69,245.889 C1020.97,246.961 1023.85,247.534 1028.33,247.607 L1028.33,249.764 L999.295,249.764 L999.295,247.732 C1002.82,247.409 1005.09,246.73 1006.13,245.693 C1007.17,244.657 1007.69,242.576 1007.69,239.451 L1007.69,183.295 C1007.69,180.493 1007.37,178.652 1006.73,177.771 C1006.1,176.891 1004.78,176.451 1002.78,176.451 C1001.5,176.451 1000.5,176.493 999.779,176.576 M1017.76,183.701 L1017.76,213.373 C1017.76,215.144 1019.14,216.912 1021.9,218.678 C1024.66,220.443 1027.45,221.326 1030.25,221.326 C1034.57,221.326 1038.07,219.256 1040.75,215.115 C1043.42,210.974 1044.76,205.566 1044.76,198.889 C1044.76,191.899 1043.42,186.292 1040.75,182.068 C1038.07,177.844 1034.49,175.732 1030.01,175.732 C1027.21,175.732 1024.47,176.618 1021.79,178.389 C1019.1,180.159 1017.76,181.93 1017.76,183.701 M1089.65,176.217 L1089.65,174.17 C1095.41,172.503 1101.01,170.623 1106.45,168.529 L1107.29,168.779 L1107.29,177.998 C1112.25,174.144 1115.93,171.602 1118.33,170.373 C1120.73,169.144 1123.25,168.529 1125.89,168.529 C1132.21,168.529 1136.45,171.967 1138.61,178.842 C1144.85,171.967 1151.37,168.529 1158.17,168.529 C1167.45,168.529 1172.09,175.706 1172.09,190.06 L1172.09,214.654 C1172.09,219.112 1173.81,221.461 1177.25,221.701 L1180.37,221.935 L1180.37,223.732 L1154.09,223.732 L1154.09,221.935 C1157.61,221.54 1159.81,220.862 1160.69,219.904 C1161.57,218.946 1162.01,216.758 1162.01,213.342 L1162.01,188.139 C1162.01,183.211 1161.37,179.792 1160.09,177.881 C1158.81,175.969 1156.45,175.014 1153.01,175.014 C1147.73,175.014 1143.37,177.441 1139.94,182.295 L1139.94,212.389 C1139.94,216.128 1140.51,218.633 1141.67,219.904 C1142.83,221.175 1145.13,221.852 1148.58,221.935 L1148.58,223.732 L1121.69,223.732 L1121.69,221.935 C1125.13,221.696 1127.36,221.058 1128.36,220.021 C1129.36,218.985 1129.86,216.795 1129.86,213.451 L1129.86,187.545 C1129.86,179.191 1127.22,175.014 1121.94,175.014 C1119.7,175.014 1117.2,175.571 1114.44,176.685 C1111.67,177.8 1109.45,179.592 1107.76,182.06 L1107.76,215.732 C1107.76,218.034 1108.33,219.605 1109.45,220.443 C1110.58,221.282 1112.74,221.779 1115.94,221.935 L1115.94,223.732 L1089.29,223.732 L1089.29,221.935 C1092.65,221.852 1094.89,221.253 1096.01,220.139 C1097.13,219.024 1097.69,216.836 1097.69,213.576 L1097.69,183.373 C1097.69,180.508 1097.39,178.519 1096.79,177.404 C1096.19,176.29 1095.09,175.732 1093.5,175.732 C1092.29,175.732 1091.01,175.894 1089.65,176.217 M1184.09,211.889 C1184.09,210.451 1184.25,209.115 1184.57,207.881 C1184.89,206.646 1185.45,205.493 1186.25,204.42 C1187.05,203.347 1187.81,202.373 1188.53,201.498 C1189.25,200.623 1190.33,199.727 1191.77,198.81 C1193.21,197.894 1194.41,197.139 1195.37,196.545 C1196.33,195.951 1197.79,195.235 1199.75,194.396 C1201.71,193.558 1203.21,192.92 1204.25,192.482 C1205.29,192.045 1206.93,191.389 1209.17,190.514 C1211.41,189.639 1213.05,189.003 1214.09,188.607 L1214.09,181.326 C1214.09,174.722 1211.05,171.42 1204.97,171.42 C1202.57,171.42 1200.53,171.998 1198.85,173.154 C1197.17,174.31 1196.33,175.691 1196.33,177.295 C1196.33,177.93 1196.43,178.808 1196.63,179.928 C1196.83,181.047 1196.94,181.769 1196.94,182.092 C1196.94,183.456 1196.39,184.639 1195.31,185.639 C1194.23,186.639 1192.97,187.139 1191.53,187.139 C1190.17,187.139 1188.98,186.618 1187.94,185.576 C1186.89,184.534 1186.37,183.331 1186.37,181.967 C1186.37,178.217 1188.31,175.04 1192.19,172.435 C1196.07,169.831 1200.85,168.529 1206.53,168.529 C1213.09,168.529 1217.61,170.102 1220.09,173.248 C1222.57,176.394 1223.81,181.196 1223.81,187.654 L1223.81,210.935 C1223.81,213.56 1224.07,215.37 1224.59,216.365 C1225.11,217.36 1226.05,217.857 1227.4,217.857 C1229.09,217.857 1230.85,217.102 1232.69,215.592 L1232.69,218.732 C1230.61,221.128 1228.79,222.761 1227.23,223.631 C1225.67,224.501 1223.89,224.935 1221.89,224.935 C1219.41,224.935 1217.59,224.237 1216.43,222.842 C1215.27,221.446 1214.53,219.144 1214.22,215.935 C1207.33,221.935 1201.49,224.935 1196.69,224.935 C1193.01,224.935 1189.99,223.714 1187.63,221.271 C1185.27,218.829 1184.09,215.701 1184.09,211.889 M1214.09,208.779 L1214.09,191.467 C1206.89,194.092 1201.85,196.639 1198.97,199.107 C1196.09,201.576 1194.65,204.56 1194.65,208.06 C1194.65,211.321 1195.45,213.748 1197.05,215.342 C1198.65,216.935 1200.37,217.732 1202.22,217.732 C1204.94,217.732 1207.85,216.816 1210.97,214.982 C1212.25,214.274 1213.09,213.521 1213.49,212.724 C1213.89,211.928 1214.09,210.612 1214.09,208.779 M1236.09,211.889 C1236.09,210.451 1236.25,209.115 1236.57,207.881 C1236.89,206.646 1237.45,205.493 1238.25,204.42 C1239.05,203.347 1239.81,202.373 1240.53,201.498 C1241.25,200.623 1242.33,199.727 1243.77,198.81 C1245.21,197.894 1246.41,197.139 1247.37,196.545 C1248.33,195.951 1249.79,195.235 1251.75,194.396 C1253.71,193.558 1255.21,192.92 1256.25,192.482 C1257.29,192.045 1258.93,191.389 1261.17,190.514 C1263.41,189.639 1265.05,189.003 1266.09,188.607 L1266.09,181.326 C1266.09,174.722 1263.05,171.42 1256.97,171.42 C1254.57,171.42 1252.53,171.998 1250.85,173.154 C1249.17,174.31 1248.33,175.691 1248.33,177.295 C1248.33,177.93 1248.43,178.808 1248.63,179.928 C1248.83,181.047 1248.94,181.769 1248.94,182.092 C1248.94,183.456 1248.39,184.639 1247.31,185.639 C1246.23,186.639 1244.97,187.139 1243.53,187.139 C1242.17,187.139 1240.98,186.618 1239.94,185.576 C1238.89,184.534 1238.37,183.331 1238.37,181.967 C1238.37,178.217 1240.31,175.04 1244.19,172.435 C1248.07,169.831 1252.85,168.529 1258.53,168.529 C1265.09,168.529 1269.61,170.102 1272.09,173.248 C1274.57,176.394 1275.81,181.196 1275.81,187.654 L1275.81,210.935 C1275.81,213.56 1276.07,215.37 1276.59,216.365 C1277.11,217.36 1278.05,217.857 1279.4,217.857 C1281.09,217.857 1282.85,217.102 1284.69,215.592 L1284.69,218.732 C1282.61,221.128 1280.79,222.761 1279.23,223.631 C1277.67,224.501 1275.89,224.935 1273.89,224.935 C1271.41,224.935 1269.59,224.237 1268.43,222.842 C1267.27,221.446 1266.53,219.144 1266.22,215.935 C1259.33,221.935 1253.49,224.935 1248.69,224.935 C1245.01,224.935 1241.99,223.714 1239.63,221.271 C1237.27,218.829 1236.09,215.701 1236.09,211.889 M1266.09,208.779 L1266.09,191.467 C1258.89,194.092 1253.85,196.639 1250.97,199.107 C1248.09,201.576 1246.65,204.56 1246.65,208.06 C1246.65,211.321 1247.45,213.748 1249.05,215.342 C1250.65,216.935 1252.37,217.732 1254.22,217.732 C1256.94,217.732 1259.85,216.816 1262.97,214.982 C1264.25,214.274 1265.09,213.521 1265.49,212.724 C1265.89,211.928 1266.09,210.612 1266.09,208.779 M1316.17,169.732 L1316.17,173.342 L1304.04,173.342 L1304.04,207.654 C1304.04,211.415 1304.53,214.154 1305.49,215.873 C1306.45,217.592 1308.06,218.451 1310.29,218.451 C1312.77,218.451 1315.17,217.05 1317.5,214.248 L1319.04,215.576 C1315.21,221.816 1310.41,224.935 1304.65,224.935 C1297.53,224.935 1293.97,219.831 1293.97,209.623 L1293.97,173.342 L1287.61,173.342 C1287.29,173.112 1287.14,172.847 1287.14,172.545 C1287.14,172.17 1287.26,171.87 1287.5,171.646 C1287.74,171.422 1288.2,171.105 1288.87,170.693 C1289.55,170.282 1290.37,169.691 1291.33,168.92 C1292.3,168.149 1293.62,166.751 1295.29,164.724 C1296.97,162.698 1298.81,160.264 1300.81,157.42 C1302.09,155.555 1302.89,154.42 1303.22,154.014 C1303.77,154.014 1304.04,154.54 1304.04,155.592 L1304.04,169.732 L1316.17,169.732 M1356.29,217.248 C1356.29,215.727 1356.83,214.329 1357.91,213.053 C1358.99,211.777 1362.01,208.816 1366.97,204.17 C1362.97,202.159 1360.11,199.909 1358.39,197.42 C1356.67,194.93 1355.81,191.8 1355.81,188.029 C1355.81,182.602 1357.75,177.995 1361.63,174.209 C1365.51,170.422 1370.25,168.529 1375.86,168.529 C1378.97,168.529 1382.31,169.191 1385.87,170.514 C1389.44,171.836 1392.37,172.498 1394.69,172.498 L1403.94,172.498 L1403.94,177.06 L1393.97,177.06 C1395.49,180.508 1396.25,183.883 1396.25,187.185 C1396.25,192.727 1394.39,197.224 1390.67,200.678 C1386.95,204.131 1382.57,205.857 1377.53,205.857 C1376.57,205.857 1374.29,205.654 1370.69,205.248 C1369.09,205.727 1367.5,206.808 1365.9,208.49 C1364.3,210.172 1363.5,211.612 1363.5,212.81 C1363.5,214.727 1366.62,215.805 1372.86,216.045 L1388.33,216.779 C1392.73,216.935 1396.26,218.172 1398.9,220.49 C1401.54,222.808 1402.86,225.847 1402.86,229.607 C1402.86,235.368 1399.56,240.188 1392.95,244.068 C1386.35,247.948 1379.25,249.889 1371.65,249.889 C1365.98,249.889 1361.1,248.748 1357.01,246.467 C1352.93,244.185 1350.89,241.446 1350.89,238.248 C1350.89,236.008 1351.79,233.79 1353.59,231.592 C1355.39,229.394 1358.41,226.732 1362.65,223.607 C1360.17,222.409 1358.5,221.37 1357.62,220.49 C1356.73,219.61 1356.29,218.529 1356.29,217.248 M1365.17,223.967 C1362.69,226.935 1361.09,229.058 1360.37,230.334 C1359.65,231.61 1359.29,232.93 1359.29,234.295 C1359.29,236.93 1360.89,239.047 1364.09,240.646 C1367.29,242.245 1371.53,243.045 1376.81,243.045 C1383.61,243.045 1389.09,241.967 1393.25,239.81 C1397.4,237.654 1399.48,234.857 1399.48,231.42 C1399.48,229.253 1398.36,227.73 1396.12,226.849 C1393.88,225.969 1390.04,225.529 1384.61,225.529 C1376.53,225.529 1370.06,225.008 1365.17,223.967 M1387.01,191.889 C1387.01,190.545 1386.85,188.928 1386.53,187.037 C1386.21,185.146 1385.65,182.998 1384.85,180.592 C1384.05,178.185 1382.77,176.175 1381.01,174.56 C1379.25,172.946 1377.13,172.139 1374.65,172.139 C1371.85,172.139 1369.67,173.107 1368.11,175.045 C1366.54,176.982 1365.76,179.659 1365.76,183.076 C1365.76,189.993 1367.04,195.019 1369.61,198.154 C1372.17,201.29 1374.97,202.857 1378.01,202.857 C1380.82,202.857 1383.02,201.873 1384.62,199.904 C1386.21,197.935 1387.01,195.264 1387.01,191.889 M1416.73,190.498 C1416.89,195.54 1417.57,199.878 1418.77,203.514 C1419.97,207.149 1421.53,209.868 1423.45,211.67 C1425.37,213.472 1427.31,214.753 1429.27,215.514 C1431.23,216.274 1433.29,216.654 1435.45,216.654 C1439.29,216.654 1442.64,215.693 1445.47,213.771 C1448.31,211.849 1451.17,208.612 1454.04,204.06 L1455.97,204.889 C1453.49,211.368 1450.05,216.329 1445.65,219.771 C1441.25,223.214 1436.21,224.935 1430.53,224.935 C1423.65,224.935 1418.2,222.516 1414.15,217.678 C1410.11,212.839 1408.09,206.3 1408.09,198.06 C1408.09,189.175 1410.43,182.032 1415.12,176.631 C1419.8,171.23 1425.82,168.529 1433.17,168.529 C1439.25,168.529 1443.97,170.349 1447.33,173.99 C1450.69,177.631 1452.81,183.133 1453.69,190.498 L1416.73,190.498 M1416.97,186.889 L1441.45,186.889 C1440.65,181.691 1439.41,178.092 1437.73,176.092 C1436.06,174.092 1433.37,173.092 1429.69,173.092 C1422.49,173.092 1418.25,177.691 1416.97,186.889 M1459.65,176.217 L1459.65,174.17 C1465.41,172.503 1471.01,170.623 1476.45,168.529 L1477.29,168.779 L1477.29,177.998 C1482.25,174.144 1485.93,171.602 1488.33,170.373 C1490.73,169.144 1493.25,168.529 1495.89,168.529 C1502.21,168.529 1506.45,171.967 1508.61,178.842 C1514.85,171.967 1521.37,168.529 1528.17,168.529 C1537.45,168.529 1542.09,175.706 1542.09,190.06 L1542.09,214.654 C1542.09,219.112 1543.81,221.461 1547.25,221.701 L1550.37,221.935 L1550.37,223.732 L1524.09,223.732 L1524.09,221.935 C1527.61,221.54 1529.81,220.862 1530.69,219.904 C1531.57,218.946 1532.01,216.758 1532.01,213.342 L1532.01,188.139 C1532.01,183.211 1531.37,179.792 1530.09,177.881 C1528.81,175.969 1526.45,175.014 1523.01,175.014 C1517.73,175.014 1513.37,177.441 1509.94,182.295 L1509.94,212.389 C1509.94,216.128 1510.51,218.633 1511.67,219.904 C1512.83,221.175 1515.13,221.852 1518.58,221.935 L1518.58,223.732 L1491.69,223.732 L1491.69,221.935 C1495.13,221.696 1497.36,221.058 1498.36,220.021 C1499.36,218.985 1499.86,216.795 1499.86,213.451 L1499.86,187.545 C1499.86,179.191 1497.22,175.014 1491.94,175.014 C1489.7,175.014 1487.2,175.571 1484.44,176.685 C1481.67,177.8 1479.45,179.592 1477.76,182.06 L1477.76,215.732 C1477.76,218.034 1478.33,219.605 1479.45,220.443 C1480.58,221.282 1482.74,221.779 1485.94,221.935 L1485.94,223.732 L1459.29,223.732 L1459.29,221.935 C1462.65,221.852 1464.89,221.253 1466.01,220.139 C1467.13,219.024 1467.69,216.836 1467.69,213.576 L1467.69,183.373 C1467.69,180.508 1467.39,178.519 1466.79,177.404 C1466.19,176.29 1465.09,175.732 1463.5,175.732 C1462.29,175.732 1461.01,175.894 1459.65,176.217 M1554.09,211.889 C1554.09,210.451 1554.25,209.115 1554.57,207.881 C1554.89,206.646 1555.45,205.493 1556.25,204.42 C1557.05,203.347 1557.81,202.373 1558.53,201.498 C1559.25,200.623 1560.33,199.727 1561.77,198.81 C1563.21,197.894 1564.41,197.139 1565.37,196.545 C1566.33,195.951 1567.79,195.235 1569.75,194.396 C1571.71,193.558 1573.21,192.92 1574.25,192.482 C1575.29,192.045 1576.93,191.389 1579.17,190.514 C1581.41,189.639 1583.05,189.003 1584.09,188.607 L1584.09,181.326 C1584.09,174.722 1581.05,171.42 1574.97,171.42 C1572.57,171.42 1570.53,171.998 1568.85,173.154 C1567.17,174.31 1566.33,175.691 1566.33,177.295 C1566.33,177.93 1566.43,178.808 1566.63,179.928 C1566.83,181.047 1566.94,181.769 1566.94,182.092 C1566.94,183.456 1566.39,184.639 1565.31,185.639 C1564.23,186.639 1562.97,187.139 1561.53,187.139 C1560.17,187.139 1558.98,186.618 1557.94,185.576 C1556.89,184.534 1556.37,183.331 1556.37,181.967 C1556.37,178.217 1558.31,175.04 1562.19,172.435 C1566.07,169.831 1570.85,168.529 1576.53,168.529 C1583.09,168.529 1587.61,170.102 1590.09,173.248 C1592.57,176.394 1593.81,181.196 1593.81,187.654 L1593.81,210.935 C1593.81,213.56 1594.07,215.37 1594.59,216.365 C1595.11,217.36 1596.05,217.857 1597.4,217.857 C1599.09,217.857 1600.85,217.102 1602.69,215.592 L1602.69,218.732 C1600.61,221.128 1598.79,222.761 1597.23,223.631 C1595.67,224.501 1593.89,224.935 1591.89,224.935 C1589.41,224.935 1587.59,224.237 1586.43,222.842 C1585.27,221.446 1584.53,219.144 1584.22,215.935 C1577.33,221.935 1571.49,224.935 1566.69,224.935 C1563.01,224.935 1559.99,223.714 1557.63,221.271 C1555.27,218.829 1554.09,215.701 1554.09,211.889 M1584.09,208.779 L1584.09,191.467 C1576.89,194.092 1571.85,196.639 1568.97,199.107 C1566.09,201.576 1564.65,204.56 1564.65,208.06 C1564.65,211.321 1565.45,213.748 1567.05,215.342 C1568.65,216.935 1570.37,217.732 1572.22,217.732 C1574.94,217.732 1577.85,216.816 1580.97,214.982 C1582.25,214.274 1583.09,213.521 1583.49,212.724 C1583.89,211.928 1584.09,210.612 1584.09,208.779 M1606.09,211.889 C1606.09,210.451 1606.25,209.115 1606.57,207.881 C1606.89,206.646 1607.45,205.493 1608.25,204.42 C1609.05,203.347 1609.81,202.373 1610.53,201.498 C1611.25,200.623 1612.33,199.727 1613.77,198.81 C1615.21,197.894 1616.41,197.139 1617.37,196.545 C1618.33,195.951 1619.79,195.235 1621.75,194.396 C1623.71,193.558 1625.21,192.92 1626.25,192.482 C1627.29,192.045 1628.93,191.389 1631.17,190.514 C1633.41,189.639 1635.05,189.003 1636.09,188.607 L1636.09,181.326 C1636.09,174.722 1633.05,171.42 1626.97,171.42 C1624.57,171.42 1622.53,171.998 1620.85,173.154 C1619.17,174.31 1618.33,175.691 1618.33,177.295 C1618.33,177.93 1618.43,178.808 1618.63,179.928 C1618.83,181.047 1618.94,181.769 1618.94,182.092 C1618.94,183.456 1618.39,184.639 1617.31,185.639 C1616.23,186.639 1614.97,187.139 1613.53,187.139 C1612.17,187.139 1610.98,186.618 1609.94,185.576 C1608.89,184.534 1608.37,183.331 1608.37,181.967 C1608.37,178.217 1610.31,175.04 1614.19,172.435 C1618.07,169.831 1622.85,168.529 1628.53,168.529 C1635.09,168.529 1639.61,170.102 1642.09,173.248 C1644.57,176.394 1645.81,181.196 1645.81,187.654 L1645.81,210.935 C1645.81,213.56 1646.07,215.37 1646.59,216.365 C1647.11,217.36 1648.05,217.857 1649.4,217.857 C1651.09,217.857 1652.85,217.102 1654.69,215.592 L1654.69,218.732 C1652.61,221.128 1650.79,222.761 1649.23,223.631 C1647.67,224.501 1645.89,224.935 1643.89,224.935 C1641.41,224.935 1639.59,224.237 1638.43,222.842 C1637.27,221.446 1636.53,219.144 1636.22,215.935 C1629.33,221.935 1623.49,224.935 1618.69,224.935 C1615.01,224.935 1611.99,223.714 1609.63,221.271 C1607.27,218.829 1606.09,215.701 1606.09,211.889 M1636.09,208.779 L1636.09,191.467 C1628.89,194.092 1623.85,196.639 1620.97,199.107 C1618.09,201.576 1616.65,204.56 1616.65,208.06 C1616.65,211.321 1617.45,213.748 1619.05,215.342 C1620.65,216.935 1622.37,217.732 1624.22,217.732 C1626.94,217.732 1629.85,216.816 1632.97,214.982 C1634.25,214.274 1635.09,213.521 1635.49,212.724 C1635.89,211.928 1636.09,210.612 1636.09,208.779 M1656.29,148.982 L1656.29,147.06 C1663.1,145.373 1669.29,143.612 1674.89,141.779 L1675.37,142.014 L1675.37,192.42 L1691.81,177.779 C1693.65,176.175 1694.58,174.816 1694.58,173.701 C1694.58,172.899 1694.15,172.336 1693.31,172.014 C1692.47,171.691 1690.89,171.493 1688.58,171.42 L1688.58,169.732 L1713.04,169.732 L1713.04,171.529 C1711.21,171.529 1709.75,171.631 1708.67,171.834 C1707.59,172.037 1706.04,172.579 1704.04,173.459 C1702.04,174.339 1699.71,175.857 1697.03,178.014 C1694.35,180.17 1691.05,183.05 1687.12,186.654 L1683.65,189.889 L1702.01,213.17 C1704.49,216.211 1706.79,218.391 1708.91,219.709 C1711.03,221.027 1713.41,221.769 1716.04,221.935 L1716.04,223.732 L1689.89,223.732 L1689.89,221.935 C1693.09,221.935 1694.69,221.336 1694.69,220.139 C1694.69,219.816 1694.57,219.433 1694.33,218.99 C1694.09,218.547 1693.71,218.027 1693.19,217.428 C1692.66,216.829 1692.33,216.368 1692.17,216.045 L1675.37,193.607 L1675.37,214.139 C1675.37,217.014 1675.83,218.852 1676.76,219.654 C1677.68,220.456 1680.22,221.217 1684.37,221.935 L1684.37,223.732 L1656.29,223.732 L1656.29,221.935 C1660.62,221.217 1663.2,220.477 1664.04,219.717 C1664.88,218.956 1665.29,217.014 1665.29,213.889 L1665.29,156.06 C1665.29,153.175 1664.94,151.232 1664.22,150.232 C1663.5,149.232 1662.14,148.732 1660.14,148.732 C1659.01,148.732 1657.73,148.816 1656.29,148.982 M1748.17,169.732 L1748.17,173.342 L1736.04,173.342 L1736.04,207.654 C1736.04,211.415 1736.53,214.154 1737.49,215.873 C1738.45,217.592 1740.06,218.451 1742.29,218.451 C1744.77,218.451 1747.17,217.05 1749.5,214.248 L1751.04,215.576 C1747.21,221.816 1742.41,224.935 1736.65,224.935 C1729.53,224.935 1725.97,219.831 1725.97,209.623 L1725.97,173.342 L1719.61,173.342 C1719.29,173.112 1719.14,172.847 1719.14,172.545 C1719.14,172.17 1719.26,171.87 1719.5,171.646 C1719.74,171.422 1720.2,171.105 1720.87,170.693 C1721.55,170.282 1722.37,169.691 1723.33,168.92 C1724.3,168.149 1725.62,166.751 1727.29,164.724 C1728.97,162.698 1730.81,160.264 1732.81,157.42 C1734.09,155.555 1734.89,154.42 1735.22,154.014 C1735.77,154.014 1736.04,154.54 1736.04,155.592 L1736.04,169.732 L1748.17,169.732 M1816.12,244.967 C1814.05,243.685 1811.89,242.146 1809.65,240.349 C1807.41,238.553 1804.87,236.053 1802.03,232.849 C1799.19,229.646 1796.69,226.227 1794.53,222.592 C1792.37,218.956 1790.56,214.579 1789.08,209.459 C1787.6,204.339 1786.86,199.019 1786.86,193.498 C1786.86,187.737 1787.6,182.277 1789.08,177.115 C1790.56,171.954 1792.29,167.672 1794.29,164.271 C1796.29,160.87 1798.83,157.592 1801.91,154.435 C1804.99,151.279 1807.53,148.941 1809.53,147.42 C1811.53,145.899 1813.85,144.3 1816.5,142.623 L1817.58,144.529 C1814.06,147.415 1811.21,150.016 1809.05,152.334 C1806.89,154.652 1804.81,157.672 1802.81,161.396 C1800.81,165.12 1799.37,169.56 1798.49,174.717 C1797.61,179.873 1797.17,186.014 1797.17,193.139 C1797.17,200.576 1797.61,206.974 1798.49,212.334 C1799.37,217.693 1800.81,222.274 1802.81,226.076 C1804.81,229.878 1806.89,232.977 1809.05,235.373 C1811.21,237.769 1814.06,240.326 1817.58,243.045 L1816.12,244.967 M1862.12,224.935 L1861.65,224.56 L1861.65,216.67 C1857.81,222.18 1852.69,224.935 1846.29,224.935 C1839.65,224.935 1834.29,222.55 1830.21,217.779 C1826.13,213.008 1824.09,206.779 1824.09,199.092 C1824.09,190.623 1826.53,183.412 1831.41,177.459 C1836.29,171.506 1842.17,168.529 1849.04,168.529 C1853.37,168.529 1857.57,170.326 1861.65,173.92 L1861.65,155.029 C1861.65,152.529 1861.29,150.876 1860.58,150.068 C1859.86,149.261 1858.37,148.857 1856.12,148.857 C1855.01,148.857 1854.13,148.899 1853.5,148.982 L1853.5,147.06 C1860.77,145.133 1866.64,143.373 1871.12,141.779 L1871.73,142.014 L1871.73,209.857 C1871.73,212.649 1872.07,214.482 1872.75,215.357 C1873.42,216.232 1874.85,216.67 1877.01,216.67 C1877.41,216.67 1878.33,216.633 1879.76,216.56 L1879.76,218.451 L1862.12,224.935 M1850.97,218.451 C1854.01,218.451 1856.55,217.599 1858.59,215.896 C1860.63,214.193 1861.65,212.67 1861.65,211.326 L1861.65,184.014 C1861.65,180.847 1860.41,178.076 1857.94,175.701 C1855.46,173.326 1852.61,172.139 1849.4,172.139 C1844.85,172.139 1841.21,174.157 1838.49,178.193 C1835.77,182.23 1834.4,187.612 1834.4,194.342 C1834.4,201.623 1835.92,207.461 1838.97,211.857 C1842.01,216.253 1846.01,218.451 1850.97,218.451 M1938.69,217.498 L1938.69,219.17 C1932.45,220.93 1926.97,222.81 1922.25,224.81 L1921.76,224.56 L1921.76,214.389 C1921.52,214.628 1920.83,215.344 1919.67,216.537 C1918.51,217.73 1917.7,218.555 1917.22,219.014 C1916.74,219.472 1915.92,220.178 1914.76,221.131 C1913.59,222.084 1912.57,222.769 1911.69,223.185 C1910.81,223.602 1909.69,223.998 1908.33,224.373 C1906.97,224.748 1905.61,224.935 1904.25,224.935 C1899.85,224.935 1896.33,223.498 1893.69,220.623 C1891.05,217.748 1889.73,213.92 1889.73,209.139 L1889.73,179.06 C1889.73,176.269 1889.21,174.336 1888.17,173.264 C1887.13,172.191 1885.17,171.576 1882.29,171.42 L1882.29,169.732 L1899.81,169.732 L1899.81,208.654 C1899.81,211.123 1900.65,213.253 1902.33,215.045 C1904.02,216.836 1906.01,217.732 1908.33,217.732 C1909.21,217.732 1910.25,217.612 1911.45,217.373 C1912.65,217.133 1914.03,216.675 1915.59,215.998 C1917.15,215.321 1918.47,214.248 1919.55,212.779 C1920.63,211.31 1921.17,209.498 1921.17,207.342 L1921.17,179.295 C1921.17,176.347 1920.63,174.396 1919.55,173.443 C1918.47,172.49 1916.06,171.935 1912.29,171.779 L1912.29,169.732 L1931.25,169.732 L1931.25,210.685 C1931.25,213.477 1931.69,215.31 1932.57,216.185 C1933.45,217.06 1935.29,217.498 1938.09,217.498 L1938.69,217.498 M1951.73,190.498 C1951.89,195.54 1952.57,199.878 1953.77,203.514 C1954.97,207.149 1956.53,209.868 1958.45,211.67 C1960.37,213.472 1962.31,214.753 1964.27,215.514 C1966.23,216.274 1968.29,216.654 1970.45,216.654 C1974.29,216.654 1977.64,215.693 1980.47,213.771 C1983.31,211.849 1986.17,208.612 1989.04,204.06 L1990.97,204.889 C1988.49,211.368 1985.05,216.329 1980.65,219.771 C1976.25,223.214 1971.21,224.935 1965.53,224.935 C1958.65,224.935 1953.2,222.516 1949.15,217.678 C1945.11,212.839 1943.09,206.3 1943.09,198.06 C1943.09,189.175 1945.43,182.032 1950.12,176.631 C1954.8,171.23 1960.82,168.529 1968.17,168.529 C1974.25,168.529 1978.97,170.349 1982.33,173.99 C1985.69,177.631 1987.81,183.133 1988.69,190.498 L1951.73,190.498 M1951.97,186.889 L1976.45,186.889 C1975.65,181.691 1974.41,178.092 1972.73,176.092 C1971.06,174.092 1968.37,173.092 1964.69,173.092 C1957.49,173.092 1953.25,177.691 1951.97,186.889 M2024.17,169.732 L2024.17,173.342 L2012.04,173.342 L2012.04,207.654 C2012.04,211.415 2012.53,214.154 2013.49,215.873 C2014.45,217.592 2016.06,218.451 2018.29,218.451 C2020.77,218.451 2023.17,217.05 2025.5,214.248 L2027.04,215.576 C2023.21,221.816 2018.41,224.935 2012.65,224.935 C2005.53,224.935 2001.97,219.831 2001.97,209.623 L2001.97,173.342 L1995.61,173.342 C1995.29,173.112 1995.14,172.847 1995.14,172.545 C1995.14,172.17 1995.26,171.87 1995.5,171.646 C1995.74,171.422 1996.2,171.105 1996.87,170.693 C1997.55,170.282 1998.37,169.691 1999.33,168.92 C2000.3,168.149 2001.62,166.751 2003.29,164.724 C2004.97,162.698 2006.81,160.264 2008.81,157.42 C2010.09,155.555 2010.89,154.42 2011.22,154.014 C2011.77,154.014 2012.04,154.54 2012.04,155.592 L2012.04,169.732 L2024.17,169.732 M2032.01,142.623 C2034.1,143.894 2036.26,145.43 2038.5,147.232 C2040.74,149.034 2043.28,151.534 2046.12,154.732 C2048.95,157.93 2051.45,161.349 2053.62,164.99 C2055.78,168.631 2057.6,173.011 2059.08,178.131 C2060.56,183.251 2061.29,188.571 2061.29,194.092 C2061.29,199.852 2060.56,205.313 2059.08,210.474 C2057.6,215.636 2055.86,219.917 2053.86,223.318 C2051.86,226.719 2049.32,229.998 2046.23,233.154 C2043.15,236.31 2040.61,238.649 2038.61,240.17 C2036.61,241.691 2034.29,243.29 2031.65,244.967 L2030.58,243.045 C2034.1,240.17 2036.94,237.573 2039.09,235.256 C2041.25,232.938 2043.33,229.917 2045.33,226.193 C2047.33,222.469 2048.77,218.029 2049.65,212.873 C2050.53,207.717 2050.97,201.576 2050.97,194.451 C2050.97,187.014 2050.53,180.615 2049.65,175.256 C2048.77,169.896 2047.33,165.316 2045.33,161.514 C2043.33,157.711 2041.25,154.612 2039.09,152.217 C2036.94,149.821 2034.1,147.258 2030.58,144.529 L2032.01,142.623 "/>
<path class="MeasureNumber" d="M142.045,992.295 C139.357,992.295 137.193,991.22 135.553,989.069 C133.912,986.918 133.092,984.077 133.092,980.545 C133.092,979.462 133.198,978.34 133.412,977.178 C133.626,976.017 134.092,974.699 134.81,973.225 C135.529,971.751 136.461,970.428 137.607,969.256 C138.753,968.084 140.36,967.038 142.428,966.116 C144.495,965.194 146.878,964.613 149.576,964.373 L149.654,965.014 C146.508,965.524 143.881,966.801 141.771,968.842 C139.662,970.884 138.342,973.41 137.81,976.42 C139.06,975.702 140.006,975.235 140.646,975.022 C141.287,974.808 142.05,974.702 142.935,974.702 C145.227,974.702 147.053,975.444 148.412,976.928 C149.771,978.413 150.451,980.415 150.451,982.936 C150.451,985.696 149.67,987.946 148.107,989.686 C146.545,991.426 144.524,992.295 142.045,992.295 M141.404,976.452 C139.592,976.452 138.373,976.85 137.748,977.647 C137.123,978.444 136.81,979.623 136.81,981.186 C136.81,984.259 137.318,986.678 138.334,988.444 C139.349,990.209 140.737,991.092 142.498,991.092 C143.904,991.092 144.982,990.501 145.732,989.319 C146.482,988.136 146.857,986.462 146.857,984.295 C146.857,981.795 146.383,979.863 145.435,978.498 C144.487,977.134 143.144,976.452 141.404,976.452"/>
<path class="SlurSegment" stroke="#000000" stroke-width="1.75" stroke-linecap="round" stroke-linejoin="round" fill-rule="evenodd" d="M457.857,600.483 C472.562,578.191 505.861,575.066 524.456,594.233 C506.235,579.049 472.936,582.174 457.857,600.483"/>
<path class="SlurSegment" stroke="#000000" stroke-width="1.75" stroke-linecap="round" stroke-linejoin="round" fill-rule="evenodd" d="M902.183,594.233 C928.076,567.119 976.134,570.244 998.298,600.483 C975.874,574.235 927.817,571.11 902.183,594.233"/>
<path class="SlurSegment" stroke="#000000" stroke-width="1.75" stroke-linecap="round" stroke-linejoin="round" fill-rule="evenodd" d="M1388.63,600.483 C1404.72,576.457 1440.8,573.332 1460.78,594.233 C1441.14,577.318 1405.07,580.443 1388.63,600.483"/>
<path class="SlurSegment" stroke="#000000" stroke-width="1.75" stroke-linecap="round" stroke-linejoin="round" fill-rule="evenodd" d="M2260.37,600.483 C2274.19,579.371 2305.72,576.246 2323.42,594.233 C2306.12,580.227 2274.59,583.352 2260.37,600.483"/>
<path class="SlurSegment" stroke="#000000" stroke-width="1.75" stroke-linecap="round" stroke-linejoin="round" fill-rule="evenodd" d="M2655.7,544.233 C2672.32,509.528 2720.38,497.028 2751.81,519.233 C2721.39,500.899 2673.33,513.399 2655.7,544.233"/>
<path class="SlurSegment" stroke="#000000" stroke-width="1.75" stroke-linecap="round" stroke-linejoin="round" fill-rule="evenodd" d="M704.624,1069.23 C736.73,1034.25 800.943,1034.25 833.049,1069.23 C800.943,1038.25 736.73,1038.25 704.624,1069.23"/>
<path class="SlurSegment" stroke="#000000" stroke-width="1.75" stroke-linecap="round" stroke-linejoin="round" fill-rule="evenodd" d="M1789.29,1075.48 C1809.13,1047.41 1852.61,1044.29 1876.26,1069.23 C1852.9,1048.28 1809.42,1051.4 1789.29,1075.48"/>
<path class="TieSegment" stroke="#000000" stroke-width="1.75" stroke-linecap="round" stroke-linejoin="round" fill-rule="evenodd" d="M750.934,563.233 C760.974,551.233 791.092,551.233 801.132,563.233 C791.092,555.233 760.974,555.233 750.934,563.233"/>
<path class="TieSegment" stroke="#000000" stroke-width="1.75" stroke-linecap="round" stroke-linejoin="round" fill-rule="evenodd" d="M1188.42,697.983 C1198.46,705.983 1228.58,705.983 1238.62,697.983 C1228.58,709.983 1198.46,709.983 1188.42,697.983"/>
<path class="TieSegment" stroke="#000000" stroke-width="1.75" stroke-linecap="round" stroke-linejoin="round" fill-rule="evenodd" d="M1654.1,563.233 C1664.78,551.233 1696.81,551.233 1707.48,563.233 C1696.81,555.233 1664.78,555.233 1654.1,563.233"/>
<path class="TieSegment" stroke="#000000" stroke-width="1.75" stroke-linecap="round" stroke-linejoin="round" fill-rule="evenodd" d="M1983.06,560.483 C1999.84,545.726 2050.19,545.726 2066.98,560.483 C2050.19,549.726 1999.84,549.726 1983.06,560.483"/>
<path class="TieSegment" stroke="#000000" stroke-width="1.75" stroke-linecap="round" stroke-linejoin="round" fill-rule="evenodd" d="M2504.45,563.233 C2514.49,551.233 2544.61,551.233 2554.64,563.233 C2544.61,555.233 2514.49,555.233 2504.45,563.233"/>
<path class="TieSegment" stroke="#000000" stroke-width="1.75" stroke-linecap="round" stroke-linejoin="round" fill-rule="evenodd" d="M750.934,563.233 C760.974,551.233 791.092,551.233 801.132,563.233 C791.092,555.233 760.974,555.233 750.934,563.233"/>
<path class="TieSegment" stroke="#000000" stroke-width="1.75" stroke-linecap="round" stroke-linejoin="round" fill-rule="evenodd" d="M1188.42,697.983 C1198.46,705.983 1228.58,705.983 1238.62,697.983 C1228.58,709.983 1198.46,709.983 1188.42,697.983"/>
<path class="TieSegment" stroke="#000000" stroke-width="1.75" stroke-linecap="round" stroke-linejoin="round" fill-rule="evenodd" d="M1654.1,563.233 C1664.78,551.233 1696.81,551.233 1707.48,563.233 C1696.81,555.233 1664.78,555.233 1654.1,563.233"/>
<path class="TieSegment" stroke="#000000" stroke-width="1.75" stroke-linecap="round" stroke-linejoin="round" fill-rule="evenodd" d="M1983.06,560.483 C1999.84,545.726 2050.19,545.726 2066.98,560.483 C2050.19,549.726 1999.84,549.726 1983.06,560.483"/>
<path class="TieSegment" stroke="#000000" stroke-width="1.75" stroke-linecap="round" stroke-linejoin="round" fill-rule="evenodd" d="M2504.45,563.233 C2514.49,551.233 2544.61,551.233 2554.64,563.233 C2544.61,555.233 2514.49,555.233 2504.45,563.233"/>
<path class="TieSegment" stroke="#000000" stroke-width="1.75" stroke-linecap="round" stroke-linejoin="round" fill-rule="evenodd" d="M475.869,1010.48 C489.947,997.783 532.183,997.783 546.261,1010.48 C532.183,1001.78 489.947,1001.78 475.869,1010.48"/>
<path class="TieSegment" stroke="#000000" stroke-width="1.75" stroke-linecap="round" stroke-linejoin="round" fill-rule="evenodd" d="M1070.63,1038.23 C1083.7,1026.23 1122.91,1026.23 1135.97,1038.23 C1122.91,1030.23 1083.7,1030.23 1070.63,1038.23"/>
<path class="TieSegment" stroke="#000000" stroke-width="1.75" stroke-linecap="round" stroke-linejoin="round" fill-rule="evenodd" d="M1461.76,1035.48 C1480.94,1018.91 1538.47,1018.91 1557.64,1035.48 C1538.47,1022.91 1480.94,1022.91 1461.76,1035.48"/>
<path class="TieSegment" stroke="#000000" stroke-width="1.75" stroke-linecap="round" stroke-linejoin="round" fill-rule="evenodd" d="M2138.26,1022.98 C2151.33,1010.98 2190.53,1010.98 2203.6,1022.98 C2190.53,1014.98 2151.33,1014.98 2138.26,1022.98"/>
<path class="TieSegment" stroke="#000000" stroke-width="1.75" stroke-linecap="round" stroke-linejoin="round" fill-rule="evenodd" d="M2529.39,1041.66 C2548.57,1025.09 2606.1,1025.09 2625.27,1041.66 C2606.1,1029.09 2548.57,1029.09 2529.39,1041.66"/>
<path class="TieSegment" stroke="#000000" stroke-width="1.75" stroke-linecap="round" stroke-linejoin="round" fill-rule="evenodd" d="M475.869,1010.48 C489.947,997.783 532.183,997.783 546.261,1010.48 C532.183,1001.78 489.947,1001.78 475.869,1010.48"/>
<path class="TieSegment" stroke="#000000" stroke-width="1.75" stroke-linecap="round" stroke-linejoin="round" fill-rule="evenodd" d="M1070.63,1038.23 C1083.7,1026.23 1122.91,1026.23 1135.97,1038.23 C1122.91,1030.23 1083.7,1030.23 1070.63,1038.23"/>
<path class="TieSegment" stroke="#000000" stroke-width="1.75" stroke-linecap="round" stroke-linejoin="round" fill-rule="evenodd" d="M1461.76,1035.48 C1480.94,1018.91 1538.47,1018.91 1557.64,1035.48 C1538.47,1022.91 1480.94,1022.91 1461.76,1035.48"/>
<path class="TieSegment" stroke="#000000" stroke-width="1.75" stroke-linecap="round" stroke-linejoin="round" fill-rule="evenodd" d="M2138.26,1022.98 C2151.33,1010.98 2190.53,1010.98 2203.6,1022.98 C2190.53,1014.98 2151.33,1014.98 2138.26,1022.98"/>
<path class="TieSegment" stroke="#000000" stroke-width="1.75" stroke-linecap="round" stroke-linejoin="round" fill-rule="evenodd" d="M2529.39,1041.66 C2548.57,1025.09 2606.1,1025.09 2625.27,1041.66 C2606.1,1029.09 2548.57,1029.09 2529.39,1041.66"/>
<polyline class="BarLine" stroke="#000000" stroke-width="12.50" stroke-linejoin="bevel" points="604.804,565.733 604.804,667.733"/>
<polyline class="BarLine" stroke="#000000" stroke-width="4.00" stroke-linejoin="bevel" points="623.054,565.733 623.054,667.733"/>
<path class="BarLine" d="M634.797,608.233 C633.687,607.128 633.133,605.795 633.133,604.233 C633.133,602.67 633.687,601.334 634.797,600.225 C635.906,599.115 637.242,598.561 638.804,598.561 C640.367,598.561 641.7,599.115 642.804,600.225 C643.909,601.334 644.461,602.67 644.461,604.233 C644.461,605.795 643.909,607.128 642.804,608.233 C641.7,609.337 640.367,609.889 638.804,609.889 C637.242,609.889 635.906,609.337 634.797,608.233"/>
<path class="BarLine" d="M634.797,633.233 C633.687,632.128 633.133,630.795 633.133,629.233 C633.133,627.67 633.687,626.334 634.797,625.225 C635.906,624.115 637.242,623.561 638.804,623.561 C640.367,623.561 641.7,624.115 642.804,625.225 C643.909,626.334 644.461,627.67 644.461,629.233 C644.461,630.795 643.909,632.128 642.804,633.233 C641.7,634.337 640.367,634.889 638.804,634.889 C637.242,634.889 635.906,634.337 634.797,633.233"/>
<polyline class="BarLine" stroke="#000000" stroke-width="4.00" stroke-linejoin="bevel" points="1079.96,565.733 1079.96,667.733"/>
<polyline class="BarLine" stroke="#000000" stroke-width="4.00" stroke-linejoin="bevel" points="1542.44,565.733 1542.44,667.733"/>
<polyline class="BarLine" stroke="#000000" stroke-width="4.00" stroke-linejoin="bevel" points="2026.93,565.733 2026.93,667.733"/>
<polyline class="BarLine" stroke="#000000" stroke-width="4.00" stroke-linejoin="bevel" points="2395.98,565.733 2395.98,667.733"/>
<polyline class="BarLine" stroke="#000000" stroke-width="4.00" stroke-linejoin="bevel" points="2833.47,565.733 2833.47,667.733"/>
<polyline class="BarLine" stroke="#000000" stroke-width="4.00" stroke-linejoin="bevel" points="947.018,1040.73 947.018,1142.73"/>
<polyline class="BarLine" stroke="#000000" stroke-width="4.00" stroke-linejoin="bevel" points="1517.59,1040.73 1517.59,1142.73"/>
<path class="BarLine" d="M1972.4,1083.23 C1971.29,1082.13 1970.73,1080.8 1970.73,1079.23 C1970.73,1077.67 1971.29,1076.33 1972.4,1075.23 C1973.51,1074.12 1974.84,1073.56 1976.4,1073.56 C1977.97,1073.56 1979.3,1074.12 1980.4,1075.23 C1981.51,1076.33 1982.06,1077.67 1982.06,1079.23 C1982.06,1080.8 1981.51,1082.13 1980.4,1083.23 C1979.3,1084.34 1977.97,1084.89 1976.4,1084.89 C1974.84,1084.89 1973.51,1084.34 1972.4,1083.23"/>
<path class="BarLine" d="M1972.4,1108.23 C1971.29,1107.13 1970.73,1105.8 1970.73,1104.23 C1970.73,1102.67 1971.29,1101.33 1972.4,1100.23 C1973.51,1099.12 1974.84,1098.56 1976.4,1098.56 C1977.97,1098.56 1979.3,1099.12 1980.4,1100.23 C1981.51,1101.33 1982.06,1102.67 1982.06,1104.23 C1982.06,1105.8 1981.51,1107.13 1980.4,1108.23 C1979.3,1109.34 1977.97,1109.89 1976.4,1109.89 C1974.84,1109.89 1973.51,1109.34 1972.4,1108.23"/>
<polyline class="BarLine" stroke="#000000" stroke-width="4.00" stroke-linejoin="bevel" points="1992.15,1040.73 1992.15,1142.73"/>
<polyline class="BarLine" stroke="#000000" stroke-width="12.50" stroke-linejoin="bevel" points="2010.4,1040.73 2010.4,1142.73"/>
<polyline class="BarLine" stroke="#000000" stroke-width="4.00" stroke-linejoin="bevel" points="2585.22,1040.73 2585.22,1142.73"/>
<polyline class="BarLine" stroke="#000000" stroke-width="4.00" stroke-linejoin="bevel" points="2810.97,1040.73 2810.97,1142.73"/>
<polyline class="BarLine" stroke="#000000" stroke-width="12.50" stroke-linejoin="bevel" points="2829.22,1040.73 2829.22,1142.73"/>
<path class="Accidental" d="M793.514,1087.62 L793.514,1095.34 C793.514,1098.08 793.644,1100.26 793.905,1101.89 C796.05,1100.07 797.582,1098.7 798.498,1097.8 C799.54,1096.75 800.582,1095.32 801.623,1093.49 C802.665,1091.66 803.186,1089.84 803.186,1088.01 C803.186,1086.19 802.795,1084.63 802.014,1083.33 C801.233,1082.02 800.191,1081.37 798.889,1081.37 C797.326,1081.37 796.024,1081.96 794.983,1083.14 C794.004,1084.44 793.514,1085.94 793.514,1087.62 M789.405,1105.5 L788.139,1046.03 C789.056,1045.51 789.97,1045.25 790.881,1045.25 C791.793,1045.25 792.701,1045.51 793.608,1046.03 L792.826,1080.5 C795.493,1078.22 798.556,1077.08 802.014,1077.08 C804.545,1077.08 806.657,1078.12 808.35,1080.2 C810.043,1082.28 810.889,1084.67 810.889,1087.34 C810.889,1089.03 810.337,1090.82 809.233,1092.72 C808.191,1094.47 807.087,1095.83 805.92,1096.81 C805.264,1097.33 803.602,1098.63 800.936,1100.72 C800.155,1101.3 799.227,1101.98 798.155,1102.76 C797.082,1103.55 796.415,1104.03 796.155,1104.23 C795.696,1104.49 795.269,1105.01 794.873,1105.8 C794.425,1106.45 793.905,1107 793.311,1107.45 C792.863,1107.85 792.313,1108.05 791.662,1108.05 C791.011,1108.05 790.488,1107.82 790.092,1107.36 C789.634,1106.9 789.405,1106.28 789.405,1105.5"/>
<polyline class="LedgerLine" stroke="#000000" stroke-width="4.00" stroke-linecap="square" stroke-linejoin="bevel" points="2727.85,541.733 2775.77,541.733"/>
<polyline class="LedgerLine" stroke="#000000" stroke-width="4.00" stroke-linecap="square" stroke-linejoin="bevel" points="366.709,1016.73 414.623,1016.73"/>
<polyline class="Stem" stroke="#000000" stroke-width="3.25" stroke-linecap="round" stroke-linejoin="bevel" points="448.732,624.537 448.732,547.983"/>
<polyline class="Stem" stroke="#000000" stroke-width="3.25" stroke-linecap="round" stroke-linejoin="bevel" points="509.624,621.428 509.624,694.858"/>
<polyline class="Stem" stroke="#000000" stroke-width="3.25" stroke-linecap="round" stroke-linejoin="bevel" points="671.093,596.428 671.093,666.733"/>
<polyline class="Stem" stroke="#000000" stroke-width="3.25" stroke-linecap="round" stroke-linejoin="bevel" points="731.165,596.428 731.165,666.733"/>
<polyline class="Stem" stroke="#000000" stroke-width="3.25" stroke-linecap="round" stroke-linejoin="bevel" points="791.237,596.428 791.237,676.108"/>
<polyline class="Stem" stroke="#000000" stroke-width="3.25" stroke-linecap="round" stroke-linejoin="bevel" points="887.351,621.428 887.351,694.858"/>
<polyline class="Stem" stroke="#000000" stroke-width="3.25" stroke-linecap="round" stroke-linejoin="bevel" points="1013.13,624.537 1013.13,547.983"/>
<polyline class="Stem" stroke="#000000" stroke-width="3.25" stroke-linecap="round" stroke-linejoin="bevel" points="1138.24,649.537 1138.24,585.483"/>
<polyline class="Stem" stroke="#000000" stroke-width="3.25" stroke-linecap="round" stroke-linejoin="bevel" points="1198.32,674.537 1198.32,597.983"/>
<polyline class="Stem" stroke="#000000" stroke-width="3.25" stroke-linecap="round" stroke-linejoin="bevel" points="1258.39,674.537 1258.39,591.733"/>
<polyline class="Stem" stroke="#000000" stroke-width="3.25" stroke-linecap="round" stroke-linejoin="bevel" points="1379.5,624.537 1379.5,547.983"/>
<polyline class="Stem" stroke="#000000" stroke-width="3.25" stroke-linecap="round" stroke-linejoin="bevel" points="1445.95,621.428 1445.95,694.858"/>
<polyline class="Stem" stroke="#000000" stroke-width="3.25" stroke-linecap="round" stroke-linejoin="bevel" points="1571.07,596.428 1571.07,666.733"/>
<polyline class="Stem" stroke="#000000" stroke-width="3.25" stroke-linecap="round" stroke-linejoin="bevel" points="1634.33,596.428 1634.33,666.733"/>
<polyline class="Stem" stroke="#000000" stroke-width="3.25" stroke-linecap="round" stroke-linejoin="bevel" points="1697.59,596.428 1697.59,676.108"/>
<polyline class="Stem" stroke="#000000" stroke-width="3.25" stroke-linecap="round" stroke-linejoin="bevel" points="1798.81,571.428 1798.81,654.233"/>
<polyline class="Stem" stroke="#000000" stroke-width="3.25" stroke-linecap="round" stroke-linejoin="bevel" points="1900.03,571.428 1900.03,641.733"/>
<polyline class="Stem" stroke="#000000" stroke-width="3.25" stroke-linecap="round" stroke-linejoin="bevel" points="1963.29,583.928 1963.29,647.983"/>
<polyline class="Stem" stroke="#000000" stroke-width="3.25" stroke-linecap="round" stroke-linejoin="bevel" points="2056.45,583.153 2056.45,666.733"/>
<polyline class="Stem" stroke="#000000" stroke-width="3.25" stroke-linecap="round" stroke-linejoin="bevel" points="2251.24,624.537 2251.24,547.983"/>
<polyline class="Stem" stroke="#000000" stroke-width="3.25" stroke-linecap="round" stroke-linejoin="bevel" points="2308.59,621.428 2308.59,694.858"/>
<polyline class="Stem" stroke="#000000" stroke-width="3.25" stroke-linecap="round" stroke-linejoin="bevel" points="2424.61,596.428 2424.61,666.733"/>
<polyline class="Stem" stroke="#000000" stroke-width="3.25" stroke-linecap="round" stroke-linejoin="bevel" points="2484.68,596.428 2484.68,666.733"/>
<polyline class="Stem" stroke="#000000" stroke-width="3.25" stroke-linecap="round" stroke-linejoin="bevel" points="2544.75,596.428 2544.75,676.108"/>
<polyline class="Stem" stroke="#000000" stroke-width="3.25" stroke-linecap="round" stroke-linejoin="bevel" points="2640.86,571.428 2640.86,654.233"/>
<polyline class="Stem" stroke="#000000" stroke-width="3.25" stroke-linecap="round" stroke-linejoin="bevel" points="2736.98,546.428 2736.98,629.233"/>
<polyline class="Stem" stroke="#000000" stroke-width="3.25" stroke-linecap="round" stroke-linejoin="bevel" points="375.834,1021.43 375.834,1091.73"/>
<polyline class="Stem" stroke="#000000" stroke-width="3.25" stroke-linecap="round" stroke-linejoin="bevel" points="456.1,1033.93 456.1,1097.98"/>
<polyline class="Stem" stroke="#000000" stroke-width="3.25" stroke-linecap="round" stroke-linejoin="bevel" points="536.366,1033.93 536.366,1116.73"/>
<polyline class="Stem" stroke="#000000" stroke-width="3.25" stroke-linecap="round" stroke-linejoin="bevel" points="689.792,1096.43 689.792,1169.86"/>
<polyline class="Stem" stroke="#000000" stroke-width="3.25" stroke-linecap="round" stroke-linejoin="bevel" points="818.217,1096.43 818.217,1169.86"/>
<polyline class="Stem" stroke="#000000" stroke-width="3.25" stroke-linecap="round" stroke-linejoin="bevel" points="975.643,1108.93 975.643,1172.98"/>
<polyline class="Stem" stroke="#000000" stroke-width="3.25" stroke-linecap="round" stroke-linejoin="bevel" points="1050.86,1071.43 1050.86,1147.98"/>
<polyline class="Stem" stroke="#000000" stroke-width="3.25" stroke-linecap="round" stroke-linejoin="bevel" points="1126.08,1071.43 1126.08,1151.11"/>
<polyline class="Stem" stroke="#000000" stroke-width="3.25" stroke-linecap="round" stroke-linejoin="bevel" points="1246.43,1058.93 1246.43,1141.73"/>
<polyline class="Stem" stroke="#000000" stroke-width="3.25" stroke-linecap="round" stroke-linejoin="bevel" points="1366.78,1046.43 1366.78,1116.73"/>
<polyline class="Stem" stroke="#000000" stroke-width="3.25" stroke-linecap="round" stroke-linejoin="bevel" points="1442,1058.93 1442,1122.98"/>
<polyline class="Stem" stroke="#000000" stroke-width="3.25" stroke-linecap="round" stroke-linejoin="bevel" points="1547.12,1058.15 1547.12,1141.73"/>
<polyline class="Stem" stroke="#000000" stroke-width="3.25" stroke-linecap="round" stroke-linejoin="bevel" points="1780.17,1099.54 1780.17,1022.98"/>
<polyline class="Stem" stroke="#000000" stroke-width="3.25" stroke-linecap="round" stroke-linejoin="bevel" points="1861.43,1096.43 1861.43,1169.86"/>
<polyline class="Stem" stroke="#000000" stroke-width="3.25" stroke-linecap="round" stroke-linejoin="bevel" points="2043.27,1108.93 2043.27,1172.98"/>
<polyline class="Stem" stroke="#000000" stroke-width="3.25" stroke-linecap="round" stroke-linejoin="bevel" points="2118.49,1046.43 2118.49,1147.98"/>
<polyline class="Stem" stroke="#000000" stroke-width="3.25" stroke-linecap="round" stroke-linejoin="bevel" points="2193.71,1046.43 2193.71,1129.23"/>
<polyline class="Stem" stroke="#000000" stroke-width="3.25" stroke-linecap="round" stroke-linejoin="bevel" points="2314.06,1096.43 2314.06,1169.86"/>
<polyline class="Stem" stroke="#000000" stroke-width="3.25" stroke-linecap="round" stroke-linejoin="bevel" points="2434.41,1058.93 2434.41,1135.48"/>
<polyline class="Stem" stroke="#000000" stroke-width="3.25" stroke-linecap="round" stroke-linejoin="bevel" points="2509.62,1071.43 2509.62,1141.73"/>
<polyline class="Stem" stroke="#000000" stroke-width="3.25" stroke-linecap="round" stroke-linejoin="bevel" points="2614.75,1070.65 2614.75,1151.11"/>
<path class="Note" d="M439.412,615.467 C442.537,615.467 445.178,616.279 447.334,617.904 C449.344,619.665 450.35,621.878 450.35,624.545 C450.35,629.035 448.042,633.233 443.428,637.139 C438.74,641.045 433.725,642.998 428.381,642.998 C425.256,642.998 422.62,642.186 420.475,640.561 C418.454,638.8 417.443,636.587 417.443,633.92 C417.443,629.431 419.787,625.233 424.475,621.326 C429.037,617.42 434.016,615.467 439.412,615.467"/>
<path class="Note" d="M529.968,602.967 C533.093,602.967 535.733,603.779 537.889,605.404 C539.9,607.165 540.905,609.378 540.905,612.045 C540.905,616.535 538.598,620.733 533.983,624.639 C529.296,628.545 524.28,630.498 518.936,630.498 C515.811,630.498 513.176,629.686 511.03,628.061 C509.009,626.3 507.999,624.087 507.999,621.42 C507.999,616.93 510.343,612.733 515.03,608.826 C519.593,604.92 524.572,602.967 529.968,602.967"/>
<path class="Note" d="M691.437,577.967 C694.562,577.967 697.203,578.779 699.359,580.404 C701.37,582.165 702.375,584.378 702.375,587.045 C702.375,591.535 700.067,595.733 695.453,599.639 C690.765,603.545 685.75,605.498 680.406,605.498 C677.281,605.498 674.646,604.686 672.5,603.061 C670.479,601.3 669.468,599.087 669.468,596.42 C669.468,591.93 671.812,587.733 676.5,583.826 C681.062,579.92 686.041,577.967 691.437,577.967"/>
<path class="Note" d="M751.509,577.967 C754.634,577.967 757.274,578.779 759.431,580.404 C761.441,582.165 762.446,584.378 762.446,587.045 C762.446,591.535 760.139,595.733 755.524,599.639 C750.837,603.545 745.821,605.498 740.478,605.498 C737.353,605.498 734.717,604.686 732.571,603.061 C730.55,601.3 729.54,599.087 729.54,596.42 C729.54,591.93 731.884,587.733 736.571,583.826 C741.134,579.92 746.113,577.967 751.509,577.967"/>
<path class="Note" d="M811.58,577.967 C814.705,577.967 817.346,578.779 819.502,580.404 C821.513,582.165 822.518,584.378 822.518,587.045 C822.518,591.535 820.211,595.733 815.596,599.639 C810.908,603.545 805.893,605.498 800.549,605.498 C797.424,605.498 794.789,604.686 792.643,603.061 C790.622,601.3 789.612,599.087 789.612,596.42 C789.612,591.93 791.955,587.733 796.643,583.826 C801.205,579.92 806.185,577.967 811.58,577.967"/>
<path class="Note" d="M907.695,602.967 C910.82,602.967 913.46,603.779 915.617,605.404 C917.627,607.165 918.632,609.378 918.632,612.045 C918.632,616.535 916.325,620.733 911.71,624.639 C907.023,628.545 902.007,630.498 896.664,630.498 C893.539,630.498 890.903,629.686 888.757,628.061 C886.737,626.3 885.726,624.087 885.726,621.42 C885.726,616.93 888.07,612.733 892.757,608.826 C897.32,604.92 902.299,602.967 907.695,602.967"/>
<path class="Note" d="M1003.81,615.467 C1006.93,615.467 1009.57,616.279 1011.73,617.904 C1013.74,619.665 1014.75,621.878 1014.75,624.545 C1014.75,629.035 1012.44,633.233 1007.82,637.139 C1003.14,641.045 998.122,642.998 992.778,642.998 C989.653,642.998 987.018,642.186 984.872,640.561 C982.851,638.8 981.841,636.587 981.841,633.92 C981.841,629.431 984.184,625.233 988.872,621.326 C993.434,617.42 998.414,615.467 1003.81,615.467"/>
<path class="Note" d="M1128.92,640.467 C1132.05,640.467 1134.69,641.279 1136.85,642.904 C1138.86,644.665 1139.86,646.878 1139.86,649.545 C1139.86,654.035 1137.55,658.233 1132.94,662.139 C1128.25,666.045 1123.24,667.998 1117.89,667.998 C1114.77,667.998 1112.13,667.186 1109.99,665.561 C1107.97,663.8 1106.96,661.587 1106.96,658.92 C1106.96,654.431 1109.3,650.233 1113.99,646.326 C1118.55,642.42 1123.53,640.467 1128.92,640.467"/>
<path class="Note" d="M1189,665.467 C1192.12,665.467 1194.76,666.279 1196.92,667.904 C1198.93,669.665 1199.93,671.878 1199.93,674.545 C1199.93,679.035 1197.63,683.233 1193.01,687.139 C1188.32,691.045 1183.31,692.998 1177.96,692.998 C1174.84,692.998 1172.2,692.186 1170.06,690.561 C1168.04,688.8 1167.03,686.587 1167.03,683.92 C1167.03,679.431 1169.37,675.233 1174.06,671.326 C1178.62,667.42 1183.6,665.467 1189,665.467"/>
<path class="Note" d="M1249.07,665.467 C1252.19,665.467 1254.83,666.279 1256.99,667.904 C1259,669.665 1260,671.878 1260,674.545 C1260,679.035 1257.7,683.233 1253.08,687.139 C1248.4,691.045 1243.38,692.998 1238.04,692.998 C1234.91,692.998 1232.28,692.186 1230.13,690.561 C1228.11,688.8 1227.1,686.587 1227.1,683.92 C1227.1,679.431 1229.44,675.233 1234.13,671.326 C1238.69,667.42 1243.67,665.467 1249.07,665.467"/>
<path class="Note" d="M1370.18,615.467 C1373.31,615.467 1375.95,616.279 1378.1,617.904 C1380.11,619.665 1381.12,621.878 1381.12,624.545 C1381.12,629.035 1378.81,633.233 1374.2,637.139 C1369.51,641.045 1364.49,642.998 1359.15,642.998 C1356.03,642.998 1353.39,642.186 1351.24,640.561 C1349.22,638.8 1348.21,636.587 1348.21,633.92 C1348.21,629.431 1350.56,625.233 1355.24,621.326 C1359.81,617.42 1364.79,615.467 1370.18,615.467"/>
<path class="Note" d="M1466.3,602.967 C1469.42,602.967 1472.06,603.779 1474.22,605.404 C1476.23,607.165 1477.23,609.378 1477.23,612.045 C1477.23,616.535 1474.93,620.733 1470.31,624.639 C1465.62,628.545 1460.61,630.498 1455.26,630.498 C1452.14,630.498 1449.5,629.686 1447.36,628.061 C1445.34,626.3 1444.33,624.087 1444.33,621.42 C1444.33,616.93 1446.67,612.733 1451.36,608.826 C1455.92,604.92 1460.9,602.967 1466.3,602.967"/>
<path class="Note" d="M1591.41,577.967 C1594.54,577.967 1597.18,578.779 1599.33,580.404 C1601.34,582.165 1602.35,584.378 1602.35,587.045 C1602.35,591.535 1600.04,595.733 1595.43,599.639 C1590.74,603.545 1585.72,605.498 1580.38,605.498 C1577.25,605.498 1574.62,604.686 1572.47,603.061 C1570.45,601.3 1569.44,599.087 1569.44,596.42 C1569.44,591.93 1571.79,587.733 1576.47,583.826 C1581.04,579.92 1586.01,577.967 1591.41,577.967"/>
<path class="Note" d="M1654.67,577.967 C1657.8,577.967 1660.44,578.779 1662.59,580.404 C1664.6,582.165 1665.61,584.378 1665.61,587.045 C1665.61,591.535 1663.3,595.733 1658.69,599.639 C1654,603.545 1648.98,605.498 1643.64,605.498 C1640.52,605.498 1637.88,604.686 1635.73,603.061 C1633.71,601.3 1632.7,599.087 1632.7,596.42 C1632.7,591.93 1635.05,587.733 1639.73,583.826 C1644.3,579.92 1649.28,577.967 1654.67,577.967"/>
<path class="Note" d="M1717.93,577.967 C1721.06,577.967 1723.7,578.779 1725.86,580.404 C1727.87,582.165 1728.87,584.378 1728.87,587.045 C1728.87,591.535 1726.56,595.733 1721.95,599.639 C1717.26,603.545 1712.25,605.498 1706.9,605.498 C1703.78,605.498 1701.14,604.686 1699,603.061 C1696.98,601.3 1695.96,599.087 1695.96,596.42 C1695.96,591.93 1698.31,587.733 1703,583.826 C1707.56,579.92 1712.54,577.967 1717.93,577.967"/>
<path class="Note" d="M1819.15,552.967 C1822.28,552.967 1824.92,553.779 1827.07,555.404 C1829.08,557.165 1830.09,559.378 1830.09,562.045 C1830.09,566.535 1827.78,570.733 1823.17,574.639 C1818.48,578.545 1813.46,580.498 1808.12,580.498 C1805,580.498 1802.36,579.686 1800.21,578.061 C1798.19,576.3 1797.18,574.087 1797.18,571.42 C1797.18,566.93 1799.53,562.733 1804.21,558.826 C1808.78,554.92 1813.76,552.967 1819.15,552.967"/>
<path class="Note" d="M1920.37,552.967 C1923.5,552.967 1926.14,553.779 1928.29,555.404 C1930.3,557.165 1931.31,559.378 1931.31,562.045 C1931.31,566.535 1929,570.733 1924.39,574.639 C1919.7,578.545 1914.68,580.498 1909.34,580.498 C1906.21,580.498 1903.58,579.686 1901.43,578.061 C1899.41,576.3 1898.4,574.087 1898.4,571.42 C1898.4,566.93 1900.75,562.733 1905.43,558.826 C1910,554.92 1914.98,552.967 1920.37,552.967"/>
<path class="Note" d="M1983.63,565.467 C1986.76,565.467 1989.4,566.279 1991.55,567.904 C1993.56,569.665 1994.57,571.878 1994.57,574.545 C1994.57,579.035 1992.26,583.233 1987.65,587.139 C1982.96,591.045 1977.94,592.998 1972.6,592.998 C1969.48,592.998 1966.84,592.186 1964.69,590.561 C1962.67,588.8 1961.66,586.587 1961.66,583.92 C1961.66,579.43 1964.01,575.233 1968.69,571.326 C1973.26,567.42 1978.24,565.467 1983.63,565.467"/>
<path class="Note" d="M2086.37,572.686 C2086.37,571.582 2085.95,570.639 2085.11,569.858 C2084.25,569.014 2083.28,568.592 2082.17,568.592 C2080.22,568.592 2076.29,570.545 2070.36,574.451 C2064.23,578.42 2060.49,581.253 2059.12,582.951 C2058.41,583.858 2058.05,584.8 2058.05,585.779 C2058.05,586.884 2058.47,587.826 2059.33,588.608 C2060.11,589.451 2061.08,589.873 2062.25,589.873 C2064.13,589.873 2068.11,587.92 2074.17,584.014 C2080.16,580.108 2083.87,577.274 2085.3,575.514 C2086.02,574.67 2086.37,573.727 2086.37,572.686 M2081.2,565.467 C2086.8,565.467 2089.59,567.873 2089.59,572.686 C2089.59,575.029 2088.91,577.764 2087.55,580.889 C2086.18,583.951 2084.36,586.295 2082.08,587.92 C2077.07,591.305 2070.79,592.998 2063.23,592.998 C2057.63,592.998 2054.83,590.592 2054.83,585.779 C2054.83,583.634 2055.51,580.93 2056.87,577.67 C2058.18,574.545 2060,572.17 2062.34,570.545 C2067.36,567.16 2073.65,565.467 2081.2,565.467"/>
<path class="Note" d="M2241.92,615.467 C2245.05,615.467 2247.69,616.279 2249.84,617.904 C2251.85,619.665 2252.86,621.878 2252.86,624.545 C2252.86,629.035 2250.55,633.233 2245.94,637.139 C2241.25,641.045 2236.23,642.998 2230.89,642.998 C2227.77,642.998 2225.13,642.186 2222.98,640.561 C2220.96,638.8 2219.95,636.587 2219.95,633.92 C2219.95,629.431 2222.3,625.233 2226.98,621.326 C2231.55,617.42 2236.53,615.467 2241.92,615.467"/>
<path class="Note" d="M2328.94,602.967 C2332.06,602.967 2334.7,603.779 2336.86,605.404 C2338.87,607.165 2339.87,609.378 2339.87,612.045 C2339.87,616.535 2337.57,620.733 2332.95,624.639 C2328.26,628.545 2323.25,630.498 2317.9,630.498 C2314.78,630.498 2312.14,629.686 2310,628.061 C2307.98,626.3 2306.97,624.087 2306.97,621.42 C2306.97,616.93 2309.31,612.733 2314,608.826 C2318.56,604.92 2323.54,602.967 2328.94,602.967"/>
<path class="Note" d="M2444.95,577.967 C2448.08,577.967 2450.72,578.779 2452.87,580.404 C2454.88,582.165 2455.89,584.378 2455.89,587.045 C2455.89,591.535 2453.58,595.733 2448.97,599.639 C2444.28,603.545 2439.26,605.498 2433.92,605.498 C2430.79,605.498 2428.16,604.686 2426.01,603.061 C2423.99,601.3 2422.98,599.087 2422.98,596.42 C2422.98,591.93 2425.33,587.733 2430.01,583.826 C2434.58,579.92 2439.55,577.967 2444.95,577.967"/>
<path class="Note" d="M2505.02,577.967 C2508.15,577.967 2510.79,578.779 2512.94,580.404 C2514.95,582.165 2515.96,584.378 2515.96,587.045 C2515.96,591.535 2513.65,595.733 2509.04,599.639 C2504.35,603.545 2499.33,605.498 2493.99,605.498 C2490.87,605.498 2488.23,604.686 2486.08,603.061 C2484.06,601.3 2483.05,599.087 2483.05,596.42 C2483.05,591.93 2485.4,587.733 2490.08,583.826 C2494.65,579.92 2499.63,577.967 2505.02,577.967"/>
<path class="Note" d="M2565.09,577.967 C2568.22,577.967 2570.86,578.779 2573.02,580.404 C2575.03,582.165 2576.03,584.378 2576.03,587.045 C2576.03,591.535 2573.72,595.733 2569.11,599.639 C2564.42,603.545 2559.41,605.498 2554.06,605.498 C2550.94,605.498 2548.3,604.686 2546.16,603.061 C2544.14,601.3 2543.12,599.087 2543.12,596.42 C2543.12,591.93 2545.47,587.733 2550.16,583.826 C2554.72,579.92 2559.7,577.967 2565.09,577.967"/>
<path class="Note" d="M2661.21,552.967 C2664.33,552.967 2666.97,553.779 2669.13,555.404 C2671.14,557.165 2672.15,559.378 2672.15,562.045 C2672.15,566.535 2669.84,570.733 2665.22,574.639 C2660.54,578.545 2655.52,580.498 2650.18,580.498 C2647.05,580.498 2644.42,579.686 2642.27,578.061 C2640.25,576.3 2639.24,574.087 2639.24,571.42 C2639.24,566.93 2641.58,562.733 2646.27,558.826 C2650.83,554.92 2655.81,552.967 2661.21,552.967"/>
<path class="Note" d="M2757.32,527.967 C2760.45,527.967 2763.09,528.779 2765.24,530.404 C2767.25,532.165 2768.26,534.378 2768.26,537.045 C2768.26,541.535 2765.95,545.733 2761.34,549.639 C2756.65,553.545 2751.64,555.498 2746.29,555.498 C2743.17,555.498 2740.53,554.686 2738.39,553.061 C2736.36,551.3 2735.35,549.087 2735.35,546.42 C2735.35,541.93 2737.7,537.733 2742.39,533.826 C2746.95,529.92 2751.93,527.967 2757.32,527.967"/>
<path class="Note" d="M396.178,1002.97 C399.303,1002.97 401.943,1003.78 404.1,1005.4 C406.11,1007.17 407.115,1009.38 407.115,1012.05 C407.115,1016.53 404.808,1020.73 400.193,1024.64 C395.506,1028.55 390.49,1030.5 385.146,1030.5 C382.021,1030.5 379.386,1029.69 377.24,1028.06 C375.219,1026.3 374.209,1024.09 374.209,1021.42 C374.209,1016.93 376.553,1012.73 381.24,1008.83 C385.803,1004.92 390.782,1002.97 396.178,1002.97"/>
<path class="Note" d="M476.444,1015.47 C479.569,1015.47 482.209,1016.28 484.366,1017.9 C486.376,1019.67 487.381,1021.88 487.381,1024.55 C487.381,1029.03 485.074,1033.23 480.459,1037.14 C475.772,1041.05 470.756,1043 465.412,1043 C462.287,1043 459.652,1042.19 457.506,1040.56 C455.485,1038.8 454.475,1036.59 454.475,1033.92 C454.475,1029.43 456.819,1025.23 461.506,1021.33 C466.069,1017.42 471.048,1015.47 476.444,1015.47"/>
<path class="Note" d="M556.71,1015.47 C559.835,1015.47 562.475,1016.28 564.632,1017.9 C566.642,1019.67 567.647,1021.88 567.647,1024.55 C567.647,1029.03 565.34,1033.23 560.725,1037.14 C556.038,1041.05 551.022,1043 545.678,1043 C542.553,1043 539.918,1042.19 537.772,1040.56 C535.751,1038.8 534.741,1036.59 534.741,1033.92 C534.741,1029.43 537.085,1025.23 541.772,1021.33 C546.335,1017.42 551.314,1015.47 556.71,1015.47"/>
<path class="Note" d="M710.135,1077.97 C713.26,1077.97 715.901,1078.78 718.057,1080.4 C720.068,1082.17 721.073,1084.38 721.073,1087.05 C721.073,1091.53 718.765,1095.73 714.151,1099.64 C709.463,1103.55 704.448,1105.5 699.104,1105.5 C695.979,1105.5 693.344,1104.69 691.198,1103.06 C689.177,1101.3 688.167,1099.09 688.167,1096.42 C688.167,1091.93 690.51,1087.73 695.198,1083.83 C699.76,1079.92 704.739,1077.97 710.135,1077.97"/>
<path class="Note" d="M838.561,1077.97 C841.686,1077.97 844.326,1078.78 846.483,1080.4 C848.493,1082.17 849.498,1084.38 849.498,1087.05 C849.498,1091.53 847.191,1095.73 842.576,1099.64 C837.889,1103.55 832.873,1105.5 827.53,1105.5 C824.405,1105.5 821.769,1104.69 819.623,1103.06 C817.602,1101.3 816.592,1099.09 816.592,1096.42 C816.592,1091.93 818.936,1087.73 823.623,1083.83 C828.186,1079.92 833.165,1077.97 838.561,1077.97"/>
<path class="Note" d="M995.986,1090.47 C999.111,1090.47 1001.75,1091.28 1003.91,1092.9 C1005.92,1094.67 1006.92,1096.88 1006.92,1099.55 C1006.92,1104.03 1004.62,1108.23 1000,1112.14 C995.315,1116.05 990.299,1118 984.955,1118 C981.83,1118 979.195,1117.19 977.049,1115.56 C975.028,1113.8 974.018,1111.59 974.018,1108.92 C974.018,1104.43 976.361,1100.23 981.049,1096.33 C985.611,1092.42 990.591,1090.47 995.986,1090.47"/>
<path class="Note" d="M1071.2,1052.97 C1074.33,1052.97 1076.97,1053.78 1079.13,1055.4 C1081.14,1057.17 1082.14,1059.38 1082.14,1062.05 C1082.14,1066.53 1079.83,1070.73 1075.22,1074.64 C1070.53,1078.55 1065.52,1080.5 1060.17,1080.5 C1057.05,1080.5 1054.41,1079.69 1052.27,1078.06 C1050.25,1076.3 1049.24,1074.09 1049.24,1071.42 C1049.24,1066.93 1051.58,1062.73 1056.27,1058.83 C1060.83,1054.92 1065.81,1052.97 1071.2,1052.97"/>
<path class="Note" d="M1146.42,1052.97 C1149.55,1052.97 1152.19,1053.78 1154.34,1055.4 C1156.36,1057.17 1157.36,1059.38 1157.36,1062.05 C1157.36,1066.53 1155.05,1070.73 1150.44,1074.64 C1145.75,1078.55 1140.74,1080.5 1135.39,1080.5 C1132.27,1080.5 1129.63,1079.69 1127.49,1078.06 C1125.46,1076.3 1124.45,1074.09 1124.45,1071.42 C1124.45,1066.93 1126.8,1062.73 1131.49,1058.83 C1136.05,1054.92 1141.03,1052.97 1146.42,1052.97"/>
<path class="Note" d="M1266.77,1040.47 C1269.9,1040.47 1272.54,1041.28 1274.69,1042.9 C1276.7,1044.67 1277.71,1046.88 1277.71,1049.55 C1277.71,1054.03 1275.4,1058.23 1270.79,1062.14 C1266.1,1066.05 1261.08,1068 1255.74,1068 C1252.62,1068 1249.98,1067.19 1247.83,1065.56 C1245.81,1063.8 1244.8,1061.59 1244.8,1058.92 C1244.8,1054.43 1247.15,1050.23 1251.83,1046.33 C1256.4,1042.42 1261.38,1040.47 1266.77,1040.47"/>
<path class="Note" d="M1387.12,1027.97 C1390.25,1027.97 1392.89,1028.78 1395.04,1030.4 C1397.05,1032.17 1398.06,1034.38 1398.06,1037.05 C1398.06,1041.53 1395.75,1045.73 1391.14,1049.64 C1386.45,1053.55 1381.43,1055.5 1376.09,1055.5 C1372.96,1055.5 1370.33,1054.69 1368.18,1053.06 C1366.16,1051.3 1365.15,1049.09 1365.15,1046.42 C1365.15,1041.93 1367.5,1037.73 1372.18,1033.83 C1376.75,1029.92 1381.73,1027.97 1387.12,1027.97"/>
<path class="Note" d="M1462.34,1040.47 C1465.46,1040.47 1468.1,1041.28 1470.26,1042.9 C1472.27,1044.67 1473.28,1046.88 1473.28,1049.55 C1473.28,1054.03 1470.97,1058.23 1466.35,1062.14 C1461.67,1066.05 1456.65,1068 1451.31,1068 C1448.18,1068 1445.55,1067.19 1443.4,1065.56 C1441.38,1063.8 1440.37,1061.59 1440.37,1058.92 C1440.37,1054.43 1442.71,1050.23 1447.4,1046.33 C1451.96,1042.42 1456.94,1040.47 1462.34,1040.47"/>
<path class="Note" d="M1577.04,1047.69 C1577.04,1046.58 1576.62,1045.64 1575.77,1044.86 C1574.92,1044.01 1573.94,1043.59 1572.83,1043.59 C1570.89,1043.59 1566.95,1045.55 1561.02,1049.45 C1554.9,1053.42 1551.15,1056.25 1549.79,1057.95 C1549.07,1058.86 1548.71,1059.8 1548.71,1060.78 C1548.71,1061.88 1549.14,1062.83 1549.99,1063.61 C1550.77,1064.45 1551.75,1064.87 1552.91,1064.87 C1554.8,1064.87 1558.77,1062.92 1564.83,1059.01 C1570.82,1055.11 1574.53,1052.27 1575.96,1050.51 C1576.68,1049.67 1577.04,1048.73 1577.04,1047.69 M1571.87,1040.47 C1577.46,1040.47 1580.26,1042.87 1580.26,1047.69 C1580.26,1050.03 1579.57,1052.76 1578.21,1055.89 C1576.85,1058.95 1575.02,1061.3 1572.74,1062.92 C1567.73,1066.31 1561.45,1068 1553.9,1068 C1548.29,1068 1545.49,1065.59 1545.49,1060.78 C1545.49,1058.63 1546.17,1055.93 1547.54,1052.67 C1548.84,1049.55 1550.66,1047.17 1553.01,1045.55 C1558.03,1042.16 1564.31,1040.47 1571.87,1040.47"/>
<path class="Note" d="M1770.85,1090.47 C1773.97,1090.47 1776.61,1091.28 1778.77,1092.9 C1780.78,1094.67 1781.78,1096.88 1781.78,1099.55 C1781.78,1104.03 1779.48,1108.23 1774.86,1112.14 C1770.17,1116.05 1765.16,1118 1759.82,1118 C1756.69,1118 1754.05,1117.19 1751.91,1115.56 C1749.89,1113.8 1748.88,1111.59 1748.88,1108.92 C1748.88,1104.43 1751.22,1100.23 1755.91,1096.33 C1760.47,1092.42 1765.45,1090.47 1770.85,1090.47"/>
<path class="Note" d="M1881.77,1077.97 C1884.9,1077.97 1887.54,1078.78 1889.7,1080.4 C1891.71,1082.17 1892.71,1084.38 1892.71,1087.05 C1892.71,1091.53 1890.4,1095.73 1885.79,1099.64 C1881.1,1103.55 1876.09,1105.5 1870.74,1105.5 C1867.62,1105.5 1864.98,1104.69 1862.84,1103.06 C1860.82,1101.3 1859.81,1099.09 1859.81,1096.42 C1859.81,1091.93 1862.15,1087.73 1866.84,1083.83 C1871.4,1079.92 1876.38,1077.97 1881.77,1077.97"/>
<path class="Note" d="M2063.62,1090.47 C2066.74,1090.47 2069.38,1091.28 2071.54,1092.9 C2073.55,1094.67 2074.55,1096.88 2074.55,1099.55 C2074.55,1104.03 2072.25,1108.23 2067.63,1112.14 C2062.94,1116.05 2057.93,1118 2052.58,1118 C2049.46,1118 2046.82,1117.19 2044.68,1115.56 C2042.66,1113.8 2041.65,1111.59 2041.65,1108.92 C2041.65,1104.43 2043.99,1100.23 2048.68,1096.33 C2053.24,1092.42 2058.22,1090.47 2063.62,1090.47"/>
<path class="Note" d="M2138.83,1027.97 C2141.96,1027.97 2144.6,1028.78 2146.76,1030.4 C2148.77,1032.17 2149.77,1034.38 2149.77,1037.05 C2149.77,1041.53 2147.46,1045.73 2142.85,1049.64 C2138.16,1053.55 2133.15,1055.5 2127.8,1055.5 C2124.68,1055.5 2122.04,1054.69 2119.9,1053.06 C2117.88,1051.3 2116.86,1049.09 2116.86,1046.42 C2116.86,1041.93 2119.21,1037.73 2123.9,1033.83 C2128.46,1029.92 2133.44,1027.97 2138.83,1027.97"/>
<path class="Note" d="M2214.05,1027.97 C2217.18,1027.97 2219.82,1028.78 2221.97,1030.4 C2223.98,1032.17 2224.99,1034.38 2224.99,1037.05 C2224.99,1041.53 2222.68,1045.73 2218.07,1049.64 C2213.38,1053.55 2208.36,1055.5 2203.02,1055.5 C2199.9,1055.5 2197.26,1054.69 2195.11,1053.06 C2193.09,1051.3 2192.08,1049.09 2192.08,1046.42 C2192.08,1041.93 2194.43,1037.73 2199.11,1033.83 C2203.68,1029.92 2208.66,1027.97 2214.05,1027.97"/>
<path class="Note" d="M2334.4,1077.97 C2337.53,1077.97 2340.17,1078.78 2342.32,1080.4 C2344.33,1082.17 2345.34,1084.38 2345.34,1087.05 C2345.34,1091.53 2343.03,1095.73 2338.42,1099.64 C2333.73,1103.55 2328.71,1105.5 2323.37,1105.5 C2320.24,1105.5 2317.61,1104.69 2315.46,1103.06 C2313.44,1101.3 2312.43,1099.09 2312.43,1096.42 C2312.43,1091.93 2314.78,1087.73 2319.46,1083.83 C2324.03,1079.92 2329.01,1077.97 2334.4,1077.97"/>
<path class="Note" d="M2454.75,1040.47 C2457.88,1040.47 2460.52,1041.28 2462.67,1042.9 C2464.68,1044.67 2465.69,1046.88 2465.69,1049.55 C2465.69,1054.03 2463.38,1058.23 2458.77,1062.14 C2454.08,1066.05 2449.06,1068 2443.72,1068 C2440.59,1068 2437.96,1067.19 2435.81,1065.56 C2433.79,1063.8 2432.78,1061.59 2432.78,1058.92 C2432.78,1054.43 2435.13,1050.23 2439.81,1046.33 C2444.38,1042.42 2449.35,1040.47 2454.75,1040.47"/>
<path class="Note" d="M2529.97,1052.97 C2533.09,1052.97 2535.73,1053.78 2537.89,1055.4 C2539.9,1057.17 2540.91,1059.38 2540.91,1062.05 C2540.91,1066.53 2538.6,1070.73 2533.98,1074.64 C2529.3,1078.55 2524.28,1080.5 2518.94,1080.5 C2515.81,1080.5 2513.18,1079.69 2511.03,1078.06 C2509.01,1076.3 2508,1074.09 2508,1071.42 C2508,1066.93 2510.34,1062.73 2515.03,1058.83 C2519.59,1054.92 2524.57,1052.97 2529.97,1052.97"/>
<path class="Note" d="M2644.67,1060.19 C2644.67,1059.08 2644.25,1058.14 2643.4,1057.36 C2642.55,1056.51 2641.57,1056.09 2640.46,1056.09 C2638.52,1056.09 2634.58,1058.05 2628.65,1061.95 C2622.53,1065.92 2618.78,1068.75 2617.42,1070.45 C2616.7,1071.36 2616.34,1072.3 2616.34,1073.28 C2616.34,1074.38 2616.77,1075.33 2617.62,1076.11 C2618.4,1076.95 2619.38,1077.37 2620.54,1077.37 C2622.43,1077.37 2626.4,1075.42 2632.46,1071.51 C2638.45,1067.61 2642.16,1064.77 2643.59,1063.01 C2644.31,1062.17 2644.67,1061.23 2644.67,1060.19 M2639.5,1052.97 C2645.09,1052.97 2647.89,1055.37 2647.89,1060.19 C2647.89,1062.53 2647.2,1065.26 2645.84,1068.39 C2644.47,1071.45 2642.65,1073.8 2640.37,1075.42 C2635.36,1078.81 2629.08,1080.5 2621.53,1080.5 C2615.92,1080.5 2613.12,1078.09 2613.12,1073.28 C2613.12,1071.13 2613.8,1068.43 2615.17,1065.17 C2616.47,1062.05 2618.29,1059.67 2620.64,1058.05 C2625.66,1054.66 2631.94,1052.97 2639.5,1052.97"/>
<path class="Clef" d="M198.451,616.139 C198.451,616.139 198.649,616.139 199.045,616.139 C199.305,616.076 199.529,616.045 199.717,616.045 C207.008,616.045 212.998,618.618 217.685,623.764 C222.373,628.837 224.717,634.759 224.717,641.529 C224.717,649.936 221.238,656.774 214.279,662.045 C212.456,663.483 210.076,664.654 207.139,665.561 C207.472,669.79 207.639,673.207 207.639,675.811 C207.639,676.332 207.571,678.222 207.435,681.483 C207.175,687.535 205.092,692.774 201.185,697.201 C197.415,701.566 192.727,703.748 187.123,703.748 C181.852,703.748 177.363,701.894 173.654,698.186 C169.935,694.404 168.076,689.847 168.076,684.514 C168.076,681.712 169.154,679.332 171.31,677.373 C173.519,675.425 176.086,674.451 179.014,674.451 C181.618,674.451 183.8,675.462 185.56,677.483 C187.383,679.368 188.295,681.712 188.295,684.514 C188.295,687.045 187.383,689.222 185.56,691.045 C183.738,692.868 181.555,693.779 179.014,693.779 C177.972,693.779 176.967,693.587 175.998,693.201 C178.863,697.431 182.67,699.545 187.42,699.545 C191.909,699.545 195.586,697.722 198.451,694.076 C201.451,690.306 203.081,685.91 203.342,680.889 C203.467,677.764 203.529,675.977 203.529,675.529 C203.529,671.884 203.399,668.889 203.139,666.545 C199.889,667.066 196.993,667.326 194.451,667.326 C185.399,667.326 177.685,663.743 171.31,656.576 C165.06,649.347 161.935,640.753 161.935,630.795 C161.935,628.712 162.128,626.597 162.514,624.451 C162.909,622.691 163.399,620.769 163.982,618.686 C164.305,617.509 165.185,615.618 166.623,613.014 C167.144,612.233 167.73,611.256 168.381,610.084 C169.032,608.912 169.488,608.134 169.748,607.748 C170.394,606.446 171.659,604.686 173.545,602.467 C174.066,601.884 174.605,601.235 175.162,600.522 C175.719,599.808 176.193,599.222 176.584,598.764 C176.974,598.306 177.266,597.946 177.459,597.686 C177.652,597.425 179.118,595.701 181.857,592.514 C182.503,591.858 183.136,591.157 183.756,590.412 C184.376,589.667 184.881,589.082 185.271,588.654 C185.662,588.227 185.956,587.92 186.154,587.733 C183.81,579.983 182.342,573.795 181.748,569.17 C181.3,565.462 181.076,560.384 181.076,553.936 C181.076,548.269 182.378,542.962 184.982,538.014 C187.514,532.878 191.06,528.681 195.623,525.42 C195.883,525.222 196.206,525.123 196.592,525.123 C197.05,525.123 197.378,525.222 197.576,525.42 C201.086,529.649 204.113,535.149 206.654,541.92 C209.258,548.691 210.56,554.847 210.56,560.389 C210.56,566.639 209.066,572.498 206.076,577.967 C202.691,583.759 198.326,589.748 192.982,595.936 C194.347,600.227 196.17,606.962 198.451,616.139 M206.748,661.561 C210.133,660.321 212.774,658.207 214.67,655.217 C216.753,652.352 217.795,649.128 217.795,645.545 C217.795,640.92 216.232,636.816 213.107,633.233 C209.909,629.524 205.836,627.441 200.889,626.983 C203.691,640.722 205.644,652.248 206.748,661.561 M168.967,638.998 C168.967,645.446 171.571,651.113 176.779,655.998 C182.113,660.748 188.102,663.123 194.748,663.123 C197.477,663.123 200.144,662.925 202.748,662.529 C201.706,652.634 199.654,640.785 196.592,626.983 C192.883,627.378 189.925,628.681 187.717,630.889 C185.56,633.17 184.482,635.743 184.482,638.608 C184.482,643.556 187.123,647.561 192.404,650.623 C192.852,651.082 193.076,651.571 193.076,652.092 C193.076,652.613 192.852,653.097 192.404,653.545 C192.008,654.003 191.519,654.233 190.935,654.233 C190.873,654.233 190.581,654.17 190.06,654.045 C186.342,652.024 183.477,649.42 181.467,646.233 C179.571,642.837 178.623,639.415 178.623,635.967 C178.623,631.477 180.024,627.41 182.826,623.764 C185.753,620.118 189.56,617.774 194.248,616.733 C192.425,609.441 190.93,603.743 189.764,599.639 C188.722,600.816 187.469,602.233 186.006,603.889 C184.542,605.545 183.68,606.54 183.42,606.873 C181.076,609.925 179.284,612.3 178.045,613.998 C175.826,617.061 174.196,619.696 173.154,621.904 C172.05,624.384 171.076,627.087 170.232,630.014 C169.389,632.816 168.967,635.811 168.967,638.998 M201.576,539.686 C196.691,542.092 192.852,545.54 190.06,550.029 C187.196,554.654 185.764,559.634 185.764,564.967 C185.764,569.654 186.935,575.972 189.279,583.92 C193.967,578.253 197.482,573.014 199.826,568.201 C202.295,563.118 203.529,557.811 203.529,552.279 C203.529,548.113 202.878,543.915 201.576,539.686"/>
<path class="Clef" d="M198.451,1091.14 C198.451,1091.14 198.649,1091.14 199.045,1091.14 C199.305,1091.08 199.529,1091.05 199.717,1091.05 C207.008,1091.05 212.998,1093.62 217.685,1098.76 C222.373,1103.84 224.717,1109.76 224.717,1116.53 C224.717,1124.94 221.238,1131.77 214.279,1137.05 C212.456,1138.48 210.076,1139.65 207.139,1140.56 C207.472,1144.79 207.639,1148.21 207.639,1150.81 C207.639,1151.33 207.571,1153.22 207.435,1156.48 C207.175,1162.53 205.092,1167.77 201.185,1172.2 C197.415,1176.57 192.727,1178.75 187.123,1178.75 C181.852,1178.75 177.363,1176.89 173.654,1173.19 C169.935,1169.4 168.076,1164.85 168.076,1159.51 C168.076,1156.71 169.154,1154.33 171.31,1152.37 C173.519,1150.43 176.086,1149.45 179.014,1149.45 C181.618,1149.45 183.8,1150.46 185.56,1152.48 C187.383,1154.37 188.295,1156.71 188.295,1159.51 C188.295,1162.05 187.383,1164.22 185.56,1166.05 C183.738,1167.87 181.555,1168.78 179.014,1168.78 C177.972,1168.78 176.967,1168.59 175.998,1168.2 C178.863,1172.43 182.67,1174.55 187.42,1174.55 C191.909,1174.55 195.586,1172.72 198.451,1169.08 C201.451,1165.31 203.081,1160.91 203.342,1155.89 C203.467,1152.76 203.529,1150.98 203.529,1150.53 C203.529,1146.88 203.399,1143.89 203.139,1141.55 C199.889,1142.07 196.993,1142.33 194.451,1142.33 C185.399,1142.33 177.685,1138.74 171.31,1131.58 C165.06,1124.35 161.935,1115.75 161.935,1105.8 C161.935,1103.71 162.128,1101.6 162.514,1099.45 C162.909,1097.69 163.399,1095.77 163.982,1093.69 C164.305,1092.51 165.185,1090.62 166.623,1088.01 C167.144,1087.23 167.73,1086.26 168.381,1085.08 C169.032,1083.91 169.488,1083.13 169.748,1082.75 C170.394,1081.45 171.659,1079.69 173.545,1077.47 C174.066,1076.88 174.605,1076.24 175.162,1075.52 C175.719,1074.81 176.193,1074.22 176.584,1073.76 C176.974,1073.31 177.266,1072.95 177.459,1072.69 C177.652,1072.43 179.118,1070.7 181.857,1067.51 C182.503,1066.86 183.136,1066.16 183.756,1065.41 C184.376,1064.67 184.881,1064.08 185.271,1063.65 C185.662,1063.23 185.956,1062.92 186.154,1062.73 C183.81,1054.98 182.342,1048.8 181.748,1044.17 C181.3,1040.46 181.076,1035.38 181.076,1028.94 C181.076,1023.27 182.378,1017.96 184.982,1013.01 C187.514,1007.88 191.06,1003.68 195.623,1000.42 C195.883,1000.22 196.206,1000.12 196.592,1000.12 C197.05,1000.12 197.378,1000.22 197.576,1000.42 C201.086,1004.65 204.113,1010.15 206.654,1016.92 C209.258,1023.69 210.56,1029.85 210.56,1035.39 C210.56,1041.64 209.066,1047.5 206.076,1052.97 C202.691,1058.76 198.326,1064.75 192.982,1070.94 C194.347,1075.23 196.17,1081.96 198.451,1091.14 M206.748,1136.56 C210.133,1135.32 212.774,1133.21 214.67,1130.22 C216.753,1127.35 217.795,1124.13 217.795,1120.55 C217.795,1115.92 216.232,1111.82 213.107,1108.23 C209.909,1104.52 205.836,1102.44 200.889,1101.98 C203.691,1115.72 205.644,1127.25 206.748,1136.56 M168.967,1114 C168.967,1120.45 171.571,1126.11 176.779,1131 C182.113,1135.75 188.102,1138.12 194.748,1138.12 C197.477,1138.12 200.144,1137.93 202.748,1137.53 C201.706,1127.63 199.654,1115.78 196.592,1101.98 C192.883,1102.38 189.925,1103.68 187.717,1105.89 C185.56,1108.17 184.482,1110.74 184.482,1113.61 C184.482,1118.56 187.123,1122.56 192.404,1125.62 C192.852,1126.08 193.076,1126.57 193.076,1127.09 C193.076,1127.61 192.852,1128.1 192.404,1128.55 C192.008,1129 191.519,1129.23 190.935,1129.23 C190.873,1129.23 190.581,1129.17 190.06,1129.05 C186.342,1127.02 183.477,1124.42 181.467,1121.23 C179.571,1117.84 178.623,1114.42 178.623,1110.97 C178.623,1106.48 180.024,1102.41 182.826,1098.76 C185.753,1095.12 189.56,1092.77 194.248,1091.73 C192.425,1084.44 190.93,1078.74 189.764,1074.64 C188.722,1075.82 187.469,1077.23 186.006,1078.89 C184.542,1080.55 183.68,1081.54 183.42,1081.87 C181.076,1084.93 179.284,1087.3 178.045,1089 C175.826,1092.06 174.196,1094.7 173.154,1096.9 C172.05,1099.38 171.076,1102.09 170.232,1105.01 C169.389,1107.82 168.967,1110.81 168.967,1114 M201.576,1014.69 C196.691,1017.09 192.852,1020.54 190.06,1025.03 C187.196,1029.65 185.764,1034.63 185.764,1039.97 C185.764,1044.65 186.935,1050.97 189.279,1058.92 C193.967,1053.25 197.482,1048.01 199.826,1043.2 C202.295,1038.12 203.529,1032.81 203.529,1027.28 C203.529,1023.11 202.878,1018.92 201.576,1014.69"/>
<path class="KeySig" d="M296.248,635.389 C296.248,636.628 295.631,637.248 294.396,637.248 C293.162,637.248 292.545,636.628 292.545,635.389 L292.545,620.936 L284.248,624.061 L284.248,639.873 C284.248,641.113 283.628,641.733 282.389,641.733 C281.149,641.733 280.529,641.113 280.529,639.873 L280.529,625.326 L277.404,626.498 C277.342,626.561 277.081,626.592 276.623,626.592 C276.102,626.592 275.646,626.397 275.256,626.006 C274.865,625.615 274.67,625.16 274.67,624.639 L274.67,618.592 C274.67,617.613 275.092,616.993 275.935,616.733 L280.529,615.17 L280.529,599.154 L277.404,600.233 C277.342,600.295 277.081,600.326 276.623,600.326 C276.102,600.326 275.646,600.131 275.256,599.74 C274.865,599.35 274.67,598.894 274.67,598.373 L274.67,592.311 C274.67,591.404 275.092,590.821 275.935,590.561 L280.529,588.795 L280.529,573.076 C280.529,571.837 281.149,571.217 282.389,571.217 C283.628,571.217 284.248,571.837 284.248,573.076 L284.248,587.529 L292.545,584.404 L292.545,568.592 C292.545,567.352 293.162,566.733 294.396,566.733 C295.631,566.733 296.248,567.352 296.248,568.592 L296.248,583.139 L299.482,581.967 C299.545,581.904 299.769,581.873 300.154,581.873 C300.613,581.873 301.102,582.066 301.623,582.451 C302.019,582.847 302.217,583.305 302.217,583.826 L302.217,589.873 C302.217,590.79 301.758,591.41 300.842,591.733 L296.248,593.295 L296.248,609.311 L299.482,608.233 C299.545,608.17 299.769,608.139 300.154,608.139 C300.613,608.139 301.102,608.337 301.623,608.733 C302.019,609.118 302.217,609.571 302.217,610.092 L302.217,616.154 C302.217,616.998 301.758,617.582 300.842,617.904 L296.248,619.67 L296.248,635.389 M292.545,594.764 L284.248,597.686 L284.248,613.701 L292.545,610.779 L292.545,594.764 "/>
<path class="KeySig" d="M271.248,597.889 C271.248,599.128 270.631,599.748 269.396,599.748 C268.162,599.748 267.545,599.128 267.545,597.889 L267.545,583.436 L259.248,586.561 L259.248,602.373 C259.248,603.613 258.628,604.233 257.389,604.233 C256.149,604.233 255.529,603.613 255.529,602.373 L255.529,587.826 L252.404,588.998 C252.342,589.061 252.081,589.092 251.623,589.092 C251.102,589.092 250.646,588.897 250.256,588.506 C249.865,588.115 249.67,587.66 249.67,587.139 L249.67,581.092 C249.67,580.113 250.092,579.493 250.935,579.233 L255.529,577.67 L255.529,561.654 L252.404,562.733 C252.342,562.795 252.081,562.826 251.623,562.826 C251.102,562.826 250.646,562.631 250.256,562.24 C249.865,561.85 249.67,561.394 249.67,560.873 L249.67,554.811 C249.67,553.904 250.092,553.321 250.935,553.061 L255.529,551.295 L255.529,535.576 C255.529,534.337 256.149,533.717 257.389,533.717 C258.628,533.717 259.248,534.337 259.248,535.576 L259.248,550.029 L267.545,546.904 L267.545,531.092 C267.545,529.852 268.162,529.233 269.396,529.233 C270.631,529.233 271.248,529.852 271.248,531.092 L271.248,545.639 L274.482,544.467 C274.545,544.404 274.769,544.373 275.154,544.373 C275.613,544.373 276.102,544.566 276.623,544.951 C277.019,545.347 277.217,545.805 277.217,546.326 L277.217,552.373 C277.217,553.29 276.758,553.91 275.842,554.233 L271.248,555.795 L271.248,571.811 L274.482,570.733 C274.545,570.67 274.769,570.639 275.154,570.639 C275.613,570.639 276.102,570.837 276.623,571.233 C277.019,571.618 277.217,572.071 277.217,572.592 L277.217,578.654 C277.217,579.498 276.758,580.082 275.842,580.404 L271.248,582.17 L271.248,597.889 M267.545,557.264 L259.248,560.186 L259.248,576.201 L267.545,573.279 L267.545,557.264 "/>
<path class="KeySig" d="M296.248,1110.39 C296.248,1111.63 295.631,1112.25 294.396,1112.25 C293.162,1112.25 292.545,1111.63 292.545,1110.39 L292.545,1095.94 L284.248,1099.06 L284.248,1114.87 C284.248,1116.11 283.628,1116.73 282.389,1116.73 C281.149,1116.73 280.529,1116.11 280.529,1114.87 L280.529,1100.33 L277.404,1101.5 C277.342,1101.56 277.081,1101.59 276.623,1101.59 C276.102,1101.59 275.646,1101.4 275.256,1101.01 C274.865,1100.62 274.67,1100.16 274.67,1099.64 L274.67,1093.59 C274.67,1092.61 275.092,1091.99 275.935,1091.73 L280.529,1090.17 L280.529,1074.15 L277.404,1075.23 C277.342,1075.3 277.081,1075.33 276.623,1075.33 C276.102,1075.33 275.646,1075.13 275.256,1074.74 C274.865,1074.35 274.67,1073.89 274.67,1073.37 L274.67,1067.31 C274.67,1066.4 275.092,1065.82 275.935,1065.56 L280.529,1063.8 L280.529,1048.08 C280.529,1046.84 281.149,1046.22 282.389,1046.22 C283.628,1046.22 284.248,1046.84 284.248,1048.08 L284.248,1062.53 L292.545,1059.4 L292.545,1043.59 C292.545,1042.35 293.162,1041.73 294.396,1041.73 C295.631,1041.73 296.248,1042.35 296.248,1043.59 L296.248,1058.14 L299.482,1056.97 C299.545,1056.9 299.769,1056.87 300.154,1056.87 C300.613,1056.87 301.102,1057.07 301.623,1057.45 C302.019,1057.85 302.217,1058.31 302.217,1058.83 L302.217,1064.87 C302.217,1065.79 301.758,1066.41 300.842,1066.73 L296.248,1068.3 L296.248,1084.31 L299.482,1083.23 C299.545,1083.17 299.769,1083.14 300.154,1083.14 C300.613,1083.14 301.102,1083.34 301.623,1083.73 C302.019,1084.12 302.217,1084.57 302.217,1085.09 L302.217,1091.15 C302.217,1092 301.758,1092.58 300.842,1092.9 L296.248,1094.67 L296.248,1110.39 M292.545,1069.76 L284.248,1072.69 L284.248,1088.7 L292.545,1085.78 L292.545,1069.76 "/>
<path class="KeySig" d="M271.248,1072.89 C271.248,1074.13 270.631,1074.75 269.396,1074.75 C268.162,1074.75 267.545,1074.13 267.545,1072.89 L267.545,1058.44 L259.248,1061.56 L259.248,1077.37 C259.248,1078.61 258.628,1079.23 257.389,1079.23 C256.149,1079.23 255.529,1078.61 255.529,1077.37 L255.529,1062.83 L252.404,1064 C252.342,1064.06 252.081,1064.09 251.623,1064.09 C251.102,1064.09 250.646,1063.9 250.256,1063.51 C249.865,1063.12 249.67,1062.66 249.67,1062.14 L249.67,1056.09 C249.67,1055.11 250.092,1054.49 250.935,1054.23 L255.529,1052.67 L255.529,1036.65 L252.404,1037.73 C252.342,1037.8 252.081,1037.83 251.623,1037.83 C251.102,1037.83 250.646,1037.63 250.256,1037.24 C249.865,1036.85 249.67,1036.39 249.67,1035.87 L249.67,1029.81 C249.67,1028.9 250.092,1028.32 250.935,1028.06 L255.529,1026.3 L255.529,1010.58 C255.529,1009.34 256.149,1008.72 257.389,1008.72 C258.628,1008.72 259.248,1009.34 259.248,1010.58 L259.248,1025.03 L267.545,1021.9 L267.545,1006.09 C267.545,1004.85 268.162,1004.23 269.396,1004.23 C270.631,1004.23 271.248,1004.85 271.248,1006.09 L271.248,1020.64 L274.482,1019.47 C274.545,1019.4 274.769,1019.37 275.154,1019.37 C275.613,1019.37 276.102,1019.57 276.623,1019.95 C277.019,1020.35 277.217,1020.81 277.217,1021.33 L277.217,1027.37 C277.217,1028.29 276.758,1028.91 275.842,1029.23 L271.248,1030.8 L271.248,1046.81 L274.482,1045.73 C274.545,1045.67 274.769,1045.64 275.154,1045.64 C275.613,1045.64 276.102,1045.84 276.623,1046.23 C277.019,1046.62 277.217,1047.07 277.217,1047.59 L277.217,1053.65 C277.217,1054.5 276.758,1055.08 275.842,1055.4 L271.248,1057.17 L271.248,1072.89 M267.545,1032.26 L259.248,1035.19 L259.248,1051.2 L267.545,1048.28 L267.545,1032.26 "/>
<path class="TimeSig" d="M350.006,567.912 C351.954,567.912 353.613,567.686 354.982,567.233 C356.352,566.779 357.23,566.553 357.615,566.553 C358.074,566.553 358.433,566.683 358.693,566.944 C358.891,567.131 359.021,567.355 359.084,567.615 C359.084,567.751 359.016,567.949 358.881,568.209 L330.475,601.225 L347.162,601.225 L347.162,588.131 C347.162,587.287 347.391,586.569 347.85,585.975 C348.631,585.329 349.282,584.938 349.803,584.803 C350.646,584.417 351.688,583.506 352.928,582.069 C353.969,580.902 355.209,578.855 356.646,575.928 C356.834,575.532 357.126,575.334 357.521,575.334 C358.303,575.334 358.756,575.792 358.881,576.709 L358.881,601.225 L366.021,601.225 C366.928,601.225 367.449,601.709 367.584,602.678 C367.584,603.657 367.063,604.147 366.021,604.147 L358.881,604.147 L358.881,604.928 C358.881,607.532 359.532,609.746 360.834,611.569 C362.334,613.391 364.094,614.303 366.115,614.303 C366.896,614.303 367.287,614.694 367.287,615.475 C367.287,616.256 366.896,616.647 366.115,616.647 C364.751,616.647 362.537,616.454 359.475,616.069 C356.673,615.61 354.49,615.381 352.928,615.381 C351.303,615.381 349.12,615.61 346.381,616.069 C343.454,616.454 341.277,616.647 339.85,616.647 C339.068,616.647 338.678,616.256 338.678,615.475 C338.678,614.694 339.068,614.303 339.85,614.303 C341.86,614.303 343.615,613.391 345.115,611.569 C346.48,609.683 347.162,607.47 347.162,604.928 L347.162,604.147 L330.475,604.147 C329.36,604.147 328.579,603.886 328.131,603.365 C327.6,602.98 327.334,602.459 327.334,601.803 C327.334,601.605 327.824,600.923 328.803,599.756 C329.917,598.454 331.089,596.86 332.318,594.975 C333.756,592.756 335.126,590.475 336.428,588.131 C337.855,585.464 338.995,582.402 339.85,578.944 C340.818,575.433 341.303,571.855 341.303,568.209 C341.303,567.167 341.761,566.647 342.678,566.647 C342.876,566.647 343.298,566.746 343.943,566.944 C344.141,567.006 344.55,567.102 345.17,567.233 C345.79,567.363 346.292,567.49 346.678,567.615 C347.855,567.813 348.964,567.912 350.006,567.912"/>
<path class="TimeSig" d="M350.006,618.084 C351.954,618.084 353.613,617.858 354.982,617.404 C356.352,616.951 357.23,616.725 357.615,616.725 C358.074,616.725 358.433,616.855 358.693,617.115 C358.891,617.303 359.021,617.527 359.084,617.787 C359.084,617.923 359.016,618.121 358.881,618.381 L330.475,651.397 L347.162,651.397 L347.162,638.303 C347.162,637.459 347.391,636.74 347.85,636.147 C348.631,635.501 349.282,635.11 349.803,634.975 C350.646,634.589 351.688,633.678 352.928,632.24 C353.969,631.074 355.209,629.027 356.646,626.1 C356.834,625.704 357.126,625.506 357.521,625.506 C358.303,625.506 358.756,625.964 358.881,626.881 L358.881,651.397 L366.021,651.397 C366.928,651.397 367.449,651.881 367.584,652.85 C367.584,653.829 367.063,654.319 366.021,654.319 L358.881,654.319 L358.881,655.1 C358.881,657.704 359.532,659.917 360.834,661.74 C362.334,663.563 364.094,664.475 366.115,664.475 C366.896,664.475 367.287,664.865 367.287,665.647 C367.287,666.428 366.896,666.819 366.115,666.819 C364.751,666.819 362.537,666.626 359.475,666.24 C356.673,665.782 354.49,665.553 352.928,665.553 C351.303,665.553 349.12,665.782 346.381,666.24 C343.454,666.626 341.277,666.819 339.85,666.819 C339.068,666.819 338.678,666.428 338.678,665.647 C338.678,664.865 339.068,664.475 339.85,664.475 C341.86,664.475 343.615,663.563 345.115,661.74 C346.48,659.855 347.162,657.641 347.162,655.1 L347.162,654.319 L330.475,654.319 C329.36,654.319 328.579,654.058 328.131,653.537 C327.6,653.152 327.334,652.631 327.334,651.975 C327.334,651.777 327.824,651.095 328.803,649.928 C329.917,648.626 331.089,647.032 332.318,645.147 C333.756,642.928 335.126,640.647 336.428,638.303 C337.855,635.636 338.995,632.574 339.85,629.115 C340.818,625.605 341.303,622.027 341.303,618.381 C341.303,617.339 341.761,616.819 342.678,616.819 C342.876,616.819 343.298,616.917 343.943,617.115 C344.141,617.178 344.55,617.274 345.17,617.404 C345.79,617.535 346.292,617.662 346.678,617.787 C347.855,617.985 348.964,618.084 350.006,618.084"/>
<path class="Breath" d="M1328.49,562.623 C1328.49,559.957 1327.94,557.649 1326.82,555.701 C1325.78,553.483 1325.26,552.243 1325.26,551.983 C1325.26,551.003 1325.62,550.092 1326.34,549.248 C1327.06,548.529 1327.94,548.17 1328.98,548.17 C1330.8,548.17 1332.23,549.279 1333.28,551.498 C1334.25,553.707 1334.74,555.889 1334.74,558.045 C1334.74,563.378 1331.84,570.212 1326.04,578.545 C1325.78,579.003 1325.33,579.233 1324.68,579.233 C1323.7,579.233 1323.21,578.712 1323.21,577.67 C1323.21,577.535 1323.67,576.722 1324.59,575.233 C1325.43,573.93 1326.31,572.108 1327.21,569.764 C1328.07,567.483 1328.49,565.102 1328.49,562.623"/>
<path class="Breath" d="M2200.23,562.623 C2200.23,559.957 2199.68,557.649 2198.56,555.701 C2197.52,553.483 2197,552.243 2197,551.983 C2197,551.003 2197.36,550.092 2198.08,549.248 C2198.8,548.529 2199.68,548.17 2200.72,548.17 C2202.54,548.17 2203.97,549.279 2205.02,551.498 C2205.99,553.707 2206.48,555.889 2206.48,558.045 C2206.48,563.378 2203.58,570.212 2197.78,578.545 C2197.52,579.003 2197.07,579.233 2196.42,579.233 C2195.44,579.233 2194.95,578.712 2194.95,577.67 C2194.95,577.535 2195.41,576.722 2196.33,575.233 C2197.17,573.93 2198.05,572.108 2198.95,569.764 C2199.81,567.483 2200.23,565.102 2200.23,562.623"/>
<path class="Breath" d="M668.448,1037.62 C668.448,1034.96 667.89,1032.65 666.776,1030.7 C665.734,1028.48 665.213,1027.24 665.213,1026.98 C665.213,1026 665.573,1025.09 666.291,1024.25 C667.01,1023.53 667.89,1023.17 668.932,1023.17 C670.755,1023.17 672.187,1024.28 673.229,1026.5 C674.208,1028.71 674.698,1030.89 674.698,1033.05 C674.698,1038.38 671.797,1045.21 665.995,1053.55 C665.734,1054 665.281,1054.23 664.635,1054.23 C663.656,1054.23 663.166,1053.71 663.166,1052.67 C663.166,1052.53 663.625,1051.72 664.541,1050.23 C665.385,1048.93 666.26,1047.11 667.166,1044.76 C668.021,1042.48 668.448,1040.1 668.448,1037.62"/>
<path class="Breath" d="M1729.16,1037.62 C1729.16,1034.96 1728.6,1032.65 1727.49,1030.7 C1726.45,1028.48 1725.92,1027.24 1725.92,1026.98 C1725.92,1026 1726.28,1025.09 1727,1024.25 C1727.72,1023.53 1728.6,1023.17 1729.64,1023.17 C1731.47,1023.17 1732.9,1024.28 1733.94,1026.5 C1734.92,1028.71 1735.41,1030.89 1735.41,1033.05 C1735.41,1038.38 1732.51,1045.21 1726.71,1053.55 C1726.45,1054 1725.99,1054.23 1725.35,1054.23 C1724.37,1054.23 1723.88,1053.71 1723.88,1052.67 C1723.88,1052.53 1724.34,1051.72 1725.25,1050.23 C1726.1,1048.93 1726.97,1047.11 1727.88,1044.76 C1728.73,1042.48 1729.16,1040.1 1729.16,1037.62"/>
<path class="Dynamic" d="M394.9,753.78 C394.9,753.571 395.062,753.05 395.385,752.217 C396.301,749.696 397.64,747.196 399.4,744.717 C401.723,741.477 404.281,739.858 407.072,739.858 C408.281,739.858 409.223,740.337 409.9,741.295 C410.536,742.17 410.916,743.311 411.041,744.717 C413.156,741.477 415.557,739.858 418.244,739.858 C419.317,739.858 420.275,740.337 421.119,741.295 C421.88,742.379 422.317,743.597 422.432,744.951 C424.473,741.556 426.817,739.858 429.463,739.858 C430.744,739.858 431.973,740.407 433.15,741.506 C434.328,742.605 434.916,744.076 434.916,745.92 C434.916,746.274 434.859,746.712 434.744,747.233 L431.557,760.795 C431.515,760.951 431.494,761.071 431.494,761.155 C431.494,761.675 431.676,761.936 432.041,761.936 C432.676,761.936 433.676,761.415 435.041,760.373 L437.135,758.748 C437.541,758.748 437.744,758.91 437.744,759.233 C437.744,759.472 437.64,759.691 437.432,759.889 C434.598,762.576 432.619,764.316 431.494,765.108 C429.661,766.431 427.9,767.092 426.213,767.092 C425.255,767.092 424.536,766.832 424.057,766.311 C423.536,765.748 423.255,765.087 423.213,764.326 C423.213,764.056 423.255,763.738 423.338,763.373 L426.76,748.498 C426.874,747.894 426.953,747.472 426.994,747.233 C426.994,746.076 426.676,745.498 426.041,745.498 C425.281,745.498 424.499,745.795 423.697,746.389 C423.02,746.91 422.541,747.613 422.26,748.498 L417.275,765.78 C417.078,766.415 416.697,766.733 416.135,766.733 L410.916,766.733 C410.437,766.733 410.197,766.535 410.197,766.139 C410.197,766.014 410.218,765.894 410.26,765.78 L415.182,748.498 C415.38,747.78 415.479,747.3 415.479,747.061 C415.479,746.019 415.078,745.498 414.275,745.498 C413.515,745.498 412.775,745.816 412.057,746.451 C411.296,747.097 410.796,747.78 410.557,748.498 L404.682,765.78 C404.484,766.415 404.083,766.733 403.479,766.733 L398.26,766.733 C397.864,766.733 397.666,766.571 397.666,766.248 C397.666,766.134 397.703,765.977 397.775,765.78 L403.666,748.498 C403.864,747.894 403.963,747.431 403.963,747.108 C403.963,746.035 403.505,745.498 402.588,745.498 C401.307,745.498 400.182,746.358 399.213,748.076 C398.463,749.191 397.645,750.988 396.76,753.467 C396.562,754.03 396.14,754.311 395.494,754.311 C395.098,754.196 394.9,754.019 394.9,753.78 M457.197,741.358 L452.4,756.826 C450.598,762.587 447.817,767.967 444.057,772.967 C440.098,778.207 436.062,780.826 431.947,780.826 C429.781,780.826 427.877,780.267 426.236,779.147 C424.596,778.027 423.775,776.571 423.775,774.78 C423.775,772.738 424.218,771.014 425.104,769.608 C426.02,768.17 427.218,767.451 428.697,767.451 C429.864,767.451 430.835,767.871 431.611,768.709 C432.387,769.548 432.775,770.509 432.775,771.592 C432.775,772.634 432.218,773.535 431.104,774.295 C429.864,775.129 429.244,775.967 429.244,776.811 C429.244,777.457 430.104,777.78 431.822,777.78 C433.624,777.78 435.005,777.035 435.963,775.545 C437.005,773.951 437.843,771.675 438.479,768.717 C438.635,767.915 438.755,767.373 438.838,767.092 L445.26,741.358 L440.275,741.358 C439.838,741.358 439.499,741.196 439.26,740.873 C439.02,740.477 438.9,740.097 438.9,739.733 C438.9,739.254 439.02,738.894 439.26,738.655 C439.583,738.332 439.921,738.17 440.275,738.17 L446.166,738.17 C447.718,733.451 450.395,729.233 454.197,725.514 C457.916,721.879 461.916,720.061 466.197,720.061 C468.395,720.061 470.296,720.639 471.9,721.795 C473.505,722.951 474.322,724.389 474.354,726.108 C474.354,728.035 473.937,729.738 473.104,731.217 C472.104,732.655 470.9,733.373 469.494,733.373 C468.338,733.373 467.359,732.964 466.557,732.147 C465.755,731.329 465.354,730.379 465.354,729.295 C465.354,728.337 465.945,727.488 467.127,726.748 C468.309,726.009 468.9,725.118 468.9,724.076 C468.9,723.358 467.999,722.998 466.197,722.998 C465.239,722.998 464.26,723.337 463.26,724.014 C462.624,724.451 461.906,725.373 461.104,726.78 C460.583,727.655 460.14,728.733 459.775,730.014 C459.703,730.295 459.426,731.733 458.947,734.326 C458.666,735.847 458.364,737.129 458.041,738.17 L463.432,738.17 C463.88,738.17 464.262,738.321 464.58,738.623 C464.898,738.925 465.057,739.295 465.057,739.733 C465.057,740.17 464.898,740.55 464.58,740.873 C464.262,741.196 463.88,741.358 463.432,741.358 L457.197,741.358 "/>
<path class="Beam" fill-rule="evenodd" d="M669.468,660.483 L732.79,660.483 L732.79,672.983 L669.468,672.983 L669.468,660.483 "/>
<path class="Beam" fill-rule="evenodd" d="M1136.62,578.422 L1199.94,591.599 L1199.94,604.366 L1136.62,591.19 L1136.62,578.422 "/>
<path class="Beam" fill-rule="evenodd" d="M1569.44,660.483 L1635.95,660.483 L1635.95,672.983 L1569.44,672.983 L1569.44,660.483 "/>
<path class="Beam" fill-rule="evenodd" d="M1898.4,635.452 L1964.91,642.023 L1964.91,654.584 L1898.4,648.013 L1898.4,635.452 "/>
<path class="Beam" fill-rule="evenodd" d="M2422.98,660.483 L2486.3,660.483 L2486.3,672.983 L2422.98,672.983 L2422.98,660.483 "/>
<path class="Beam" fill-rule="evenodd" d="M374.209,1085.46 L457.725,1091.97 L457.725,1104.5 L374.209,1098 L374.209,1085.46 "/>
<path class="Beam" fill-rule="evenodd" d="M974.018,1166.4 L1052.49,1140.32 L1052.49,1153.49 L974.018,1179.57 L974.018,1166.4 "/>
<path class="Beam" fill-rule="evenodd" d="M1365.15,1110.46 L1443.62,1116.98 L1443.62,1129.52 L1365.15,1123 L1365.15,1110.46 "/>
<path class="Beam" fill-rule="evenodd" d="M2041.65,1166.4 L2120.11,1140.32 L2120.11,1153.49 L2041.65,1179.57 L2041.65,1166.4 "/>
<path class="Beam" fill-rule="evenodd" d="M2432.78,1129.21 L2511.25,1135.73 L2511.25,1148.27 L2432.78,1141.75 L2432.78,1129.21 "/>
<path class="VoltaSegment" d="M966.768,982.452 C966.33,982.452 965.809,982.543 965.205,982.725 C964.601,982.907 963.958,983.126 963.275,983.381 C962.593,983.636 962.2,983.785 962.096,983.827 L962.096,982.389 L975.955,976.405 L976.893,976.405 L976.893,1007.75 C976.893,1009.87 977.257,1011.26 977.986,1011.9 C978.716,1012.54 980.33,1012.88 982.83,1012.92 L982.83,1014.23 L962.205,1014.23 L962.205,1012.92 C964.913,1012.88 966.682,1012.52 967.51,1011.84 C968.338,1011.17 968.752,1009.69 968.752,1007.42 L968.752,986.248 C968.752,983.717 968.091,982.452 966.768,982.452 M993.393,1005.65 C994.674,1005.65 995.773,1006.12 996.69,1007.05 C997.606,1007.99 998.065,1009.09 998.065,1010.38 C998.065,1011.67 997.606,1012.75 996.69,1013.63 C995.773,1014.51 994.653,1014.95 993.33,1014.95 C992.049,1014.95 990.968,1014.5 990.088,1013.6 C989.208,1012.7 988.768,1011.59 988.768,1010.28 C988.768,1009.03 989.226,1007.95 990.143,1007.03 C991.059,1006.11 992.143,1005.65 993.393,1005.65"/>
<polyline class="VoltaSegment" fill="none" stroke="#000000" stroke-width="2.50" stroke-linecap="square" stroke-linejoin="bevel" points="949.018,1014.23 949.018,966.733"/>
<polyline class="VoltaSegment" fill="none" stroke="#000000" stroke-width="2.50" stroke-linecap="square" stroke-linejoin="bevel" points="949.018,966.733 2002.31,966.733"/>
<polyline class="VoltaSegment" fill="none" stroke="#000000" stroke-width="2.50" stroke-linecap="square" stroke-linejoin="bevel" points="2002.31,966.733 2002.31,1014.23"/>
<path class="VoltaSegment" d="M2030.85,987.623 C2033.64,980.144 2037.67,976.405 2042.94,976.405 C2045.91,976.405 2048.35,977.347 2050.26,979.233 C2052.18,981.118 2053.13,983.53 2053.13,986.467 C2053.13,990.498 2051.04,994.493 2046.85,998.452 L2037.94,1006.92 L2046.26,1006.92 C2049.08,1006.92 2050.89,1006.7 2051.69,1006.26 C2052.5,1005.81 2053.3,1004.6 2054.12,1002.62 L2055.43,1002.62 L2052.96,1014.23 L2030.08,1014.23 L2030.08,1012.97 C2036.36,1006.29 2040.52,1001.37 2042.57,998.202 C2044.62,995.035 2045.65,992.186 2045.65,989.655 C2045.65,987.78 2045.04,986.147 2043.83,984.756 C2042.63,983.366 2041.05,982.67 2039.1,982.67 C2036.28,982.67 2034.04,984.321 2032.4,987.623 L2030.85,987.623 M2064.02,1005.65 C2065.3,1005.65 2066.4,1006.12 2067.32,1007.05 C2068.24,1007.99 2068.69,1009.09 2068.69,1010.38 C2068.69,1011.67 2068.24,1012.75 2067.32,1013.63 C2066.4,1014.51 2065.28,1014.95 2063.96,1014.95 C2062.68,1014.95 2061.6,1014.5 2060.72,1013.6 C2059.84,1012.7 2059.4,1011.59 2059.4,1010.28 C2059.4,1009.03 2059.86,1007.95 2060.77,1007.03 C2061.69,1006.11 2062.77,1005.65 2064.02,1005.65"/>
<polyline class="VoltaSegment" fill="none" stroke="#000000" stroke-width="2.50" stroke-linecap="square" stroke-linejoin="bevel" points="2016.65,1014.23 2016.65,966.733"/>
<polyline class="VoltaSegment" fill="none" stroke="#000000" stroke-width="2.50" stroke-linecap="square" stroke-linejoin="bevel" points="2016.65,966.733 2810.97,966.733"/>
<polyline class="VoltaSegment" fill="none" stroke="#000000" stroke-width="2.50" stroke-linecap="square" stroke-linejoin="bevel" points="2810.97,966.733 2810.97,1014.23"/>
</svg>
